<?xml version="1.0" encoding="UTF-8"?>
<svg width="243px" height="158px" viewBox="0 0 243 158" version="1.1" xmlns="http://www.w3.org/2000/svg" xmlns:xlink="http://www.w3.org/1999/xlink">
    <!-- Generator: Sketch 61.2 (89653) - https://sketch.com -->
    <title>Group 8</title>
    <desc>Created with Sketch.</desc>
    <g id="Page-1" stroke="none" stroke-width="1" fill="none" fill-rule="evenodd">
        <g id="People-Copy" transform="translate(-71.000000, -846.000000)">
            <g id="Group-8" transform="translate(193.000000, 917.500000) rotate(-3.000000) translate(-193.000000, -917.500000) translate(71.000000, 837.000000)">
                <text id="Better-Together" transform="translate(111.500000, 80.500000) rotate(-9.000000) translate(-111.500000, -80.500000) " font-family="Rockness" font-size="67.2" font-weight="normal" line-spacing="67.2" fill="#172633">
                    <tspan x="51.5265625" y="77">Better</tspan>
                    <tspan x="28" y="144.2">Together</tspan>
                </text>
                <g id="63" transform="translate(15.000000, 41.500000) rotate(9.000000) translate(-15.000000, -41.500000) translate(3.000000, 25.000000)" fill="#000000">
                    <path d="M21.1620355,25.4904492 L21.6394438,25.4904492 C21.725929,25.6234077 21.816142,25.7620823 21.9071006,25.9024965 C21.9754438,25.8408634 22.0246509,25.7966267 22.0989586,25.7297746 C22.2759053,25.8291829 22.4588166,25.9320705 22.638497,26.0329699 C22.6608639,26.1778575 22.68,26.3021178 22.6998817,26.4318456 C22.8114675,26.3687214 22.8991953,26.3187687 22.9814556,26.2720468 C23.0945325,26.5066504 23.1941893,26.7129225 23.3017988,26.9360941 C23.2719763,26.946035 23.1974201,26.9713841 23.0990059,27.0046859 L23.0990059,27.3148397 C22.7411361,27.4376089 22.4697515,27.7475143 22.0644142,27.6413959 C22.0408047,27.9162598 21.7895503,28.0067214 21.63,28.0422598 C21.2517515,28.1262598 20.934142,28.4244847 20.5782604,28.4314432 C20.1629822,28.4393959 19.847858,28.6677864 19.4862604,28.7709225 C19.0523432,28.8949344 18.6057515,29.0273959 18.1753136,29.1934077 C17.7555621,29.3551947 17.3144379,29.5666859 16.8328047,29.5512776 C16.0713373,29.9928989 15.1866036,30.0433486 14.3662367,30.294603 C13.7272899,30.4901888 13.0828757,30.7339876 12.3942249,30.7844373 C12.1546509,30.8020823 11.9262604,31.0503545 11.676497,30.684035 C11.4948284,31.0165557 11.2811006,31.2002125 10.9242249,31.1882835 C10.673716,31.1800823 10.4105325,31.2394788 10.169716,31.3192539 C9.53921893,31.5272657 8.88213018,31.5936208 8.23771598,31.7260823 C7.64598817,31.8478575 7.03760947,31.8898575 6.45781065,32.0180941 C5.67646154,32.1910646 4.90828402,32.070035 4.13687574,32.1192421 C4.00093491,32.1279403 3.86151479,32.0175971 3.71861538,31.9964728 C3.56378698,31.9736089 3.36223669,32.0504018 3.2556213,31.9765912 C3.11719527,31.8806622 3.01480473,31.9673959 2.90197633,31.945029 C2.73546746,31.9119758 2.57169231,31.8642598 2.37312426,31.8143072 C2.30005917,31.6858219 2.05402367,31.6343782 2.05452071,31.380887 C2.05476923,31.3170172 1.93299408,31.1949935 1.87310059,31.1984728 C1.41930178,31.2245675 1.31417751,30.8510409 1.11784615,30.5359166 C1.04179882,29.922816 1.34027219,29.4931237 1.91510059,29.2279521 C1.99065089,29.1929107 2.07067456,29.1596089 2.15194083,29.1466859 C2.47104142,29.0962361 2.81151479,29.1069225 3.10601183,28.9948397 C3.42983432,28.8718219 3.74595266,28.8815143 4.07126627,28.8730646 C4.3836568,28.8651119 4.75171598,28.9540823 4.99278107,28.81839 C5.26143195,28.6670409 5.59668639,28.9068634 5.78928994,28.6056563 C6.00102959,28.8290764 6.20978698,28.494816 6.42078107,28.6024255 C6.64643787,28.4083308 6.92701775,28.5127095 7.17504142,28.4565438 C7.40492308,28.404603 7.64176331,28.374532 7.8624497,28.3166267 C8.58937278,28.1247687 9.32573964,28.0114432 10.0688166,27.924461 C10.3908994,27.6426385 10.835503,27.9102953 11.1814438,27.6612776 C11.478426,27.4475498 11.8763077,27.4865675 12.2210059,27.4102717 C12.6126746,27.3235379 13.0232308,27.2576799 13.4258343,27.1920705 C13.8018462,27.1306859 14.171645,27.0270527 14.5493964,26.9567214 C15.1063314,26.8530882 15.6371716,26.6117746 16.2132426,26.569029 C16.4557988,26.2829817 16.8380237,26.5297628 17.1275503,26.3118101 C17.370355,26.1286504 17.7299645,26.0973367 18.0244615,26.0501178 C18.743432,25.9350527 19.3788994,25.5846385 20.0777396,25.4325438 C20.2432544,25.3965083 20.4085207,25.3582361 20.6001302,25.3149935 C20.6254793,25.4810054 20.6446154,25.6052657 20.6746864,25.8015971 C20.843929,25.6937391 20.9791243,25.6072539 21.1620355,25.4904492" id="Fill-19"></path>
                    <path d="M9.83346746,17.7836231 C9.79643787,17.8206527 9.7643787,17.8527119 9.73256805,17.8847711 C9.64484024,17.7493273 9.55686391,17.614132 9.44801183,17.4463805 C9.40501775,17.5681557 9.37743195,17.6466882 9.33319527,17.7716941 C9.1343787,17.7473391 8.86547929,17.7925699 8.72506509,17.6787474 C8.4971716,17.494345 8.34805917,17.7585225 8.15023669,17.6884397 C7.97080473,17.6248184 7.71010651,17.7088184 7.57963314,17.6069249 C7.36689941,17.4409131 7.15242604,17.5338598 6.94789349,17.4814219 C6.74733728,17.4302267 6.55746746,17.3362859 6.3479645,17.2550196 C6.23588166,17.2903095 6.10342012,17.332061 5.9292071,17.3867356 C5.86384615,17.2649604 5.79923077,17.1434338 5.6856568,16.9309486 C5.61631953,17.1548657 5.5932071,17.2286764 5.55617751,17.3487119 C4.93462722,16.9913391 4.18956213,17.193635 3.56751479,16.8807474 C3.55185799,16.8096705 3.53794083,16.7482859 3.5016568,16.5860018 C3.44648521,16.7470432 3.42337278,16.8153864 3.3960355,16.8946646 C3.23847337,16.8531616 3.06972781,16.8086764 2.89427219,16.762203 C2.88259172,16.6563332 2.87091124,16.5497178 2.85376331,16.3936468 C2.78914793,16.4403687 2.74963314,16.4689486 2.68998817,16.5121912 C2.61617751,16.4751616 2.53118343,16.432416 2.41114793,16.372274 C2.36492308,16.4766527 2.32515976,16.5663687 2.28688757,16.6528539 C2.13578698,16.5462385 1.98418935,16.4391261 1.80500592,16.312629 C1.79804734,16.2495048 1.78636686,16.1426409 1.77095858,16.0044634 C1.61513609,16.0827474 1.47521893,16.1528302 1.2947929,16.2435403 C1.05745562,15.8993391 0.572094675,15.7397888 0.419751479,15.2770432 C0.482130178,15.208203 0.526118343,15.1597415 0.57035503,15.1112799 C0.440627219,14.9815521 0.380982249,15.0175876 0.243301775,15.3093509 C0.199313609,15.3123332 0.155076923,15.3190432 0.111585799,15.3158125 C0.0936923077,15.3145699 0.0772899408,15.291706 0.0193846154,15.2477178 C0.0616331361,15.1507947 0.10860355,15.0431853 0.160544379,14.9238953 C0.117301775,14.8123095 0.0675976331,14.6840728 -1.38555833e-14,14.5101083 C0.172224852,14.5727356 0.277100592,14.6105107 0.407325444,14.6579782 C0.366319527,14.4964397 0.336,14.3764042 0.284307692,14.1731143 C0.521893491,14.2804752 0.669514793,14.3473273 0.838011834,14.4233746 C0.798994083,14.4713391 0.761964497,14.5165699 0.716982249,14.5717415 C0.833538462,14.6308894 0.951337278,14.6910314 1.09547929,14.7645935 L1.09547929,14.3083095 C1.24931361,14.2300255 1.37978698,14.1636705 1.52020118,14.0920965 C1.84153846,14.2255521 2.16884024,14.3617415 2.50310059,14.5006646 C2.65246154,14.4422622 3.22505325,14.5160728 3.48450888,14.6338717 C3.53023669,14.5923687 3.57745562,14.5493746 3.64828402,14.4852563 C3.7859645,14.5508657 3.93631953,14.6224397 4.0943787,14.6977415 C4.05063905,14.7474456 4.00988166,14.794416 3.96887574,14.8411379 C3.99894675,14.8632563 4.03995266,14.914203 4.06256805,14.9069959 C4.32102959,14.8267237 4.56408284,14.6293983 4.84540828,14.8923332 C4.89759763,14.9410432 5.08026036,14.8513273 5.2020355,14.823493 C5.75971598,14.6962504 6.27166864,14.775777 6.72198817,15.1378717 C6.82711243,15.1092918 6.94267456,15.0513864 7.05674556,15.0536231 C7.19119527,15.0561083 7.40566864,15.178629 7.44493491,15.1316586 C7.64747929,14.8886054 7.75310059,15.1845935 7.90420118,15.1863332 C8.05157396,15.1883214 8.18776331,15.1967711 8.3435858,15.2675995 C8.60726627,15.3878835 8.91915976,15.4132326 9.21440237,15.4505107 C10.2069941,15.5755166 11.1759763,15.7847711 12.1340237,16.084487 C12.8736213,16.3156113 13.6271361,16.5064752 14.3381538,16.8153864 C14.8170533,17.0231498 15.3377041,17.2160018 15.7139645,17.5552326 C16.0539408,17.8611616 16.4565444,18.1322977 16.721716,18.5691971 C16.6844379,18.6275995 16.6394556,18.6984279 16.5875148,18.7801912 C16.6163432,18.8137415 16.6568521,18.8604634 16.703574,18.9141438 C16.5440237,19.0652444 16.3819882,19.2185817 16.1998225,19.3910551 C15.9928047,19.3284279 15.7765917,19.2409486 15.6553136,18.9427237 C15.629716,19.113706 15.6113254,19.2379663 15.5911953,19.3721675 L15.3980947,19.3721675 C15.3640473,19.2836941 15.3344734,19.2059072 15.3041538,19.1263805 C15.2310888,19.1728539 15.1639882,19.2155995 15.0727811,19.2737533 C15.0049349,19.2230551 14.9375858,19.1723569 14.8717278,19.1231498 C14.7683432,19.2188302 14.6587456,19.3209722 14.5456686,19.4255995 C14.3811479,19.2230551 14.2665799,19.041635 14.1127456,18.9039545 C13.9633846,18.7702504 13.6512426,18.8994811 13.5804142,18.555777 C13.6077515,18.5132799 13.6532308,18.4429486 13.7240592,18.3333509 C13.5826509,18.3261438 13.4526746,18.3194338 13.272497,18.3102385 C13.3627101,18.4113864 13.4052071,18.4593509 13.4951716,18.5607474 C13.3236923,18.5518006 13.1815385,18.5841083 13.0851124,18.531919 C12.8569704,18.4084042 12.6231124,18.3427947 12.3740947,18.2751971 C12.1394911,18.2115758 11.9145799,18.1847356 11.6789822,18.159635 C11.4694793,18.1372681 11.2664379,18.057493 11.0569349,18.0333864 C10.8357515,18.0082859 10.6048757,18.0473036 10.3881657,18.0055521 C10.1950651,17.9685225 10.0158817,17.8596705 9.83346746,17.7836231" id="Fill-21"></path>
                    <path d="M5.5985503,0.899498871 L5.5985503,0.329889404 C5.82967456,0.0863391077 6.0965858,-0.032205271 6.49943787,0.00755804265 C6.5369645,0.0701852616 6.60630178,0.185747392 6.68781657,0.322185262 C7.13565089,0.0465757941 7.30613609,0.644765143 7.6577929,0.549830232 C8.16278698,0.884339108 8.53929586,1.35056396 9.05721302,1.64257579 C9.13301183,1.68532136 9.18694083,1.76683615 9.25031361,1.83120301 C9.69591124,2.28276514 10.1929527,2.66871781 10.7123609,3.03354621 C11.0697337,3.28480065 11.3923136,3.58923852 11.7109172,3.89094266 C12.0585976,4.2202326 12.4211893,4.52293082 12.8439231,4.7518184 C12.9199704,4.79307284 12.9726568,4.87682431 13.0372722,4.93994858 C13.2937456,5.19120301 13.5253669,5.47824443 13.8156391,5.68203142 C14.049497,5.84580656 14.2222189,6.06375923 14.4292367,6.24691899 C14.7871065,6.56328585 15.0845858,6.94824443 15.4039349,7.3078539 C15.7252722,7.66970005 16.0563018,8.02458763 16.3545266,8.40482431 C16.478787,8.56362905 16.5292367,8.78033911 16.616716,8.97816159 C16.4169053,9.15312017 16.2486568,9.30074147 15.9892012,9.52838645 C15.7975917,9.63674147 15.7014142,9.27663497 15.4750118,9.19387757 C15.4007041,9.25078881 15.3341006,9.3022326 15.2886213,9.3370255 C15.0217101,9.2818539 14.7707041,9.22991307 14.4058757,9.15436278 C13.6573314,8.54175923 12.7855207,7.89113201 11.9711183,7.16172372 C11.5841716,6.81553437 11.1470237,6.49171189 10.6803018,6.22107284 C10.346787,6.02772372 10.0863373,5.70837461 9.78413609,5.45438645 C8.98340237,4.7818894 8.17894083,4.09149887 7.50221893,3.30045745 C6.86675148,2.55713201 6.08913018,1.92539236 5.5985503,0.899498871" id="Fill-23"></path>
                </g>
                <g id="63-copy" transform="translate(229.000000, 104.500000) scale(-1, -1) rotate(9.000000) translate(-229.000000, -104.500000) translate(217.000000, 88.000000)" fill="#000000">
                    <path d="M21.1620355,25.4904492 L21.6394438,25.4904492 C21.725929,25.6234077 21.816142,25.7620823 21.9071006,25.9024965 C21.9754438,25.8408634 22.0246509,25.7966267 22.0989586,25.7297746 C22.2759053,25.8291829 22.4588166,25.9320705 22.638497,26.0329699 C22.6608639,26.1778575 22.68,26.3021178 22.6998817,26.4318456 C22.8114675,26.3687214 22.8991953,26.3187687 22.9814556,26.2720468 C23.0945325,26.5066504 23.1941893,26.7129225 23.3017988,26.9360941 C23.2719763,26.946035 23.1974201,26.9713841 23.0990059,27.0046859 L23.0990059,27.3148397 C22.7411361,27.4376089 22.4697515,27.7475143 22.0644142,27.6413959 C22.0408047,27.9162598 21.7895503,28.0067214 21.63,28.0422598 C21.2517515,28.1262598 20.934142,28.4244847 20.5782604,28.4314432 C20.1629822,28.4393959 19.847858,28.6677864 19.4862604,28.7709225 C19.0523432,28.8949344 18.6057515,29.0273959 18.1753136,29.1934077 C17.7555621,29.3551947 17.3144379,29.5666859 16.8328047,29.5512776 C16.0713373,29.9928989 15.1866036,30.0433486 14.3662367,30.294603 C13.7272899,30.4901888 13.0828757,30.7339876 12.3942249,30.7844373 C12.1546509,30.8020823 11.9262604,31.0503545 11.676497,30.684035 C11.4948284,31.0165557 11.2811006,31.2002125 10.9242249,31.1882835 C10.673716,31.1800823 10.4105325,31.2394788 10.169716,31.3192539 C9.53921893,31.5272657 8.88213018,31.5936208 8.23771598,31.7260823 C7.64598817,31.8478575 7.03760947,31.8898575 6.45781065,32.0180941 C5.67646154,32.1910646 4.90828402,32.070035 4.13687574,32.1192421 C4.00093491,32.1279403 3.86151479,32.0175971 3.71861538,31.9964728 C3.56378698,31.9736089 3.36223669,32.0504018 3.2556213,31.9765912 C3.11719527,31.8806622 3.01480473,31.9673959 2.90197633,31.945029 C2.73546746,31.9119758 2.57169231,31.8642598 2.37312426,31.8143072 C2.30005917,31.6858219 2.05402367,31.6343782 2.05452071,31.380887 C2.05476923,31.3170172 1.93299408,31.1949935 1.87310059,31.1984728 C1.41930178,31.2245675 1.31417751,30.8510409 1.11784615,30.5359166 C1.04179882,29.922816 1.34027219,29.4931237 1.91510059,29.2279521 C1.99065089,29.1929107 2.07067456,29.1596089 2.15194083,29.1466859 C2.47104142,29.0962361 2.81151479,29.1069225 3.10601183,28.9948397 C3.42983432,28.8718219 3.74595266,28.8815143 4.07126627,28.8730646 C4.3836568,28.8651119 4.75171598,28.9540823 4.99278107,28.81839 C5.26143195,28.6670409 5.59668639,28.9068634 5.78928994,28.6056563 C6.00102959,28.8290764 6.20978698,28.494816 6.42078107,28.6024255 C6.64643787,28.4083308 6.92701775,28.5127095 7.17504142,28.4565438 C7.40492308,28.404603 7.64176331,28.374532 7.8624497,28.3166267 C8.58937278,28.1247687 9.32573964,28.0114432 10.0688166,27.924461 C10.3908994,27.6426385 10.835503,27.9102953 11.1814438,27.6612776 C11.478426,27.4475498 11.8763077,27.4865675 12.2210059,27.4102717 C12.6126746,27.3235379 13.0232308,27.2576799 13.4258343,27.1920705 C13.8018462,27.1306859 14.171645,27.0270527 14.5493964,26.9567214 C15.1063314,26.8530882 15.6371716,26.6117746 16.2132426,26.569029 C16.4557988,26.2829817 16.8380237,26.5297628 17.1275503,26.3118101 C17.370355,26.1286504 17.7299645,26.0973367 18.0244615,26.0501178 C18.743432,25.9350527 19.3788994,25.5846385 20.0777396,25.4325438 C20.2432544,25.3965083 20.4085207,25.3582361 20.6001302,25.3149935 C20.6254793,25.4810054 20.6446154,25.6052657 20.6746864,25.8015971 C20.843929,25.6937391 20.9791243,25.6072539 21.1620355,25.4904492" id="Fill-19"></path>
                    <path d="M9.83346746,17.7836231 C9.79643787,17.8206527 9.7643787,17.8527119 9.73256805,17.8847711 C9.64484024,17.7493273 9.55686391,17.614132 9.44801183,17.4463805 C9.40501775,17.5681557 9.37743195,17.6466882 9.33319527,17.7716941 C9.1343787,17.7473391 8.86547929,17.7925699 8.72506509,17.6787474 C8.4971716,17.494345 8.34805917,17.7585225 8.15023669,17.6884397 C7.97080473,17.6248184 7.71010651,17.7088184 7.57963314,17.6069249 C7.36689941,17.4409131 7.15242604,17.5338598 6.94789349,17.4814219 C6.74733728,17.4302267 6.55746746,17.3362859 6.3479645,17.2550196 C6.23588166,17.2903095 6.10342012,17.332061 5.9292071,17.3867356 C5.86384615,17.2649604 5.79923077,17.1434338 5.6856568,16.9309486 C5.61631953,17.1548657 5.5932071,17.2286764 5.55617751,17.3487119 C4.93462722,16.9913391 4.18956213,17.193635 3.56751479,16.8807474 C3.55185799,16.8096705 3.53794083,16.7482859 3.5016568,16.5860018 C3.44648521,16.7470432 3.42337278,16.8153864 3.3960355,16.8946646 C3.23847337,16.8531616 3.06972781,16.8086764 2.89427219,16.762203 C2.88259172,16.6563332 2.87091124,16.5497178 2.85376331,16.3936468 C2.78914793,16.4403687 2.74963314,16.4689486 2.68998817,16.5121912 C2.61617751,16.4751616 2.53118343,16.432416 2.41114793,16.372274 C2.36492308,16.4766527 2.32515976,16.5663687 2.28688757,16.6528539 C2.13578698,16.5462385 1.98418935,16.4391261 1.80500592,16.312629 C1.79804734,16.2495048 1.78636686,16.1426409 1.77095858,16.0044634 C1.61513609,16.0827474 1.47521893,16.1528302 1.2947929,16.2435403 C1.05745562,15.8993391 0.572094675,15.7397888 0.419751479,15.2770432 C0.482130178,15.208203 0.526118343,15.1597415 0.57035503,15.1112799 C0.440627219,14.9815521 0.380982249,15.0175876 0.243301775,15.3093509 C0.199313609,15.3123332 0.155076923,15.3190432 0.111585799,15.3158125 C0.0936923077,15.3145699 0.0772899408,15.291706 0.0193846154,15.2477178 C0.0616331361,15.1507947 0.10860355,15.0431853 0.160544379,14.9238953 C0.117301775,14.8123095 0.0675976331,14.6840728 -1.38555833e-14,14.5101083 C0.172224852,14.5727356 0.277100592,14.6105107 0.407325444,14.6579782 C0.366319527,14.4964397 0.336,14.3764042 0.284307692,14.1731143 C0.521893491,14.2804752 0.669514793,14.3473273 0.838011834,14.4233746 C0.798994083,14.4713391 0.761964497,14.5165699 0.716982249,14.5717415 C0.833538462,14.6308894 0.951337278,14.6910314 1.09547929,14.7645935 L1.09547929,14.3083095 C1.24931361,14.2300255 1.37978698,14.1636705 1.52020118,14.0920965 C1.84153846,14.2255521 2.16884024,14.3617415 2.50310059,14.5006646 C2.65246154,14.4422622 3.22505325,14.5160728 3.48450888,14.6338717 C3.53023669,14.5923687 3.57745562,14.5493746 3.64828402,14.4852563 C3.7859645,14.5508657 3.93631953,14.6224397 4.0943787,14.6977415 C4.05063905,14.7474456 4.00988166,14.794416 3.96887574,14.8411379 C3.99894675,14.8632563 4.03995266,14.914203 4.06256805,14.9069959 C4.32102959,14.8267237 4.56408284,14.6293983 4.84540828,14.8923332 C4.89759763,14.9410432 5.08026036,14.8513273 5.2020355,14.823493 C5.75971598,14.6962504 6.27166864,14.775777 6.72198817,15.1378717 C6.82711243,15.1092918 6.94267456,15.0513864 7.05674556,15.0536231 C7.19119527,15.0561083 7.40566864,15.178629 7.44493491,15.1316586 C7.64747929,14.8886054 7.75310059,15.1845935 7.90420118,15.1863332 C8.05157396,15.1883214 8.18776331,15.1967711 8.3435858,15.2675995 C8.60726627,15.3878835 8.91915976,15.4132326 9.21440237,15.4505107 C10.2069941,15.5755166 11.1759763,15.7847711 12.1340237,16.084487 C12.8736213,16.3156113 13.6271361,16.5064752 14.3381538,16.8153864 C14.8170533,17.0231498 15.3377041,17.2160018 15.7139645,17.5552326 C16.0539408,17.8611616 16.4565444,18.1322977 16.721716,18.5691971 C16.6844379,18.6275995 16.6394556,18.6984279 16.5875148,18.7801912 C16.6163432,18.8137415 16.6568521,18.8604634 16.703574,18.9141438 C16.5440237,19.0652444 16.3819882,19.2185817 16.1998225,19.3910551 C15.9928047,19.3284279 15.7765917,19.2409486 15.6553136,18.9427237 C15.629716,19.113706 15.6113254,19.2379663 15.5911953,19.3721675 L15.3980947,19.3721675 C15.3640473,19.2836941 15.3344734,19.2059072 15.3041538,19.1263805 C15.2310888,19.1728539 15.1639882,19.2155995 15.0727811,19.2737533 C15.0049349,19.2230551 14.9375858,19.1723569 14.8717278,19.1231498 C14.7683432,19.2188302 14.6587456,19.3209722 14.5456686,19.4255995 C14.3811479,19.2230551 14.2665799,19.041635 14.1127456,18.9039545 C13.9633846,18.7702504 13.6512426,18.8994811 13.5804142,18.555777 C13.6077515,18.5132799 13.6532308,18.4429486 13.7240592,18.3333509 C13.5826509,18.3261438 13.4526746,18.3194338 13.272497,18.3102385 C13.3627101,18.4113864 13.4052071,18.4593509 13.4951716,18.5607474 C13.3236923,18.5518006 13.1815385,18.5841083 13.0851124,18.531919 C12.8569704,18.4084042 12.6231124,18.3427947 12.3740947,18.2751971 C12.1394911,18.2115758 11.9145799,18.1847356 11.6789822,18.159635 C11.4694793,18.1372681 11.2664379,18.057493 11.0569349,18.0333864 C10.8357515,18.0082859 10.6048757,18.0473036 10.3881657,18.0055521 C10.1950651,17.9685225 10.0158817,17.8596705 9.83346746,17.7836231" id="Fill-21"></path>
                    <path d="M5.5985503,0.899498871 L5.5985503,0.329889404 C5.82967456,0.0863391077 6.0965858,-0.032205271 6.49943787,0.00755804265 C6.5369645,0.0701852616 6.60630178,0.185747392 6.68781657,0.322185262 C7.13565089,0.0465757941 7.30613609,0.644765143 7.6577929,0.549830232 C8.16278698,0.884339108 8.53929586,1.35056396 9.05721302,1.64257579 C9.13301183,1.68532136 9.18694083,1.76683615 9.25031361,1.83120301 C9.69591124,2.28276514 10.1929527,2.66871781 10.7123609,3.03354621 C11.0697337,3.28480065 11.3923136,3.58923852 11.7109172,3.89094266 C12.0585976,4.2202326 12.4211893,4.52293082 12.8439231,4.7518184 C12.9199704,4.79307284 12.9726568,4.87682431 13.0372722,4.93994858 C13.2937456,5.19120301 13.5253669,5.47824443 13.8156391,5.68203142 C14.049497,5.84580656 14.2222189,6.06375923 14.4292367,6.24691899 C14.7871065,6.56328585 15.0845858,6.94824443 15.4039349,7.3078539 C15.7252722,7.66970005 16.0563018,8.02458763 16.3545266,8.40482431 C16.478787,8.56362905 16.5292367,8.78033911 16.616716,8.97816159 C16.4169053,9.15312017 16.2486568,9.30074147 15.9892012,9.52838645 C15.7975917,9.63674147 15.7014142,9.27663497 15.4750118,9.19387757 C15.4007041,9.25078881 15.3341006,9.3022326 15.2886213,9.3370255 C15.0217101,9.2818539 14.7707041,9.22991307 14.4058757,9.15436278 C13.6573314,8.54175923 12.7855207,7.89113201 11.9711183,7.16172372 C11.5841716,6.81553437 11.1470237,6.49171189 10.6803018,6.22107284 C10.346787,6.02772372 10.0863373,5.70837461 9.78413609,5.45438645 C8.98340237,4.7818894 8.17894083,4.09149887 7.50221893,3.30045745 C6.86675148,2.55713201 6.08913018,1.92539236 5.5985503,0.899498871" id="Fill-23"></path>
                </g>
            </g>
        </g>
    </g>
</svg>