<svg width="30" height="86" viewBox="0 0 30 86" fill="none" xmlns="http://www.w3.org/2000/svg">
<path d="M23.61 6.12C22.68 8.01 21.03 9 19.2 9.72C18.99 9.84 18.78 10.02 18.69 10.2C18.03 11.7 17.34 13.29 16.68 14.79C16.44 15.39 16.23 15.93 15.99 16.62C16.77 15.63 17.46 14.79 18.18 13.98C19.44 12.51 20.91 11.4 22.92 11.1C24.99 10.74 27 10.92 29.04 11.46C29.07 11.52 29.13 11.52 29.22 11.58C28.74 12.33 28.29 13.11 27.78 13.8C26.73 15.15 25.47 16.26 23.79 16.86C21.39 17.61 18.93 17.79 16.47 17.37C16.23 17.31 16.02 17.28 15.78 17.22C14.55 20.79 13.59 24.3 12.96 27.93C13.41 27.24 13.83 26.46 14.25 25.77C15.33 24 16.62 22.59 18.63 21.9C20.19 21.36 21.75 21.15 23.37 21.15C23.91 21.15 24.42 21.21 25.05 21.21C24.72 21.9 24.51 22.53 24.27 23.13C23.49 24.78 22.53 26.22 20.97 27.18C19.11 28.41 17.01 28.98 14.82 29.22C14.13 29.28 13.38 29.34 12.66 29.4C12.03 33.03 11.67 36.72 11.61 40.47C11.7 40.35 11.73 40.17 11.79 39.99C12.03 39.3 12.3 38.58 12.6 37.83C13.41 35.67 14.82 34.02 16.98 33.03C18.45 32.4 20.01 31.98 21.6 31.74C21.87 31.74 22.14 31.68 22.44 31.62C22.44 31.8 22.44 31.86 22.44 31.98C22.35 32.31 22.29 32.73 22.2 33.15C21.72 35.31 20.85 37.35 18.99 38.76C17.01 40.35 14.76 41.34 12.3 41.88C12.03 41.94 11.79 41.94 11.49 42C11.43 45.81 11.73 49.56 12.39 53.31C12.66 52.08 12.87 50.91 13.14 49.74C13.53 48.09 14.31 46.62 15.6 45.51C17.22 44.16 19.08 43.29 21.09 42.57C21.3 42.57 21.51 42.45 21.87 42.39C21.81 43.47 21.78 44.4 21.66 45.33C21.45 47.04 20.97 48.6 19.86 49.89C18 52.05 15.69 53.7 12.96 54.63C12.87 54.63 12.78 54.69 12.66 54.75C13.35 58.23 14.28 61.62 15.54 64.89C15.6 64.29 15.54 63.72 15.57 63.12C15.6 61.14 15.93 59.28 17.16 57.69C18.18 56.4 19.41 55.35 20.73 54.54C21.45 54.06 22.2 53.67 22.98 53.25C23.07 53.58 23.13 53.88 23.19 54.12C23.61 56.58 23.61 58.98 22.35 61.2C21.3 63.03 19.89 64.56 18.18 65.85C17.58 66.33 16.92 66.72 16.26 67.14C17.49 70.29 18.87 73.35 20.55 76.29C20.58 76.11 20.55 75.99 20.55 75.87C20.46 75.03 20.34 74.16 20.28 73.35C20.13 71.82 20.43 70.35 21.15 69C22.02 67.41 23.19 66.06 24.57 64.89C25.08 64.47 25.59 64.08 26.13 63.6C26.85 65.37 27.3 67.05 27.33 68.82C27.33 69.81 27.27 70.8 26.91 71.76C25.89 74.34 24.33 76.62 22.17 78.51C21.93 78.66 21.96 78.78 22.08 79.02C23.49 81.36 25.02 83.58 26.67 85.77C26.67 85.77 26.4 86.37 24.36 85.08C23.91 84.36 23.43 83.7 22.98 82.95C22.02 81.48 21.12 80.01 20.25 78.51C20.04 78.15 19.86 78.03 19.44 78.15C16.83 78.72 14.16 78.72 11.55 78.03C9.66 77.55 8.19 76.38 6.93 74.97C6.39 74.34 5.91 73.56 5.4 72.93C5.34 72.81 5.34 72.75 5.28 72.63C5.34 72.57 5.4 72.51 5.46 72.51C7.56 71.82 9.69 71.46 11.91 71.64C14.13 71.76 15.9 72.81 17.43 74.34C17.79 74.7 18.09 75.03 18.51 75.33C18.48 75.21 18.42 75.09 18.36 74.97C16.98 72.24 15.75 69.36 14.73 66.42C14.64 66.12 14.49 66.06 14.19 66.06C11.58 66.24 9.06 65.79 6.63 64.74C4.77 63.9 3.48 62.49 2.49 60.81C2.01 60.03 1.68 59.16 1.2 58.23C2.07 58.23 2.85 58.11 3.63 58.11C5.16 58.05 6.66 58.17 8.13 58.59C10.14 59.19 11.55 60.42 12.75 62.04C13.02 62.37 13.26 62.73 13.5 63.09C12.78 59.85 12 56.64 11.25 53.43C10.05 53.13 8.79 52.89 7.56 52.5C5.7 51.87 3.96 50.97 2.58 49.5C1.38 48.21 0.15 45.39 0 43.65C0.03 43.65 0.03 43.65 0.06 43.65C2.67 43.71 5.16 44.19 7.41 45.57C8.76 46.38 9.63 47.73 10.35 49.14C10.53 49.44 10.68 49.74 10.89 50.07C10.59 46.86 10.47 43.68 10.71 40.47C9.09 39.99 7.62 39.36 6.24 38.49C4.29 37.2 2.58 35.67 1.86 33.33C1.47 32.1 1.23 30.81 1.2 29.52C1.17 29.4 1.2 29.28 1.2 28.98C2.37 29.4 3.42 29.67 4.5 30.03C5.94 30.63 7.29 31.38 8.37 32.55C9.33 33.57 9.84 34.8 10.26 36.06C10.44 36.66 10.59 37.23 10.86 37.83C10.89 37.65 10.89 37.59 10.92 37.41C11.13 34.32 11.55 31.26 12.18 28.23C12.24 27.93 12.21 27.69 11.88 27.57C9.45 26.4 7.44 24.72 5.94 22.41C4.89 20.85 4.65 19.08 4.68 17.22C4.71 16.5 4.8 15.87 4.86 15.03C5.79 15.51 6.63 15.87 7.41 16.32C9.06 17.25 10.53 18.42 11.49 20.13C12.24 21.42 12.42 22.89 12.57 24.36C12.6 24.84 12.6 25.29 12.72 25.71C12.75 25.59 12.78 25.47 12.84 25.35C13.59 22.23 14.55 19.14 15.75 16.14C15.87 15.84 15.87 15.66 15.57 15.51C13.5 14.04 11.91 12.18 10.8 9.87C9.9 8.04 9.9 6.18 10.29 4.29C10.41 3.6 10.62 2.94 10.8 2.25L10.83 2.22C12.18 3.03 13.38 3.96 14.43 5.13C16.05 6.84 16.92 8.82 16.71 11.28C16.68 12.18 16.59 13.11 16.5 14.16C16.59 14.04 16.62 13.98 16.65 13.86C17.31 12.51 17.94 11.16 18.6 9.75C18.66 9.57 18.69 9.39 18.66 9.21C18.6 7.98 18.66 6.75 18.96 5.52C19.23 4.62 19.59 3.66 20.28 2.97C21.09 2.1 22.08 1.44 23.07 0.87C23.61 0.51 24.15 0.27 24.72 0C24.81 0 24.87 0.06 24.96 0.06C24.93 0.51 24.84 0.93 24.84 1.38C24.75 3.03 24.36 4.68 23.61 6.12Z" fill="#CDCDCD"/>
</svg>
