<svg width="30" height="86" viewBox="0 0 30 86" fill="none" xmlns="http://www.w3.org/2000/svg">
<path d="M5.60999 6.12C6.53999 8.01 8.18999 9 10.02 9.72C10.23 9.84 10.44 10.02 10.53 10.2C11.22 11.73 11.88 13.32 12.54 14.82C12.78 15.39 12.96 15.93 13.23 16.62C12.45 15.63 11.76 14.79 11.07 13.98C9.80998 12.51 8.30999 11.4 6.29999 11.1C4.25999 10.77 2.21999 10.95 0.209991 11.46C0.149991 11.52 0.12 11.52 0 11.58C0.51 12.33 0.959972 13.11 1.43997 13.8C2.48997 15.15 3.74999 16.26 5.42999 16.86C7.82999 17.61 10.29 17.79 12.75 17.4C12.99 17.31 13.2 17.28 13.44 17.22C14.7 20.79 15.63 24.3 16.29 27.93C15.81 27.24 15.39 26.46 14.97 25.77C13.92 24 12.6 22.59 10.59 21.9C9.06 21.36 7.46997 21.12 5.87997 21.12C5.36997 21.12 4.82998 21.18 4.19998 21.18C4.49998 21.9 4.70998 22.53 4.94998 23.13C5.72998 24.78 6.69 26.22 8.25 27.18C10.11 28.41 12.21 29.01 14.4 29.22C15.09 29.28 15.84 29.34 16.56 29.4C17.19 33.03 17.55 36.72 17.64 40.47C17.52 40.35 17.49 40.17 17.43 39.99C17.19 39.3 16.92 38.58 16.65 37.83C15.81 35.67 14.4 34.02 12.27 33.03C10.8 32.37 9.23999 31.98 7.64999 31.74C7.37999 31.74 7.11 31.68 6.81 31.62C6.81 31.8 6.81 31.86 6.81 31.98C6.87 32.31 6.92999 32.73 7.01999 33.15C7.52999 35.31 8.36998 37.38 10.23 38.79C12.18 40.38 14.46 41.37 16.95 41.91C17.19 41.94 17.43 41.94 17.73 42C17.79 45.81 17.49 49.56 16.83 53.31C16.56 52.08 16.35 50.91 16.11 49.74C15.72 48.09 14.91 46.62 13.62 45.51C12 44.16 10.11 43.29 8.12997 42.57C7.91997 42.57 7.70997 42.45 7.37997 42.39C7.40997 43.47 7.44 44.4 7.56 45.33C7.77 47.04 8.24999 48.6 9.35999 49.89C11.25 52.05 13.53 53.7 16.26 54.63C16.35 54.63 16.44 54.69 16.56 54.75C15.87 58.23 14.94 61.62 13.68 64.89C13.62 64.29 13.68 63.72 13.65 63.12C13.62 61.14 13.29 59.28 12.06 57.69C11.04 56.4 9.83999 55.35 8.45999 54.54C7.73999 54.06 7.01999 53.64 6.20999 53.25C6.11999 53.58 6.09 53.88 6.03 54.12C5.61 56.58 5.60999 58.98 6.87 61.2C7.92 63.03 9.35998 64.56 11.04 65.85C11.67 66.33 12.3 66.72 12.96 67.14C11.73 70.29 10.32 73.35 8.63998 76.26C8.63998 76.08 8.63998 75.96 8.66998 75.84C8.75998 75.03 8.87997 74.13 8.96997 73.32C9.08997 71.79 8.78998 70.32 8.06998 68.97C7.19998 67.41 6.02999 66.06 4.64999 64.89C4.13999 64.5 3.63 64.08 3.09 63.6C2.34 65.37 1.91999 67.08 1.85999 68.82C1.85999 69.81 1.92 70.8 2.31 71.76C3.33 74.34 4.88999 76.62 7.04999 78.51C7.28999 78.69 7.25998 78.81 7.13998 79.05C5.72998 81.36 4.19999 83.58 2.54999 85.77C2.54999 85.77 2.84999 86.37 4.85999 85.08C5.33999 84.39 5.81999 83.73 6.26999 82.98C7.19999 81.51 8.13 80.04 9 78.54C9.18 78.15 9.36 78.03 9.78 78.15C12.42 78.75 15.09 78.75 17.7 78.03C19.56 77.55 21.06 76.38 22.29 74.97C22.83 74.34 23.31 73.56 23.82 72.93C23.85 72.81 23.91 72.75 23.97 72.63C23.88 72.57 23.82 72.51 23.79 72.51C21.69 71.82 19.53 71.46 17.34 71.64C15.15 71.76 13.38 72.81 11.82 74.34C11.46 74.7 11.13 75.03 10.71 75.33C10.74 75.21 10.8 75.09 10.86 74.97C12.24 72.21 13.47 69.33 14.52 66.42C14.61 66.12 14.73 66.06 15.03 66.06C17.64 66.24 20.19 65.76 22.59 64.71C24.45 63.9 25.74 62.49 26.73 60.78C27.21 60.03 27.57 59.16 28.02 58.23C27.15 58.23 26.37 58.11 25.59 58.11C24.09 58.05 22.59 58.17 21.12 58.56C19.11 59.16 17.7 60.39 16.5 62.01C16.2 62.37 15.96 62.73 15.72 63.09C16.47 59.88 17.22 56.64 17.97 53.43C19.17 53.13 20.46 52.89 21.66 52.5C23.52 51.87 25.26 50.97 26.64 49.5C27.84 48.21 29.07 45.39 29.22 43.65C29.19 43.65 29.19 43.65 29.16 43.65C26.58 43.68 24.09 44.16 21.84 45.57C20.46 46.38 19.59 47.73 18.87 49.14C18.69 49.44 18.54 49.74 18.33 50.07C18.63 46.86 18.75 43.68 18.51 40.47C20.13 39.99 21.6 39.36 22.95 38.49C24.93 37.2 26.64 35.67 27.36 33.33C27.75 32.1 27.99 30.81 28.02 29.52C28.05 29.4 28.02 29.28 28.02 28.98C26.88 29.4 25.77 29.7 24.72 30.03C23.28 30.63 21.96 31.38 20.85 32.55C19.89 33.57 19.38 34.8 18.96 36.06C18.78 36.66 18.63 37.26 18.39 37.83C18.39 37.65 18.36 37.59 18.36 37.41C18.09 34.32 17.67 31.26 17.04 28.23C16.98 27.93 17.01 27.69 17.37 27.57C19.8 26.4 21.78 24.69 23.28 22.41C24.33 20.82 24.57 19.08 24.54 17.19C24.54 16.5 24.45 15.84 24.36 15.03C23.46 15.51 22.59 15.87 21.84 16.32C20.16 17.28 18.69 18.45 17.73 20.13C16.98 21.42 16.8 22.89 16.68 24.36C16.62 24.81 16.62 25.29 16.5 25.71C16.47 25.59 16.44 25.47 16.41 25.35C15.63 22.26 14.7 19.14 13.5 16.14C13.38 15.84 13.38 15.66 13.65 15.51C15.72 14.04 17.28 12.18 18.42 9.87C19.32 8.04 19.32 6.18 18.93 4.29C18.81 3.6 18.63 2.97 18.45 2.28L18.39 2.22C17.07 3.03 15.84 3.96 14.79 5.13C13.17 6.84 12.3 8.82 12.48 11.28C12.54 12.15 12.63 13.11 12.69 14.16C12.63 14.04 12.6 13.98 12.57 13.86C11.91 12.51 11.25 11.16 10.59 9.78C10.53 9.6 10.53 9.42 10.53 9.24C10.59 8.01 10.56 6.78 10.23 5.55C9.98998 4.62 9.62997 3.66 8.93997 2.97C8.12997 2.1 7.16999 1.44 6.14999 0.87C5.60999 0.51 5.07 0.27 4.5 0C4.41 0 4.34998 0.06 4.25998 0.06C4.28998 0.51 4.37997 0.93 4.40997 1.38C4.46997 3.03 4.85999 4.68 5.60999 6.12Z" fill="#CDCDCD"/>
</svg>
