<?xml version="1.0" encoding="UTF-8"?>
<svg width="23px" height="23px" viewBox="0 0 23 23" version="1.1" xmlns="http://www.w3.org/2000/svg" xmlns:xlink="http://www.w3.org/1999/xlink">
    <!-- Generator: Sketch 62 (91390) - https://sketch.com -->
    <title>Fill 2 Copy</title>
    <desc>Created with Sketch.</desc>
    <g id="Page-1" stroke="none" stroke-width="1" fill="none" fill-rule="evenodd">
        <g id="Artboard" transform="translate(-60.000000, -38.000000)" fill="#FF3333">
            <g id="Group-7" transform="translate(60.000000, 38.000000)">
                <path d="M21.2744192,11.4984713 L21.2744192,11.4963054 C21.2744192,9.98456385 21.3372361,8.6359806 22.4578311,6.25502368 C22.784912,5.56557133 23.5004466,4.55341195 22.4455565,3.38098198 C21.5906696,2.52620545 20.6123151,2.6691495 19.9559872,3.04455811 C20.3328883,2.38903692 20.4751288,1.41080871 19.6195198,0.554588302 C18.4447724,-0.500165508 17.4346484,0.215276673 16.7422188,0.53870563 C14.3660086,1.66493146 13.0150851,1.72701827 11.498816,1.72701827 L11.497372,1.72701827 C9.98326903,1.72701827 8.63378958,1.66493146 6.25613531,0.53870563 C5.56659391,0.215276673 4.55358177,-0.500165508 3.38172241,0.554588302 C2.52755751,1.41080871 2.66835393,2.38903692 3.04308899,3.04455811 C2.38603907,2.66698368 1.41057265,2.52620545 0.554241653,3.38098198 C-0.500648385,4.55341195 0.215608232,5.56557133 0.541967094,6.25502368 C1.66256212,8.6359806 1.72321289,9.98239803 1.72321289,11.4984713 C1.72321289,13.0131006 1.66256212,14.3652936 0.541967094,16.7419189 C0.215608232,17.4328151 -0.500648385,18.4449745 0.554241653,19.6210141 C1.41057265,20.472181 2.38603907,20.328515 3.04308899,19.9559941 C2.66690986,20.6115153 2.52466938,21.5875777 3.38172241,22.445242 C4.55358177,23.5007177 5.56659391,22.7852756 6.25613531,22.4553491 C8.63378958,21.3356208 9.98182497,21.272812 11.498816,21.272812 C13.0150851,21.272812 14.3660086,21.3356208 16.7407748,22.4553491 C17.4346484,22.7852756 18.4447724,23.5007177 19.6195198,22.445242 C20.4736847,21.5875777 20.3328883,20.6115153 19.9545431,19.9559941 C20.6123151,20.3306808 21.5906696,20.4743468 22.4455565,19.6210141 C23.5004466,18.4449745 22.784912,17.4328151 22.4578311,16.7426408 C21.3372361,14.3645716 21.2744192,13.0138226 21.2744192,11.4984713 L21.2744192,11.4984713 Z M18.6743788,18.6904339 L13.1038951,14.0165967 C13.1038951,14.0165967 12.3522589,13.2823841 11.498816,13.2823841 C10.6489833,13.2823841 9.89301492,14.0165967 9.89301492,14.0165967 L4.32541938,18.6904339 L4.30448043,18.6723854 L8.98180943,13.104065 C8.98180943,13.104065 9.71539483,12.35036 9.71539483,11.4984713 C9.71539483,10.6473044 8.98180943,9.89576527 8.98180943,9.89576527 L4.30448043,4.32311321 L4.32541938,4.30434278 L9.89445899,8.97962387 C9.89445899,8.97962387 10.6489833,9.71528036 11.498816,9.71528036 C12.3522589,9.71528036 13.1038951,8.97962387 13.1038951,8.97962387 L18.6714907,4.3065086 L18.6895415,4.32455709 L14.0194328,9.89576527 C14.0194328,9.89576527 13.2829593,10.6473044 13.2829593,11.4984713 C13.2829593,12.35036 14.0194328,13.104065 14.0194328,13.104065 L18.6895415,18.6723854 L18.6743788,18.6904339 L18.6743788,18.6904339 Z" id="Fill-2-Copy"></path>
            </g>
        </g>
    </g>
</svg>