<?xml version="1.0" encoding="UTF-8"?>
<svg width="70px" height="98px" viewBox="0 0 70 98" version="1.1" xmlns="http://www.w3.org/2000/svg" xmlns:xlink="http://www.w3.org/1999/xlink">
    <!-- Generator: Sketch 62 (91390) - https://sketch.com -->
    <title>44</title>
    <desc>Created with Sketch.</desc>
    <g id="Ver-1" stroke="none" stroke-width="1" fill="none" fill-rule="evenodd">
        <g id="Our-Work" transform="translate(-605.000000, -7150.000000)" fill="#000000">
            <g id="Group-8" transform="translate(605.000000, 7150.000000)">
                <g id="44">
                    <path d="M2.53603399,30.7579185 C2.49383935,30.5999833 2.41322166,30.5148868 2.26447966,30.5436452 C2.00848312,30.5929115 1.86516278,30.7503753 1.85054787,31.0148579 C1.84253325,31.1598283 1.92786543,31.1878795 2.04855624,31.1664286 C2.29653816,31.1223482 2.41157159,30.9288186 2.53603399,30.7579185 M1.22658578,77.3261871 C1.4795179,76.6150071 1.64334626,75.8811975 1.85596953,75.160117 C1.43920906,75.8208521 1.21362095,76.5391039 1.22658578,77.3261871 M3.10106502,29.2829919 C4.15616677,28.1453866 5.25723474,27.0528047 6.37551059,25.977195 C5.01656028,26.8161376 3.9668802,27.9589287 3.10106502,29.2829919 M23.8952441,18.0238588 C26.0735719,17.0385314 27.8853485,15.5624261 29.6146216,13.9717589 C27.8106239,15.3271733 26.0089834,16.6840021 24.0831163,17.8659235 C24.0142848,17.9083539 23.957711,17.9708208 23.8952441,18.0238588 M48.808233,72.7684587 C48.1750776,74.9317002 46.9181959,76.7661063 46.285512,78.8659379 C47.0813171,78.3046785 49.1361254,73.4730385 48.808233,72.7684587 M23.2583172,94.2742893 C23.6830923,94.2742893 24.1118747,94.3110623 24.532171,94.267689 C26.2543724,94.0906601 27.9539442,93.7639463 29.6532803,93.4421827 C32.1745869,92.9648411 34.5002424,91.8934744 36.8862433,91.0142229 C37.9870755,90.6083058 39.0400557,90.0548252 39.7858873,89.0784554 C42.25062,85.8511547 44.2349468,82.3768149 45.6436349,78.5420528 C46.7680396,75.4816449 48.2309443,72.5471137 49.4326665,69.5128711 C50.2907028,67.3470367 50.8382902,65.0777193 51.0836792,62.7489995 C51.2880521,60.8089889 51.1732544,58.8633209 51.1871621,56.919303 C51.1984769,55.3206212 51.17019,53.7231179 51.2708442,52.1192501 C51.3415615,50.9896595 51.0881579,49.812924 50.9912753,48.6557537 C50.8203752,46.6181533 50.851255,44.6057753 51.4705027,42.6292275 C52.0418982,40.8056647 52.8164881,39.0693199 53.7782431,37.4289148 C55.7250897,34.1075601 58.1655428,31.1487493 60.7255082,28.2920071 C62.1004877,26.7579137 63.4490662,25.2087339 64.5859642,23.4891255 C66.678017,20.3249989 67.6817308,16.8303869 67.59522,13.0465412 C67.5275672,10.0884376 66.231791,7.7917762 63.6798402,6.23128166 C59.2439813,3.51903843 54.5606119,2.65110174 49.533085,4.30282156 C45.6393919,5.58209707 42.1725953,7.61474729 39.0011612,10.1963993 C37.023199,11.8066316 35.2173156,13.609215 33.244775,15.2241618 C30.5582257,17.4241763 27.8287746,19.5586593 24.664648,21.0545654 C22.2159445,22.212443 19.6420714,23.0268702 17.0533477,23.7925026 C14.8434328,24.446166 12.736058,25.3284818 10.745131,26.4865951 C8.44729103,27.8231516 6.506809,29.5330953 5.16365222,31.8627581 C5.0040669,32.1402055 4.99793807,32.1366696 4.63445127,32.1442128 C4.52413232,32.1465701 4.51729632,32.2382668 4.48028761,32.3118128 C4.14414483,32.9824483 3.92468556,33.6820778 3.91572803,34.4404027 C3.9095992,34.9526315 4.10737185,35.6852625 3.93199301,35.9318301 C3.36884777,36.7229207 3.7929157,37.4892602 3.89663437,38.1558884 C4.02557553,38.9828091 4.24220612,39.8408453 4.49560969,40.6694161 C5.13135799,42.7494469 5.86186745,44.7922332 6.89787553,46.703014 C7.84784426,48.4558595 8.76811173,50.2242629 9.04225904,52.2095325 C9.12146239,52.7849354 9.81496313,53.4418989 9.07478899,54.056432 C9.07455326,54.0566677 9.12664832,54.1139487 9.1488064,54.1481287 C9.54175873,54.7537043 9.74023854,55.4373047 9.77017552,56.1395272 C9.79916961,56.8103984 10.0389012,57.4374249 10.0676595,58.1005172 C10.1140972,59.1707053 10.5110568,60.2109565 10.2816971,61.3101386 C10.177507,61.8103455 10.2017866,62.3409608 10.2008437,62.8579041 C10.1987222,64.0084741 9.8088343,65.1048276 9.74848889,66.2582264 C9.72585937,66.6903089 9.34846484,67.2393107 9.14055605,67.7340959 C8.39519597,69.5076852 7.07301865,70.8586209 5.91301961,72.3384977 C4.82161633,73.7304494 3.59537878,75.0950571 3.48058107,77.0034806 C3.43437911,77.773356 3.20525514,78.5858975 3.6024505,79.3083924 C4.67098853,81.250053 5.23295515,83.4512461 6.69892426,85.1920697 C7.83982964,86.5470126 8.60593345,88.1885963 9.99599936,89.3658032 C11.3554211,90.5170805 12.6533188,91.7565186 14.2237138,92.6070117 C14.9945321,93.0244793 15.7761937,93.4518474 16.6811391,93.6515058 C18.8554596,94.1314404 21.0427449,94.3046977 23.2583172,94.2742893 M41.253035,4.66701553 C41.3730186,4.630714 41.5029027,4.61256323 41.6115716,4.55481079 C44.3259363,3.11123548 47.1548631,1.96797286 50.1551613,1.26598604 C50.2635945,1.24052782 50.4123365,1.24429941 50.4766892,1.07764237 C50.2737306,1.10663645 50.0830297,1.12926598 49.8939789,1.16203165 C47.402845,1.59529282 45.0936902,2.54596872 42.850774,3.67178775 C42.2925789,3.95206388 41.6815817,4.16963736 41.2643498,4.68021609 C40.5956001,4.72688949 40.1873257,5.29121335 39.6086226,5.52340173 C39.5072612,5.56394631 39.3978852,5.74828267 39.5525203,5.90480357 C39.6039081,5.95666291 39.6748611,5.99013575 39.7066839,5.92908317 C40.0435339,5.28673459 40.8605541,5.23652532 41.253035,4.66701553 M33.6702573,14.4382572 C34.446733,13.9552582 35.0645662,13.295466 35.6812209,12.6349667 C35.0171857,13.242428 34.2147803,13.698083 33.6827507,14.4514577 C33.1158339,14.6522948 32.7535257,15.1126643 32.3487872,15.5185814 C32.8631375,15.2503272 33.304649,14.8910835 33.6702573,14.4382572 M50.8041102,76.2057898 C50.3534054,77.4386276 49.9217943,78.664158 49.0095415,79.6794223 C48.4581825,80.2927768 48.0185567,81.0313009 47.6548342,81.7752466 C47.5230643,82.0453866 47.2809755,82.1269472 47.1430769,82.3683289 C46.8213133,82.9319455 46.7032154,83.5686367 46.2911694,84.1162242 C45.3624159,85.3504763 44.4456843,86.5901502 43.4761504,87.795644 C42.8363948,88.5909776 42.2376552,89.4266201 41.5729128,90.2033315 C40.3341819,91.6502069 38.7531793,92.6206837 36.9982123,93.3115915 C34.9702765,94.1099895 32.9614345,94.9762761 30.8884754,95.6384255 C27.0254264,96.8722063 23.0824669,97.369113 19.0018444,96.8823424 C16.5434761,96.5891015 14.1492249,96.1247247 12.0423216,94.8692573 C8.67287914,92.8611224 5.89510457,90.1868308 3.93317163,86.7367707 C3.85962566,86.6075938 3.76510024,86.4902031 3.67670364,86.3699837 C2.87476974,85.2792876 2.15086057,84.1525257 1.78265929,82.8242196 C1.60020872,82.1672561 1.3307759,81.536458 1.0332919,80.9165032 C0.150976025,79.0780898 0.320461761,77.2264758 1.03305617,75.382405 C1.75036507,73.5263122 2.94831571,71.9504956 4.28746518,70.553358 C6.07684796,68.6864219 6.91649775,66.5212946 7.18380905,64.018846 C7.43249813,61.6913048 7.023988,59.4370737 6.60934905,57.1743567 C6.35500258,55.7859408 6.12752868,54.3918676 5.85432427,53.0072234 C5.41351992,50.7751504 4.38670509,48.7856377 3.33231051,46.7911749 C1.9596882,44.1942008 0.910479561,41.4602709 0.276145602,38.5773633 C-0.25470541,36.1649614 0.00694850787,33.7961684 0.828447522,31.5216651 C1.30178182,30.211274 1.91702211,28.9251625 2.91413569,27.8636961 C3.88484816,26.8300453 4.86428242,25.8178454 6.02192421,24.9923391 C8.80417755,23.0077766 11.8714215,21.6155892 15.1234733,20.6022106 C18.8363659,19.445276 22.4523759,18.0764253 25.6247529,15.7458196 C27.9753951,14.0189037 30.2119468,12.1552678 32.3601019,10.1836702 C35.2852041,7.49900668 38.3489122,4.99985817 41.8894905,3.15154432 C45.3216356,1.36004002 48.9062943,-0.0345046489 52.829453,0.000650250281 C58.7343454,0.0553062907 63.7901592,2.14193736 67.3717534,6.99879982 C70.0203511,10.5912374 70.449605,14.70769 69.5842613,19.0054145 C69.4279761,19.7814188 69.2698051,20.5571873 69.0885332,21.3275341 C68.6225063,23.3064392 67.8177437,25.1259947 66.6353509,26.7949224 C65.9463289,27.7675207 65.2033261,28.6988672 64.5138326,29.6610936 C63.7043555,30.7904484 62.802946,31.8252779 61.871128,32.8341777 C60.7919824,34.0026628 59.8358849,35.2564801 58.9271679,36.5546136 C58.6105902,37.0067327 58.1087333,37.2811157 57.8025275,37.7676505 C56.6448857,39.6074783 55.4412777,41.4199621 54.6148284,43.4436548 C54.1686024,44.536001 53.7136546,45.6012388 53.6257295,46.8321909 C53.5722201,47.5869799 53.6181863,48.339176 53.5524192,49.0892506 C53.4538865,50.2127124 53.6476518,51.3199092 53.8263308,52.4179127 C53.8949266,52.8393877 53.3838764,53.1804807 53.4939596,53.2099462 C54.0896348,53.3681172 53.6707528,53.7028456 53.6830105,53.946113 C53.6900822,54.0899048 53.5988569,54.2478401 53.6313869,54.3798457 C54.184396,56.6237048 53.9453716,58.915416 53.9925164,61.1816689 C54.0363611,63.2855079 54.220226,65.4291842 53.6514234,67.4912999 C53.4437504,68.2432603 53.2924154,69.0154929 53.0734276,69.7672176 C52.810595,70.6688628 52.3257102,71.5146415 52.2448568,72.4554169 C52.131002,73.780423 51.4613094,74.8909199 50.9790176,76.0754343 C50.9526165,76.1404941 50.8547909,76.1767957 50.7892596,76.2284193 C50.8510193,75.5228966 51.4287795,74.9969958 51.4490517,74.2714366 C50.9540308,75.3234739 50.3359618,76.320116 50.0794938,77.4798793 C50.3211112,77.0551042 50.5624928,76.6305649 50.8041102,76.2057898" id="Fill-217"></path>
                    <path d="M29.0570866,24.7400434 C30.4400808,23.9284448 31.561421,22.8162978 32.6111011,21.6225902 C31.4308298,22.6670843 30.270595,23.7339723 29.0570866,24.7400434 L29.0570866,24.7400434 Z M37.0514388,17.7939569 C37.0054726,17.7449262 36.9595064,17.6958956 36.9135401,17.646865 C35.7016818,18.7540618 34.3889334,19.7483467 33.3366603,21.0342224 L37.0514388,17.7939569 Z M9.19236824,76.4619513 C8.48213107,77.1670025 8.1587174,79.353345 8.62474425,79.8035783 C8.75769272,78.6963815 8.76122859,77.5474615 9.19236824,76.4619513 L9.19236824,76.4619513 Z M14.5690027,32.4161679 C12.9026679,33.5455228 11.4154837,34.8410633 10.6955818,36.8126609 C11.8414374,35.2184578 13.1002049,33.7267947 14.5690027,32.4161679 L14.5690027,32.4161679 Z M39.326885,15.7853505 C42.1129099,13.6030154 45.0344763,11.6658335 48.3035002,10.2910897 C46.1619454,10.574666 40.2216943,14.5001819 39.326885,15.7853505 L39.326885,15.7853505 Z M38.3469793,67.8363295 C37.681294,69.16605 37.2687766,70.5900602 36.8767671,72.0107703 C36.4758002,73.4637746 35.9345773,74.8663339 35.4650146,76.2927013 C35.0211458,77.641044 34.3797402,78.9245626 33.8253167,80.2366037 C36.198117,76.4098562 37.0830259,72.0576794 38.3469793,67.8363295 L38.3469793,67.8363295 Z M14.5103073,46.4926772 C14.5213864,46.4108809 14.5032356,46.2930188 14.549909,46.2550672 C14.6342983,46.1862357 14.6779073,46.291133 14.7340097,46.3531285 C14.8928878,46.5275644 14.8186347,46.7908684 15.0364439,46.9655401 C15.4383537,47.2873037 15.7148583,47.692278 15.9149881,48.2037996 C16.0856525,48.6398894 16.5514436,48.9569386 16.8689642,49.3411691 C16.9399172,49.426737 17.0287852,49.5714717 16.9373242,49.6931054 C16.767367,49.9186935 16.9036157,49.9927109 17.0907807,50.0457489 C17.3220262,50.1108088 17.4443671,50.2857162 17.5228633,50.4872604 C17.8062038,51.2132911 18.1833626,51.9027845 18.2677519,52.7025969 C18.3222042,53.2185973 18.4054149,53.8352519 18.5965872,54.2117036 C19.1288526,55.2606765 19.148182,56.3666947 19.097737,57.4173176 C19.0520065,58.3687007 18.8690845,59.3431848 18.9129292,60.2962179 C18.950645,61.1196027 18.5364775,61.7907097 18.4212084,62.5575207 C18.2816596,63.4858028 17.6381324,64.295987 17.5113128,65.2608064 C17.4330523,65.8534171 16.8074402,66.3036504 16.8128618,66.7729774 C16.8251195,67.8580162 15.8640717,68.4419051 15.6943502,69.4203965 C15.6403694,69.7315525 15.5128426,70.1975793 15.2422311,70.493649 C14.6861576,71.1013461 14.5235079,71.9424102 13.9476336,72.5477501 C13.2225458,73.3100824 12.8460941,74.3307684 12.0729186,75.0874432 C11.6085418,75.5421553 11.2455265,76.1286372 10.8391379,76.6519451 C10.4709366,77.1252794 10.503938,77.8593247 10.3823043,78.4851726 C10.2059825,79.3910608 10.7257545,80.0965835 10.9603001,80.8923886 C11.5208524,82.7937404 12.6891018,84.3655497 14.0567739,85.6337462 C16.7277654,88.1107366 19.9267792,88.9246924 23.4836224,87.6282091 C23.8447519,87.4966749 24.20541,87.3641979 24.569604,87.241857 C26.7052657,86.5247838 28.5502794,85.3395623 30.2639947,83.884908 C32.5066753,81.9811989 33.568613,79.3264724 34.8111155,76.8136519 C35.2457911,75.9348719 35.4148053,74.8573763 35.7429335,73.8814779 C35.9675787,73.2134354 36.2094318,72.5463358 36.3640669,71.8606139 C36.5198806,71.1692347 36.7322682,70.4974206 36.9392341,69.823485 C37.1457285,69.1507279 37.4366122,68.5008362 37.6002049,67.8191217 C37.7458825,67.2128389 38.0440736,66.6711446 38.1697147,66.0427037 C38.3375503,65.2025825 38.6116976,64.3657614 38.8398787,63.5272902 C39.6601991,60.5119056 40.2737893,57.4569193 40.6434049,54.3519595 C40.8482493,52.6311725 40.9974628,50.8941205 41.3538778,49.2025632 C42.5051551,43.7354107 45.0226901,38.9049493 48.4901938,34.5636158 C50.0400808,32.6233695 51.6842574,30.7578478 53.3067474,28.8765325 C55.6300456,26.1829115 56.8906989,22.976826 57.8404319,19.6135124 C58.4311569,17.5224026 58.3288526,15.4565152 57.5613344,13.4384799 C57.1235945,12.2883813 56.4715812,11.3280407 55.0958945,11.1010382 C53.8149689,10.8895936 52.5651589,11.1929707 51.3540077,11.4169087 C50.6338701,11.5503287 49.8493798,11.892836 49.1266493,12.2424151 C47.3928974,13.0813577 45.6343945,13.8736269 44.1269379,15.0946785 C43.7679299,15.3850908 43.3209967,15.4239853 42.9622244,15.7141618 C42.5030336,16.0854275 42.1822129,16.586813 41.6812988,16.9203628 C41.3937152,17.1115352 41.0490864,17.1301574 40.7838966,17.3753106 C39.1022398,18.9287334 37.2013594,20.235353 35.683531,21.9768837 C35.1566873,22.5817521 34.5058526,23.0770088 33.9318641,23.642747 C31.7766373,25.7659153 29.2685312,27.3544611 26.4431404,28.3923549 C22.9794082,29.6647944 19.7469216,31.3704951 16.7230509,33.4545332 C15.5668234,34.2512812 14.3283282,35.0027701 13.499286,36.214157 C13.0186443,36.916851 12.4005753,37.633217 12.325615,38.4382153 C12.2143531,39.6288585 12.0931909,40.8723039 12.4986366,42.0584684 C12.5964621,42.3446376 12.4220262,42.743483 12.4828431,42.8413086 C12.7173887,43.2168173 12.8588232,43.6415924 13.112934,44.0017791 C13.6617,44.7803763 14.4183749,45.4458258 14.5103073,46.4926772 L14.5103073,46.4926772 Z M13.8526367,69.4548122 C14.0350872,69.3859808 14.0803463,69.2035302 14.1432847,69.0576169 C14.7424957,67.6701439 15.390266,66.2996431 15.7912329,64.836267 C16.0257785,63.9798808 16.4373531,63.1638034 16.4239168,62.2456575 C16.0097493,63.8695618 15.2879616,65.3838544 14.7752614,66.9712215 C14.5032356,67.8137 13.994307,68.571082 13.8663087,69.4673056 C13.1339134,70.4333036 12.774434,71.5935384 12.1822946,72.6326109 C12.808614,71.6093319 13.5447808,70.642391 13.8526367,69.4548122 L13.8526367,69.4548122 Z M41.0384788,65.5945919 C41.0130206,65.4383067 41.0375359,65.2994651 40.8817222,65.220969 C40.8541424,65.4614077 40.6606128,65.6910031 40.9788406,65.9017406 C41.1638841,66.0240815 40.9899196,66.2230328 40.942539,66.3710676 C40.5161139,67.7024382 40.1014749,69.0394661 39.6896646,70.3729582 C39.2978909,71.642569 38.8299783,72.8947362 38.5362659,74.1949912 C38.3889382,74.8477116 38.0723605,75.4344293 37.832629,76.0503768 C37.72231,76.3332459 37.6294347,76.6031501 37.6294347,76.9105346 C37.629199,77.5356753 37.5858257,77.5519402 37.0078298,77.2233406 C36.9595064,77.1959966 36.8864318,77.2124973 36.8084071,77.2075471 C36.8084071,77.2770858 36.7869562,77.3459172 36.8114715,77.387169 C37.1801443,77.9991091 37.1021195,78.7329187 36.6690941,79.3224651 C36.3833963,79.7114101 36.1233924,80.1048339 35.9998729,80.6158841 C35.8143579,81.3850523 35.2870428,81.9903922 34.6746312,82.4962564 C34.6190003,82.5422226 34.4924163,82.5210075 34.4865232,82.6280263 C34.4521075,83.2621245 33.9417645,83.5662088 33.5568268,83.943839 C33.1893327,84.3042614 32.7362707,84.5675654 32.3909347,84.9633464 C31.799974,85.6412894 31.1352316,86.2025488 30.325283,86.6539607 C29.9514244,86.862341 29.5716726,87.258122 29.1553836,87.4212432 C27.6172829,88.0242258 26.1091191,88.6988686 24.5512175,89.2608352 C21.9188848,90.2105682 19.3273324,89.9319422 16.7148005,89.2980797 C15.1778784,88.9251639 13.7885197,88.2375563 12.5184374,87.2932449 C12.0328455,86.9321154 11.6398931,86.4924896 11.240812,86.0462636 C9.7159118,84.342213 8.64690233,82.3913591 8.10992248,80.1736654 C7.7660008,78.7534268 7.98286711,77.3647752 8.6942829,76.0862069 C8.88144795,75.7498283 9.02547547,75.3087883 9.65698074,75.3849272 C9.93207094,75.4181643 10.2050396,74.906407 10.4183701,74.581579 C11.9267695,72.285389 13.1532428,69.8463502 14.1409274,67.2840276 C15.1807071,64.5868707 16.0880097,61.8614269 16.438296,58.966026 C16.6926425,56.8643086 16.4085947,54.8486305 15.8963659,52.820459 C15.4862057,51.1960832 14.6385413,49.8380758 13.6706576,48.5156628 C12.945334,47.5249137 12.2966209,46.4785338 11.5804906,45.480713 C11.3266156,45.1271267 11.6469649,44.9015386 11.7221609,44.4468265 C11.3301515,44.979799 11.2657988,44.8727802 11.098906,44.4343331 C10.9320132,43.9961217 10.6260431,43.5869044 10.3844258,43.1621293 C9.86771822,42.2527051 9.57235573,41.2612489 9.56245532,40.23962 C9.55868373,39.8520894 9.3561966,39.5286757 9.40852738,39.1618888 C9.47429445,38.6993978 9.50658867,38.2251206 9.63741563,37.7803089 C9.86842539,36.9936971 10.0133958,36.1644192 10.7823283,35.630268 C10.9947159,35.4827047 10.8686034,35.0249282 11.109985,34.7658672 C12.1429287,33.6567846 13.1155269,32.4748632 14.4072958,31.6524213 C17.4806686,29.6954386 20.699719,28.0286324 24.0717544,26.6241873 C26.4195679,25.6461674 28.6610698,24.4107366 30.5115052,22.5937741 C33.2345917,19.9201896 36.0988771,17.4035975 39.045666,14.9820023 C41.8392341,12.6865195 44.8324606,10.716572 48.2650771,9.48396988 C49.7062952,8.96655515 51.1840505,8.65940645 52.711308,8.55403771 C54.8912858,8.40364564 56.5236763,9.39580901 57.7902227,11.0437572 C60.2224255,14.2088268 60.7933496,17.7708559 59.8575243,21.601375 C59.2283763,24.1776053 58.3017443,26.6479955 56.994889,28.9604504 C56.3812988,30.0457248 55.7967027,31.1441998 54.7847385,31.9699419 C54.3019752,32.3638371 54.0433857,33.0290509 53.6723557,33.5636735 C52.4034521,35.3914794 50.8071275,36.9588099 49.5441169,38.7976948 C48.9816789,39.6163651 48.5062231,40.4800588 47.9760792,41.3135797 C46.8191446,43.1326638 46.0292326,45.1403272 45.1594101,47.0980171 C44.396135,48.8157397 44.1201019,50.6928119 43.8450117,52.5531477 C43.5489421,54.557511 43.2354288,56.5599885 42.8941001,58.5570444 C42.6970346,59.7106789 42.5596074,60.9017935 42.1492115,61.9825892 C41.8642208,62.7336067 41.8536133,63.5334191 41.5125203,64.2613355 C41.3166334,64.6788032 41.5271352,65.2506702 41.0384788,65.5945919 L41.0384788,65.5945919 Z" id="Fill-219"></path>
                    <path d="M33.937545,57.3731193 C34.001662,57.4068279 34.0660148,57.4407722 34.1301317,57.4744808 C34.3361547,56.9278362 34.9216938,56.5391269 34.652261,55.7925882 C34.4139437,56.3194319 34.1758623,56.8462756 33.937545,57.3731193 L33.937545,57.3731193 Z M21.6614975,36.815136 C20.3247053,37.0661823 18.953733,38.3249498 19.0930461,39.1778002 C19.7403449,38.1208126 20.6785274,37.4435768 21.6614975,36.815136 L21.6614975,36.815136 Z M32.9887549,28.7356873 C32.9496247,28.6835922 32.9102587,28.6317329 32.8711285,28.5801093 C31.0899961,30.1238674 29.3086279,31.6678613 27.5277312,33.2118551 C27.5654471,33.2559355 27.6033987,33.300016 27.6413503,33.3443321 L32.9887549,28.7356873 Z M38.1308437,23.8234296 C39.8051931,22.5870559 41.5259801,21.4223424 43.3754726,20.4535157 C45.2450016,19.4740815 47.1362173,18.542735 49.0540698,17.6740911 C45.1575479,19.2654655 41.307228,20.9426436 38.1308437,23.8234296 L38.1308437,23.8234296 Z M26.0999494,73.8193646 C26.5504185,73.0850836 27.097063,72.437549 27.4645571,71.6346722 C28.296428,69.8181812 29.2619545,68.0620355 30.0535166,66.2229149 C31.2333164,63.4828562 32.4748761,60.7717916 33.9304733,58.1642099 C34.0214629,58.000853 34.1060879,57.8365532 33.8644705,57.5996504 C30.9693053,62.9050961 28.9109611,68.5440916 26.0999494,73.8193646 L26.0999494,73.8193646 Z M38.299858,26.6537707 C37.545069,26.9915636 37.1719175,27.7216016 36.6302232,28.278618 C35.9188074,28.6920783 35.5253836,29.4367312 34.8922283,29.9362309 C33.8005892,30.7973316 32.6799562,31.6308525 31.6587987,32.5709209 C29.5455308,34.5168245 27.2120964,36.1060774 24.6245513,37.3568303 C23.663975,37.8214428 22.5433419,37.9206827 21.7225501,38.724031 C21.2204574,39.2152803 20.6101673,39.6124757 20.5649083,40.3818796 C20.4977269,41.5218421 20.6759344,42.6233815 21.2251719,43.6480748 C22.240672,45.5423549 23.6085798,47.1983178 24.8041732,48.9707284 C26.0466757,50.8126777 27.156937,52.6869212 27.4398061,54.9807539 C27.7099461,57.1748753 27.5472963,59.3496672 27.4183552,61.5282307 C27.3921898,61.9695065 27.0935271,62.3902743 27.0772622,62.9013245 C27.0548684,63.6150975 27.0475609,64.4085453 26.5942632,64.9933772 C25.7765357,66.0489504 25.5054529,67.3364763 24.9701231,68.5080258 C24.7947442,68.8922563 24.9022345,69.458466 24.5649131,69.7524141 C24.1146798,70.144895 23.9935175,70.6616025 23.7780656,71.1549734 C23.6941477,71.3475601 23.5774642,71.5410897 23.4296651,71.6879459 C22.9419516,72.1728307 22.6348029,72.8130578 22.2951243,73.3663026 C21.6282604,74.4527557 20.8859647,75.4145106 19.9491965,76.2668895 C19.6792923,76.5127499 19.2528671,76.4828129 19.0906888,76.8661005 C18.9285105,77.248681 18.6303194,77.5317858 18.317749,77.7955613 C17.9985784,78.0649941 17.8354572,78.4174018 17.7086375,78.8296835 C17.9427117,78.896865 18.093811,78.8013966 18.2479746,78.7448228 C19.2177442,78.3895864 20.0470221,77.7630313 20.9835546,77.3370776 C22.6263169,76.5898317 24.0121397,75.5057359 25.1094361,74.0565032 C25.9304637,72.9721716 26.4877158,71.7452269 27.0753764,70.5350186 C28.2398542,68.1365244 29.4231899,65.7455733 30.5153004,63.3138419 C31.1270048,61.9515915 31.7632245,60.6032488 32.4402246,59.2751783 C33.5651007,57.0687993 34.5674002,54.8058465 35.5442415,52.5341719 C36.3266103,50.7148522 36.9741448,48.8391943 37.397977,46.8944692 C37.7675927,45.1965475 38.4120628,43.587258 39.0421537,41.9751398 C40.2417544,38.9055386 41.4620988,35.8481951 43.4398253,33.1637673 C45.2167147,30.7518368 47.0164694,28.3561713 48.622223,25.8221356 C49.820645,23.9306842 50.8608962,21.9729943 51.3714749,19.7739227 C51.4261629,19.5379628 51.6010703,19.2284568 51.400469,19.0549638 C51.2305118,18.9078718 50.9533001,19.1011657 50.7385553,19.1860265 C48.4869172,20.0770641 46.3194328,21.138059 44.2221941,22.3518031 C43.8433852,22.5710267 43.506771,23.0667548 42.9271251,22.8244303 C42.8453287,22.7902502 42.6744287,22.905048 42.7241665,23.003345 C42.899781,23.3508025 42.5589238,23.3465595 42.4283325,23.4328346 C41.6035334,23.9780647 40.7893418,24.5364955 39.984815,25.1118984 C39.3554312,25.561896 38.9181627,26.2033017 38.299858,26.6537707 L38.299858,26.6537707 Z M21.679884,71.110893 C21.8616274,71.0981638 21.9137225,70.9508362 21.9804324,70.8200092 C22.8243252,69.1638106 23.4501731,67.4114366 24.2165127,65.7217651 C24.5840068,64.910638 24.4583657,63.9375683 25.0757276,63.2162521 C25.181332,63.0927326 25.1480949,62.9710989 25.0007672,62.9079248 C24.8074734,62.8249498 24.703519,62.953891 24.6818323,63.1118262 C24.5979145,63.7277737 24.3037306,64.2680537 24.0993577,64.8415708 C23.5727497,66.3188547 23.1215735,67.8173537 22.4169937,69.2340565 C22.1242242,69.8231314 21.7996319,70.4433219 21.6947346,71.1250364 C21.1740198,71.8150013 20.8022826,72.5832266 20.5116346,73.3936466 C20.8763,72.6202353 21.5756939,72.0184313 21.679884,71.110893 L21.679884,71.110893 Z M44.5510294,35.2056108 C44.7796819,35.59267 44.7021287,35.8357017 44.5484365,36.2105033 C44.1738706,37.1244062 43.4089454,37.8424223 43.2644465,38.8619297 C43.2130586,39.2258879 42.9304252,39.5007424 42.7574036,39.8069482 C42.316835,40.5862526 42.23221,41.4930837 41.8359575,42.2523516 C41.4599773,42.9727249 41.2987419,43.7616939 40.9154543,44.466038 C40.7117886,44.8398967 40.7834487,45.3054521 40.5182589,45.667996 C40.3393442,45.9122063 39.8971255,47.432392 39.8457377,47.7249258 C39.7167965,48.4617998 39.5668759,49.1951379 39.4181339,49.9284761 C39.3926756,50.0543528 39.3361018,50.1837654 39.1647303,50.1566571 C38.9879371,50.1288417 38.9023692,50.2092236 38.9702578,50.366216 C39.2243685,50.9545837 38.9209914,51.4816631 38.6949319,51.9436827 C38.0374969,53.286368 37.4665728,54.6665335 36.8892841,56.0410416 C36.7749578,56.3135388 36.2438711,56.2395214 36.4331577,56.7823944 C36.528626,57.0565417 36.220063,57.531526 36.0064968,57.8860553 C35.798588,58.2320985 35.6588035,58.6182148 35.4704598,58.9769871 C34.0832226,61.6215775 32.8084259,64.3187344 31.6005748,67.0505427 C30.9306465,68.5657782 30.1310698,70.0230255 29.4253114,71.5231747 C29.2471039,71.9022193 29.1304204,72.3277015 29.0106725,72.7331472 C28.9005892,73.1055916 28.7391181,73.6397427 28.2841703,73.8738169 C28.199781,73.9171902 28.1472145,73.9556132 28.1196348,74.042124 C27.5633256,75.7940266 26.0688338,76.7102868 24.7360489,77.7363945 C23.7818371,78.471147 22.6180665,78.9051153 21.535385,79.4128653 C20.8654567,79.72685 20.2492735,80.2265855 19.4687905,80.3369044 C18.6864217,80.4476948 17.9092389,80.5888936 17.1160268,80.6049229 C16.3466228,80.6204807 15.635207,80.4403874 14.9980444,79.9981687 C14.6642588,79.7666874 14.6135781,79.4725036 14.7592557,79.1007664 C15.1201495,78.1788489 15.6644368,77.4070877 16.5026723,76.8590288 C16.8237287,76.6487628 17.1669432,76.4667837 17.3807451,76.1235691 C17.5332587,75.8786517 17.7916125,76.186979 18.074953,75.9083529 C19.0774883,74.9223184 19.7019218,73.7231891 20.3449776,72.517931 C21.6768196,70.0213755 22.6682758,67.3817353 23.622959,64.7274802 C24.0359479,63.578796 24.2509284,62.3813168 24.4388006,61.1772373 C24.5576056,60.4170266 24.6375162,59.6563444 24.6884326,58.8897692 C24.7117693,58.534297 24.8548539,58.2422347 25.2911795,58.4586295 C25.5514191,58.5878064 25.6315653,58.3985198 25.7536705,58.2646285 C25.840417,58.1693959 25.8227377,58.0604913 25.7392913,57.980345 C25.5870135,57.8346674 25.4547721,57.9864738 25.3357314,58.044462 C24.8473108,58.2820721 24.6877254,58.1404018 24.7124765,57.6062506 C24.781308,56.1343884 24.8185524,54.6620547 24.4362077,53.2151793 C24.2459782,52.4940988 23.9789026,51.8022481 23.6307379,51.1488205 C22.6131163,49.237804 21.2987179,47.5153669 20.1363616,45.6958114 C19.2861042,44.3639694 18.4115673,43.0323631 18.2328883,41.4068087 C18.1911651,41.0284712 17.8908524,40.5673946 18.4141602,40.2602459 C18.4431543,40.2435095 18.4686125,40.1897644 18.4662553,40.1553486 C18.3648939,38.6684001 18.4108601,38.6311556 19.42141,37.5890187 C20.0771948,36.9127258 20.8770072,36.4422202 21.6919059,36.0676544 C24.6903184,34.6889033 27.2170466,32.6828899 29.6905012,30.5361491 C32.7014071,27.9226744 35.4445302,25.0067654 38.572591,22.5413254 C41.9995501,19.8408684 45.9194087,17.9904331 50.0801774,16.7121004 C52.2764203,16.0374576 53.9036248,17.6764484 53.4248688,19.9556661 C52.9468201,22.231348 52.0838336,24.3613524 50.9375065,26.3878738 C49.6214581,28.7140007 48.11353,30.9177867 46.6543969,33.1505668 C46.2541371,33.7632141 45.9146942,34.4277208 45.4265093,34.9929875 C45.1733414,35.2859928 44.9854692,35.5434037 44.5510294,35.2056108 L44.5510294,35.2056108 Z" id="Fill-221"></path>
                    <path d="M38.2998344,26.6538179 C37.921497,27.3781985 37.3260576,27.8802911 36.6301996,28.2786651 C37.1718939,27.7216487 37.5450454,26.9916107 38.2998344,26.6538179" id="Fill-223"></path>
                </g>
            </g>
        </g>
    </g>
</svg>