<?xml version="1.0" encoding="UTF-8"?>
<svg width="130px" height="129px" viewBox="0 0 130 129" version="1.1" xmlns="http://www.w3.org/2000/svg" xmlns:xlink="http://www.w3.org/1999/xlink">
    <!-- Generator: Sketch 62 (91390) - https://sketch.com -->
    <title>rotary</title>
    <desc>Created with Sketch.</desc>
    <g id="Page-1" stroke="none" stroke-width="1" fill="none" fill-rule="evenodd">
        <g id="Work" transform="translate(-49.000000, -9046.000000)">
            <g id="rotary" transform="translate(49.000000, 9046.000000)">
                <path d="M78.7350756,64.7978205 L78.7350756,64.7947328 C78.7350756,62.6394913 78.8246316,60.7168595 80.4222279,57.3224057 C80.8885367,56.3394756 81.9086513,54.8964725 80.4047285,53.2249767 C79.1859436,52.0063493 77.791135,52.21014 76.8554294,52.745348 C77.3927653,51.8107925 77.5955529,50.416164 76.3757387,49.195478 C74.7009389,47.6917494 73.2608376,48.7117323 72.273663,49.1728346 C68.8859764,50.7784586 66.9600082,50.8669738 64.7983121,50.8669738 L64.7962533,50.8669738 C62.6376454,50.8669738 60.7137358,50.7784586 57.3239905,49.1728346 C56.3409335,48.7117323 54.8967146,47.6917494 53.2260323,49.195478 C52.0082769,50.416164 52.2090058,51.8107925 52.7432535,52.745348 C51.8065186,52.2070523 50.4158274,52.0063493 49.1949838,53.2249767 C47.691061,54.8964725 48.712205,56.3394756 49.1774844,57.3224057 C50.7750807,60.7168595 50.8615486,62.6364036 50.8615486,64.7978205 C50.8615486,66.957179 50.7750807,68.884957 49.1774844,72.2732354 C48.712205,73.258224 47.691061,74.7012271 49.1949838,76.3778691 C50.4158274,77.5913503 51.8065186,77.3865303 52.7432535,76.8554393 C52.206947,77.7899948 52.0041593,79.1815356 53.2260323,80.40428 C54.8967146,81.9090379 56.3409335,80.889055 57.3239905,80.4186895 C60.7137358,78.8223287 62.6355866,78.7327843 64.7983121,78.7327843 C66.9600082,78.7327843 68.8859764,78.8223287 72.2716043,80.4186895 C73.2608376,80.889055 74.7009389,81.9090379 76.3757387,80.40428 C77.5934942,79.1815356 77.3927653,77.7899948 76.8533706,76.8554393 C77.791135,77.389618 79.1859436,77.594438 80.4047285,76.3778691 C81.9086513,74.7012271 80.8885367,73.258224 80.4222279,72.2742646 C78.8246316,68.8839278 78.7350756,66.9582082 78.7350756,64.7978205 L78.7350756,64.7978205 Z M75.0282815,75.0511708 L67.0866218,68.3878311 C67.0866218,68.3878311 66.0150382,67.3410878 64.7983121,67.3410878 C63.5867329,67.3410878 62.508973,68.3878311 62.508973,68.3878311 L54.5714308,75.0511708 L54.5415788,75.0254396 L61.2098966,67.086864 C61.2098966,67.086864 62.2557457,66.012331 62.2557457,64.7978205 C62.2557457,63.5843393 61.2098966,62.5128941 61.2098966,62.5128941 L54.5415788,54.568143 L54.5714308,54.5413826 L62.5110317,61.2067807 C62.5110317,61.2067807 63.5867329,62.2555825 64.7983121,62.2555825 C66.0150382,62.2555825 67.0866218,61.2067807 67.0866218,61.2067807 L75.024164,54.5444703 L75.0498985,54.5702015 L68.3918745,62.5128941 C68.3918745,62.5128941 67.3419078,63.5843393 67.3419078,64.7978205 C67.3419078,66.012331 68.3918745,67.086864 68.3918745,67.086864 L75.0498985,75.0254396 L75.0282815,75.0511708 L75.0282815,75.0511708 Z" id="Fill-2" fill="#FF3333"></path>
                <path d="M46.2422377,113.852733 L44.1286426,112.933858 C41.5167073,111.798333 39.5259679,112.805735 38.1563649,115.956096 C37.4989555,117.468269 37.3355067,118.776321 37.6660138,119.880291 C37.9965209,120.984261 38.7517397,121.792724 39.9316929,122.305702 L42.1483902,123.2694 L46.2422377,113.852733 Z M48.2362446,113.166825 L43.0068773,125.195415 L39.2436472,123.55937 C38.5562958,123.260547 37.9613427,122.858876 37.4587702,122.354343 C36.9561976,121.84981 36.560714,121.255629 36.2723076,120.571783 C35.9839011,119.887937 35.8642153,119.090163 35.9132466,118.178437 C35.9622779,117.266711 36.2059264,116.306805 36.6441994,115.29869 C37.1223153,114.198927 37.6870943,113.307122 38.3385532,112.623245 C38.990012,111.939369 39.6693603,111.488971 40.3766183,111.272038 C41.0838762,111.055104 41.7830344,110.974271 42.4741136,111.029535 C43.1651928,111.084799 43.8658535,111.26682 44.5761166,111.575603 L48.2362446,113.166825 Z M37.0098099,107.828733 L29.0839947,118.279316 L25.0679847,115.233539 C24.1423569,114.531534 23.5958409,113.717274 23.4284202,112.790734 C23.2609995,111.864194 23.4754491,111.007793 24.0717753,110.221507 C24.8417155,109.206303 25.8030463,108.837956 26.9557966,109.116456 L26.9897644,109.071668 C26.6352005,108.567597 26.4597625,107.972055 26.463445,107.285026 C26.4671275,106.597996 26.7180633,105.926043 27.2162598,105.269145 C27.9560063,104.293753 28.832639,103.763186 29.8461843,103.677428 C30.8597296,103.59167 31.9935235,104.024336 33.2475998,104.975439 L37.0098099,107.828733 Z M31.1963416,112.920437 L28.6434133,110.984274 C27.2798541,109.950138 26.1829272,109.980484 25.3525995,111.075313 C24.9525326,111.602821 24.8265778,112.146156 24.9747315,112.705334 C25.1228851,113.264512 25.5204281,113.789417 26.1673722,114.280065 L28.7053711,116.204906 L31.1963416,112.920437 Z M34.9101522,108.023592 L32.5513062,106.234622 C31.6754433,105.57036 30.9015571,105.22644 30.2296242,105.202852 C29.5576914,105.179263 28.961313,105.510842 28.4404711,106.197598 C27.9347261,106.864448 27.7851905,107.495723 27.9918598,108.09144 C28.1985291,108.687158 28.7497399,109.324687 29.6455087,110.004046 L32.0342135,111.815661 L34.9101522,108.023592 Z M24.6976979,103.740863 L23.4104905,102.691125 C24.270363,101.732388 24.7538782,100.863237 24.8610507,100.083646 C24.9682233,99.3040555 24.6344484,98.4484463 23.8597159,97.5167933 C23.2367352,96.767629 22.597434,96.3407311 21.9417933,96.2360869 C21.2861525,96.1314428 20.7134216,96.2827852 20.2235834,96.6901187 C19.7433499,97.0894653 19.5077337,97.5778259 19.5167278,98.1552151 C19.5257219,98.7326043 19.8213305,99.7621047 20.4035625,101.243747 C20.9746739,102.653405 21.2481916,103.778445 21.2241238,104.618899 C21.2000561,105.459354 20.8374572,106.171093 20.1363162,106.754139 C19.4063612,107.361146 18.5444593,107.594554 17.5505847,107.454371 C16.55671,107.314187 15.656446,106.759068 14.8497658,105.788996 C14.0590595,104.838134 13.6354584,103.850083 13.5789497,102.824815 C13.522441,101.799547 13.8984878,100.845118 14.7071014,99.9614988 L15.9727747,100.956035 C15.453919,101.582455 15.1769774,102.206718 15.1419416,102.828845 C15.1069058,103.450971 15.3888937,104.122199 15.9879136,104.842549 C16.5150512,105.476458 17.0624531,105.841684 17.6301359,105.938239 C18.1978186,106.034795 18.6977576,105.903369 19.1299678,105.543957 C19.5141546,105.224479 19.6985127,104.811236 19.6830476,104.304213 C19.6675825,103.79719 19.3934569,102.871671 18.8606625,101.527628 C18.182689,99.8331664 17.872928,98.5717432 17.9313701,97.7433201 C17.9898122,96.914897 18.4032139,96.1812192 19.1715875,95.5422646 C19.9975892,94.8553884 20.9510877,94.5904883 22.0321115,94.7475563 C23.1131353,94.9046244 24.1088875,95.5306152 25.0193978,96.6255477 C27.008144,99.0171106 26.9009117,101.388859 24.6976979,103.740863 Z M14.7224979,81.6679814 L14.089405,79.4519471 C13.3070424,76.7134196 11.2643675,75.8159888 7.96131893,76.7596279 C6.37585561,77.2125746 5.26183448,77.9173246 4.61922211,78.8738989 C3.97660974,79.8304733 3.83202359,80.9273149 4.18545931,82.1644567 L4.84943475,84.4885902 L14.7224979,81.6679814 Z M16.5189638,82.7721748 L3.90738682,86.3751422 L2.78017271,82.4295203 C2.57428782,81.7088552 2.5065303,80.9942097 2.57689812,80.2855624 C2.64726594,79.5769152 2.85489858,78.8940194 3.19980226,78.2368547 C3.54470594,77.57969 4.08477883,76.9804494 4.82003712,76.4391148 C5.55529542,75.8977802 6.4513989,75.476137 7.50837445,75.1741725 C8.66143868,74.8447567 9.70895702,74.7143796 10.6509609,74.7830374 C11.5929648,74.8516952 12.3723752,75.0902152 12.9892157,75.4986046 C13.6060562,75.9069939 14.1126432,76.3955896 14.508992,76.9644061 C14.9053409,77.5332227 15.2098845,78.1899647 15.4226323,78.934652 L16.5189638,82.7721748 Z M13.4958246,70.7207744 L0.39623698,71.3796008 L0,63.5011345 L1.42224094,63.4296048 L1.74035995,69.7548342 L5.98836908,69.5411863 L5.69660313,63.7399403 L7.08141668,63.670293 L7.37318263,69.4715389 L11.9954657,69.2390673 L11.6773467,62.9138379 L13.0995876,62.8423082 L13.4958246,70.7207744 Z M8.73230057,59.8713928 L8.6871261,58.2110282 C9.97472471,58.2364715 10.9487603,58.0353123 11.6092622,57.6075447 C12.2697641,57.179777 12.69998,56.3683665 12.8999228,55.1732889 C13.0607015,54.2122986 12.9667108,53.4493349 12.6179479,52.8843751 C12.2691849,52.3194153 11.7806408,51.9843781 11.152301,51.8792535 C10.5362816,51.7761902 10.0125313,51.9165351 9.5810345,52.3002924 C9.14953766,52.6840496 8.56268368,53.580073 7.82045496,54.9883894 C7.12549373,56.3412876 6.45184762,57.2829492 5.7994964,57.8134025 C5.14714518,58.3438558 4.37128703,58.5338433 3.47189868,58.3833709 C2.53554916,58.2267147 1.79605767,57.7262084 1.25340202,56.8818369 C0.710746374,56.0374654 0.543514992,54.9931157 0.751702857,53.7487565 C0.955768191,52.529038 1.42766507,51.5631215 2.16740766,50.8509779 C2.90715025,50.1388343 3.87562369,49.8005952 5.07285705,49.8362504 L5.14578766,51.4442655 C4.33254761,51.4601891 3.67887268,51.6579535 3.18474327,52.0375647 C2.69061385,52.4171758 2.36625653,53.0689862 2.21166158,53.9930153 C2.07561803,54.8061609 2.15632871,55.4592497 2.45379605,55.9523013 C2.7512634,56.4453529 3.17719942,56.7382528 3.7316169,56.8310097 C4.22443243,56.9134604 4.65781881,56.7833273 5.03178903,56.4406065 C5.40575926,56.0978857 5.92787316,55.2860189 6.5981464,54.0049818 C7.43907985,52.3852047 8.19237459,51.3270519 8.85805323,50.8304915 C9.52373186,50.3339311 10.3493743,50.168104 11.3350054,50.3330053 C12.3945588,50.5102742 13.2177034,51.059605 13.8044638,51.9810143 C14.3912242,52.9024236 14.5671097,54.065373 14.3321253,55.4698973 C13.8188701,58.537674 11.9522805,60.0048245 8.73230057,59.8713928 Z M15.5399767,48.4283354 L3.13225027,44.1760919 L3.63644485,42.7048901 L16.0441712,46.9571336 L15.5399767,48.4283354 Z M20.0733105,39.5695312 C19.7110598,40.2256724 19.2596505,40.7719349 18.7190693,41.208335 C18.178488,41.6447351 17.5447925,41.9655072 16.8179637,42.1706608 C16.0911349,42.3758145 15.2533965,42.3877408 14.3047232,42.2064402 C13.35605,42.0251395 12.3513476,41.6416756 11.2905861,41.056037 C9.43151936,40.02966 8.24914886,38.759759 7.74343911,37.246296 C7.23772935,35.732833 7.35617968,34.3035783 8.09879363,32.9584888 C8.72065735,31.8321131 9.59584972,31.0739201 10.724397,30.6838871 C11.8529443,30.2938542 13.0317069,30.3168159 14.2607203,30.7527729 L13.7551056,32.2501024 C11.717533,31.624587 10.2640677,32.0991915 9.394666,33.6739304 C8.85128994,34.6581422 8.78820374,35.6899009 9.20540553,36.7692376 C9.62260732,37.8485743 10.5802884,38.8017979 12.0784774,39.628937 C13.6422806,40.4923012 15.013581,40.8320255 16.1924198,40.64812 C17.3712585,40.4642144 18.2383905,39.869229 18.7938415,38.8631459 C19.3191051,37.9117411 19.4346754,36.9981381 19.1405561,36.1223094 C18.8464368,35.2464807 18.1739046,34.5327309 17.1229394,33.9810387 L15.5290442,36.8680455 L14.2823822,36.1797725 L16.6279438,31.9312796 L17.7433783,32.5471027 C19.2306316,33.3682043 20.1718802,34.415804 20.5671522,35.6899332 C20.9624241,36.9640624 20.7978119,38.2572488 20.0733105,39.5695312 Z M23.9573465,32.8550927 L14.3637688,23.9110155 L15.5137216,22.6775556 L27.3056428,25.4992186 L27.3311973,25.4718084 L19.6152199,18.2782149 L20.6629546,17.1543958 L30.2565323,26.098473 L29.1449113,27.2908176 L17.3274356,24.4965648 L17.301881,24.523975 L25.0178585,31.7175685 L23.9573465,32.8550927 Z M40.7596018,18.7594471 L35.3789399,6.79776967 L36.7972531,6.1597769 L41.5937288,16.8227579 L46.7885144,14.4860133 L47.3727006,15.7847097 L40.7596018,18.7594471 Z M48.2341022,15.4842037 L50.0523146,1.66310166 L51.5351762,1.33966463 L58.9436583,13.1482696 L57.4058759,13.4836857 L55.9068675,11.1832744 L50.1584904,12.4370921 L49.7718846,15.1487875 L48.2341022,15.4842037 Z M50.3286641,11.0191666 L55.1800015,9.96100842 L51.2461274,3.53145624 L51.2095135,3.53944234 L50.3286641,11.0191666 Z M61.0508739,13.113149 L61.3311787,0 L63.017155,0.0360391988 L68.7675592,10.7104966 L68.8050253,10.7112975 L69.0304705,0.164579008 L70.5665823,0.197414723 L70.2862774,13.3105638 L68.6565003,13.2757259 L62.86863,2.60046762 L62.8311639,2.59966675 L62.6057187,13.1463852 L61.0508739,13.113149 Z M78.3115191,15.3581881 C77.5886564,15.1601569 76.9516614,14.8496566 76.4005152,14.4266779 C75.849369,14.0036992 75.38875,13.4630561 75.0186446,12.8047324 C74.6485392,12.1464087 74.4402112,11.3348994 74.3936543,10.3701801 C74.3470974,9.40546087 74.4838921,8.3388032 74.8040425,7.17017516 C75.3651308,5.12206416 76.3218486,3.67453539 77.6742245,2.82754543 C79.0266004,1.98055547 80.4437014,1.76004574 81.9255699,2.16600965 C83.1664842,2.50596317 84.1090044,3.17862506 84.7531587,4.1840155 C85.397313,5.18940594 85.6518151,6.34059546 85.5166727,7.63761861 L83.9424787,7.49777814 C84.0719956,5.37029209 83.2693308,4.06893117 81.5344603,3.59365636 C80.4501662,3.2966096 79.4324466,3.47758681 78.4812709,4.13659343 C77.5300951,4.79560005 76.8284322,5.9503543 76.376261,7.60089081 C75.9042867,9.32371359 75.8961007,10.7364451 76.3517026,11.8391277 C76.8073045,12.9418104 77.5892884,13.644965 78.6976779,13.9486128 C79.7458288,14.235758 80.6610225,14.133545 81.4432864,13.6419707 C82.2255503,13.1503964 82.7614012,12.3290547 83.0508552,11.1779211 L79.8702752,10.3065883 L80.2465325,8.93315599 L84.9270451,10.2154014 L84.5903938,11.4442619 C84.1415232,13.0827507 83.3442644,14.2436954 82.1985938,14.9271307 C81.0529231,15.6105661 79.7572445,15.7542504 78.3115191,15.3581881 Z M87.5888078,13.6865284 L91.9101422,5.97012276 L93.2670525,6.73001844 L89.0006503,14.3483342 C87.9569329,16.2120516 88.3342305,17.6474367 90.1325544,18.6545324 C91.0262669,19.1550284 91.8374668,19.2979242 92.5661784,19.0832241 C93.2948901,18.868524 93.9094848,18.314326 94.4099808,17.4206135 L98.6946938,9.76960115 L100.035256,10.5203415 L95.7139213,18.2367471 C94.9814881,19.544619 94.0706591,20.3337921 92.981407,20.6042899 C91.8921549,20.8747878 90.7045096,20.6499271 89.4184356,19.9297011 C88.1323615,19.2094751 87.3228074,18.315866 86.9897488,17.248847 C86.6566902,16.181828 86.8563745,14.9944003 87.5888078,13.6865284 Z M95.1921659,22.9434215 L107.542081,16.477484 L108.659878,17.5041387 L103.265144,30.3581499 L102.105948,29.293471 L103.12479,26.743789 L98.7916016,22.7639177 L96.3513628,24.0081005 L95.1921659,22.9434215 Z M100.049183,22.0871891 L103.706173,25.4459977 L106.700983,18.5289446 L106.673383,18.5035952 L100.049183,22.0871891 Z M106.95195,36.1890384 C106.532842,35.5676723 106.252165,34.9169856 106.109909,34.2369588 C105.967653,33.556932 105.970748,32.8466819 106.119192,32.1061873 C106.267637,31.3656927 106.638619,30.6144801 107.232149,29.852527 C107.82568,29.090574 108.624704,28.3708297 109.629246,27.6932727 C111.389783,26.5058016 113.05887,26.0316737 114.636556,26.2708748 C116.214243,26.5100759 117.432653,27.2665653 118.291824,28.5403657 C119.011291,29.6070441 119.287598,30.731532 119.120751,31.9138631 C118.953905,33.0961942 118.396524,34.135105 117.448593,35.0306265 L116.345938,33.8984628 C117.830927,32.3694836 118.07049,30.8593773 117.064632,29.3680988 C116.435971,28.4360497 115.546204,27.9099109 114.395306,27.7896667 C113.244408,27.6694225 111.959586,28.0877751 110.5408,29.0447371 C109.059877,30.0436099 108.132802,31.1096347 107.759546,32.2428435 C107.38629,33.3760522 107.520976,34.4190216 108.163607,35.3717829 C108.771313,36.2727637 109.531987,36.7918042 110.44565,36.92892 C111.359314,37.0660358 112.301061,36.7924483 113.270921,36.1081493 L111.426857,33.3741523 L112.607447,32.5778521 L115.321154,36.6011773 L114.264837,37.3136564 C112.856407,38.2636332 111.495053,38.6243678 110.180734,38.3958709 C108.866415,38.167374 107.790165,37.4317705 106.95195,36.1890384 Z M111.190211,42.6991953 L123.448441,38.0334644 L126.254545,45.4059142 L124.923651,45.9124793 L122.67077,39.9935053 L118.695601,41.5065352 L120.761853,46.9351799 L119.465983,47.4284144 L117.399731,41.9997696 L113.074327,43.6461061 L115.327208,49.56508 L113.996315,50.0716451 L111.190211,42.6991953 Z M120.474267,61.6109173 L120.734552,63.2513756 C119.454542,63.3932597 118.514852,63.7191336 117.915455,64.2290071 C117.316058,64.7388806 116.99479,65.5992642 116.951643,66.8101837 C116.916947,67.7839128 117.109165,68.5282246 117.528302,69.0431415 C117.947439,69.5580584 118.475334,69.8268557 119.112003,69.8495414 C119.736188,69.8717823 120.237294,69.6646491 120.615335,69.2281354 C120.993376,68.7916217 121.458975,67.8270114 122.012146,66.3342757 C122.525642,64.902624 123.071376,63.8814971 123.649364,63.2708644 C124.227353,62.6602316 124.971991,62.3711554 125.883301,62.4036272 C126.832063,62.4374334 127.630259,62.8377308 128.277912,63.6045315 C128.925566,64.3713322 129.226925,65.3851446 129.181998,66.6459989 C129.137961,67.8818858 128.795418,68.9008783 128.154358,69.7030068 C127.513298,70.5051353 126.596915,70.9662079 125.40518,71.0862383 L125.124169,69.5012892 C125.928464,69.3799531 126.550943,69.0990235 126.991625,68.658492 C127.432307,68.2179606 127.669325,67.5295662 127.702686,66.5932882 C127.732044,65.7693636 127.567254,65.1322737 127.208312,64.6819994 C126.849369,64.2317251 126.389021,63.9965831 125.827255,63.9765663 C125.327906,63.9587736 124.915075,64.1440535 124.588748,64.5324116 C124.262421,64.9207698 123.850092,65.7935329 123.351749,67.1507271 C122.728152,68.8659455 122.118562,70.0129156 121.522961,70.5916719 C120.927359,71.1704281 120.130222,71.4420095 119.131525,71.406424 C118.057926,71.3681696 117.170449,70.9303176 116.469065,70.0928548 C115.767681,69.255392 115.442349,68.1251063 115.493058,66.7019638 C115.603818,63.5935209 117.264204,61.8965224 120.474267,61.6109173 Z M114.438649,76.4630738 L119.792894,77.8362136 L128.218876,75.5287254 L127.790642,77.1985239 L121.063359,78.9164399 L121.05405,78.9527399 L126.124256,83.6962182 L125.696022,85.3660168 L119.420517,79.2882124 L114.066272,77.9150725 L114.438649,76.4630738 Z M116.533957,85.2361603 L116.082811,86.8346967 C114.861162,86.4271028 113.871404,86.3291822 113.113505,86.5409318 C112.355607,86.7526815 111.703348,87.3992344 111.156708,88.4806099 C110.717142,89.3501695 110.579746,90.1065226 110.744515,90.7496917 C110.909283,91.3928608 111.275941,91.8581426 111.844499,92.1455511 C112.401909,92.4273241 112.943693,92.4492568 113.469868,92.2113499 C113.996042,91.973443 114.823026,91.2927428 115.950845,90.1692289 C117.017042,89.0845496 117.940469,88.3861173 118.721155,88.0739111 C119.50184,87.7617049 120.299081,87.8112954 121.112899,88.2226839 C121.960163,88.6509788 122.517132,89.3489322 122.783825,90.316565 C123.050518,91.2841978 122.899276,92.3309826 122.330095,93.4569509 C121.772184,94.5606228 121.034139,95.3422689 120.115937,95.8019126 C119.197735,96.2615563 118.172479,96.2961567 117.040139,95.9057146 L117.449203,94.3488917 C118.230314,94.5757827 118.913225,94.5815762 119.497958,94.3662725 C120.082692,94.1509688 120.58638,93.6252673 121.00904,92.7891523 C121.38098,92.053371 121.498346,91.4058647 121.361141,90.8466139 C121.223936,90.287363 120.904504,89.8809459 120.402835,89.6273502 C119.956907,89.4019318 119.50443,89.3971507 119.04539,89.6130066 C118.58635,89.8288625 117.846224,90.448494 116.824988,91.4719195 C115.53999,92.7679238 114.505847,93.5538553 113.722528,93.8297378 C112.939208,94.1056203 112.101633,94.0181445 111.209777,93.5673077 C110.251032,93.0826582 109.628736,92.3131913 109.342871,91.2588838 C109.057006,90.2045764 109.235292,89.0419926 109.877735,87.7710977 C111.280964,84.9951957 113.499683,84.150225 116.533957,85.2361603 Z M104.879056,96.1541544 L113.957647,103.521957 L116.519848,100.364819 L117.625574,101.26218 L111.544775,108.754927 L110.439049,107.857567 L112.989442,104.714977 L103.910851,97.3471745 L104.879056,96.1541544 Z M99.6995619,101.949031 L107.957117,112.139518 L101.828267,117.105848 L100.931732,115.999452 L105.852282,112.012233 L103.174475,108.707603 L98.6615444,112.36452 L97.7886029,111.28724 L102.301533,107.630323 L99.3877958,104.034537 L94.4672462,108.021756 L93.5707116,106.915361 L99.6995619,101.949031 Z M90.9395529,108.451641 L96.260741,120.439894 L94.2569902,121.329293 L86.4242682,113.797362 L86.3900161,113.812565 L86.721517,124.67404 L84.7177662,125.563438 L79.396578,113.575185 L80.7837902,112.959448 L85.2231814,122.961076 L85.2574336,122.945873 L84.9454265,111.112235 L85.3907044,110.914591 L93.9574799,119.08421 L93.991732,119.069007 L89.5523408,109.067379 L90.9395529,108.451641 Z M72.0242608,122.576018 L70.4666752,124.78312 L72.8516974,125.969803 L72.2791219,127.066732 L69.9947607,125.966199 L70.2037206,128.656273 L68.9707697,128.752047 L68.7618098,126.061972 L66.6561185,127.503516 L65.9382487,126.488033 L68.1128599,124.96596 L66.2144467,123.027314 L67.1018815,122.112659 L69.2520387,124.388832 L71.0062261,121.809377 L72.0242608,122.576018 Z" id="DBSDESIGNLANGUAGESYSTEM*" fill="#172633" fill-rule="nonzero"></path>
            </g>
        </g>
    </g>
</svg>