<?xml version="1.0" encoding="UTF-8"?>
<svg width="51px" height="69px" viewBox="0 0 51 69" version="1.1" xmlns="http://www.w3.org/2000/svg" xmlns:xlink="http://www.w3.org/1999/xlink">
    <!-- Generator: Sketch 63.1 (92452) - https://sketch.com -->
    <title>Fill 337</title>
    <desc>Created with Sketch.</desc>
    <g id="Page-1" stroke="none" stroke-width="1" fill="none" fill-rule="evenodd">
        <g id="People-Copy" transform="translate(-203.000000, -7217.000000)" fill="#A8D8FF">
            <g id="27" transform="translate(203.000000, 7217.000000)">
                <path d="M36.8533002,28.9489412 C36.8214067,28.9474915 36.7893061,28.9458347 36.7574126,28.944385 C36.6294244,29.4530241 36.5387144,29.9751247 36.3626789,30.4663673 C36.1870576,30.9559531 36.0317321,31.4430537 35.9263179,31.9846217 C36.1812588,31.8661602 36.3398978,31.7379649 36.3929156,31.501456 C36.4732706,31.1419294 36.6580043,30.8070478 36.6441286,30.4251543 C36.8617913,30.2205389 36.661525,29.9409531 36.7835073,29.6945034 C36.8868505,29.4855389 36.8359037,29.2003614 36.8533002,28.9489412 L36.8533002,28.9489412 Z M47.8563475,55.8873436 C47.7697795,55.6651247 47.6991582,55.5609531 47.692738,55.4528466 C47.6730635,55.1279057 47.6622943,54.8095921 47.591673,54.4834087 C47.5208446,54.1563969 47.4377972,53.8300063 47.3769096,53.5042371 C47.2855783,53.0156868 47.0515546,52.546604 47.1188623,52.0296809 C47.120312,52.0199472 47.0714363,52.0037933 47.0322943,51.9837046 C46.9335073,52.5238229 47.1134777,53.0293554 47.169602,53.545243 C47.206673,53.8875803 47.2543061,54.226604 47.3410812,54.5612785 C47.3636552,54.6488821 47.2967617,54.7594738 47.2632114,54.8893259 C47.2975901,54.9220478 47.3769096,54.978172 47.4259925,55.0539708 C47.443596,55.0813081 47.3545428,55.1763673 47.3721463,55.2051543 C47.4197795,55.282817 47.5280931,55.3314856 47.5552233,55.4112194 C47.5769688,55.4752134 47.5150457,55.5677874 47.4802528,55.6810714 C47.5502528,55.7195921 47.6488327,55.7734383 47.8563475,55.8873436 L47.8563475,55.8873436 Z M16.3114067,61.1255389 C16.4052233,61.4479945 16.4522351,61.7617519 16.5874718,62.031604 C16.7266434,62.3097401 16.8277085,62.6220478 17.0845132,62.7926986 C17.0259037,62.9254501 16.9859333,63.0149176 16.9039215,63.2000655 C17.1899274,62.9882016 17.3696907,63.0066336 17.5256375,63.2091779 C17.592738,63.2965744 17.7288031,63.3638821 17.7418505,63.4537637 C17.7814067,63.7244442 17.9439806,63.5774028 18.1084185,63.5956276 C17.7190694,63.2015152 17.5393061,62.7239412 17.3125309,62.2826099 C17.0865842,61.8425211 16.7452824,61.5074324 16.4528564,61.127817 C16.4391877,61.1100063 16.382028,61.1255389 16.3114067,61.1255389 L16.3114067,61.1255389 Z M35.0109333,40.6654501 C35.0792765,40.4032608 34.9593653,40.1100063 35.148241,39.8763969 C35.1068209,39.401101 35.4274126,38.9854501 35.3739806,38.5080833 C35.5595428,38.3318407 35.4189215,38.077314 35.5129451,37.8913377 C35.7084481,37.5042667 35.6541877,37.060243 35.8200753,36.6684087 C35.8368505,36.6290596 35.7703712,36.5545034 35.7428268,36.496101 C35.6951937,36.5346217 35.6311996,36.5636158 35.6026197,36.6129057 C35.3837144,36.9927282 35.2892765,37.4201839 35.1397499,37.8269294 C35.0065842,38.188527 34.8647203,38.5573732 34.8253712,38.9282904 C34.7644836,39.4982312 34.8094244,40.0793554 34.8094244,40.6654501 L35.0109333,40.6654501 Z M49.4947203,24.3645625 C49.4947203,24.1029945 49.4462588,23.8287933 49.5081818,23.5827578 C49.5707262,23.3350655 49.2364659,23.1155389 49.4936848,22.883172 C49.2675309,22.6847696 49.4245132,22.42403 49.3826789,22.1955981 C49.3408446,21.9675803 49.2988031,21.7389412 49.2704304,21.5086454 C49.2261108,21.1487046 49.2598682,20.7620478 49.1347795,20.4348288 C49.0341286,20.1726395 49.123596,19.9116927 49.0301937,19.6888525 C48.9171167,19.418172 48.9334777,19.1543259 48.9316138,18.8836454 C48.9305783,18.7185862 48.8719688,18.5727874 48.8322055,18.4184975 C48.7825014,18.2263081 48.6830931,18.0711898 48.6039806,17.9005389 C48.9028268,17.7646809 48.3798978,17.4882016 48.6971759,17.3556572 C48.6617617,17.2779945 48.6358741,17.1939117 48.588241,17.1247401 C48.5412292,17.0563969 48.4300162,17.0087637 48.5646315,16.9234383 C48.5196907,16.8563377 48.474957,16.7894442 48.4333298,16.7271069 C48.285667,16.8217519 48.1510517,16.9079057 47.9984185,17.0056572 C48.1326197,17.1116927 48.2343061,17.2394738 48.3645724,17.2835862 C48.5598682,17.3494442 48.4138623,17.3929353 48.3774126,17.4494738 C48.5669096,17.5671069 48.3964659,17.7129057 48.4142765,17.8406868 C48.4314659,17.9641188 48.3912883,18.08403 48.4190398,18.2004205 C48.4648091,18.3936454 48.4095132,18.6494146 48.7098091,18.7076099 C48.6298682,18.7453022 48.5557262,18.7805093 48.4759925,18.8182016 C48.6880635,18.9751839 48.5714659,19.1336158 48.4919392,19.3015744 C48.6017025,19.3181424 48.7052528,19.3338821 48.8404895,19.3541779 C48.8052824,19.477817 48.7719392,19.5759827 48.7504008,19.6768407 C48.7373534,19.7387637 48.7168505,19.8184975 48.7429451,19.8667519 C48.9189806,20.1941779 49.0415842,20.5831128 49.0426197,20.8720182 C49.043241,21.0414265 48.9875309,21.2373436 49.053596,21.3746513 C49.2174126,21.7149176 49.174957,22.0413081 49.0964659,22.380746 C49.0879747,22.4174028 49.0912883,22.4828466 49.1128268,22.4965152 C49.2878268,22.605243 49.2702233,22.7748584 49.2691877,22.9426099 C49.2673238,23.2623732 49.2640102,23.5823436 49.271673,23.9018998 C49.2739511,23.9930241 49.3609333,24.1174915 49.3255191,24.1680241 C49.1998091,24.3473732 49.4346611,24.3144442 49.4947203,24.3645625 L49.4947203,24.3645625 Z M20.0880931,25.7713969 C20.0624126,25.7742963 20.0367321,25.7774028 20.0110517,25.7803022 C20.0110517,25.9252726 20.0255487,26.072314 20.0069096,26.2150063 C19.9878564,26.3608052 19.9364954,26.502462 19.8797499,26.7219886 C19.987028,26.6290004 20.0257558,26.5954501 20.1030043,26.5285566 C20.1585073,26.8431424 20.1945428,27.138675 20.2645428,27.4259235 C20.3776197,27.8879649 20.4985664,28.3475211 20.577886,28.8176395 C20.6193061,29.063675 20.7321759,29.2981128 20.6965546,29.5567815 C20.9378268,29.736959 20.7338327,30.0322844 20.8945428,30.2692075 C21.0301937,30.4686454 20.9769688,30.7904797 21.0314363,31.0530833 C21.0900457,31.3363969 21.1803416,31.6134975 21.1407854,31.9088229 C21.3286256,32.0701543 21.1664659,32.3356572 21.2681522,32.4708939 C21.4317617,32.6889708 21.3197203,32.9033199 21.3679747,33.1110418 C21.3874422,33.1953318 21.4236848,33.2756868 21.4483298,33.3591483 C21.4978268,33.5266927 21.5804599,33.69403 21.5852233,33.8632312 C21.5964067,34.2438821 21.7647795,34.5843554 21.8289806,34.9509235 C21.8550753,35.100243 21.9975605,35.2292667 22.128241,35.431604 C22.1448091,35.2926395 22.1723534,35.2311306 22.1539215,35.1895034 C21.975815,34.783172 21.8989806,34.3376986 21.8418209,33.916456 C21.7475901,33.2251543 21.4431522,32.5725803 21.479602,31.8622253 C21.2613179,31.6327578 21.4087735,31.3148584 21.271673,31.0450063 C21.1488623,30.8033199 21.2370872,30.4576691 21.123596,30.2070773 C21.0179747,29.9740892 21.0749274,29.743172 21.0022351,29.5240596 C20.7133298,28.6548584 20.5774718,27.748172 20.3506966,26.8636454 C20.2579156,26.5010123 20.1754895,26.1354797 20.0880931,25.7713969 L20.0880931,25.7713969 Z M34.6205487,20.7479649 C34.3361996,20.7674324 34.3320576,20.9407756 34.3569096,21.133172 C34.3832114,21.3365448 34.3724422,21.7629649 34.2972647,21.9170478 C34.2504599,22.0131424 34.2289215,22.0680241 34.3028564,22.1545921 C34.5103712,22.3989708 34.1986848,22.3380833 34.1319984,22.4339708 C34.2090398,22.4702134 34.2844244,22.5054205 34.3798978,22.5501543 C34.2722055,22.8117223 34.1406966,23.0558939 34.0984481,23.346456 C34.0702824,23.5423732 34.2150457,23.7028762 34.1305487,23.881604 C34.1177085,23.908527 34.0895428,23.9279945 34.0713179,23.9480833 C34.0286552,23.9132904 33.9909629,23.8824324 33.9385664,23.8395625 C33.8006375,24.0928466 34.0851937,24.0342371 34.1081818,24.0849767 L34.1081818,24.6093554 C34.0245132,24.6377282 33.9669392,24.6569886 33.9126789,24.6754205 C34.0067025,24.7953318 34.0831227,24.8928762 34.1742469,25.0094738 C34.06117,25.0983199 33.9733593,25.1672844 33.8998386,25.2248584 C34.0746315,25.4849767 34.0421167,25.7310123 33.9725309,25.9813969 C33.9617617,26.0192963 33.9503712,26.0917815 33.9613475,26.0963377 C34.2245724,26.2079649 34.0702824,26.4929353 34.194957,26.7058347 C34.4877972,26.2976395 34.287738,25.8716336 34.3846611,25.4112489 C34.4157262,25.3892963 34.5035369,25.3267519 34.5818209,25.2710418 C34.4496907,24.9641188 34.4209037,24.9494146 34.4989806,24.7878762 C34.5867913,24.6058347 34.4093061,24.4743259 34.4654304,24.3030537 C34.5254895,24.1189412 34.5515842,23.922817 34.5787144,23.7300063 C34.5843061,23.6892075 34.5230043,23.6424028 34.5049866,23.5937341 C34.4875901,23.546101 34.4670872,23.486456 34.4809629,23.4427578 C34.5393653,23.2607164 34.6106079,23.082817 34.6768801,22.9034679 C34.4724718,22.7044442 34.6654895,22.5197105 34.6913771,22.3271069 C34.699454,22.2664265 34.6451937,22.1982904 34.623241,22.1322253 C34.6068801,22.0825211 34.5720872,21.9961602 34.5878268,21.9849767 C34.7624126,21.8605093 34.6217913,21.6318702 34.7139511,21.5308052 C34.8808741,21.3477282 34.6940694,21.182462 34.7336256,21.0615152 C34.8957854,20.5638525 34.7537144,20.0639117 34.8102528,19.570391 C34.8274422,19.420243 34.8547795,19.2713377 34.8792173,19.1095921 C34.8377972,19.1116631 34.7628268,19.0934383 34.7402528,19.1199472 C34.619099,19.2607756 34.7928564,19.4972844 34.5880339,19.6250655 C34.5801641,19.6298288 34.6549274,19.7418702 34.6656966,19.8081424 C34.6758446,19.8692371 34.6760517,19.9665744 34.6393948,19.9953614 C34.3482114,20.2240004 34.4809629,20.4756276 34.6205487,20.7479649 L34.6205487,20.7479649 Z M45.0890694,62.8711898 C45.555667,62.4068702 45.973596,62.0088229 46.2550457,61.4865152 C46.6475014,60.7581424 46.873241,59.9904205 46.8995428,59.1624324 C46.9036848,59.0317519 47.0099274,58.8710418 46.9625014,58.7795034 C46.87117,58.6024324 46.8693061,58.4796217 47.0068209,58.3429353 C47.0240102,58.325746 47.0198682,58.2522253 47.0010221,58.2387637 C46.8256079,58.1124324 46.8871167,57.9262489 46.9028564,57.7738229 C46.9490398,57.3289708 46.7680339,56.9209827 46.7386256,56.4885566 C46.681673,56.6418111 46.6102233,56.7967223 46.6195428,56.9466631 C46.628241,57.0897696 46.5636256,57.2074028 46.5588623,57.3389117 C46.5532706,57.5076986 46.5625901,57.6768998 46.55617,57.8454797 C46.5505783,57.9906572 46.5634185,58.1482608 46.5104008,58.276456 C46.4565546,58.4069294 46.5195132,58.5289117 46.4596611,58.6687046 C46.3556966,58.9116336 46.5130931,59.196604 46.3619096,59.4741188 C46.232886,59.7112489 46.4501345,60.0788525 46.1113179,60.269385 C46.2049274,60.3441483 46.2401345,60.4416927 46.2183889,60.5578762 C46.1838031,60.7405389 45.6540398,61.5668702 45.4676493,61.6985862 C45.3278564,61.7975803 45.3446315,62.0448584 45.1184777,62.0529353 C45.108744,62.1991483 45.0967321,62.3449472 45.0898978,62.4911602 C45.0855487,62.583527 45.0890694,62.6763081 45.0890694,62.8711898 L45.0890694,62.8711898 Z M14.6106966,39.691456 C14.6005487,39.8755685 14.5601641,39.9946513 14.594957,40.0847401 C14.7196315,40.4086454 14.8672943,40.7238525 15.0118505,41.039888 C15.0483002,41.1194146 15.1189215,41.1838229 15.1510221,41.264385 C15.2346907,41.4741779 15.2197795,41.7307756 15.4109333,41.8879649 C15.5871759,42.0329353 15.3481818,42.4036454 15.7182706,42.4297401 C15.8209925,42.9315448 16.1409629,43.3521661 16.266673,43.835746 C16.344957,44.1368702 16.5808446,44.3549472 16.6164659,44.6506868 C16.6763179,45.1483495 17.1048091,45.5186454 17.077886,46.0421957 C17.0766434,46.0672549 17.1358741,46.0906572 17.1526493,46.1223436 C17.2748386,46.353675 17.4637144,46.5777578 17.4943653,46.8215152 C17.5316434,47.1151839 17.8077085,47.3142075 17.7551049,47.6232016 C17.7536552,47.6312785 17.8035664,47.6480537 17.8290398,47.6606868 C17.8839215,47.5312489 17.9369392,47.4067815 17.9938919,47.2734087 C17.9025605,47.2398584 17.8375309,47.2158347 17.7660812,47.189533 C17.7551049,47.0282016 17.7621463,46.8604501 17.7275605,46.701604 C17.6925605,46.5415152 17.5281227,46.3493259 17.5772055,46.244533 C17.6654304,46.0560714 17.4579156,45.9771661 17.5011996,45.8054797 C17.5295724,45.6926099 17.4065546,45.4879945 17.2926493,45.4041188 C17.098596,45.2614265 17.3344836,45.0147696 17.2176789,44.9847401 C16.9128268,44.9066631 17.152028,44.6972844 17.075815,44.5746809 C16.9929747,44.4413081 16.9182114,44.3021365 16.849454,44.161101 C16.773241,44.0049472 16.7088327,43.8432016 16.6371759,43.6849767 C16.5725605,43.5424915 16.4965546,43.4045625 16.4406375,43.2589708 C16.3780931,43.096604 16.3424718,42.9234679 16.2761996,42.7629649 C16.2165546,42.6184087 16.1316434,42.4842075 16.0570872,42.3458643 C15.9825309,42.2077282 15.9036256,42.071456 15.8321759,41.931456 C15.7532706,41.7763377 15.6756079,41.620391 15.6070576,41.4607164 C15.5453416,41.3171957 15.5113771,41.1602134 15.4384777,41.0233199 C15.3635073,40.8831128 15.2481522,40.7648584 15.1657262,40.6279649 C15.0760517,40.4788525 15.0099866,40.3156572 14.9225901,40.1653022 C14.8422351,40.0267519 14.7469688,39.8971069 14.6106966,39.691456 L14.6106966,39.691456 Z M6.60294515,49.4697105 C6.53563745,49.1253022 6.44948361,48.9153022 6.46688006,48.7144146 C6.48903982,48.4634087 6.42090373,48.2324915 6.32977946,48.0322253 C6.18273804,47.7089412 6.10528242,47.370746 6.00608124,47.037314 C5.84619958,46.5003022 5.70226467,45.9587341 5.55149544,45.41903 C5.41915816,44.9437341 5.1853416,44.4920478 5.21288597,43.9790596 C5.01862562,43.6775211 5.16690964,43.2713969 4.88463154,42.9802134 C4.78025284,42.872314 4.81649544,42.6387046 4.75374396,42.4757164 C4.71977946,42.3872844 5.01841852,42.3147992 4.76347769,42.2626099 C4.51350728,42.211456 4.81090373,42.1182608 4.73386231,42.0598584 C4.46545994,41.8564856 4.42528242,41.5441779 4.37992739,41.2488525 C4.32318183,40.8802134 4.13306349,40.5583791 4.05809307,40.1901543 C3.9980339,39.8968998 3.95226467,39.5736158 3.7865842,39.2903022 C3.68448361,39.1159235 3.65507532,38.8870773 3.63581497,38.678527 C3.58196881,38.0922253 3.38253094,37.5388525 3.24439485,36.9742963 C3.09321142,36.356101 2.99980905,35.7271365 2.8405487,35.1120478 C2.95072621,34.9527874 2.64380313,34.7991188 2.83412858,34.6386158 C2.76102207,34.4826691 2.67196881,34.3316927 2.61895106,34.1691188 C2.56386231,34.0003318 2.61335935,33.8263673 2.54605165,33.6356276 C2.37084455,33.1404501 2.2822055,32.6146217 2.16353686,32.0997696 C2.08401023,31.7557756 2.02415816,31.406604 1.9336552,31.0655093 C1.83486822,30.6945921 1.6530339,30.3369294 1.61057828,29.9618702 C1.53395106,29.2850655 1.35874396,28.6258643 1.27901023,27.9565152 C1.20528242,27.3401839 1.08060787,26.7192963 1.14004574,26.0861898 C1.17338893,25.7318407 1.15205757,25.3716927 1.14294515,25.0144442 C1.13963154,24.8742371 1.11871438,24.7383791 1.07584455,24.5944442 C1.00025284,24.3397105 1.01019367,24.0392075 1.05989781,23.7720478 C1.14460195,23.317462 1.18498657,22.4277578 1.08247177,21.9296809 C1.02821142,22.0396513 0.9169984,22.156456 0.930045737,22.2571069 C0.988448104,22.706101 0.821525027,23.1267223 0.799986566,23.5657756 C0.735578282,24.890391 0.942057571,26.2048584 0.92051911,27.5265744 C0.919276506,27.6007164 0.905193666,27.6831424 0.93108124,27.7479649 C1.13880313,28.2665448 1.14128834,28.8257164 1.25457236,29.3627282 C1.27735343,29.4702134 1.25974988,29.5756276 1.36392148,29.6588821 C1.49315225,29.7620182 1.15081497,29.8639117 1.34155461,29.9647696 C1.61368479,30.1084975 1.37489781,30.4319886 1.58779722,30.6074028 C1.63625875,30.6473732 1.55486822,30.8414265 1.53892148,30.9652726 C1.53457236,31.0002726 1.53830018,31.0479057 1.55880313,31.0723436 C1.71288597,31.254385 1.71454278,31.2529353 1.59877355,31.4701839 C1.67809307,31.5801543 1.89617,31.6478762 1.71102207,31.8382016 C1.87048952,32.0542075 1.74270846,32.3876395 2.00862562,32.5645034 C2.04051911,32.5858347 2.05853686,32.6991188 2.04507532,32.7076099 C1.89492739,32.7993554 2.00986822,32.8687341 2.04403982,32.961101 C2.08649544,33.0762489 2.06060787,33.2183199 2.10906941,33.3293259 C2.27474988,33.7081128 2.40998657,34.0941483 2.38264929,34.5112489 C2.37188006,34.6727874 2.44043035,34.7883495 2.50193923,34.9163377 C2.5636552,35.0447401 2.65560787,35.1613377 2.61625875,35.3216336 C2.57338893,35.4955981 2.76330018,35.6726691 2.61460195,35.8484975 C2.84406941,36.0887341 2.7707558,36.4285862 2.88611083,36.6953318 C3.15492739,37.3170478 3.07374396,38.0261602 3.40531201,38.6250951 C3.39412858,38.9889708 3.55773804,39.318675 3.6124126,39.6632904 C3.66356645,39.9871957 3.84974988,40.2862489 3.77892148,40.6428762 C3.74909899,40.7926099 3.84457236,40.9883199 3.93155461,41.1343259 C4.02785639,41.2954501 3.90856645,41.4828762 4.0686552,41.6510418 C4.18297473,41.770746 4.1009629,42.1112194 4.21652503,42.188675 C4.4505487,42.345243 4.1034481,42.5314265 4.29688006,42.6403614 C4.38924692,43.218172 4.80903982,43.6748288 4.89498657,44.2553318 C5.14619958,44.3768998 5.06750136,44.6351543 5.13522325,44.8331424 C5.20874396,45.048527 5.33238302,45.2471365 5.32906941,45.4877874 C5.3278268,45.577462 5.37835935,45.6669294 5.38063745,45.7572253 C5.38374396,45.8587046 5.32948361,45.968675 5.35330018,46.0610418 C5.3967913,46.2294146 5.67368479,46.3375211 5.47714633,46.5680241 C5.57117,46.7252134 5.6755487,46.8776395 5.75590373,47.0416631 C5.8167913,47.1657164 5.81492739,47.3309827 5.89714633,47.4318407 C6.06924692,47.6420478 5.91433568,47.9191483 6.04708716,48.1034679 C6.20986822,48.3300359 6.01602207,48.5837341 6.18522325,48.7771661 C6.40102207,48.9099176 6.35090373,49.2046217 6.60294515,49.4697105 L6.60294515,49.4697105 Z M14.370667,65.8087046 C14.2321167,65.7005981 13.9970576,65.8594442 14.008241,65.5817223 C14.0090694,65.5593554 13.8027972,65.552314 13.7189215,65.4980537 C13.452383,65.3261602 13.1790102,65.1762194 12.8780931,65.070391 C12.7815842,65.0362194 12.6970872,64.9442667 12.6270872,64.8618407 C12.3156079,64.4950655 11.9937735,64.1403022 11.5588623,63.9151839 C11.4979747,63.8837046 11.6247203,63.604533 11.3948386,63.7946513 C11.3643948,63.8199176 11.2542173,63.7300359 11.1782114,63.7238229 C10.9688327,63.7068407 10.7961108,63.6198584 10.6660517,63.4630833 C10.600815,63.3847992 10.5587735,63.2822844 10.5239806,63.184533 C10.4425901,62.9544442 10.3968209,62.7082016 10.2914067,62.4903318 C9.97143627,61.8294738 9.7703416,61.1245034 9.50753094,60.4427282 C9.41371438,60.1989708 9.3503416,59.9434087 9.26356645,59.6965448 C9.1772055,59.4503022 9.05335935,59.2146217 8.99164337,58.9629945 C8.89948361,58.5866927 8.75306349,58.2350359 8.60705757,57.8788229 C8.46850728,57.5408347 8.37800432,57.1833791 8.26223509,56.8356572 C8.02572621,56.1242667 7.82131793,55.3992075 7.53427651,54.7087341 C7.37501615,54.3262194 7.39448361,53.9341779 7.30563745,53.5522844 C7.30025284,53.5292963 7.32427651,53.4994738 7.33483864,53.4729649 C7.02853686,53.4965744 7.13063745,53.209533 7.07617,53.0813377 C6.85747177,52.5700063 6.70483864,52.0315448 6.50395106,51.5113081 C6.44409899,51.3563969 6.44906941,51.354533 6.56815225,51.1246513 C6.49276763,51.0842667 6.35649544,51.049888 6.35193923,51.0028762 C6.30492739,50.522817 5.96486822,50.1191779 5.99821142,49.6188229 C6.00193923,49.5608347 5.93111083,49.4989117 5.89756053,49.4369886 C5.85614041,49.3603614 5.77785639,49.2787637 5.78386231,49.2050359 C5.82756053,48.6787933 5.49267887,48.2662489 5.37338893,47.7897105 C5.30152503,47.5032904 5.2924126,47.199888 5.11119958,46.9358347 C5.04906941,46.8449176 5.11989781,46.662462 5.13667296,46.4332016 C4.88628834,46.240391 4.74649544,45.8928762 4.76078538,45.4834383 C4.76202799,45.445746 4.77590373,45.3981128 4.75871438,45.3718111 C4.37143627,44.786959 4.4528268,44.039533 4.09412858,43.4426691 C4.0667913,43.3968998 4.14507532,43.2875507 4.17903982,43.1949767 C3.89551911,42.9932608 3.80957236,42.6741188 3.73646586,42.328675 C3.65341852,41.9368407 3.52025284,41.554533 3.39205757,41.1738821 C3.21830018,40.6582016 3.05427651,40.1410714 2.95051911,39.6055093 C2.91738302,39.4352726 2.8419984,39.2737341 2.79726467,39.1051543 C2.75915816,38.9628762 2.80451319,38.7911898 2.69847769,38.6762489 C2.50690964,38.4681128 2.7355487,38.1541483 2.50173213,37.9654797 C2.53383272,37.6484087 2.30208716,37.3959531 2.2819984,37.0983495 C2.26128834,36.790391 2.10430609,36.510391 2.08214633,36.2254205 C2.04611083,35.7542667 1.88332976,35.3172844 1.80235343,34.8612489 C1.72986822,34.4532608 1.71972029,34.0135862 1.50392148,33.6345921 C1.46933568,32.9184383 1.12472029,32.2751839 1.02427651,31.5716631 C0.977471773,31.2432016 0.852590116,30.9257164 0.785075323,30.5955981 C0.749868222,30.4241188 0.701820885,30.2520182 0.694572364,30.0730833 C0.692294258,30.0165448 0.718596033,29.9384679 0.690430353,29.9069886 C0.449779465,29.636101 0.455785382,29.3103318 0.465726211,28.9816631 C0.28368479,28.8621661 0.384128577,28.6753614 0.35368479,28.5194146 C0.323448104,28.3640892 0.24847769,28.211456 0.247649287,28.0575803 C0.243300175,27.1865152 0.0966729561,26.325391 0.114276506,25.4495625 C0.128980648,24.7147696 -0.0704572214,23.9741779 0.0268800567,23.2389708 C0.136229169,22.4113969 0.114483607,21.5591779 0.461791299,20.7676395 C0.625400767,20.3948584 0.787146329,20.0355389 1.03256053,19.7014856 C1.26492739,19.3854501 1.52980905,19.1097992 1.80545994,18.8405685 C2.10368479,18.5489708 2.45886231,18.3613377 2.88217591,18.3045921 C3.0534481,18.281604 3.22223509,18.2205093 3.38460195,18.1567223 C3.65176171,18.0519294 3.92989781,18.0115448 4.2065842,17.9512785 C4.57190964,17.8715448 4.93040077,17.8785862 5.293241,17.853527 C5.71862562,17.8241188 6.09140668,18.036604 6.49773804,18.092314 C6.54806349,18.0991483 6.58119958,18.2321069 6.59756053,18.2617223 C6.71125875,18.2536454 6.81791556,18.2142963 6.89226467,18.2470182 C7.06788597,18.3246809 7.22983864,18.43403 7.39406941,18.5357164 C7.52951319,18.6197992 7.67489781,18.6958052 7.78921733,18.8037046 C7.9155487,18.9232016 7.99548952,19.0932312 8.1253416,19.2071365 C8.24090373,19.3086158 8.42688006,19.335746 8.52856645,19.444888 C8.69466112,19.6232016 8.72572621,19.8969886 8.9336552,20.0618407 C9.01090373,20.1227282 9.02602207,20.2592075 9.10078538,20.3256868 C9.30933568,20.5110418 9.39652503,20.772817 9.55143627,20.9840596 C9.69267887,21.1760418 9.63531201,21.437817 9.87389189,21.600391 C10.0611108,21.7279649 10.1460221,21.999888 10.2905783,22.1970478 C10.4407262,22.401456 10.637886,22.5762489 10.7619392,22.7941188 C11.0607854,23.3203614 11.5251049,23.7339412 11.7663771,24.297462 C11.7939215,24.361456 11.8357558,24.4548584 11.8873238,24.4674915 C12.2555487,24.5567519 12.3050457,24.9496217 12.5554304,25.1469886 C12.5256079,25.3246809 12.6436552,25.3120478 12.7612883,25.3161898 C12.8064363,25.3178466 12.8749866,25.3484975 12.8905191,25.3841188 C13.0280339,25.7020182 13.3074126,25.8631424 13.5683593,26.0603022 C13.7651049,26.2087933 13.8889511,26.4508939 14.0569096,26.6410123 C14.1938031,26.7959235 14.3319392,26.9580833 14.4988623,27.0757164 C14.6572943,27.1875507 14.6446611,27.4551247 14.8867617,27.4745921 C14.8349866,27.7775803 15.1891286,27.7856572 15.2614067,27.986959 C15.3413475,28.2085566 15.6145132,28.2245034 15.6917617,28.4794442 C15.7497499,28.6699767 15.9912292,28.8050063 16.1509037,28.9646809 C16.3240398,29.137817 16.4969688,29.3109531 16.6738327,29.4876099 C16.7127676,29.452817 16.7519096,29.417817 16.7908446,29.3832312 C16.7887735,29.475391 17.0391582,29.4447401 16.9014363,29.6240892 C16.8662292,29.6698584 16.9105487,29.8299472 16.9683298,29.8846217 C17.1853712,30.0898584 17.3204008,30.3851839 17.5981227,30.5162785 C17.7956966,30.6094738 17.819099,30.7937933 17.9226493,30.937314 C18.1152528,31.2042667 18.3940102,31.4092963 18.6398386,31.6371069 C18.6626197,31.6584383 18.7322055,31.6511898 18.7361404,31.6673436 C18.8786256,32.2853318 19.5396907,32.429888 19.8501345,32.8915152 C19.9984185,33.1118702 20.1371759,33.3388525 20.283596,33.5683199 C20.4045428,33.3978762 20.5225901,33.4206572 20.641673,33.5517519 C20.6584481,33.5171661 20.6903416,33.4834087 20.6861996,33.4548288 C20.6532706,33.2249472 20.6812292,32.9474324 20.559454,32.7788525 C20.3900457,32.5437933 20.5232114,32.2876099 20.3917025,32.0504797 C20.269099,31.8297105 20.2809037,31.5333495 20.2376197,31.2695034 C20.197028,31.0220182 20.1988919,30.7604501 20.116673,30.5282904 C19.9095724,29.9438525 19.9184777,29.312817 19.6848682,28.7310714 C19.5738623,28.4560418 19.6022351,28.1265448 19.5570872,27.8231424 C19.5309925,27.6487637 19.5256079,27.4503614 19.435312,27.3120182 C19.3321759,27.1546217 19.3957558,26.9655389 19.3187144,26.8532904 C19.2207558,26.7105981 19.2439511,26.5788821 19.2168209,26.4390892 C19.1464067,26.0752134 19.0761996,25.7094738 18.9738919,25.3538821 C18.7980635,24.7427282 18.5955191,24.1392371 18.5425014,23.4999176 L18.3652233,23.045746 C18.1500457,22.8179353 18.2318505,22.5037637 18.1384481,22.2368111 C18.0560221,22.001959 17.870667,21.7567519 18.0272351,21.4757164 C18.0444244,21.4446513 18.0458741,21.3895625 18.0299274,21.3580833 C17.7669096,20.8351543 17.5171463,20.0330537 17.4738623,19.5484383 C17.4715842,19.5227578 17.5053416,19.4784383 17.4972647,19.4709827 C17.2106375,19.2147992 17.3914363,18.8061898 17.187028,18.5249472 C17.230312,17.9380241 16.9084777,17.3997696 16.9575605,16.8109827 C16.9629451,16.7461602 16.9233889,16.6765744 16.8999866,16.6105093 C16.7985073,16.3218111 16.6914363,16.0355981 16.7334777,15.7187341 C16.7550162,15.5540892 16.7077972,15.4062194 16.6297203,15.2535862 C16.5584777,15.1148288 16.6556079,14.9466631 16.5530931,14.775391 C16.4178564,14.5492371 16.4936552,14.258675 16.417028,13.9896513 C16.2654304,13.4580241 16.2343653,12.8920182 16.1573238,12.3400951 C16.0918801,11.8712194 15.9862588,11.4025507 15.8713179,10.9388525 C15.7988327,10.6466336 15.7998682,10.3361898 15.7209629,10.0398288 C15.6395724,9.73331994 15.6430931,9.40692941 15.5055783,9.11181107 C15.4838327,9.06521344 15.4939806,9.00308326 15.492738,8.9479945 C15.4877676,8.69491758 15.4815546,8.45157438 15.3933298,8.19932586 C15.3133889,7.97068681 15.4417913,7.6871661 15.2665842,7.46018385 C15.2665842,6.93311284 15.2690694,6.40583474 15.2657558,5.87876373 C15.2630635,5.47968089 15.311525,5.10337912 15.4475901,4.7127874 C15.5718505,4.35512468 15.6194836,3.95811284 15.7116434,3.57932586 C15.848744,3.01663355 16.0005487,2.45911876 16.235815,1.93184065 C16.3319096,1.71687024 16.3430931,1.47953296 16.4375309,1.2815448 C16.6951641,0.740805152 17.0580043,0.290568465 17.679099,0.11722527 C17.9073238,0.0536453885 18.1266434,-0.00599958188 18.3679156,0.00497674948 C18.7061108,0.0203021933 19.0467913,0.0269294122 19.3839511,0.00435544771 C19.8283889,-0.0254670375 20.2570872,0.101899826 20.6346315,0.262816986 C21.5924718,0.671012252 22.4999866,1.18586432 23.0769688,2.11471048 C23.3693948,2.1579945 23.3275605,2.45953296 23.4669392,2.62231403 C23.6063179,2.78530219 23.7254008,2.96568681 23.851525,3.13985841 C23.9505191,3.2767519 23.9101345,3.4159235 23.8444836,3.56317202 C24.0364659,3.63130811 24.1327676,3.77834953 24.2499866,3.93988799 C24.4363771,4.19648563 24.3669984,4.51811284 24.5772055,4.77595308 C24.7515842,4.99050929 24.7797499,5.32663355 24.9539215,5.57308326 C24.796525,5.81642645 25.2142469,5.92121935 25.0945428,6.15545012 C25.325667,6.31553888 25.0839806,6.63965131 25.2573238,6.75479923 C25.444957,6.87968089 25.5412588,7.0592371 25.6479156,7.21849746 C25.8293357,7.48897083 25.827886,7.8634087 26.1033298,8.09349746 C26.019454,8.15583474 25.9861108,8.2111306 26.0834481,8.30287616 C26.0985664,8.316959 25.9801049,8.44681107 26.1041582,8.53586432 C26.3313475,8.69864539 26.4686552,8.93101225 26.5450753,9.19817202 C26.6167321,9.45000634 26.7824126,9.65752113 26.8118209,9.94207734 C26.8296315,10.1152134 26.8292173,10.3624915 26.9557558,10.4902726 C27.0990694,10.6350359 27.0984481,10.814385 27.1825309,10.9676395 C27.2759333,11.1378762 27.3856966,11.3027282 27.3602233,11.5183199 C27.3538031,11.5734087 27.4146907,11.6539708 27.466673,11.6945625 C27.5687735,11.7740892 27.584099,11.870391 27.5822351,11.9888525 C27.579957,12.1400359 27.5101641,12.3330537 27.7754599,12.3608052 C27.7976197,12.3632904 27.7862292,12.5337341 27.8193653,12.6140892 C27.9788327,13.0005389 28.1784777,13.371456 28.2582114,13.7879353 C28.2646315,13.8214856 28.273744,13.8633199 28.2971463,13.8836158 C28.5317913,14.0892667 28.5541582,14.3742371 28.6359629,14.6503022 C28.6846315,14.8143259 28.6653712,15.0512489 28.8898682,15.1709531 C29.0340102,15.2479945 28.8824126,15.3515448 28.8285664,15.4345921 C29.1495724,15.5791483 28.9401937,16.006604 29.2241286,16.1789117 C29.2659629,16.204385 29.2603712,16.3104205 29.2734185,16.3797992 C29.2870872,16.4500063 29.2715546,16.5562489 29.3123534,16.585243 C29.4500753,16.6827874 29.4268801,16.8128466 29.4538031,16.9484975 C29.4769984,17.066959 29.6979747,17.1968111 29.6735369,17.2641188 C29.6114067,17.4347696 29.7553416,17.503527 29.7739806,17.6230241 C29.7965546,17.7646809 29.8172647,17.9065448 29.8388031,18.0482016 C29.8441877,18.0836158 29.8361108,18.1312489 29.8561996,18.1529945 C30.1395132,18.4599176 30.0972647,18.932314 30.4584481,19.2181128 C30.303744,19.3187637 30.1910812,19.3920773 30.0713771,19.4697401 C30.0962292,19.5041188 30.1084481,19.5387046 30.1316434,19.5496809 C30.2573534,19.6091188 30.3921759,19.6521957 30.5108446,19.7226099 C30.5655191,19.7549176 30.6380043,19.8667519 30.6224718,19.8911898 C30.4429156,20.1697401 30.6713475,20.2008052 30.8600162,20.2710123 L30.8600162,20.764533 C31.0667025,20.7827578 31.1617617,20.9223436 31.071673,21.0575803 C30.9314659,21.2679945 31.0588327,21.4082016 31.1833002,21.4589412 C31.3800457,21.5392963 31.4272647,21.6529945 31.423744,21.8371069 C31.4225014,21.9037933 31.4380339,22.0036158 31.4823534,22.0334383 C31.7238327,22.1949767 31.7252824,22.4567519 31.8157854,22.6903614 C31.8700457,22.8303614 31.814957,23.0163377 31.9916138,23.1321069 C32.1169096,23.2141188 32.1831818,23.3849767 32.2776197,23.5150359 C32.3830339,23.6600063 32.4805783,23.8124324 32.5998682,23.9449767 C32.7048682,24.0615744 32.6495724,24.1263969 32.5783298,24.2268407 C32.5530635,24.262462 32.6495724,24.3699472 32.6588919,24.4484383 C32.6740102,24.5751839 32.6630339,24.705243 32.6630339,24.8485566 C32.7790102,24.80403 32.8657854,24.7706868 32.9902528,24.7230537 C32.9519392,24.8837637 32.7955783,25.0005685 32.9745132,25.1217223 C33.0509333,25.1734975 33.1803712,25.250746 33.013241,25.357817 C33.0527972,25.3805981 33.1014659,25.4307164 33.1302528,25.4211898 C33.2986256,25.3656868 33.3856079,25.1995921 33.3350753,25.0291483 C33.3207854,24.981101 33.2565842,24.9500359 33.2311108,24.902817 C33.2161996,24.8758939 33.2333889,24.8315744 33.2371167,24.7847696 C33.2990398,24.7624028 33.3642765,24.7387933 33.443596,24.7102134 C33.4083889,24.6540892 33.3340398,24.5677282 33.3470872,24.5513673 C33.4647203,24.4043259 33.2961404,24.2096513 33.3541286,24.143172 C33.5059333,23.9694146 33.4433889,23.78903 33.4491877,23.6134087 C33.4562292,23.4127282 33.4804599,23.226959 33.5568801,23.0351839 C33.6117617,22.8980833 33.6086552,22.7361306 33.5854599,22.5652726 C33.5479747,22.2883791 33.4812883,21.9754501 33.6796907,21.7109827 C33.5287144,21.5163081 33.6925309,21.3218407 33.6914954,21.1267519 C33.6900457,20.8581424 33.5962292,20.5802134 33.7579747,20.3111898 C33.8878268,20.0949767 33.6848682,19.7930241 33.9056375,19.5826099 C33.8664954,19.2504205 34.0017321,18.9318998 34.0050457,18.6127578 C34.0110517,18.0082312 34.1491877,17.423172 34.2682706,16.8476395 C34.4045428,16.1888525 34.5988031,15.533172 34.8651345,14.896959 C35.2263179,14.0347992 35.629957,13.1999767 36.1767025,12.4508939 C36.5293948,11.9681424 36.7410517,11.3478762 37.349099,11.0749176 C37.3828564,11.0597992 37.3803712,10.9765448 37.4089511,10.9342963 C37.6493948,10.5764265 37.9989806,10.3424028 38.3850162,10.1910123 C38.5183889,10.1388229 38.6428564,10.1017519 38.7664954,10.0160123 C38.905667,9.91950338 39.0597499,9.83045012 39.2550457,9.82900042 C39.4279747,9.82775781 39.5996611,9.75796492 39.7732114,9.72462172 C39.9469688,9.69148563 40.1503416,9.80311284 40.2940694,9.6132016 C40.3079451,9.59497675 40.3665546,9.6136158 40.4040398,9.61030219 C40.8401937,9.57343829 41.2769688,9.5417519 41.7122943,9.49474006 C41.8868801,9.47589391 42.0589806,9.38746196 42.2302528,9.39263947 C42.5168801,9.4015448 42.800815,9.47444421 43.0878564,9.49370456 C43.3688919,9.51255071 43.6561404,9.46843829 43.9336552,9.5059235 C44.2271167,9.54547971 44.5267913,9.61506551 44.7970576,9.73290574 C45.08617,9.8588229 45.4256079,9.8592371 45.6743357,10.0661306 C45.909602,10.2618407 46.2347499,10.3287341 46.4358446,10.5290004 C46.6394244,10.7321661 47.0289806,10.8046513 47.0140694,11.203527 C47.0128268,11.2362489 47.0706079,11.2838821 47.1109925,11.3033495 C47.5229156,11.5007164 47.6260517,11.9207164 47.7902824,12.2827282 C47.8830635,12.4867223 47.9116434,12.7379353 47.9025309,12.9651247 C47.8942469,13.1738821 48.1330339,13.0547992 48.1396611,13.2012194 C48.1446315,13.3111898 48.1309629,13.42903 48.16617,13.5290596 C48.2664067,13.8150655 48.361673,14.0992075 48.3666434,14.4065448 C48.3674718,14.4581128 48.3759629,14.518172 48.4035073,14.5595921 C48.6400162,14.9172549 48.6145428,15.3405685 48.7038031,15.7346809 C48.7425309,15.9069886 48.855815,16.1132608 48.7986552,16.2445625 C48.7166434,16.432817 48.7934777,16.5755093 48.8247499,16.7221365 C48.9233298,17.1879057 48.8939215,17.6791483 49.1248386,18.1221365 C49.1950457,18.2563377 49.1080635,18.4797992 49.1875901,18.6001247 C49.2766434,18.7351543 49.1846907,18.8550655 49.2468209,18.9942371 C49.3348386,19.1907756 49.4354895,19.4187933 49.3897203,19.6733199 C49.3522351,19.8829057 49.5257854,20.0701247 49.5061108,20.3037341 C49.4889215,20.5095921 49.5788031,20.7222844 49.6051049,20.9341483 C49.6314067,21.1470478 49.5529156,21.3765152 49.7179747,21.5668407 C49.7366138,21.5883791 49.7188031,21.6401543 49.7208741,21.6776395 C49.7581522,22.3397401 49.7409629,23.010746 49.8451345,23.6622844 C50.0445724,24.9082016 49.8904895,26.1559827 49.9447499,27.4012785 C49.9524126,27.579385 49.9435073,27.5795921 50.1464659,27.8401247 C50.16117,27.5829057 50.1729747,27.3737341 50.1885073,27.1067815 C50.270312,27.144888 50.3879451,27.1713969 50.3898091,27.2047401 C50.4051345,27.4675507 50.4113475,27.7324324 50.3910517,27.9944146 C50.3842173,28.0842963 50.2943357,28.1677578 50.2444244,28.2508052 C50.0804008,28.1814265 50.3173238,27.8430241 49.9818209,27.9258643 C50.0841286,28.1205389 50.0559629,28.349385 50.2543653,28.5260418 C50.4173534,28.6705981 50.1555783,28.9226395 50.2491877,29.1322253 C50.2518801,29.1384383 50.2160517,29.1560418 50.2125309,29.1715744 C50.1603416,29.395243 50.0072943,29.5959235 49.9702233,29.8001247 C49.9352233,29.9935566 50.1009037,30.2217815 50.169454,30.4373732 C50.1843653,30.4839708 50.1617913,30.5421661 50.1541286,30.6165152 C50.0861996,30.5806868 50.0354599,30.5539708 49.9397795,30.5034383 C50.049957,30.978527 50.2299274,31.4426395 49.819454,31.8545625 C50.12617,32.1913081 49.8190398,32.522462 49.7842469,32.8598288 C49.77617,32.9356276 49.6022055,32.9942371 49.477738,33.0791483 C49.6048978,33.0986158 49.7084481,33.1145625 49.8144836,33.1307164 C49.7065842,33.3999472 49.6900162,33.5660418 49.7179747,33.8947105 C49.7237735,33.9632608 49.7059629,34.0384383 49.6811108,34.1040892 C49.6077972,34.3008347 49.590815,34.4839117 49.603241,34.7144146 C49.6090398,34.8179649 49.5686552,34.9240004 49.5500162,35.0290004 C49.5309629,35.1344146 49.5297203,35.246456 49.4907854,35.3433791 C49.4325901,35.4883495 49.6983002,35.6411898 49.4928564,35.7544738 C49.3137144,35.8530537 49.4475014,36.0446217 49.3340102,36.1432016 C49.2990102,36.1734383 49.2335664,36.1684679 49.0654008,36.2049176 C49.2314954,36.2488229 49.3201345,36.2722253 49.4176789,36.2981128 C49.3652824,36.3442963 49.4044244,36.3097105 49.4439806,36.2747105 C49.6061404,36.5027282 49.3576197,36.693675 49.3917913,36.8891779 C49.4356966,37.1410123 49.2076789,37.2327578 49.115312,37.4479353 C49.214099,37.488527 49.2880339,37.5189708 49.3843357,37.5587341 C49.3615546,37.8882312 49.4392173,38.2284975 49.2097499,38.5455685 C49.0842469,38.7189117 49.1422351,39.0235566 49.3014954,39.4713081 C49.1931818,39.3917815 49.1546611,39.3489117 49.1072351,39.3327578 C49.0614659,39.3172253 49.0065842,39.3294442 48.9295428,39.3294442 C49.0523534,39.5118998 49.1575605,39.6678466 49.2629747,39.8242075 C49.1438919,39.9851247 49.0223238,40.1406572 49.1494836,40.3622549 C49.1741286,40.4051247 49.1347795,40.5049472 49.0972943,40.5596217 C49.012383,40.6830537 49.0088623,40.7905389 49.1026789,40.9090004 C49.1333298,40.9479353 49.1629451,41.0432016 49.1521759,41.0504501 C48.8473238,41.249888 49.2816138,41.4439412 49.1538327,41.6392371 C49.0788623,41.7533495 49.0105191,41.871604 48.9633002,41.9492667 C49.0364067,42.0360418 49.0999866,42.1039708 49.1548682,42.1779057 C49.2710517,42.3340596 48.9983002,42.4599767 49.1364363,42.6608643 C49.224454,42.7888525 49.1743357,43.0276395 49.1521759,43.2127874 C49.0743061,43.864533 49.3224126,44.494533 49.2685664,45.143172 C49.436525,45.4710123 49.3590694,45.8253614 49.3857854,46.1691483 C49.4021463,46.3810123 49.454957,46.590391 49.4953416,46.8001839 C49.5326197,46.9932016 49.4599274,47.1820773 49.5734185,47.3912489 C49.6682706,47.566456 49.5659629,47.838172 49.6204304,48.0492075 C49.6560517,48.186101 49.8014363,48.2908939 49.6098682,48.4116336 C49.7664363,48.5137341 49.7159037,48.6725803 49.7202528,48.8158939 C49.730815,49.1756276 49.8213179,49.5183791 49.9194836,49.8621661 C49.9590398,50.0007164 49.9816138,50.1711602 49.9352233,50.2995625 C49.8842765,50.4401839 50.1667617,50.5397992 49.9544836,50.6650951 C50.0309037,50.8674324 50.0772943,51.0728762 50.0617617,51.2930241 C50.047886,51.4916336 50.099454,51.6761602 50.1601345,51.8710418 C50.2773534,52.2475507 50.3338919,52.6445625 50.3941582,53.0361898 C50.426673,53.2480537 50.4163179,53.4551543 50.4931522,53.672817 C50.5722647,53.8971069 50.5451345,54.1783495 50.3922943,54.4080241 C50.3467321,54.4765744 50.3084185,54.5500951 50.3210517,54.6749767 C50.4067913,54.6058052 50.4923238,54.5368407 50.5780635,54.4678762 C50.741673,54.716604 50.5148978,54.8271957 50.3784185,54.9963969 C50.482383,55.1115448 50.447383,55.3205093 50.6745724,55.3745625 C50.7168209,55.3845034 50.7298682,55.56903 50.7346315,55.6738229 C50.7462292,55.9227578 50.6814067,56.1321365 50.3575014,56.1882608 C50.5998091,56.2686158 50.7031522,56.3763081 50.583241,56.5894146 C50.5704008,56.6119886 50.6722943,56.7337637 50.7601049,56.7664856 C50.5559037,56.9988525 50.7319392,57.3763969 50.4111404,57.6048288 C50.4985369,57.5874324 50.5861404,57.5700359 50.7077085,57.5458052 C50.6816138,57.8270478 50.7296611,58.1685566 50.6039511,58.424533 C50.4635369,58.7099176 50.6267321,59.0559827 50.3353416,59.3038821 C50.2282706,59.3127874 50.0872351,59.3241779 49.9466138,59.3357756 C49.9459925,59.3542075 49.9455783,59.3728466 49.944957,59.3914856 C50.0464363,59.4103318 50.1479156,59.429385 50.2854304,59.4550655 C50.2891582,59.7021365 50.1806375,59.917314 50.0843357,60.1409827 C49.809099,60.7792667 49.4361108,61.3514856 49.0152824,61.9048584 C48.8013475,62.1858939 48.5559333,62.4279945 48.3258446,62.6887341 C48.1079747,62.9349767 47.9118505,63.2021365 47.6830043,63.4371957 C47.1000162,64.0359235 46.4994244,64.6166336 45.7188623,64.9631128 C45.368241,65.3696513 44.8618801,65.5208347 44.4064659,65.7496809 C43.6743653,66.1174915 42.899602,66.3848584 42.1279451,66.6565744 C41.7168505,66.8011306 41.3057558,66.9477578 40.8876197,67.0699472 C40.4676197,67.1927578 40.0206966,67.2186454 39.6236848,67.4292667 C39.564454,67.460746 39.4789215,67.4512194 39.4062292,67.4468702 C39.0941286,67.4286454 38.7979747,67.4735862 38.5208741,67.6297401 C38.4620576,67.6628762 38.3833593,67.6608052 38.3137735,67.6740596 C38.1037735,67.7142371 37.8910812,67.615243 37.6719688,67.7724324 C37.5342469,67.8714265 37.2741286,67.7247992 37.1057558,67.8975211 C37.0873238,67.9163673 37.0328564,67.901456 36.9953712,67.9000063 C36.2168801,67.8674915 35.4520576,68.0859827 34.6694244,68.0201247 C34.4233889,67.9996217 34.1715546,67.9770478 33.9176493,68.1100063 C33.7906966,68.1764856 33.5498386,68.1994738 33.4050753,68.0209531 C33.2799866,68.1768998 33.1047795,68.1226395 32.9467617,68.1245034 C32.4948682,68.1292667 32.0425605,68.1124915 31.5914954,68.1317519 C31.3616138,68.1416927 31.1155783,68.0329649 30.898744,68.2334383 C30.7852528,68.3386454 30.6821167,67.9838821 30.5205783,68.1787637 C30.2165546,68.127817 29.9286848,68.2642963 29.6221759,68.2460714 C29.1719392,68.2189412 28.6954008,68.1512194 28.2735369,68.2634679 C27.843596,68.3782016 27.4325014,68.3241483 27.0145724,68.3465152 C26.5639215,68.370746 26.1109925,68.3425803 25.6595132,68.3572844 C25.504602,68.3622549 25.3463771,68.4136158 25.1995428,68.4689117 C25.0543653,68.5233791 24.9214067,68.2674028 24.7832706,68.4649767 C24.6260812,68.4047105 24.469099,68.2926691 24.3119096,68.4649767 C24.1735664,68.2841779 24.0358446,68.4916927 23.8970872,68.4658052 C23.7579156,68.4397105 23.6241286,68.4774028 23.4731522,68.3929057 C23.328596,68.3123436 23.1109333,68.3417519 22.9278564,68.3554205 C22.2651345,68.4051247 21.6160812,68.2659531 20.9935369,68.1046217 C20.3879747,67.9476395 19.7706079,67.8047401 19.179957,67.582314 C19.0979451,67.551456 18.996673,67.5545625 18.9065842,67.5632608 C18.2428268,67.6280833 17.6196611,67.3576099 16.9668801,67.3306868 C16.9057854,67.3282016 16.8509037,67.2515744 16.7867025,67.2242371 C16.6746611,67.176604 16.5580635,67.1403614 16.4429156,67.0997696 C16.3279747,67.059385 16.2151049,67.0011898 16.0964363,66.9854501 C15.9910221,66.9715744 16.169957,66.7126986 15.9330339,66.8243259 C15.8518505,66.8626395 15.7112292,66.8094146 15.6114067,66.7663377 C15.4674718,66.7040004 15.3349274,66.6147401 15.1994836,66.5333495 C14.9128564,66.3616631 14.6268505,66.188527 14.341673,66.0143554 C14.2190694,65.9395921 14.2793357,65.875391 14.370667,65.8087046 L14.370667,65.8087046 Z" id="Fill-337"></path>
            </g>
        </g>
    </g>
</svg>