<?xml version="1.0" encoding="UTF-8"?>
<svg width="71px" height="78px" viewBox="0 0 71 78" version="1.1" xmlns="http://www.w3.org/2000/svg" xmlns:xlink="http://www.w3.org/1999/xlink">
    <!-- Generator: Sketch 63.1 (92452) - https://sketch.com -->
    <title>Fill 225</title>
    <desc>Created with Sketch.</desc>
    <g id="Page-1" stroke="none" stroke-width="1" fill="none" fill-rule="evenodd">
        <g id="People-Copy" transform="translate(-545.000000, -7130.000000)" fill="#FFC8BE">
            <g id="43" transform="translate(545.000000, 7130.000000)">
                <path d="M67.4032689,38.9834215 C67.4072125,38.689838 67.3750062,38.4763227 67.3324478,38.2484743 C67.2629413,37.8746578 67.1392098,37.5191286 67.0565579,37.1523963 C66.9305259,36.5938958 66.6840489,36.0811956 66.4867029,35.5515262 C66.4221259,35.378704 66.3605067,35.1875947 66.2551788,35.020374 C66.1533017,34.8587548 66.0560254,34.6887334 65.9944061,34.5028961 C65.9875048,34.4824671 65.9610496,34.4152494 65.8813553,34.4725822 C65.9012378,34.5534741 65.8969655,34.6328834 65.9485614,34.7373345 C66.1440998,35.1322389 66.267667,35.5594341 66.4282057,35.9699897 C66.6002467,36.4093764 66.7377809,36.8589776 66.8598692,37.3112148 C66.9251034,37.5522432 67.0016756,37.7970609 67.0706892,38.033641 C67.1561346,38.3267303 67.1855475,38.6532636 67.4032689,38.9834215 M44.4503407,22.9897118 C44.5730862,22.9842751 44.6159732,23.1073429 44.761066,23.0569296 C44.9050086,23.006681 44.9939047,22.9076666 45.1130353,22.8407783 C45.2793251,22.7470359 45.3439021,22.5842635 45.3517894,22.4165485 C45.3583621,22.2738755 45.4748636,22.3239594 45.5364828,22.2575654 C45.5474921,21.9687596 45.5328678,21.6816014 45.2247715,21.4387607 C44.980102,21.9745258 44.535786,22.361028 44.4503407,22.9897118 M54.6802882,61.3631485 C53.9960679,61.6977546 52.5004452,62.8740655 52.2965266,63.4920406 C52.4782623,63.3777045 52.6828382,63.3554633 52.7459364,63.1165766 C52.7689409,63.0292594 52.900231,62.9765396 52.9549489,62.8905404 C53.0336572,62.7669783 53.1802289,62.8834562 53.2684677,62.7709323 C53.3598285,62.654125 53.536799,62.5893785 53.5936531,62.4641689 C53.6717041,62.2923352 53.852454,62.2974425 53.9495659,62.1742099 C54.0412554,62.0580616 54.1398462,61.9155533 54.2666997,61.8674465 C54.4155719,61.8109374 54.4320037,61.6002229 54.5979649,61.6124144 C54.7739495,61.6252648 54.7284334,61.3616657 54.9022819,61.3913206 C55.0544404,61.2138855 55.2943447,61.1450202 55.4363155,60.9520987 C55.4867611,60.8833981 55.5122304,60.8318316 55.4394375,60.7578591 C55.2402841,60.7873492 55.1034071,60.9408957 54.9594645,61.0371094 C54.854301,61.0219524 54.8168365,60.8838924 54.7067434,60.9606656 C54.6998421,60.9682441 54.6817671,60.9789528 54.6816028,60.989991 C54.6794666,61.1091049 54.6802882,61.2282187 54.6802882,61.3631485 M58.4393918,63.1376646 C58.0098644,63.2933528 57.7717676,63.6772189 57.4110895,63.9058911 C57.037759,64.1429656 56.697292,64.4222158 56.357318,64.7014661 C56.0071563,64.9894481 55.6721118,65.2957173 55.3327951,65.5921015 C55.4039448,65.6281817 55.4974418,65.6469631 55.5623474,65.5797453 C55.8030733,65.3308089 56.2174834,65.3433299 56.4011909,65.0130073 C56.6502971,65.0092181 56.7626906,64.7996568 56.930295,64.66934 C57.0490969,64.5769156 57.194847,64.5159583 57.309541,64.5245252 C57.4166763,64.3428066 57.5192108,64.2342367 57.6904302,64.1553218 C57.8317437,64.090081 57.9111093,63.9118221 58.0838075,63.8729413 C57.9686206,63.6284531 57.9870242,63.6058824 58.3455662,63.5080213 C58.3353785,63.4520065 58.2481256,63.4412978 58.2750737,63.3261379 C58.3141814,63.2814908 58.3767866,63.2094953 58.4393918,63.1376646 M46.9722938,50.0438743 C47.5036983,49.3576929 47.9207374,48.6158263 48.3159223,47.8629214 C48.7919516,46.95647 49.242676,46.0363445 49.711311,45.1257744 C49.7638928,45.0236297 49.7678364,44.9480098 49.696851,44.8452061 C48.7165296,46.4930299 47.8645407,48.193903 46.9754158,49.8745119 C46.951754,49.9189942 46.9722938,49.9870358 46.9722938,50.0438743 M14.3158929,26.601184 C14.1638988,26.753742 14.0117403,26.884553 13.8866942,27.03777 C13.7637844,27.1880215 13.5968372,27.2843999 13.4663687,27.4306974 C13.291863,27.6265844 13.1664883,27.8583869 12.9748935,28.039776 C12.5948259,28.399424 12.2824573,28.8175581 11.9574363,29.2267956 C11.4482147,29.8681652 11.0574664,30.5821892 10.6389484,31.2797383 C10.5424937,31.4403689 10.4716726,31.6166508 10.3890207,31.7858485 C11.7421796,30.1144656 12.8986499,28.3023866 14.3456345,26.7153554 C14.3554936,26.7044819 14.332982,26.6637888 14.3158929,26.601184 M34.5981603,73.0279022 C34.6306952,73.1623377 34.6497561,73.2420764 34.6689813,73.3218152 C34.4302272,73.3335124 34.5772919,73.6386283 34.3488898,73.7020568 C34.1063564,73.717708 33.8169923,73.6738847 33.5368301,73.7867381 C33.4076761,73.8386341 33.419507,73.8832812 33.4799761,73.9717517 C33.6944111,73.9673034 33.9149259,74.012939 34.0856523,73.8776797 C34.1898299,73.9180433 34.1199948,74.0335327 34.2144777,74.0620343 C34.4921751,74.0620343 34.7976423,74.1295816 35.052171,74.0440767 C35.3334834,73.9495105 35.5991857,73.9921806 35.8704748,73.9758704 C36.1524445,73.959066 36.436386,73.9722459 36.719506,73.9722459 C36.7939421,73.9722459 36.8685425,73.9753762 36.9426499,73.9704337 C36.9679549,73.9687862 36.9921096,73.9470392 37.0167573,73.9343535 C37.0182362,73.8633465 37.0443628,73.7903625 36.9995039,73.7233095 C36.7356092,73.8262779 36.7426749,73.8139217 36.5634039,73.654609 C36.468921,73.5705868 36.569648,73.516549 36.5527232,73.4611932 C36.5032635,73.297597 36.3207062,73.3801365 36.2336176,73.299574 C36.1519515,73.2445477 36.2957298,73.1246101 36.1488295,73.082599 C36.086553,73.2237893 36.2053549,73.429726 35.9850044,73.508641 C35.7475649,73.3961172 35.7475649,73.3961172 35.5896552,73.6425823 C35.5820966,73.7552709 35.7595601,73.6503255 35.756438,73.7852553 C35.6456877,73.7696041 35.5181769,73.874879 35.4864635,73.6610342 C35.4769331,73.597441 35.3047278,73.5579011 35.2488596,73.52907 C35.1453393,73.5213267 35.1441891,73.6307203 35.0732037,73.5859085 C34.9567022,73.511936 34.9468431,73.381784 34.8871957,73.288371 C34.9387915,73.2114331 35.0288378,73.1798012 35.0428048,73.1000624 C34.8967261,73.0086265 34.8581114,73.2125863 34.740131,73.1610197 C34.7120326,73.1346598 34.6799906,73.1045107 34.5981603,73.0279022 M37.4421767,61.6517895 C37.4558151,61.3329993 37.6690999,61.0860399 37.7415642,60.7886672 C37.8304602,60.4234177 37.9499194,60.0667352 38.0467027,59.703298 C38.1291904,59.3930748 38.226631,59.0892769 38.2856211,58.7708162 C38.3460902,58.4442829 38.4777089,58.1332359 38.5569102,57.8071968 C38.6389049,57.46979 38.7072612,57.1254637 38.8222838,56.7976123 C38.8868608,56.613752 38.9591607,56.4358226 38.9989257,56.242901 C39.0436202,56.025267 39.0893006,55.8013725 39.181976,55.60252 C39.2761302,55.4003724 39.1915064,55.1334784 39.421223,54.9804262 C39.4767625,54.9435223 39.4511289,54.8438489 39.4297676,54.7746541 C39.4189226,54.7400567 39.3696272,54.6871722 39.374721,54.6823944 C39.5636868,54.5043003 39.4938516,54.2413602 39.6070667,54.013347 C39.5212927,54.029822 39.4724903,54.013347 39.4381478,54.1194456 C39.2804025,54.6059507 39.0919297,55.082406 38.938621,55.5702291 C38.8847247,55.7414038 38.7808757,55.9084597 38.8162041,56.102864 C38.6034122,56.4575695 38.56299,56.8729028 38.4780376,57.2590755 C38.3906204,57.6562864 38.2744475,58.0493785 38.1717488,58.4386814 C37.9446612,59.2988381 37.7612823,60.1723396 37.4717539,61.0155272 C37.5231855,61.2315137 37.2873891,61.4175158 37.4421767,61.6517895 M8.54257897,56.7539537 C8.48868266,56.6475256 8.45762655,56.5287413 8.38187594,56.4587228 C8.34013916,56.4201714 8.27359036,56.4328571 8.24746379,56.3371377 C8.14147866,55.9494823 8.0333574,55.5601794 7.88645708,55.1871867 C7.81136374,54.9964068 7.78770195,54.7822326 7.63948708,54.6160004 C7.24249472,54.1713417 6.85651167,53.7166333 6.46773522,53.2647256 C6.43125661,53.2222203 6.36898008,53.2003086 6.36930872,53.1258418 C6.36963735,53.0220497 6.27088222,52.9843221 6.21156341,52.924518 C6.15963891,52.8722925 6.12365326,52.7836573 5.9872693,52.7769026 C6.2570795,53.4067396 6.58341511,53.9680409 6.91813093,54.523576 C7.23608632,55.0509389 7.56143602,55.5740183 7.89763071,56.089684 C8.05061079,56.3242872 8.1754925,56.5720704 8.3085901,56.8165585 C8.32584349,56.8480257 8.36560846,56.8671366 8.38286185,56.8817993 C8.43840134,56.8373169 8.48473903,56.8002483 8.54257897,56.7539537 M33.2816442,31.6237351 C33.4707743,31.5929269 33.4226291,31.410055 33.5299287,31.3196076 C33.6360782,31.2301487 33.7233311,31.1143298 33.8076262,30.9930742 C34.1259102,30.5350708 34.4844522,30.1045806 34.8316562,29.6668414 C35.0822412,29.3513462 35.3441641,29.0386518 35.5722375,28.7132717 C35.8008039,28.3872326 36.0732432,28.0946376 36.2830773,27.7573955 C36.4825594,27.4372874 36.8116884,27.2063087 36.9114295,26.8184885 C36.6997878,26.668237 36.537606,26.667578 36.3693443,26.8726911 C36.1259893,27.16924 35.9048172,27.4844057 35.6803588,27.7961116 C35.523928,28.0135809 35.3941168,28.2516438 35.2242119,28.4570863 C34.8890032,28.8618757 34.6233009,29.3146071 34.3439603,29.7541586 C34.0062867,30.285805 33.6704207,30.8190989 33.3261744,31.3464618 C33.2614331,31.4459704 33.2458229,31.5232379 33.2816442,31.6237351 M51.6729396,64.8910927 C51.8433374,64.7164583 52.0719038,64.6438038 52.2799304,64.5324332 C52.5259145,64.4006337 52.7507016,64.2296238 52.9933993,64.0909047 C53.0854174,64.0383497 53.0566618,63.8594318 53.2160502,63.8928759 C53.4543114,63.4605734 53.8404588,63.1841239 54.2336718,62.9032261 C54.2875681,62.9399652 54.331441,62.9699496 54.3726849,62.9982865 C54.4160648,62.9569344 54.4591161,62.9159118 54.5008529,62.8762072 C54.470947,62.8430926 54.443013,62.8117902 54.4157362,62.781641 C54.475055,62.6762014 54.621298,62.8108017 54.6735512,62.6799906 C54.6193262,62.6592322 54.568059,62.639627 54.5164631,62.6200219 C54.5310874,62.3465378 54.5307588,62.3452198 54.7813438,62.2910172 C54.8306392,62.2803085 54.8605451,62.2611976 54.8597235,62.2078188 C54.8715544,62.134011 54.8031981,62.1109461 54.7714847,62.0659695 C54.8199585,61.9634954 55.0220697,61.9287333 54.9307089,61.7720566 C54.6449598,61.8641515 54.489515,62.1043561 54.2775447,62.2704236 C54.0310677,62.4633452 53.7704593,62.6378148 53.5346629,62.8481998 C53.3067538,63.0515006 53.0752297,63.2531539 52.839762,63.4449222 C52.574224,63.6609087 52.2773013,63.8396619 52.0355895,64.0877745 C51.952116,64.1732795 51.8806376,64.2960178 51.7792534,64.3320979 C51.643691,64.3803695 51.5654756,64.4765832 51.4724716,64.5642299 C51.3727306,64.6578075 51.278412,64.7571514 51.1873799,64.8485874 C51.3643504,65.0062526 51.5245605,64.6688457 51.6729396,64.8910927 M47.9596808,76.0897703 C48.0469337,76.1497391 48.1269566,76.1393599 48.2104301,76.1013028 C48.562728,75.9405073 48.934744,75.825677 49.296408,75.6947012 C49.947929,75.4582857 50.5787459,75.1801887 51.2052905,74.890724 C52.2756582,74.3964757 53.3236786,73.8567566 54.3365349,73.2516319 C54.7693486,72.9931401 55.1992045,72.728223 55.6159151,72.4446892 C56.0618742,72.1413855 56.4843359,71.8031549 56.9289804,71.4977095 C57.3557144,71.2046203 57.7359463,70.854363 58.1469057,70.5424923 C58.4923022,70.280376 58.7759151,69.9441224 59.1480954,69.7134732 C59.2222029,69.6675081 59.278071,69.5905701 59.3391973,69.5248351 C59.3993377,69.4600886 59.4800178,69.4070393 59.5117312,69.330266 C59.4100184,69.2726037 59.3677886,69.3129674 59.3260519,69.3590972 C59.1392223,69.5653635 58.909177,69.7322546 58.6894838,69.8871191 C58.1618586,70.2592881 57.6833645,70.6906021 57.1685561,71.0764452 C56.8934877,71.2827115 56.6322221,71.5206097 56.3463087,71.6970563 C55.7025107,72.0945967 55.0879612,72.5362899 54.4415341,72.9308648 C53.5724561,73.4615227 52.6683783,73.9228211 51.7864834,74.4264601 C51.5773065,74.5459034 51.3395384,74.583631 51.1377558,74.7001089 C50.6922896,74.957118 50.234171,75.1894147 49.7504187,75.3556469 C49.3836608,75.4818449 49.0509168,75.6818507 48.6713422,75.7876199 C48.436696,75.8528606 48.1788811,75.9386951 47.9596808,76.0897703 M3.90700305,29.4009358 C3.9594205,29.3459095 3.99902114,29.3045574 4.03895042,29.262711 C3.9421671,29.1892328 3.93526575,29.0699542 3.87676853,28.9816485 C3.93280098,28.8098148 4.17549871,29.0137746 4.21329185,28.8131098 C4.17878507,28.7371603 4.06031177,28.8101443 4.04125088,28.7091529 C4.0141384,28.554618 4.13146147,28.4506611 4.17615598,28.3234745 C4.24812728,28.3043636 4.32880743,28.3575777 4.39075533,28.2867354 C4.31911266,28.193652 4.25683613,28.0971088 4.33653038,27.980631 C4.49509727,27.7494875 4.53929882,27.4456896 4.78018905,27.2677602 C4.86760625,27.2030137 4.83145628,27.0669306 4.93678414,27.0176706 C4.87549351,26.8051438 5.02929519,26.665601 5.1186842,26.5100776 C5.41067733,26.0016608 5.69593343,25.4881369 6.01668223,24.9981721 C6.44259456,24.3477413 6.86998575,23.6943451 7.35275212,23.0867492 C7.68566045,22.6676267 7.98307608,22.2127535 8.3869698,21.8511285 C8.45039656,21.7944547 8.45762655,21.7330032 8.39978661,21.6881913 C6.76991607,23.1015767 5.65912619,24.8881195 4.71577639,26.7980596 C4.66007258,26.739244 4.61570671,26.6733443 4.52418156,26.7132136 C4.45319618,26.8608291 4.39798532,27.0222835 4.30514563,27.1573781 C4.19028733,27.324434 4.19012301,27.4699077 4.31878403,27.5966 C4.22873775,27.7672805 4.15232986,27.9120952 4.08167311,28.0462012 C4.00888022,28.0534502 3.91538327,28.0389523 3.89895146,28.0681129 C3.78277862,28.2752029 3.5903622,28.4608755 3.69536142,28.7378193 C3.49489343,28.7241451 3.52069136,28.915584 3.42423668,28.984614 C3.49768684,29.1361835 3.22163255,29.2358569 3.37510559,29.4175755 C3.48454139,29.5472333 3.42177191,29.6768911 3.2558107,29.7366951 C3.23428503,29.7149482 3.21308801,29.6938603 3.18318213,29.6637111 C3.19879234,29.7994646 2.99816003,29.853173 3.06421587,29.9941985 C3.13783035,30.0711365 3.16494283,29.8701422 3.24463707,30.0027654 C3.14966125,30.2330851 3.07489655,30.4912475 2.9404844,30.713165 C2.85093107,30.8612747 2.8703206,30.9690208 2.90778511,31.1344293 C3.01196274,30.9536991 3.03447431,30.7611071 3.22886254,30.698008 C3.16675032,30.6354032 3.09494335,30.5861432 3.18285349,30.4785618 C3.26271205,30.3805359 3.35818083,30.3914093 3.45989369,30.3831719 C3.49653661,30.3803711 3.50245206,30.3437968 3.48174799,30.3227088 C3.42998781,30.3042569 3.37806331,30.285805 3.30165543,30.2586213 C3.47287481,29.9342297 3.59019789,29.5953401 3.81284882,29.3065344 C3.84538379,29.3391547 3.86641649,29.3602427 3.90700305,29.4009358 M7.88251345,27.5203211 C8.22150154,27.3328362 8.37168822,27.0194828 8.59959733,26.7858681 C8.79513578,26.5853681 8.96339745,26.3428569 9.13757456,26.1156674 C9.32588302,25.8701908 9.55790008,25.667549 9.74210059,25.4258616 C10.0140469,25.0685201 10.2825426,24.7106843 10.6016482,24.3938712 C10.686272,24.3100137 10.8031021,24.2383477 10.8456605,24.1362031 C10.9600258,23.861401 11.2127469,23.7202108 11.3959616,23.5141092 C11.5796691,23.3075135 11.7034006,23.0526461 11.9272017,22.8775174 C11.9863562,22.8312229 12.0588205,22.8383071 12.1187966,22.7463769 C12.3664238,22.3684417 12.765388,22.1140686 13.0010201,21.7189995 C13.1827558,21.6936281 13.1954083,21.4998827 13.309938,21.4048223 C13.4261108,21.3084439 13.5261805,21.1924603 13.6431749,21.0751587 C13.4274253,20.9814163 13.3847027,21.1713724 13.2844687,21.2308469 C12.8437677,21.4916453 12.4280431,21.795608 12.04929,22.1402638 C11.3082157,22.8142537 10.6471643,23.5663348 10.0289999,24.3528486 C9.87552683,24.5480766 9.69346245,24.7171096 9.55116304,24.9156326 C9.06560326,25.5929175 8.59253165,26.2795931 8.12800458,26.9715407 C8.02563445,27.1242634 7.92474318,27.2929669 7.88251345,27.5203211 M23.9656335,11.3666397 C23.7934282,11.2369819 23.6859642,11.3106249 23.5766927,11.3916816 L23.5766927,11.6986098 C23.306061,11.712284 23.3670229,12.0521621 23.1177525,12.1608967 C22.9131765,12.2503556 22.7649617,12.4693076 22.5937423,12.6289498 C22.6367936,12.7291175 22.7782714,12.6526737 22.8103135,12.7801898 C22.9605001,12.6469075 23.0656637,12.4465722 23.3065539,12.4938553 L23.3065539,12.2813285 C23.4830315,12.2350339 23.5872091,12.0918667 23.7081472,11.9709406 C23.8226768,11.856275 24.0412198,11.8462253 24.0520648,11.6276028 C24.2663355,11.6480317 24.2564764,11.3990953 24.4125786,11.3270998 C24.5525775,11.2628476 24.6541261,11.1125961 24.7694773,10.9971067 C24.8917299,10.8748627 24.9839124,10.7165385 25.0997566,10.6035203 C25.2165867,10.4895137 25.2974312,10.3409098 25.4308574,10.2476616 C25.570692,10.1501299 25.7520991,10.0899964 25.8151973,9.91981022 C25.8830606,9.73726785 26.0199375,9.65472839 26.1858987,9.58125015 C26.1168852,9.29359765 26.347752,9.27893495 26.5510134,9.23939508 C26.5045114,9.19293575 26.4833144,9.17168307 26.4612958,9.14960665 C26.4668826,9.04153102 26.5856845,9.12637698 26.6187124,9.05569947 C26.708923,8.86277789 26.7909177,8.64530865 26.9710103,8.53410279 C27.1734501,8.40938747 27.2738484,8.20658092 27.4307721,8.04990422 C28.0479506,7.43390611 28.6766314,6.8309232 29.3260163,6.24935772 C29.3702178,6.20981786 29.4058748,6.14012885 29.4551702,6.12974964 C29.7489709,6.0679686 29.8971857,5.81721998 30.1107992,5.65032881 C30.3413374,5.47009293 30.5358899,5.23598399 30.7753013,5.08688576 C31.1359794,4.86266179 31.4881129,4.63662558 31.7712329,4.33678162 C31.8303874,4.35836379 31.8351526,4.42525206 31.8670303,4.40927137 C32.0387426,4.25012342 32.1724975,4.02787644 32.3470032,3.98866608 C32.5821423,3.93594626 32.6521418,3.75982912 32.8626332,3.62621734 C32.4372138,3.67086443 32.4372138,3.67086443 32.2102906,3.89278191 C32.0691415,3.78618903 31.9227341,3.99953954 31.7577588,3.88619193 C31.7193084,4.04912912 31.7462565,4.2693991 31.4771036,4.23760246 C31.4241932,4.23134199 31.3845926,4.25819614 31.3676678,4.29542951 C31.2424575,4.57253805 30.9509573,4.65392427 30.7363579,4.82081544 C30.566946,4.95245023 30.3847173,5.11884715 30.1517144,5.05673662 C30.0573958,5.28112534 29.9224907,5.41885586 29.7414123,5.51259828 C29.6932671,5.46762169 29.6610607,5.43763729 29.6231033,5.40221617 C29.5713431,5.51688177 29.5199116,5.63039412 29.4673298,5.74687197 C29.3122136,5.7519792 29.1799376,5.82941143 29.0453611,5.90486667 L29.0453611,6.0829608 C28.9019114,6.10421348 28.8194238,6.2116301 28.7341427,6.30751427 C28.655763,6.39581996 28.5147782,6.39219548 28.4717268,6.55117868 C28.441328,6.66403203 28.2940991,6.7452535 28.1991232,6.84031392 C28.0983963,6.86222559 27.9828807,6.81362451 27.865229,6.89171574 C27.947881,6.92417138 27.9991482,6.94427081 28.112199,6.98858841 C27.872459,6.99666113 27.8722947,7.18711147 27.7638448,7.28283088 C27.5845738,7.44082558 27.4230492,7.61875497 27.2541302,7.78811738 C27.3285663,7.96967125 27.0607279,7.86736185 27.0691081,8.02090832 C27.0789672,8.1991672 26.8504008,8.01365934 26.8173729,8.15419061 C26.8426779,8.18631674 26.8661754,8.21597164 26.8434995,8.18746999 C26.6310363,8.40098525 26.4336903,8.59917881 26.2365087,8.79753712 C26.1903353,8.85964765 26.1785044,8.68550751 26.107519,8.76969447 C25.9816514,8.89721052 26.3114377,8.9458116 26.1490915,9.0764579 C26.0892797,9.09474509 26.0876366,8.97942049 26.0115573,9.02950431 C25.9676844,9.10034657 26.0445852,9.2071042 25.9519099,9.27283922 C25.9059008,9.21435317 25.8587415,9.15471388 25.8173334,9.17020032 C25.7192355,9.21254093 25.7304092,9.26114201 25.7310664,9.30414161 C25.7341885,9.4950862 25.6968883,9.66247161 25.4905048,9.73594986 C25.4877114,9.91997497 25.2902012,9.90613602 25.2073849,10.0137174 C25.1166813,10.1313485 24.9725744,10.2120757 24.8989599,10.3369558 C24.6610274,10.7400976 24.2729082,10.9971067 23.9656335,11.3666397 M0.452873752,37.1705188 C0.324212735,37.0896268 0.339494312,36.9476128 0.371864963,36.8490927 C0.576769546,36.2248571 0.680125586,35.5749206 0.864326097,34.9444245 C0.961109417,34.6129487 1.04211821,34.2620324 1.08484089,33.9102924 C1.11869041,33.6317011 1.25721051,33.380623 1.29894728,33.0995604 C1.34380611,32.7970805 1.47230281,32.5123935 1.53852297,32.2107373 C1.5943911,31.9563642 1.74063415,31.7283509 1.80619704,31.4687058 C1.90100854,31.0925829 2.02917661,30.7242032 2.16178126,30.3591185 C2.24656936,30.1256685 2.29997272,29.8739314 2.46708416,29.6783738 C2.51112139,29.626972 2.50142662,29.5711219 2.52015888,29.5195554 C2.60018176,29.2986264 2.67363192,29.0763794 2.78109591,28.8638526 C3.00571866,28.4193587 3.1874544,27.9529531 3.41848555,27.5122483 C3.58641857,27.192305 3.7343048,26.8641241 3.89221442,26.5402267 C4.04437292,26.2285208 4.2027755,25.9196156 4.36725785,25.6143349 C4.75274794,24.8986634 5.17028006,24.2014438 5.63645031,23.5360209 C6.00107201,23.0154127 6.40595164,22.5267659 6.82808465,22.0488278 C7.17035911,21.6616667 7.50211721,21.2629731 7.8902364,20.927049 C8.20161906,20.6575189 8.47570153,20.3412 8.8053235,20.1047846 C9.11621321,19.8818786 9.41707952,19.6403559 9.72024629,19.4110247 C10.4225415,18.8802021 11.144062,18.3798581 11.8836575,17.9075215 C12.3191002,17.6294244 12.7634162,17.3587411 13.1929435,17.0747131 C13.6967426,16.7415898 14.2345555,16.4681057 14.7391762,16.1366299 C15.03462,15.9427198 15.3665424,15.7812654 15.6790753,15.6036655 C15.9817491,15.4316671 16.3062772,15.3031625 16.598106,15.1122179 C16.8896062,14.9216028 17.2105193,14.7759643 17.5159866,14.6179696 C17.8033788,14.4695304 18.076311,14.2444827 18.4222005,14.2130156 C18.570251,13.9685274 18.8615869,13.9690217 19.0793083,13.8471071 C19.2948935,13.7263457 19.5257604,13.6161284 19.7316509,13.4836698 C19.9439498,13.3470926 20.1641359,13.2136455 20.3779137,13.0843172 C20.8122062,12.8218714 21.218729,12.5195562 21.6497352,12.2576046 C21.9129727,12.0976329 22.1083468,11.8701139 22.3503873,11.6921846 C22.8111351,11.3534597 23.2352399,10.9585554 23.6233591,10.5311953 C23.7788039,10.3600207 23.9492017,10.1998842 24.1480265,10.0835712 C24.2993634,9.99477121 24.3041287,9.81634758 24.4313108,9.7100842 C24.637037,9.5384153 24.8140075,9.33214901 25.0069169,9.14449941 C25.0710009,9.08205938 25.127362,9.0204431 25.1104372,8.92472368 C25.2029483,8.91467396 25.2734407,8.90693074 25.338675,8.89984651 C25.4073599,8.8321345 25.295295,8.84037197 25.3023607,8.78468666 C25.3741677,8.70017021 25.4302001,8.59028234 25.5600114,8.55057773 C25.6819353,8.51317961 25.6604097,8.36572887 25.7567,8.29093263 C25.9663699,8.1278307 26.0166512,7.79767284 26.3258977,7.73012558 C26.4120003,7.48118919 26.6216702,7.320229 26.7674202,7.11346847 C26.8405418,7.00984108 26.9379824,6.9179109 27.0751879,6.88759701 C27.1931683,6.86173135 27.1146242,6.64047286 27.2888014,6.66469103 C27.4695512,6.2562772 27.8749238,6.06747436 28.1858135,5.80189828 C28.6843544,5.37618576 29.1536467,4.91010963 29.7279382,4.56627757 C30.0151661,4.39427917 30.2639436,4.13216283 30.5531433,3.95126796 C31.2035141,3.54483112 31.8272653,3.09325294 32.5264385,2.76573108 C32.8153096,2.63030705 33.0742748,2.43013649 33.3641318,2.29751321 C33.9790099,2.01579168 34.5943809,1.73308167 35.2299631,1.49930223 C35.3489293,1.45564363 35.459351,1.38957911 35.5996786,1.41396203 C35.7503583,1.43999243 35.80294,1.26634654 35.9381738,1.22136994 C36.0982195,1.16782638 36.2682887,1.19748128 36.4311279,1.11032883 C36.5208455,1.062222 36.6803983,1.05250178 36.7847403,0.996981224 C37.123564,0.816415851 37.5240071,0.852990224 37.8583943,0.664516879 C37.9849192,0.593345126 38.1448006,0.620528782 38.2797057,0.611961812 C38.738153,0.582801163 39.1581499,0.34490299 39.6198835,0.378182374 C39.872769,0.39646956 40.1054433,0.339795757 40.3271083,0.241769848 C40.3984224,0.210302707 40.4713796,0.173893084 40.5298768,0.198770247 C40.7341241,0.286252193 40.9322916,0.196299006 41.129309,0.185096045 C41.3399647,0.173234086 41.5443763,0.0878938827 41.7650554,0.101568085 C41.9881993,0.115242288 42.2300754,0.158077139 42.4331725,0.0928363655 C42.7969726,-0.0239709786 43.1584723,0.0239711048 43.5201363,0.0208408657 C43.7010504,0.0193581208 43.8975748,-0.0597216044 44.0696158,0.10025009 C44.160155,0.184272298 44.2362343,-0.0938247359 44.3717966,0.0544497489 C44.4521482,0.142425943 44.5431803,0.116725033 44.646865,0.0626872203 C44.7416765,0.013262392 44.8519339,0.173398836 44.9432947,0.0990968438 C45.0335053,0.0261128474 45.1797484,-0.0323731994 45.2124477,0.0218293622 C45.2942781,0.157912389 45.4199813,-0.028748712 45.4789715,0.088388131 C45.4837367,0.0977788483 45.5042765,0.105192573 45.5162717,0.103709828 C45.9132641,0.0562619926 46.2890594,0.232379131 46.6896668,0.204536477 C46.9238199,0.188226284 47.173912,0.244735338 47.4000136,0.319202079 C47.6167491,0.390703331 47.8415361,0.418545984 48.0582716,0.452154867 C48.4360388,0.510311415 48.7797921,0.680332824 49.1549302,0.734041138 C49.2564787,0.748703837 49.2809621,0.998299219 49.4441299,0.830419553 C49.5262889,0.960077352 49.6623442,0.883304119 49.7663575,0.919054745 C49.8439156,0.945414653 49.9037274,1.02350588 49.9906516,1.09418339 C50.2009787,1.07424871 50.3963529,1.17128612 50.6119381,1.25728532 C51.024705,1.42187 51.4282701,1.60424761 51.8135959,1.81809237 C52.3435215,2.11200535 52.8946442,2.3845009 53.318749,2.83525534 C53.4060019,2.92817401 53.5136302,2.85205978 53.5985826,2.92504377 C54.0935085,3.3491088 54.6296783,3.72078351 55.0491822,4.23628447 C55.2250025,4.45194147 55.4857752,4.61158366 55.6676752,4.8313594 C56.0329542,5.27272312 56.4545943,5.66136702 56.7602258,6.16220528 C56.9416329,6.45941324 57.1756218,6.73734553 57.3685312,7.03620099 C57.7689742,7.65681208 58.1454268,8.29192113 58.3886175,8.99342419 C58.5705176,9.51798637 58.7635912,10.0387593 58.9035902,10.5786432 C58.9517354,10.7643158 58.9338247,10.9582259 58.9947867,11.123799 C59.0578848,11.2954679 59.07711,11.4587346 59.0690585,11.630074 C59.0628144,11.7656628 59.1972265,11.8480375 59.1699497,11.9987832 C59.1487527,12.1164143 59.1234477,12.2516736 59.238306,12.3745767 C59.2907235,12.430921 59.2506299,12.5747472 59.2512871,12.6790336 C59.2519444,12.8287909 59.2742917,12.9834906 59.2442215,13.1268226 C59.2194094,13.2446184 59.4090325,13.3434681 59.2576956,13.4556624 C59.3991734,13.5708223 59.3278593,13.7299702 59.3388687,13.8705015 C59.3490564,14.0044428 59.3410048,14.1398668 59.3410048,14.2746318 L59.3410048,14.7240683 C59.3410048,14.8586686 59.3063337,15.0057898 59.3483991,15.1257274 C59.4299008,15.3570356 59.3682816,15.5932863 59.4180699,15.8280542 C59.4729522,16.085887 59.4395956,16.3649726 59.427929,16.6340084 C59.4177413,16.8687763 59.5580689,17.0735599 59.5266842,17.3165653 C59.496614,17.5523217 59.4662151,17.8119668 59.5345714,18.030095 C59.6116366,18.2765602 59.535393,18.5401593 59.6303688,18.7521918 C59.7437483,19.0049174 59.6346411,19.2533595 59.704312,19.4863152 C59.8566348,19.9944025 59.8428321,20.5334626 59.9816808,21.0347951 C60.1568438,21.6675977 60.2526412,22.3181931 60.4593533,22.9452295 C60.5939298,23.3533138 60.7419803,23.7587621 60.8762281,24.1670112 C61.0093257,24.5714711 61.2245824,24.9513832 61.4260363,25.3301422 C61.6779358,25.8039615 61.9812669,26.2451605 62.3062879,26.6736738 C62.6327879,27.1036698 63.0202498,27.4788042 63.3520079,27.9018807 C63.5031805,28.0946376 63.6865594,28.2552683 63.8329668,28.4542856 C63.9908764,28.6689541 64.2320953,28.821512 64.3909908,29.0355216 C64.7883118,29.5709572 65.3248101,29.989256 65.6634696,30.5719747 C66.2732538,31.1505747 66.6559505,31.9043033 67.1761814,32.5529218 C67.4351466,32.8759955 67.6040655,33.2712293 67.8188292,33.6305478 C68.175728,34.227435 68.4701859,34.8557893 68.7705592,35.4818372 C69.0469421,36.0574717 69.2694288,36.6533703 69.4675963,37.259154 C69.6103887,37.6945867 69.7318197,38.1372684 69.8824993,38.5699004 C69.9436256,38.7453586 69.857523,38.9512953 70.0067238,39.1020411 C69.9904563,39.5226464 70.2167222,39.9078305 70.1859947,40.3305776 C70.3238576,40.5752305 70.2849142,40.8439368 70.2689753,41.1017696 C70.2569801,41.2984804 70.4101245,41.4456017 70.3724957,41.6503852 C70.3379889,41.8386938 70.3103835,42.0602818 70.3772609,42.2283262 C70.4986919,42.5339364 70.4461102,42.8367458 70.451204,43.1393905 C70.4628706,43.8432001 70.4633636,44.5473392 70.4500538,45.250984 C70.4457815,45.4819627 70.523011,45.7216731 70.3994438,45.9470503 C70.2909939,46.1450791 70.4423309,46.3823183 70.3067685,46.5833126 C70.2573088,46.6564613 70.3963218,46.7032502 70.3692093,46.8029236 C70.3164632,46.9969984 70.4285281,47.2045827 70.2987169,47.4045885 C70.1979899,47.5594529 70.3508057,47.7777459 70.2012763,47.9485911 C70.1110657,48.0517242 70.4139038,48.1986807 70.186652,48.3156528 C70.2244451,48.5662367 70.1371923,48.8011694 70.0959484,49.0418683 C70.0619346,49.2408856 70.154117,49.4453396 70.0338362,49.6458397 C69.9313018,49.8166848 70.0910189,50.0573838 69.9171704,50.2254282 C69.9822404,50.5226361 69.8116783,50.7915072 69.8187439,51.0870677 C69.8240021,51.3094794 69.7636974,51.5374926 69.7081579,51.7567741 C69.6222196,52.0964874 69.545976,52.4390015 69.4787699,52.7820098 C69.4537936,52.9085373 69.4171507,53.0268274 69.3793575,53.1472593 C69.3584891,53.2141475 69.2855319,53.2457794 69.2863535,53.3345794 C69.2911187,53.8955512 69.0842423,54.4146766 68.9174595,54.9334726 C68.8170612,55.2458375 68.7444327,55.5750068 68.5858658,55.8745213 C68.5428144,55.9560723 68.5464294,56.106159 68.4784018,56.1855682 C68.2780981,56.4191829 68.2292956,56.7157319 68.1356344,56.9880627 C68.0840385,57.1384789 68.0260342,57.2740677 67.9364809,57.4002657 C67.9195561,57.4243192 67.8768335,57.4427711 67.8765048,57.4641885 C67.8702607,57.8650239 67.6093237,58.1637146 67.4573295,58.5042517 C67.3105935,58.8332563 67.1025669,59.1357362 66.9645398,59.4678711 C66.686185,60.1375775 66.2730895,60.7351237 65.9695941,61.3908264 C65.8706746,61.6048359 65.7268964,61.7979222 65.6345496,61.9494917 C65.5849256,62.0989194 65.7201593,62.1106166 65.6994553,62.2270945 C65.6782582,62.3294039 65.5749022,62.3715797 65.4365464,62.4061771 C65.497837,62.7340285 65.2495525,62.948697 65.1036381,63.1941736 C64.7585702,63.7744211 64.3875401,64.3409944 63.9961346,64.8905985 C63.7384839,65.2520587 63.4898707,65.6191204 63.1860467,65.9524085 C62.2233073,67.0081229 61.221296,68.0251211 60.1923365,69.0137824 C59.8001094,69.3905643 59.4073893,69.771465 58.9957726,70.127159 C58.6459395,70.4294742 58.2949562,70.7364024 57.9281984,71.0143347 C57.0704583,71.6642712 56.2115679,72.3140429 55.3051897,72.8989034 C54.6122605,73.3460333 53.8959983,73.7491752 53.1794073,74.1546235 C52.7203028,74.4145981 52.2519964,74.652661 51.7730093,74.872931 C51.0072873,75.2251653 50.2359785,75.5604304 49.4543176,75.877573 C48.7193231,76.1756048 47.9348688,76.3098755 47.2177849,76.6466234 C46.730089,76.6477766 46.3051626,76.9517393 45.8145089,76.9377356 C45.6068109,77.0804086 45.3514607,77.0561904 45.1235516,77.1000138 C44.8892341,77.1449904 44.6575457,77.2535603 44.4012096,77.2145146 C44.2842151,77.1967217 44.17823,77.3248968 44.0352733,77.3018318 C43.9163071,77.2827209 43.7855099,77.2764604 43.6788675,77.3649309 C43.570089,77.2237406 43.5015684,77.4379149 43.3822735,77.3962333 C43.2624856,77.3543869 43.1012896,77.3481264 42.9852811,77.3947505 C42.7008466,77.5089219 42.3891353,77.4018347 42.1291842,77.4940944 C41.8472144,77.5942621 41.5688597,77.4964009 41.311702,77.5758101 C40.996047,77.6733418 40.7015891,77.4996959 40.3964506,77.5623007 C40.3695024,77.5677374 40.3302304,77.5107341 40.2962166,77.4823972 C40.2313109,77.5090866 40.2635173,77.5810821 40.2227664,77.6473114 C40.1225324,77.5911318 40.026242,77.5080981 39.9169705,77.4835505 C39.7888025,77.4548841 39.6496251,77.4767957 39.4931943,77.4767957 C39.4190869,77.5672432 39.3351204,77.6700468 39.2615059,77.76 C39.0823993,77.7168356 38.9430576,77.7786167 38.7925423,77.7006902 C38.7268151,77.6665871 38.5647975,77.7314983 38.4469815,77.7525863 C38.2928511,77.7802642 38.1571244,77.605465 38.0476886,77.680426 C37.9017742,77.7802642 37.7632541,77.7427013 37.6240768,77.7433603 C36.3244855,77.7486323 35.0248942,77.7484675 33.7254672,77.7435251 C33.5862898,77.7430308 33.4262441,77.8086011 33.3112214,77.6639511 C33.168922,77.8840563 33.0405897,77.6197982 32.8941823,77.6489589 C32.7597701,77.675813 32.6197712,77.6202925 32.4802652,77.5838829 C32.242497,77.5217723 31.9766304,77.5725152 31.7229234,77.5647719 C31.5531828,77.5593352 31.3878789,77.5906376 31.2160023,77.4871749 C31.078961,77.4048002 30.8873662,77.4655928 30.7112173,77.4204514 C30.4989184,77.3660841 30.2731454,77.2921116 30.0417856,77.2959009 C29.8850262,77.2982074 29.7348395,77.3023261 29.5810379,77.2159974 C29.4666725,77.1519099 29.285594,77.268223 29.175008,77.1174772 C28.8700337,77.1352702 28.5956226,77.0059419 28.3070802,76.9425133 C27.6128365,76.7901201 26.9353533,76.5853366 26.2652643,76.3510629 C25.7037896,76.1550111 25.1388643,75.9681852 24.5795257,75.7666967 C24.3981186,75.7012912 24.2170401,75.6281424 24.0418771,75.5502159 C23.4105672,75.2694829 22.7672621,75.0030831 22.1729238,74.6551323 C21.6434911,74.3449091 21.0987769,74.0585746 20.5813394,73.724298 C20.306271,73.5465334 19.9902874,73.4219828 19.7022379,73.2542679 C19.0237688,72.8591988 18.3572949,72.4458425 17.7116893,71.998383 C17.1456137,71.6059499 16.5686931,71.2283442 16.0832977,70.7299772 C15.9557869,70.5988366 15.7909759,70.5050942 15.6547562,70.3816969 C15.4998043,70.2411656 15.3754156,70.0596118 15.2050178,69.9454404 C14.9831885,69.7970012 14.81657,69.5908996 14.6075574,69.4376827 C14.4452112,69.3187336 14.4636148,69.0641957 14.2087576,69.0111464 C14.0235712,68.9724303 14.0179843,68.6683028 13.7999343,68.6152535 C13.7263198,68.3379802 13.4159231,68.2791647 13.2828255,68.0308873 C13.1540001,67.7908474 12.8970068,67.6200022 12.6962101,67.4188432 C12.4952492,67.2173546 12.2691476,67.0348123 12.0984211,66.8097645 C11.7842451,66.3957492 11.3749288,66.0702044 11.0568091,65.6682158 C10.7531494,65.2850086 10.3645373,64.9667127 10.1423793,64.523372 C10.0897975,64.4184266 9.99695785,64.4617557 9.93747472,64.3951969 C9.87552683,64.3256727 9.8844,64.232095 9.81768688,64.1717967 C9.54639781,63.9273086 9.32308961,63.6388323 9.09550914,63.3559575 C8.77213126,62.9538042 8.4589411,62.5412716 8.13326276,62.1429075 C7.6268346,61.5236144 7.18728387,60.8621455 6.75052654,60.1965578 C6.46592772,59.7627725 6.19677479,59.3191023 5.92318527,58.8782329 C5.6053942,58.3663564 5.28333086,57.8572807 4.97671342,57.338979 C4.7432175,56.9437451 4.53617678,56.53286 4.30728177,56.1349901 C4.12571034,55.819495 3.93197939,55.5110841 3.73791979,55.2031674 C3.46942413,54.7772901 3.2157171,54.3413631 2.95100075,53.9153211 C2.57389087,53.3090432 2.24443323,52.6815126 1.93896601,52.0408021 C1.78500002,51.7178932 1.62774766,51.3944901 1.51371095,51.0481868 C1.44206829,50.8310471 1.35136474,50.6017159 1.24817301,50.3972618 C1.03718866,49.9792925 0.949935791,49.5308446 0.808129331,49.0955766 C0.75817665,48.9425244 0.750782339,48.7873304 0.712824874,48.6397149 C0.677167862,48.5014902 0.655806518,48.3644186 0.627708135,48.2260291 C0.543577304,47.8118491 0.536182993,47.3820178 0.380738137,46.9823357 C0.370714737,46.95647 0.36381338,46.9258266 0.366771104,46.898643 C0.420338782,46.4263064 0.233673501,45.972257 0.270480739,45.4976139 C0.303344345,45.0751963 0.125387919,44.6606868 0.186514226,44.2323382 C0.0335341409,43.9894976 0.147406535,43.7123891 0.0910454511,43.4621347 C-0.0606200899,42.78798 0.0267971017,42.1078944 0.0106939348,41.4311037 C-0.00508059603,40.7576081 0.00921507252,40.0834534 0.00658598405,39.4094635 C0.0046141677,38.9316902 0.124894965,38.4698975 0.199495351,38.0033271 C0.215434199,37.9025005 0.284447772,37.7949191 0.274917326,37.6791003 C0.258321205,37.4812362 0.326513187,37.3164868 0.452873752,37.1705188" id="Fill-225"></path>
            </g>
        </g>
    </g>
</svg>