<?xml version="1.0" encoding="UTF-8"?>
<svg width="53px" height="51px" viewBox="0 0 53 51" version="1.1" xmlns="http://www.w3.org/2000/svg" xmlns:xlink="http://www.w3.org/1999/xlink">
    <!-- Generator: Sketch 63.1 (92452) - https://sketch.com -->
    <title>Fill 133</title>
    <desc>Created with Sketch.</desc>
    <g id="Page-1" stroke="none" stroke-width="1" fill="none" fill-rule="evenodd">
        <g id="People-Copy" transform="translate(-214.000000, -7347.000000)" fill="#FFEE57">
            <g id="58" transform="translate(214.000000, 7347.000000)">
                <path d="M7.530744,10.4796848 C7.01092152,10.8632351 6.64642448,11.2086789 6.43808128,11.6990931 C6.38133572,11.8332942 6.30222329,11.9865487 6.46210495,12.0822291 C6.53707536,12.1273771 6.7599156,12.0809865 6.7603298,12.0722883 C6.77399844,11.453886 7.7734659,11.3826433 7.530744,10.4796848 M44.0856552,42.1461936 C44.1585547,42.2062528 44.2310399,42.266312 44.3035251,42.3263712 C45.2822825,41.6160161 46.096602,40.7532351 46.7332292,39.7210457 C46.2660103,40.0640043 45.8919866,40.4985013 45.4823416,40.8961345 C45.034176,41.3302173 44.55246,41.7307499 44.0856552,42.1461936 M16.0960103,19.2375546 C17.0495014,17.8002765 18.226247,16.5100398 18.7299156,14.8316966 C17.336957,16.0001581 16.7632884,17.6569629 16.0960103,19.2375546 M37.0421641,29.3656019 C36.1537026,30.4835309 34.8800339,31.3632942 34.7296789,32.9525842 C35.7664245,31.9315783 36.7137026,30.8534126 37.0421641,29.3656019 M8.70044814,9.38412264 C10.880389,7.52063151 13.4016316,6.08418181 15.3844126,3.97341258 C12.8681405,5.4160753 10.4864836,7.0269037 8.70044814,9.38412264 M42.7295606,30.2689747 C40.6722233,32.9157203 38.6712174,35.4895664 36.6702115,38.0634126 C40.5446493,34.7696848 42.4251227,32.3114007 42.7295606,30.2689747 M9.50027063,19.4053061 C9.60382093,19.3365487 9.74009311,19.2976138 9.76701619,19.2201581 C10.7842943,16.3166078 12.8200931,14.2016966 15.0368978,12.1795664 C16.1378446,11.1751286 16.8680813,9.8244185 17.8323416,8.35938891 C14.7556552,9.34974394 9.63488601,16.3232351 9.50027063,19.4053061 M23.8900339,50.4385013 C12.2518091,50.240099 4.3111582,43.6928209 1.02364341,33.2682055 C-0.862214578,27.2871404 -0.0441672406,21.4841818 2.67174992,15.9989155 C5.41500436,10.4589747 9.50689785,6.03572027 15.0774896,3.20258418 C17.4044718,2.0192114 19.8987913,1.15435932 22.3492055,0.230276484 C23.3047677,-0.130078546 24.3191464,-0.0414394924 25.3244126,0.315601928 C26.6001523,0.768738022 27.958318,0.957613762 29.3015724,0.912051632 C32.2796789,0.811814945 34.9405073,1.76613447 37.4066612,3.28376761 C39.0688505,4.30725873 40.8627558,5.1344185 42.3509807,6.4300398 C46.9755369,10.4564895 50.1802115,15.4095073 51.9981405,21.2609274 C52.6840576,23.4665487 52.4438209,25.7210457 52.2300931,27.9511049 C52.1066612,29.235957 51.6042351,30.506312 51.4025191,31.7385605 C51.2455369,32.697022 50.4626967,33.3924658 50.5248268,34.0315783 C50.6176079,34.9974954 50.22246,35.6084422 49.8335251,36.2819333 C46.1736434,42.616312 40.4394422,46.2099215 33.6838209,48.4441226 C31.2909807,49.2356611 28.8650044,49.898383 26.3719274,50.2724067 C25.4084955,50.4165487 24.4218683,50.4057794 23.8900339,50.4385013" id="Fill-133"></path>
            </g>
        </g>
    </g>
</svg>