<?xml version="1.0" encoding="UTF-8"?>
<svg width="83px" height="41px" viewBox="0 0 83 41" version="1.1" xmlns="http://www.w3.org/2000/svg" xmlns:xlink="http://www.w3.org/1999/xlink">
    <!-- Generator: Sketch 63.1 (92452) - https://sketch.com -->
    <title>Fill 1</title>
    <desc>Created with Sketch.</desc>
    <g id="Page-1" stroke="none" stroke-width="1" fill="none" fill-rule="evenodd">
        <g id="People-Copy" transform="translate(-945.000000, -7367.000000)" fill="#F49DFF">
            <g id="101" transform="translate(945.000000, 7367.000000)">
                <path d="M21.619062,21.3745235 C21.550562,21.2345235 21.482562,21.0940235 21.414062,20.9535235 C19.253562,21.7260235 17.093562,22.4985235 14.933062,23.2705235 C14.974062,23.3785235 15.015062,23.4865235 15.055562,23.5940235 C17.243562,22.8540235 19.431562,22.1145235 21.619062,21.3745235 M32.266062,17.6515235 C32.306062,17.7605235 32.346062,17.8695235 32.386062,17.9785235 C42.776562,15.4005235 53.167562,12.8220235 63.558562,10.2440235 C63.533562,10.1415235 63.508062,10.0390235 63.483062,9.93652349 C53.077562,12.5080235 42.671562,15.0800235 32.266062,17.6515235 M23.435562,13.5845235 C23.383562,13.4805235 23.331562,13.3765235 23.279062,13.2730235 C16.222062,15.6700235 9.21406204,18.1815235 2.58906204,22.2175235 C9.69506204,19.2745235 16.565562,16.4295235 23.435562,13.5845235 M24.196562,39.8395235 C23.817062,40.1515235 23.437562,40.4630235 23.102562,40.7380235 C22.254562,40.5850235 21.442562,40.4390235 20.630562,40.2925235 C20.620562,40.1800235 20.610062,40.0670235 20.599562,39.9540235 C20.283062,40.2380235 19.966562,40.5225235 19.592062,40.8585235 C18.349062,39.7560235 17.210562,38.7340235 17.758562,36.7265235 C18.832062,32.7935235 19.744062,28.8175235 20.717562,24.8580235 C20.931562,23.9890235 21.123562,23.1155235 21.392562,21.9565235 C19.769562,22.5030235 18.355062,22.8970235 17.011062,23.4605235 C16.091562,23.8465235 15.273562,24.4725235 14.404062,24.9805235 C14.174062,25.1150235 13.930062,25.2365235 13.678062,25.3205235 C11.328062,26.1030235 8.98106204,26.8920235 6.62156204,27.6435235 C5.67806204,27.9440235 4.70656204,28.1555235 3.74806204,28.4080235 C3.78256204,28.2410235 3.81706204,28.0740235 3.85156204,27.9070235 C3.14506204,27.3885235 2.48806204,26.7755235 1.72156204,26.3700235 C-0.155937961,25.3760235 -0.663937961,22.7720235 1.03406204,21.4590235 C2.95756204,19.9715235 5.00206204,18.5225235 7.21006204,17.5455235 C12.346062,15.2720235 17.599562,13.2610235 22.836062,11.2215235 C23.785062,10.8520235 24.255062,10.4080235 24.531562,9.39352349 C25.161562,7.08002349 25.907062,4.78452349 26.812062,2.56552349 C27.156562,1.72152349 28.046562,1.08802349 28.733562,0.405023493 C28.895562,0.244023493 29.295062,0.146523493 29.494562,0.231523493 C30.300062,0.575023493 31.071562,0.999023493 31.853562,1.39752349 C33.805562,2.39452349 34.386562,4.06802349 34.206562,6.13152349 C34.164562,6.61002349 34.200562,7.09552349 34.200562,7.73252349 C37.494562,6.95602349 40.591062,6.09502349 43.738062,5.50752349 C53.059562,3.76752349 62.392062,2.08502349 71.740062,0.495023493 C74.055562,0.101523493 76.443562,0.119523493 78.801062,0.00252349309 C79.349062,-0.0244765069 79.908562,0.172023493 80.462562,0.265523493 C80.492062,0.441523493 80.522062,0.618023493 80.551562,0.794023493 C79.392062,1.13152349 78.247562,1.69152349 77.070562,1.77052349 C69.626062,2.27002349 62.334062,3.72152349 55.065062,5.26352349 C48.407062,6.67652349 41.798062,8.31852349 35.170062,9.86852349 C34.711062,9.97602349 34.270562,10.1595235 33.821062,10.3080235 C33.848062,10.4285235 33.874562,10.5495235 33.901562,10.6705235 C34.249062,10.6175235 34.600562,10.5835235 34.943562,10.5090235 C44.786562,8.35802349 54.600062,6.05952349 64.482562,4.10852349 C69.590562,3.10052349 74.818562,2.69652349 79.997062,2.05702349 C80.482062,1.99752349 81.000562,2.21002349 81.503562,2.29602349 C81.260562,2.69952349 81.017562,3.10352349 80.740562,3.56402349 C83.242062,3.08402349 81.612062,5.11652349 81.970562,6.04702349 C81.654562,6.21102349 81.157062,6.46902349 80.517562,6.80102349 C80.926062,6.89902349 81.172062,6.95802349 81.418562,7.01752349 C81.428562,7.08702349 81.438562,7.15652349 81.449062,7.22652349 C79.399062,7.62352349 77.348562,8.02002349 75.298562,8.41652349 C75.267562,8.31202349 75.236562,8.20752349 75.205562,8.10302349 C75.869562,7.94252349 76.533562,7.78202349 77.197062,7.62152349 C77.170562,7.52552349 77.144062,7.42902349 77.117562,7.33302349 L67.912562,9.07852349 C67.921062,9.18252349 67.930062,9.28602349 67.938562,9.38952349 C68.806062,9.27502349 69.673062,9.16002349 70.540562,9.04552349 C70.564062,9.14252349 70.587562,9.23952349 70.610562,9.33652349 C69.658062,9.56152349 68.702562,9.77752349 67.752562,10.0125235 C56.115062,12.8905235 44.478562,15.7745235 32.839062,18.6460235 C31.969562,18.8605235 31.350562,19.2055235 31.262062,20.2285235 C31.236562,20.5210235 30.791562,20.7745235 30.546062,21.0530235 C30.432062,21.1825235 30.215562,21.4005235 30.249062,21.4545235 C31.411062,23.3670235 29.590562,24.8290235 29.483062,26.5450235 C29.458062,26.9410235 29.352562,27.4145235 29.105062,27.6925235 C28.820062,28.0135235 29.269062,29.2120235 28.133562,28.5990235 C27.937062,29.1910235 27.740562,29.7840235 27.544062,30.3765235 C26.620062,32.6510235 25.659062,34.9120235 24.792062,37.2080235 C24.477562,38.0415235 24.388562,38.9600235 24.196562,39.8395235" id="Fill-1"></path>
            </g>
        </g>
    </g>
</svg>