<?xml version="1.0" encoding="UTF-8"?>
<svg width="96" height="66" viewBox="0 0 96 66" fill="none" xmlns="http://www.w3.org/2000/svg">
<g clip-path="url(#clip0)">
<path fill-rule="evenodd" clip-rule="evenodd" d="M95.6558 41.4462C95.6181 41.551 95.5241 41.814 95.4048 42.145C95.51 42.1959 95.6239 42.2502 95.7825 42.3264C95.8629 42.6188 96.3077 42.9282 96.0373 43.3238C95.7937 43.6796 96.437 44.0557 95.9453 44.3444C96.029 45.0908 95.5033 45.6292 95.1571 46.1507C94.8431 46.6237 94.7665 47.2144 94.2914 47.6253C93.8784 47.9827 93.6461 48.5498 93.3329 49.0261C93.0604 49.0385 92.8073 49.0493 92.4565 49.065C92.5199 49.2672 92.5671 49.4188 92.642 49.6578C92.5476 49.7638 92.3927 49.939 92.2245 50.1287C92.3285 50.4476 92.4258 50.7475 92.5406 51.0996C92.3774 51.2856 92.2154 51.4703 92.0386 51.672C92.1777 51.7217 92.3082 51.7681 92.5302 51.8472C92.2763 52.0274 92.0675 52.1757 91.848 52.3314C91.8907 52.3815 91.957 52.459 92.0609 52.5804C91.3133 52.8587 90.6472 52.1885 89.8226 52.5124C89.3131 52.8798 88.9349 53.6295 88.1782 53.9066C87.8862 54.0139 88.1359 54.5491 87.6356 54.4861C87.4575 54.4637 87.5892 55.037 87.1717 54.9256C87.0159 55.445 86.5525 55.6537 86.1867 55.981C85.8831 56.2518 85.606 56.6052 85.3616 56.9585C85.1578 57.2525 84.9404 57.5375 84.7246 57.8233C84.5295 58.0822 84.3004 58.3204 84.1397 58.5987C84.003 58.836 84.0146 59.2415 83.8299 59.3488C83.5814 59.493 83.4116 59.6487 83.3586 59.9838C83.1142 59.838 82.9651 59.7494 82.8151 59.6599C82.3483 59.8881 81.8807 60.1052 81.4159 59.5344V58.3485C80.5225 57.8453 79.5885 57.4058 79.1702 56.268C79.2029 55.8927 79.0206 55.3609 79.3818 54.9218C78.8574 53.8747 79.3126 52.9883 79.8175 52.1152C80.4252 51.0644 81.2225 50.1672 82.1574 49.3409C81.6077 48.5162 81.0332 47.7479 80.5648 46.9199C80.2425 46.3504 79.8863 45.7291 79.8685 45.0775C79.8503 44.4024 79.6378 43.6978 80.0404 43.0131C80.2201 42.7066 80.0474 42.2626 80.2491 41.8588C80.3701 41.616 80.4451 41.3464 80.6314 41.1136C80.7321 40.9881 80.7275 40.7781 80.8104 40.4451C80.9964 40.2724 81.4628 40.0396 81.5601 39.7016C81.7009 39.2104 82.3297 39.3976 82.3206 38.8231C82.4829 38.9461 82.555 39.0008 82.6673 39.0857C82.9274 39.0086 83.2215 38.9217 83.5284 38.8314C83.6402 39.0434 83.7342 39.2211 83.8481 39.4373C83.6232 39.8445 83.3776 40.2894 83.0951 40.8005C83.6535 40.7454 84.0847 40.7023 84.4529 40.6659C84.6032 40.8162 84.6832 40.8957 84.7718 40.9844C84.621 41.2801 84.469 41.5792 84.2685 41.9739C84.6227 42.0104 84.8977 42.0385 85.2386 42.0733C85.1545 42.4726 85.0709 42.8731 84.9884 43.267C84.8443 43.3955 84.6886 43.5346 84.5283 43.6779C84.6297 43.7794 84.6716 43.8337 84.6807 43.8283C84.8281 43.7467 84.9719 43.6576 85.1471 43.5516C85.2063 43.7098 85.2432 43.8072 85.2908 43.9331C84.971 44.095 84.667 44.2491 84.3203 44.4243C84.481 44.4782 84.6086 44.5208 84.8447 44.5995C84.5755 44.8692 84.3365 45.1086 84.025 45.4213C84.4222 45.7349 84.7743 46.0132 85.1516 46.3114C85.7075 46.417 86.154 46.1826 86.591 45.8049C87.602 44.9321 88.7133 44.1704 89.7095 43.2931C90.7293 42.3947 91.8141 41.5146 92.5401 40.3109C92.71 40.0292 93.0082 39.8254 93.2646 39.5695H94.4533C94.5184 39.6519 94.6302 39.794 94.7462 39.9398C94.6161 40.3105 94.4828 40.6924 94.3088 41.1886C94.6691 41.0896 94.9616 41.0092 95.3422 40.9044C95.4023 41.008 95.4955 41.1691 95.6558 41.4462Z" fill="#FFEE57"/>
<path fill-rule="evenodd" clip-rule="evenodd" d="M23.97 65.2361C23.6035 65.3496 23.3023 65.4432 22.913 65.5637C23.0079 65.3603 23.0704 65.2261 23.1495 65.0559C22.8902 64.6653 22.597 64.3157 22.0606 64.3932C22.0192 64.235 21.9926 64.1331 21.9554 63.9914H21.0222C20.929 63.8982 20.8482 63.8539 20.8271 63.7901C20.6842 63.3593 20.6539 62.8474 20.3947 62.5094C20.0608 62.0749 20.2269 61.6487 20.2116 61.2278C20.1987 60.8861 20.3367 60.5361 20.4208 60.1932C20.7223 58.9671 21.1887 57.8012 21.7826 56.6923C22.1484 56.0106 22.558 55.3466 23.007 54.7166C23.4457 54.1011 23.9597 53.539 24.4555 52.9347C24.3209 52.8486 24.1734 52.7483 24.0202 52.6576C22.5386 51.7812 21.2409 50.6777 20.0376 49.4542C19.4697 48.8768 19.4664 48.1018 19.3007 47.3886C19.2341 47.1032 19.29 46.7888 19.29 46.4877C19.5936 45.9086 20.2054 45.8597 20.7989 45.6236C20.999 45.9757 21.2044 46.3377 21.4364 46.7449C21.477 46.7151 21.5474 46.6633 21.6737 46.5701C21.7512 46.6471 21.8874 46.7213 21.9255 46.8302C22.1616 47.5016 22.71 47.8434 23.2928 48.1341C24.4787 48.7268 25.6753 49.2964 26.9486 49.9148C27.2464 49.6 27.5442 49.117 27.9766 48.8755C28.3751 48.6527 28.3958 48.0152 29.0171 48.0765C28.9284 47.9676 28.8667 47.8918 28.7748 47.7792C28.9653 47.6458 29.1583 47.5107 29.4271 47.3227C29.5121 47.1355 29.6417 46.8501 29.7684 46.5705C29.9606 46.5593 30.1392 46.549 30.3964 46.5341C30.287 46.3932 30.2299 46.3199 30.1412 46.2056C30.6209 46.1356 30.6528 45.639 30.9547 45.3722C31.2736 45.0902 31.4994 44.7029 31.8018 44.3152C31.8689 44.3645 31.9389 44.4158 32.0722 44.514C32.131 44.3757 32.1861 44.2452 32.2553 44.0816C32.3369 44.1474 32.4123 44.2079 32.5481 44.3181C32.696 43.5249 33.1458 42.8887 33.6238 42.3167C34.1163 41.7268 34.5591 41.0496 35.3651 40.6549C35.4662 40.7381 35.6016 40.8496 35.7549 40.9755C35.4364 41.5873 35.1278 42.1936 34.475 42.513V43.4164C34.6295 43.3787 34.7865 43.3857 34.8192 43.3252C34.9501 43.0813 35.0425 42.8166 35.0942 42.6919C35.631 42.2496 36.0697 41.8884 36.6231 41.4328C36.6545 41.8548 36.6744 42.1303 36.6943 42.3945C36.5257 42.4637 36.3973 42.5163 36.2623 42.5718C36.2971 42.6203 36.3406 42.7139 36.3638 42.7089C36.638 42.6526 36.9093 42.5813 37.2427 42.4989C37.3371 42.6654 37.4523 42.868 37.5683 43.0718C37.5061 43.1409 37.432 43.2229 37.3521 43.3116C37.3993 43.6388 37.7928 43.9275 37.4883 44.3023C37.3997 44.2224 37.321 44.1512 37.2406 44.0779C37.2034 44.1479 37.1309 44.222 37.1458 44.2688C37.1872 44.4013 37.2647 44.5227 37.3516 44.6942C37.2895 45.2678 36.831 45.6489 36.4056 46.0362C36.003 46.4028 35.5602 46.7246 35.0425 47.14C35.2554 47.2622 35.4405 47.3691 35.6489 47.4892C35.5188 47.739 35.4401 47.8897 35.3573 48.048C35.4053 48.1014 35.4774 48.1801 35.5892 48.3035C35.3436 48.3429 35.1365 48.3764 34.8395 48.4249C34.9203 48.6308 34.9894 48.806 35.0694 49.0093H34.3172C34.1776 49.2955 34.0558 49.5453 33.9399 49.7831C34.0476 49.899 34.1229 49.9802 34.2315 50.097C34.0008 50.1397 33.7941 50.1782 33.4934 50.2345C33.5663 50.4267 33.6329 50.5999 33.7112 50.8057C33.5182 50.8343 33.3103 50.8649 33.0394 50.9047C33.1189 51.1193 33.1835 51.2932 33.2904 51.5815C32.9963 51.4672 32.7822 51.3839 32.5237 51.2837C32.4019 51.5157 32.2777 51.7526 32.1567 51.9829C32.1998 52.0649 32.2168 52.1548 32.2677 52.1825C32.3576 52.2314 32.479 52.2223 32.568 52.272C32.9139 52.465 32.9947 52.9123 33.3347 53.1041C33.7013 53.3112 33.8608 53.6666 34.0944 53.9831C34.3048 54.268 34.4609 54.5083 34.4373 54.869C34.429 54.9925 34.5392 55.1234 34.6076 55.2779C34.5479 55.3793 34.4626 55.5239 34.3462 55.7219C34.0409 55.7571 33.8189 56.1659 33.2618 55.9501C32.2889 55.5728 31.2761 55.2348 30.2195 55.1076C30.1607 55.1006 30.1122 55.007 30.0161 54.9109C29.7071 55.2592 29.4002 55.6051 29.015 56.0396C29.01 56.0806 28.9893 56.2583 28.9665 56.45C28.7503 56.484 28.5432 56.5167 28.2214 56.5673C28.4339 56.8655 28.5925 57.0883 28.829 57.4205C28.5619 57.3422 28.3838 57.2905 28.1576 57.2242C28.1108 57.2797 28.016 57.3919 27.9128 57.5137C28.0437 57.8753 27.9385 58.0965 27.5148 58.3371C27.388 58.7928 27.2663 59.2306 27.1648 59.5959C26.9734 59.6663 26.8665 59.7057 26.7286 59.7566L26.9759 60.0039C26.6383 60.2623 26.251 60.4715 25.9893 60.7855C25.7528 61.0684 25.6542 61.466 25.4703 61.867C25.4881 61.8943 25.5622 62.0053 25.6799 62.1813C25.4309 62.4377 25.1865 62.6896 24.9513 62.9315C25.0428 63.0458 25.1103 63.1299 25.2271 63.2757C25.061 63.4654 24.8978 63.6518 24.716 63.8593V64.5178C24.4493 64.7747 24.1788 65.0352 23.97 65.2361Z" fill="#FFEE57"/>
<path fill-rule="evenodd" clip-rule="evenodd" d="M49.1293 57.7985C49.0767 57.2704 49.8198 57.2124 49.4677 56.7203C49.3778 56.8007 49.2979 56.8715 49.218 56.9423C49.1915 56.9154 49.1455 56.8918 49.1409 56.862C49.0573 56.3086 49.0908 55.7838 49.4835 55.3327C49.9155 54.8373 50.3438 54.3378 50.758 53.8275C50.8888 53.6664 50.9696 53.4647 51.0984 53.2377C50.8938 52.7046 50.6134 52.1521 50.3699 51.6028C50.1085 51.013 50.1143 50.3735 49.8301 49.7899C49.679 49.4801 50.0733 48.9362 49.9809 48.5568C49.877 48.1323 49.6264 47.7711 49.9925 47.371C50 46.2518 50.7609 45.5543 51.4265 44.7772H53.3082C53.4184 44.8816 53.5273 44.9852 53.7038 45.1521C53.4175 45.517 53.1309 45.8819 52.8141 46.2857C52.8493 46.3611 52.9342 46.5413 53.0477 46.7828C53.1537 46.7828 53.3567 46.8437 53.4291 46.772C53.7435 46.4634 54.1068 46.5881 54.4377 46.5517C54.5599 46.8163 54.6618 47.0375 54.7753 47.2831C54.6055 47.4952 54.4303 47.7143 54.1644 48.0461C54.5665 48.0975 54.8362 48.1318 55.1907 48.177V49.2597C55.9537 49.2846 56.0374 48.3605 56.6798 48.3642C56.9714 47.9202 57.3968 47.6112 57.7799 47.257C58.2219 46.8491 58.6423 46.4166 59.059 45.9821C59.4425 45.5816 59.8319 45.1827 60.1765 44.7503C60.531 44.3046 60.8359 43.8192 61.0409 43.5251C61.5077 43.3578 61.7707 43.2633 62.0971 43.1465C62.204 43.2985 62.3792 43.453 62.4239 43.639C62.4583 43.7819 62.3444 43.972 62.2678 44.1265C62.1804 44.3021 62.0607 44.4612 62.0619 44.7702C62.3912 44.6314 62.7205 44.4923 63.0829 44.3394C63.2764 44.7163 63.4835 45.1198 63.7974 45.7315C63.7974 45.7187 63.7792 45.9411 63.8036 46.1586C63.8227 46.3276 63.8943 46.4908 63.9577 46.7074C63.913 46.7853 63.831 46.9294 63.7552 47.0628C63.8691 47.1858 63.9449 47.2674 64.0124 47.3399C63.358 48.3878 62.769 49.4726 62.0512 50.487C61.4485 51.3386 61.533 51.3982 61.0914 51.6393C61.1619 51.7176 61.2331 51.7963 61.2903 51.8596C60.3964 52.8612 59.51 53.8549 58.6104 54.8634V55.2383C59.317 55.6885 60.0009 56.1238 60.7158 56.5791C60.6122 56.782 60.5488 56.9063 60.4511 57.0989C60.7216 57.3313 60.9034 57.7782 61.427 57.6133C61.5417 57.8411 61.6353 58.0271 61.7273 58.2102C61.6614 58.3021 61.5794 58.416 61.4671 58.5722C61.7504 58.8559 62.0048 59.1107 62.2798 59.3861C62.175 59.6557 62.086 59.8856 61.987 60.1404C62.0594 60.2646 62.1464 60.4146 62.2268 60.5525C62.187 60.6382 62.1746 60.7269 62.1253 60.7596C62.0143 60.8321 61.8511 60.8462 61.7699 60.9381C61.2841 61.4865 61.1971 61.5172 60.5861 61.3084C59.795 61.0379 58.9442 60.8789 58.2215 60.4841C57.2531 59.9556 56.3828 59.2473 55.3825 58.5552C54.9625 58.8659 54.4912 59.2921 54.0372 59.7771C53.5981 60.2464 53.0195 60.6183 52.2151 60.8578C52.3568 60.6237 52.4148 60.5281 52.5403 60.3193C52.0362 60.4133 51.6133 60.492 51.1908 60.5707L51.1183 60.4253C51.3726 60.2269 51.6265 60.0289 51.8809 59.831L51.4878 59.4379H50.7165C50.6138 59.1798 50.4995 58.8907 50.3645 58.5511H49.4284C49.2996 58.2268 49.184 57.936 49.1293 57.7985Z" fill="#FFEE57"/>
<path fill-rule="evenodd" clip-rule="evenodd" d="M54.029 35.6336C53.6413 35.7264 53.2996 35.8084 52.8174 35.924C52.3225 35.5583 51.7306 35.1026 51.1196 34.6752C50.391 34.1653 49.7581 33.5158 48.9264 33.1567C48.7338 33.0735 48.5317 33.0134 48.2641 32.9173C47.9398 32.4315 47.9021 31.5293 46.9507 31.6287C46.5203 31.2352 46.4677 30.5518 45.8386 30.4855C45.6327 30.1347 45.5026 29.7334 45.2322 29.4828C43.9974 28.3375 43.104 26.9619 42.3357 25.3022C42.269 24.7899 42.2686 24.1068 42.158 23.4218C41.984 22.3428 42.5589 21.4162 43.4933 20.8181C43.7514 20.6532 43.8844 20.2908 44.3131 20.3293C44.6113 20.3563 44.9261 20.1976 45.322 20.1003C45.4393 20.2047 45.5946 20.3426 45.7905 20.5165C45.472 21.0513 44.8697 21.3889 44.8242 22.1071C45.5329 22.3436 45.8506 21.5562 46.5638 21.4655C46.6508 21.5434 46.8053 21.6809 46.9503 21.8109C46.6976 22.1899 46.5274 22.4451 46.2138 22.9152C46.7013 22.7611 47.048 22.7586 47.176 22.59C47.4995 22.1634 48.0226 21.9923 48.3262 21.5177C48.6091 21.0757 49.0731 20.7464 49.5473 20.4383C50.2179 20.0029 50.7613 19.3771 51.3901 18.8709C52.3142 18.127 53.1803 17.3119 54.2096 16.6935C54.6167 16.4495 54.9178 16.0245 55.2558 15.6704C55.5632 15.3481 56.0515 15.2073 56.148 14.7268H57.6673V15.7068C57.6251 15.7491 57.4793 15.8949 57.3036 16.0709C57.5049 16.0349 57.7058 16.0063 57.903 15.9616C58.1035 15.916 58.3006 15.8547 58.6047 15.7715C58.5583 16.5009 58.5935 17.1466 59.1203 17.6171C59.0093 17.7667 58.9459 17.852 58.8184 18.0247C58.9791 18.1134 59.1655 18.2152 59.5122 18.4054C59.1551 18.5031 59.0338 18.5363 58.8681 18.5818C58.931 18.726 59.0155 18.8606 59.0462 19.0068C59.0773 19.1509 59.0532 19.3063 59.0532 19.4541C58.6345 20.029 58.2153 20.6039 57.7551 21.2352C57.6706 21.2447 57.4925 21.2642 57.2307 21.2928C57.3103 21.4021 57.3591 21.4705 57.4233 21.5591C57.3558 21.7206 57.2809 21.9 57.1968 22.0996C56.2027 22.0516 56.1957 23.0759 55.581 23.4748C55.711 23.6458 55.7757 23.7307 55.8051 23.7697C55.3962 24.1789 54.9837 24.5915 54.567 25.0077C54.6006 25.0384 54.5471 24.9899 54.5703 25.0106C54.3848 25.1958 54.1934 25.3871 54.002 25.5789C53.9399 25.5305 53.8782 25.4824 53.8161 25.4339V26.0287C53.6848 25.9206 53.6086 25.8577 53.4375 25.7173C53.4752 25.9708 53.5004 26.1393 53.5357 26.3763C53.2536 26.7416 52.9144 27.181 52.547 27.6574C52.3817 27.5364 52.269 27.4532 52.1688 27.3794C51.762 27.8549 51.3449 28.3425 50.9241 28.8345C51.0861 28.9153 51.2356 28.9894 51.4535 29.0976C51.2505 29.3548 51.0761 29.576 50.9125 29.7835C50.939 29.875 50.939 29.9595 50.9809 30.0067C51.6688 30.778 52.4848 31.4676 53.0212 32.3316C53.6255 33.3046 54.3806 34.309 54.029 35.6336Z" fill="#FFEE57"/>
<path fill-rule="evenodd" clip-rule="evenodd" d="M69.7018 19.3024C69.7714 19.2328 69.8249 19.1794 69.8799 19.1243C69.8393 19.0721 69.805 19.012 69.7565 18.9677C69.4637 18.7006 69.0938 18.4715 68.8569 18.2097C68.6245 17.9538 68.3644 17.7587 68.1291 17.5242C67.8164 17.2123 67.4676 16.7658 67.4511 16.3645C67.4217 15.6462 67.3782 14.926 67.5488 14.1733C67.8433 12.874 68.5239 11.8903 69.4252 10.9927C70.5692 9.85323 71.7095 8.71004 72.9098 7.50968C72.4542 7.11743 72.431 6.37684 71.7095 6.2327C71.4063 5.64329 71.1043 5.05388 70.8011 4.46447C70.5215 3.92063 70.5717 3.3337 70.5746 2.75258C70.577 2.33879 70.5754 1.92501 70.5754 1.51122C70.956 1.02536 71.3367 0.539504 71.7111 0.0623441H73.5928C73.2913 0.577196 73.0333 1.01749 72.7802 1.44992C73.476 1.95524 73.7316 0.860509 74.343 1.19436C74.7244 1.71666 74.0145 1.9627 73.7896 2.46802C74.2237 2.36406 74.4759 2.30317 74.7845 2.22903C74.9676 2.76583 74.876 3.23554 74.5873 3.74004C74.7414 3.80009 74.8628 3.84731 75.0459 3.91814C75.1763 4.05814 74.9054 4.07844 74.8595 4.28471C75.0409 4.56223 75.2617 4.90021 75.5346 5.31814C77.3985 3.36228 79.7752 2.05134 81.2286 -0.182449H82.3619C82.2745 0.190332 82.1983 0.515894 82.0939 0.96116C82.4087 0.850154 82.651 0.764829 82.9832 0.64761V1.52406C83.1646 1.57169 83.2665 1.5982 83.3684 1.62512C83.397 1.6885 83.4417 1.75021 83.4496 1.81607C83.4633 1.92708 83.4347 2.04471 83.4562 2.15365C83.6861 3.32666 83.1021 4.25737 82.4891 5.13631C81.8263 6.08731 81.0568 6.96418 80.2789 7.94211C80.8339 8.60856 81.7215 8.93246 82.5027 9.55459C82.5172 9.65731 82.5408 9.83045 82.5686 10.0297C82.7757 10.2886 83.1104 10.5391 83.2052 10.8606C83.4131 11.5651 83.9276 12.2212 83.578 13.1308C83.4927 13.1697 83.3046 13.2621 83.112 13.3441C82.9198 13.4257 82.7239 13.4961 82.5056 13.581C82.2066 13.277 81.531 13.3735 81.6217 12.7816C80.9321 12.5824 80.3253 12.4068 79.7371 12.2365C79.6025 12.0025 79.4803 11.7904 79.3424 11.5506H78.0948C78.0633 11.416 78.0389 11.3141 78.0091 11.1882C77.5476 10.8332 77.1599 11.2512 76.8903 11.3232C76.5217 11.7507 76.2396 12.0779 75.9277 12.4387C75.8382 12.3707 75.7666 12.3161 75.6423 12.222C75.5089 12.4105 75.3652 12.6135 75.19 12.8607C75.1668 12.8305 75.2236 12.9038 75.3076 13.0123C74.7841 13.1436 74.7385 13.6697 74.5082 14.1025C74.3272 13.9911 74.2083 13.9178 74.0261 13.8055C73.995 14.0002 73.9648 14.1907 73.9283 14.4161C73.8505 14.4372 73.749 14.4645 73.5676 14.5138C73.5191 14.9715 73.4541 15.529 72.7756 15.377C72.5478 15.6723 72.1659 15.947 72.192 16.1756C72.2699 16.8628 71.6946 17.1912 71.5376 17.7284C71.4634 18.4073 71.4738 18.4069 71.6846 18.8604C71.193 19.2523 70.6379 19.5161 70.0005 19.6789C69.9172 19.5737 69.824 19.4569 69.7018 19.3024Z" fill="#FFEE57"/>
<path fill-rule="evenodd" clip-rule="evenodd" d="M24.2603 18.0699C25.1603 16.9656 25.9204 16.0478 26.6647 15.1171C27.3697 14.2356 27.9724 13.2838 28.5203 12.3084C28.4503 12.2218 28.3824 12.1381 28.266 11.9948C28.4574 11.7778 28.6467 11.5624 28.8476 11.3342H29.5919C29.8702 11.6125 30.0943 12.0097 30.4128 12.1112C30.8018 12.2346 30.8568 12.5457 31.0138 12.7781C31.5581 13.5829 31.9367 14.3997 31.5183 15.4484C31.2611 16.0933 31.0006 16.7387 30.733 17.3807C30.6526 17.5741 30.5938 17.7767 30.4915 18.0711L29.9212 18.6419V19.3527C29.4747 20.1616 29.1031 20.8359 28.6964 21.5732C29.2584 21.9551 29.7762 22.3233 30.3097 22.6671C31.3667 23.3485 32.2411 24.1947 32.7634 25.3574C32.8757 25.6075 32.927 25.8855 33.0438 26.2761C33.0037 26.3651 32.9055 26.5842 32.797 26.8245C32.5642 26.933 32.3128 27.0502 32.1164 27.1413C31.5854 26.9578 31.1157 26.8207 30.6667 26.6339C30.2173 26.4475 29.7886 26.2114 29.3508 25.9973C29.2763 25.3433 28.5307 25.6075 28.2238 25.1627C27.9719 24.7974 27.4119 24.6453 26.9207 24.3591C25.4486 25.861 24.1522 27.5017 22.9626 29.2297C22.8711 29.3623 22.9005 29.5781 22.8739 29.7549C22.3554 30.1542 21.8426 30.0933 21.3282 29.7305V29.3714C20.6596 28.9709 20.0329 28.5956 19.3474 28.1847C19.0194 27.8003 19.1863 27.1964 18.9726 26.7292C18.7344 26.209 18.9357 25.7053 18.8454 25.3226C19.5926 23.6571 20.477 22.1983 21.7432 20.9395V20.1707C21.0113 19.6609 20.5565 18.866 20.0959 18.0865C19.9414 17.8251 19.9174 17.4838 19.8466 17.1765C19.7028 16.551 19.4879 15.9459 19.5069 15.2815C19.5438 14.0107 20.2653 13.104 21.4785 12.648C22.2435 12.3606 22.9866 12.5051 23.8092 12.4243C23.3664 13.341 22.3057 13.2627 21.6856 14.031C22.7551 13.9838 23.4066 12.9765 24.4972 13.1687C24.455 13.4255 24.4127 13.6827 24.368 13.9536C24.568 14.024 24.8617 14.128 25.1442 14.2282V15.6626C24.8534 16.17 24.5341 16.6761 24.2735 17.2113C24.1895 17.3832 24.2603 17.6309 24.2603 18.0699Z" fill="#FFEE57"/>
<path fill-rule="evenodd" clip-rule="evenodd" d="M76.2449 22.0558C76.4781 22.1875 76.6616 22.2911 76.9308 22.4431C76.8695 22.8109 76.8074 23.1816 76.7316 23.6381C76.9209 23.9669 77.0795 24.4677 77.654 24.6698C77.9112 24.3111 78.069 23.9007 78.564 23.7002C78.9115 23.5589 79.1157 23.064 79.3821 22.7256C79.6749 22.3532 80.0816 22.0989 80.3124 21.6453C80.5062 21.2639 80.9229 21.0029 81.1859 20.6475C81.4572 20.2801 81.6627 19.8639 81.8967 19.4695H83.1699C83.237 19.8266 83.3472 20.1795 82.9268 20.5481C83.2896 20.5647 83.5705 20.5775 83.8273 20.5891C83.942 21.116 84.0456 21.5931 84.1474 22.0595C83.9644 22.1312 83.8347 22.1817 83.6819 22.2414C83.698 22.3449 83.6956 22.453 83.7324 22.545C84.0472 23.3224 83.9959 23.5892 83.3907 24.1894C83.138 24.4395 83.0324 24.8289 83.1351 25.072C83.2967 25.4539 82.8117 25.3069 83.0407 25.6594C82.798 25.4593 82.7218 25.3963 82.5901 25.2878V25.917C82.3515 25.963 82.1452 26.0023 81.9 26.0491V26.6667C81.6109 26.9678 81.4071 27.1807 81.2373 27.358C81.6312 27.7436 81.9944 28.099 82.2964 28.3952V29.2459C82.5399 29.4895 82.7947 29.7442 83.0556 30.006C82.9744 30.1501 82.9227 30.2408 82.8319 30.4003C82.9504 30.6405 83.0958 30.9363 83.2834 31.3178C83.0656 31.7725 82.8249 32.275 82.5963 32.7521H81.6548C80.558 32.1246 79.4947 31.5153 78.4344 30.9081C78.2463 31.1985 78.0968 31.4296 77.97 31.6255C77.7745 31.5302 77.6238 31.4565 77.3645 31.3302V32.3814C77.0207 32.2534 76.7805 32.164 76.3306 31.9966C76.5162 32.2501 76.5672 32.3193 76.6649 32.4527C76.4578 32.6473 76.2387 32.8532 75.892 33.1788C75.8224 32.7584 75.7789 32.4949 75.7313 32.205C75.8899 32.1503 76.0183 32.106 76.1815 32.0492C76.1977 31.9643 76.2172 31.8616 76.2408 31.7361C76.0979 31.6864 75.9666 31.6417 75.8348 31.5961C75.8833 31.3965 75.9326 31.1952 76.0163 30.8539C75.8071 31.0456 75.7263 31.1198 75.6783 31.1637C75.1974 31.0734 74.7426 30.9885 74.2634 30.899C74.1896 30.7573 74.094 30.5726 73.9809 30.3564C74.0662 30.0259 74.1631 29.6506 74.2613 29.2679C74.4821 29.3043 74.7625 29.3511 75.0429 29.3975C75.0545 29.3561 75.0657 29.3147 75.0777 29.2728C74.7848 29.1258 74.4924 28.9788 74.2344 28.8491C74.3856 28.5368 74.5359 28.2257 74.6925 27.9018C73.9494 26.6398 73.1396 25.4485 72.6819 24.0775C72.4073 23.1331 72.7325 22.1999 72.8683 21.2705C72.974 20.5477 73.5716 20.0366 74.2257 19.6708C74.3189 19.6186 74.4071 19.5586 74.5562 19.4658H75.6795C75.8568 19.6431 76.0163 19.803 76.1285 19.9152C75.9073 20.1364 75.6824 20.3609 75.549 20.4939V21.1889C75.798 21.1243 76.037 21.0626 76.3104 20.9917C76.4537 21.1255 76.585 21.2485 76.7672 21.4188C76.5759 21.6524 76.418 21.845 76.2449 22.0558Z" fill="#FFEE57"/>
<path fill-rule="evenodd" clip-rule="evenodd" d="M8.31109 33.6577C8.43866 33.7852 8.54511 33.8917 8.69588 34.0425C8.00375 34.6343 7.31535 35.2225 6.62736 35.8111C6.64268 35.8509 6.65842 35.8906 6.67416 35.93C6.82038 35.8873 6.9989 35.8836 7.10535 35.7941C7.30416 35.6276 7.46073 35.4118 7.73369 35.358C8.21623 35.0858 8.69878 34.8133 9.16807 34.5482C9.5773 34.8791 9.27866 35.1405 9.10262 35.5419C9.37061 35.4404 9.54416 35.3745 9.73097 35.3033C9.81257 35.3849 9.91902 35.4913 10.0259 35.5982C10.0263 36.0493 10.0263 36.5007 10.0263 36.9576C9.89458 37.086 9.76038 37.2177 9.61831 37.3561C9.63902 37.4083 9.6444 37.4803 9.68292 37.5085C9.93973 37.7011 10.1961 37.8962 10.467 38.0677C10.7582 38.2516 11.1658 38.3046 11.1769 38.7755C11.1782 38.8298 11.2701 38.8911 11.3306 38.9338C11.563 39.0974 11.8351 39.2212 12.0244 39.4238C12.2133 39.6255 12.3206 39.9034 12.5115 40.2298C12.5115 40.4207 12.5115 40.7219 12.5111 41.0226C12.3243 41.209 12.1383 41.3954 11.9826 41.5511C10.5581 41.042 9.15026 40.5392 7.7428 40.0364C7.43008 40.2033 7.09333 40.3826 6.75618 40.562C6.74209 40.5392 6.72801 40.5164 6.71393 40.4936C6.42109 40.7861 6.12825 41.0789 5.75422 41.4529C5.74884 41.542 5.73807 41.7168 5.7244 41.9396C5.13126 42.51 4.51038 43.1077 4.00961 43.5898C3.75819 44.3697 3.88576 45.1708 2.84653 45.3352C2.63156 44.9914 1.85949 44.9364 2.03552 44.1349C1.8218 44.0732 1.55919 43.9965 1.27298 43.9137C1.20836 43.9572 1.09197 44.0351 1.00126 44.0955C0.710494 43.7882 0.456589 43.519 0.0875359 43.1284C0.00510982 42.4238 -0.100511 41.5221 -0.211517 40.5732C0.726648 39.5588 1.65115 38.5593 2.63197 37.4986C2.24842 37.2583 1.85286 37.0574 1.51404 36.7861C1.16363 36.5053 0.868305 36.1557 0.539844 35.8272C0.630554 35.5344 0.72292 35.2358 0.822329 34.9131C0.638423 34.8501 0.507122 34.805 0.343926 34.7487V33.9857C0.406885 33.9223 0.486826 33.8428 0.579193 33.75C0.90227 33.6858 1.2415 33.6183 1.66067 33.5346C2.77653 34.1609 3.99677 34.8456 5.18387 35.5112C6.37428 35.0585 7.14594 34.0143 8.31109 33.6577Z" fill="#FFEE57"/>
</g>
<defs>
<clipPath id="clip0">
<rect width="96" height="66" fill="white"/>
</clipPath>
</defs>
</svg>
