<?xml version="1.0" encoding="UTF-8"?>
<svg width="101px" height="54px" viewBox="0 0 101 54" version="1.1" xmlns="http://www.w3.org/2000/svg" xmlns:xlink="http://www.w3.org/1999/xlink">
    <!-- Generator: Sketch 61.2 (89653) - https://sketch.com -->
    <title>50</title>
    <desc>Created with Sketch.</desc>
    <g id="Page-1" stroke="none" stroke-width="1" fill="none" fill-rule="evenodd">
        <g id="People-Copy" transform="translate(-1276.000000, -1589.000000)" fill="#71C0FF">
            <g id="Group-7" transform="translate(57.000000, 1239.000000)">
                <g id="Group-6-Copy-2" transform="translate(916.000000, 0.000000)">
                    <g id="90">
                        <g id="50" transform="translate(362.500000, 377.000000) scale(-1, 1) translate(-362.500000, -377.000000) translate(303.000000, 350.000000)">
                            <path d="M48.0711101,43.5289175 L39.1234947,46.735456 C42.2928793,46.1905329 45.2700332,45.0926098 48.0711101,43.5289175 M68.834187,41.982456 C65.2803409,42.8133021 61.7889562,43.7577637 58.1861101,44.1863791 C61.9618024,44.4965329 65.4386486,43.3458406 68.834187,41.982456 M60.0195716,31.0188406 C60.0384178,29.6139944 59.1316486,29.7900714 58.2997255,29.9101483 C55.4862639,30.3145329 54.0399562,32.4829175 52.6771101,34.569456 C51.6836486,36.0900714 50.8425716,37.7959175 50.8194178,39.7166098 C50.8102639,40.4489175 51.005187,41.0309944 51.9528793,40.5081483 C54.540187,39.0801483 56.8663409,37.3446868 58.5447255,34.8672252 C59.3443409,33.6869175 59.8994947,32.392456 60.0195716,31.0188406 M58.2006486,42.5246868 C60.4891101,42.6383021 62.6849562,42.0077637 64.8770332,41.4509944 C74.3485716,39.0446098 82.3269562,34.0040714 89.5584947,27.5726868 C94.3890332,23.2763021 98.7624178,18.5615329 102.978033,13.6830714 C103.363033,13.2383021 103.734572,12.7730714 104.313956,12.5695329 C104.964956,12.3412252 105.424802,12.393456 105.118418,13.2609175 C105.043572,13.4746868 104.746879,13.674456 105.152341,13.7988406 C106.550725,14.2285329 106.171649,15.2473021 105.923418,16.1739944 C105.458187,17.9132252 104.294033,19.2841483 103.297879,20.7110714 C100.507572,24.7091483 97.5632639,28.605456 94.1332639,32.0817637 C90.9488024,35.3087637 87.3324947,38.0382252 83.6418793,40.6648406 C81.2925716,42.3367637 78.8797255,44.0049175 76.114187,44.7603791 C74.2769562,45.2622252 72.7929562,46.3843791 71.0004178,46.8948406 C67.5639562,47.8732252 64.1307255,48.8112252 60.5397255,49.010456 C57.5841101,49.1741483 54.792187,48.5883021 52.2210332,47.1177637 C51.3734947,46.6326098 50.5765716,46.5986868 49.7161101,46.9529944 C47.3969562,47.9071483 45.0401101,48.7896868 42.6908024,49.633456 C38.8688024,51.0070714 34.8464947,51.7679175 30.8209562,52.3688406 C24.4003409,53.3273021 17.9705716,53.6293791 11.5483409,52.3559175 C7.77372548,51.607456 4.10087933,50.6242252 1.26641779,47.7628406 C0.520110096,47.0095329 -0.0334283656,46.1781483 0.00157163443,45.0586868 C0.016110096,44.5762252 0.168494711,44.2111483 0.640725481,44.0092252 C1.1991101,43.7712252 1.2481101,44.1669944 1.50549471,44.5288406 C3.27003317,47.0111483 6.08241779,47.3363791 8.7548024,47.8866868 C16.1193409,49.4035329 23.4467255,48.7089175 30.7563409,47.4306098 C36.3498793,46.4522252 41.7942639,44.9375329 47.0550332,42.787456 C47.4728793,42.6167637 48.0490332,42.6313021 47.701187,41.842456 C46.4891101,39.0941483 46.6845716,36.2839175 47.6710332,33.5490714 C49.1932639,29.3275329 51.6734178,25.9050714 56.2309562,24.5976868 C58.6798793,23.8949944 60.3130332,24.6908406 61.7496486,26.7773791 C65.4106486,32.0925329 63.4016486,37.8158406 59.2274947,41.2420714 C58.8532639,41.548456 58.4795716,41.8548406 58.1064178,42.1606868 C58.1376486,42.2823791 58.1694178,42.4035329 58.2006486,42.5246868" id="Fill-149"></path>
                            <path d="M105.351518,5.84845599 C108.217749,4.94599445 110.898749,3.67791752 113.30621,1.87407137 C110.654825,3.19868676 108.003441,4.5238406 105.351518,5.84845599 M111.276749,17.8922252 C111.344056,14.8488406 111.929364,11.8700714 112.397287,8.87622522 C112.467287,8.42876368 112.786056,7.94091752 112.223902,7.54999445 C111.683825,7.17468676 111.267056,7.55807137 110.901441,7.79876368 C108.907518,9.1088406 106.640595,9.76037906 104.468441,10.6596098 C103.096441,11.2282252 101.820825,12.0606868 100.393364,12.6018406 C98.1953639,13.4343021 96.0571332,14.4326098 93.9194409,15.4158406 C92.8360562,15.9139175 91.5663639,15.8832252 90.6240562,16.8325329 C89.6995178,17.7635329 88.6974409,17.4829944 87.5596716,15.9316868 C86.9786716,15.1401483 86.7406716,14.0847637 87.729287,13.3336098 C88.5423639,12.7159944 89.4173639,12.1506098 90.3338255,11.7042252 C96.3995947,8.75076368 102.489056,5.84630214 108.558056,2.8998406 C109.920364,2.23860983 111.239595,1.48476368 112.569595,0.757840602 C114.987825,-0.564082475 116.011441,-0.209236321 117.303749,2.23860983 C118.306902,4.1388406 118.387133,6.01430214 117.712441,8.03837906 C116.41421,11.9346868 115.226902,15.8681483 114.683056,19.9577637 C114.574287,20.7773021 114.580749,21.6113791 114.503749,22.4363021 C114.415441,23.3915329 113.967441,23.635456 113.147364,23.0733021 C111.328979,21.8283791 111.175518,21.4089175 111.276749,17.8922252" id="Fill-151"></path>
                        </g>
                    </g>
                </g>
            </g>
        </g>
    </g>
</svg>