<?xml version="1.0" encoding="UTF-8"?>
<svg width="125px" height="72px" viewBox="0 0 125 72" version="1.1" xmlns="http://www.w3.org/2000/svg" xmlns:xlink="http://www.w3.org/1999/xlink">
    <!-- Generator: Sketch 61.2 (89653) - https://sketch.com -->
    <title>86</title>
    <desc>Created with Sketch.</desc>
    <g id="Page-1" stroke="none" stroke-width="1" fill="none" fill-rule="evenodd">
        <g id="People-Copy" transform="translate(-337.000000, -2030.000000)" fill="#FF8484">
            <g id="Group-7" transform="translate(57.000000, 1239.000000)">
                <g id="Group-6-Copy-3" transform="translate(1.000000, 458.000000)">
                    <g id="86">
                        <g transform="translate(279.000000, 333.000000)">
                            <path d="M110.920207,9.81688923 C110.883475,9.68437418 110.847967,9.55124846 110.811234,9.4187334 C108.089961,10.1704663 105.369299,10.9215885 102.647414,11.6733213 C102.691493,11.8296525 102.73496,11.9865942 102.777815,12.1441467 C105.492354,11.3685978 108.20628,10.5924382 110.920207,9.81688923 M18.3601794,73.2 C16.950872,72.3798723 15.245255,71.9175962 15.6646188,69.8785743 C15.9321546,68.5821252 16.1574479,67.2172812 16.7488427,66.0594538 C18.5750651,62.4815473 20.2684379,58.7778431 22.5703475,55.5144309 C25.6271119,51.1817382 29.9670685,48.3329699 35.4243084,48.119236 C40.6311543,47.914662 45.8600398,48.1864095 51.0779055,48.3189245 C58.2450479,48.5002931 65.4421885,49.1256176 72.1079308,45.4750416 C76.3848298,43.1325174 80.0170716,40.2849704 82.3122469,35.7898399 C84.9067928,30.7066357 87.6488813,25.6710636 90.7215633,20.8657136 C95.0045843,14.167902 101.048934,9.80406519 109.130105,8.66333652 C109.94863,8.54792019 110.988163,8.20228184 111.562416,8.5534162 C112.532768,9.14759661 113.34211,10.1350475 113.944525,11.1243304 C114.155125,11.4693581 113.729027,12.5972627 113.28946,12.8574075 C112.349105,13.4149478 111.182845,13.5767749 110.161679,14.0207309 C109.351113,14.3724759 108.617686,14.9019254 107.852423,15.3562628 C107.711003,15.4399243 107.567745,15.6322849 107.442855,15.6188502 C104.716684,15.3141266 103.483693,17.698787 101.592576,18.8712704 C97.2226211,21.5820277 94.60726,25.7895333 92.2373952,30.1637514 C89.9991555,34.2949235 87.8692769,38.4847198 85.5881825,42.5914651 C84.9380155,43.7627272 84.070514,44.9004025 83.056082,45.7687731 C80.111352,48.2920551 77.0974422,50.5325977 73.3415339,52.0757569 C66.0580717,55.0680323 58.7427746,54.2192031 51.3136064,53.7819645 C46.7128483,53.5108277 42.0563792,53.258011 37.484395,53.6659375 C31.6812565,54.1831737 27.6608735,57.8422991 24.4461589,62.491318 C23.6000847,63.7144869 22.3150559,64.6341536 21.4591864,65.8518265 C20.8922799,66.6591302 20.7753478,67.7687148 20.3780235,68.7097549 C19.7578548,70.1826872 19.0715674,71.6275287 18.3601794,73.2" id="Fill-1"></path>
                            <path d="M17.1045499,35.9442738 C17.1858945,36.0904315 17.2678506,36.2372008 17.3485835,36.3833585 C18.7277706,35.6232162 20.1075693,34.8630738 21.487368,34.1029315 C21.3956261,33.9372046 21.3038841,33.7714777 21.2121422,33.6057508 C19.8433525,34.3854623 18.4733396,35.1645623 17.1045499,35.9442738 M57.5798686,35.9173662 C57.6159538,36.0519046 57.652039,36.1864431 57.6881241,36.3209815 C59.3688364,35.8659969 61.048937,35.4116238 62.7296493,34.9566392 C62.6935641,34.8239354 62.6580906,34.6918431 62.622617,34.5591392 C60.9419048,35.0122892 59.2611925,35.4648277 57.5798686,35.9173662 M93.7298609,1.13733923 C93.4203848,1.39907769 93.1109086,1.66142769 92.6326274,2.06626615 L94.1659409,2.06626615 C95.2570583,4.06660846 94.567159,5.53002 93.0736003,6.81669692 C91.772088,7.93764692 90.5672106,9.21453923 88.6406299,9.15399692 C88.4418557,9.14788154 88.1103615,9.22921615 88.0553164,9.36069692 C87.3232157,11.1011354 86.0406635,11.0283623 84.6553603,10.4027585 C84.575239,11.2277238 84.6804364,12.0673662 84.3795228,12.7204892 C84.0559796,13.4237585 83.372808,13.97292 82.8107357,14.5544931 C79.5587899,17.9167315 78.2903048,22.2666046 76.6597448,26.4813277 C75.1600699,30.3566469 73.069577,33.9439315 69.3509706,36.2115162 C68.8647383,36.5075008 68.2329422,36.5655969 67.3094067,36.8407892 C66.7100261,37.8198623 65.8262454,39.03132 63.9241293,39.2105008 C62.8177215,39.3150738 61.7987745,40.2819162 60.6880854,40.4133969 C57.6300209,40.7748162 54.5095719,41.2817815 51.4790299,41.0084238 C48.6686686,40.7546354 45.8711512,39.7590508 43.1947332,38.7524585 C37.3734015,36.5637623 31.4217964,36.2292508 25.4536777,37.53672 C22.1393474,38.2632277 19.0666041,39.8434431 16.8109757,42.6338931 C16.1284157,43.4784277 15.1963177,44.1162623 14.4140648,44.8849662 C10.604328,48.6275815 7.6037551,52.9309777 5.4991951,57.8471354 C4.85027381,59.3643623 4.23193316,60.8950431 3.58545832,62.4141046 C3.28026348,63.1283815 2.93347897,63.4830738 2.08211381,62.9094508 C-0.0132720003,61.4974085 -0.330087484,60.5739854 0.269293161,57.9743354 C2.67476671,47.5359854 9.01291123,39.9406777 17.6238093,34.0381085 C21.4390506,31.4225585 25.9142222,30.8892969 30.3759383,31.0134392 C33.3856854,31.0978315 36.4119461,31.6708431 39.3660364,32.3196854 C42.1207409,32.9244969 44.7751409,33.9690046 47.4986532,34.7291469 C50.8087022,35.65257 54.1126351,35.0385854 57.3963848,34.4833085 C65.6794583,33.0822738 70.8047745,28.1648931 73.3313474,20.26137 C76.1325345,11.4974123 81.761208,5.15698154 90.1072777,1.28777769 C91.1415151,0.808943077 92.3726919,0.756962308 93.5127383,0.507454615 C93.5855203,0.717212308 93.6576906,0.92697 93.7298609,1.13733923" id="Fill-3"></path>
                            <path d="M108.651879,38.0453096 C108.010506,38.7440344 107.358779,39.4336532 106.732025,40.1445191 C106.462806,40.4498696 105.97127,41.000472 106.043143,41.0969944 C107.020125,42.4094555 105.993197,43.5045896 105.282997,44.0060202 C103.461206,45.293592 104.057506,47.1214461 103.805343,48.7459355 C103.654897,49.7117661 102.444634,51.2257708 101.556579,51.3921049 C101.484097,50.9513802 101.413443,50.5209755 101.343397,50.0905708 C100.953579,50.2811873 100.494934,50.3977426 100.18917,50.6788108 C99.6629155,51.1632438 99.23107,51.7502696 98.6189336,52.455672 C99.2566518,52.5801191 99.6921518,52.6651073 100.150188,52.7537379 C100.238506,53.3079826 100.323779,53.8415873 100.408443,54.3691214 C98.7425791,54.9828579 97.0645336,55.2778885 95.7884882,56.7038696 C95.0947336,57.4796908 94.1341973,57.842712 94.6829882,59.1236061 C94.7298882,59.2322696 94.0665882,59.844792 93.9587791,59.7889426 C91.3622245,58.4437002 89.9509609,60.8403685 89.16097,62.0951591 C88.5092427,63.1289802 87.7490973,63.6832249 86.90977,64.0778132 C86.2659609,64.3801285 85.2908064,63.9679355 84.4600064,63.8999449 C84.2529155,63.8829473 84.0379064,63.9673285 83.7175245,64.0237849 C83.7552882,64.5173238 83.7893973,64.9641191 83.8216791,65.3999873 C82.3342791,66.0307214 82.3342791,66.0307214 78.9580882,65.0964579 C78.6584155,66.9564861 77.1442155,67.5829708 75.1841609,66.5710038 C75.0733064,66.9413096 74.9685427,67.2934038 74.9539245,67.3419685 C72.9274791,67.2976532 70.8084518,65.2652202 69.0646245,68.2434508 C67.5303245,66.5558273 65.93877,67.2800485 64.1979882,68.1633191 C63.3818064,68.5767261 62.2781336,68.5123779 61.3041973,68.5190555 C57.3268336,68.5457661 53.4158609,68.8104438 49.5469155,69.9614273 C47.6514245,70.5253849 46.0452518,71.6739402 44.25757,72.1954038 C40.3965427,73.3221049 38.6253064,76.7368108 35.9185064,79.0903779 C34.6485518,80.1946179 34.0016973,82.0024391 33.0423791,83.4721285 C32.4570427,84.3681473 32.2054882,85.7825944 30.5067336,84.9442461 C29.1917064,84.2959073 28.6959064,83.4660579 29.3049973,81.8737426 C32.1354427,74.4767308 36.7127609,68.730312 44.2569609,65.4952955 C49.9373427,63.0609896 55.8558791,63.0294226 61.8231427,62.8679449 C65.6799064,62.7635308 69.5311882,62.4921755 73.3873427,62.3197708 C73.9836427,62.2936673 75.0002155,61.7533849 74.7297791,63.1623685 L74.7364791,63.1350508 L73.9909518,63.4173332 C73.9848609,63.5041426 73.9793791,63.590952 73.9732882,63.6777614 C74.3466609,63.7117567 74.7285609,63.8101002 75.0903609,63.7627496 C75.5161155,63.7075073 75.9290791,63.4021567 76.3402155,63.4173332 C79.6609791,63.5381379 82.4591427,61.9348955 85.2384245,60.5392673 C88.1912973,59.0562226 90.9456064,57.1664485 93.7248882,55.3604485 C94.5715245,54.8110602 95.2159427,53.952072 95.9529427,53.2345285 L95.9042155,53.2752014 C96.4493518,52.8441896 96.99327,52.4125708 97.8819336,51.7089896 C96.8781518,51.6464626 96.3683427,51.6148955 95.5619064,51.5651167 C96.6533973,50.2393002 97.56277,48.9796532 98.6396427,47.8826979 C99.3528882,47.1554414 99.8450336,47.4729332 100.353015,48.7647544 C101.166152,48.7082979 101.949443,48.6542696 102.888052,48.5887073 C102.437325,47.9822555 102.057252,47.4698979 101.788643,47.109912 C101.076006,47.0516344 100.192825,47.1882226 100.047861,46.9229379 C99.78047,46.4348626 99.8456427,45.6918226 99.9564973,45.0884061 C100.113034,44.2373096 100.376161,43.3904626 100.713597,42.5921802 C100.916425,42.1126038 101.346443,41.7289426 101.836761,41.0909238 C101.516988,39.7742132 102.071261,38.4186508 104.417479,35.4106744 C104.737861,35.5691167 105.075906,35.7354508 105.493743,35.9418508 C105.284215,33.9051685 105.492525,33.5773567 106.49387,33.6605238 L106.49387,35.7469849 L106.459761,35.7002414 C106.810597,36.4165708 107.160825,37.1322932 107.551252,37.9317896 C107.644443,37.9062932 107.990406,37.8103779 108.336979,37.7138555 C108.441743,37.8243402 108.547115,37.9348249 108.651879,38.0453096" id="Fill-6"></path>
                            <path d="M109.26006,36.79362 C109.15686,36.68442 109.05306,36.57522 108.94986,36.46602 C109.16826,34.14882 109.07166,34.04562 107.10066,34.47582 L107.13426,34.52202 C107.84886,33.84222 108.56346,33.16182 109.36626,32.39682 C108.86046,32.07282 108.37686,31.76322 107.63766,31.28982 C108.26886,30.92262 108.72006,30.64662 109.18626,30.39822 C109.34046,30.31602 109.60746,30.36702 109.69746,30.25542 C113.21886,25.91562 117.88986,23.29362 123.05466,21.51642 C125.44386,20.69442 127.96506,20.25702 130.43106,19.66602 C130.78386,19.58142 131.16486,19.61622 131.53266,19.59582 L131.68746,20.11542 C128.59446,21.02382 125.50086,21.93222 122.40846,22.84062 C122.44806,22.99122 122.48826,23.14182 122.52786,23.29302 C125.73846,22.40622 128.94846,21.51882 132.12846,20.64042 C133.24566,23.10582 133.07286,23.40882 130.77546,24.39582 C127.76106,25.69182 124.79526,27.10122 121.79706,28.43562 C121.20066,28.70082 120.63486,29.12082 119.92026,28.38762 C119.62926,28.09062 118.77966,28.33902 118.02786,28.33902 L118.02786,27.22602 C117.31446,27.67782 116.70186,28.06542 115.72026,28.68702 C116.58906,28.79082 117.01386,28.84122 117.42246,28.89042 C117.42246,29.05362 117.46386,29.18202 117.41706,29.24142 C116.89746,29.89842 116.11986,30.21882 116.18646,31.44222 C116.23206,32.28042 115.12446,32.25222 114.63066,31.46322 C114.18486,31.95762 113.73666,32.45502 113.06646,33.19782 C113.18586,34.73082 112.07946,35.62782 110.01726,35.01942 C110.09406,35.51862 110.27706,35.98002 110.17806,36.36882 C110.12586,36.57522 109.58226,36.65622 109.26006,36.79362" id="Fill-9"></path>
                            <path d="M88.8,56.9134135 C86.5121313,57.9424607 84.2229638,58.9709528 81.9344457,60 C81.8227474,59.8456984 81.7116984,59.6913969 81.6,59.5370953 C81.9136647,59.33395 82.2065482,59.1008326 82.5429422,58.9320999 C84.1365924,58.133395 85.7295932,57.333025 87.3531163,56.5803885 C87.7024984,56.4188714 88.1759177,56.4549491 88.5928385,56.4 C88.6616758,56.5709528 88.7311626,56.7424607 88.8,56.9134135" id="Fill-12"></path>
                            <path d="M74.4,62.4 C75.498865,60.2497496 77.5117121,60.6504174 79.2,60 C79.1200193,61.1612688 77.6850036,61.830384 74.412171,62.3592654 C74.4069548,62.3699499 74.4,62.4 74.4,62.4" id="Fill-14"></path>
                            <path d="M96,52.6750165 C95.3667424,52.7686968 94.6919392,52.7751575 94.1128169,52.9808234 C93.5443959,53.1827205 93.0735443,53.5870531 92.4,54 C92.5573702,52.7573906 94.0146179,51.4286384 94.9569505,51.6181525 C95.3642245,51.6994497 95.6210526,52.3304455 95.9477531,52.7116272 C95.9496415,52.7110888 96,52.6750165 96,52.6750165" id="Fill-16"></path>
                        </g>
                    </g>
                </g>
            </g>
        </g>
    </g>
</svg>