<?xml version="1.0" encoding="UTF-8"?>
<svg width="79px" height="68px" viewBox="0 0 79 68" version="1.1" xmlns="http://www.w3.org/2000/svg" xmlns:xlink="http://www.w3.org/1999/xlink">
    <!-- Generator: Sketch 61.2 (89653) - https://sketch.com -->
    <title>44</title>
    <desc>Created with Sketch.</desc>
    <g id="Page-1" stroke="none" stroke-width="1" fill="none" fill-rule="evenodd">
        <g id="People-Copy" transform="translate(-839.000000, -2034.000000)" fill="#FF7D56">
            <g id="Group-7" transform="translate(57.000000, 1239.000000)">
                <g id="Group-6-Copy-4" transform="translate(457.000000, 458.000000)">
                    <g id="44">
                        <g transform="translate(325.000000, 337.000000)">
                            <path d="M3.56493921,43.2368454 C3.5056256,43.0148336 3.39230016,42.8952123 3.1832114,42.9356383 C2.82335342,43.0048928 2.62188596,43.2262419 2.60134158,43.5980289 C2.59007531,43.8018158 2.71002797,43.8412478 2.87968478,43.811094 C3.22827649,43.7491295 3.38998063,43.4770821 3.56493921,43.2368454 M1.72422916,108.698526 C2.07977945,107.69881 2.31007531,106.667283 2.60896288,105.65365 C2.02311673,106.582455 1.7060043,107.592112 1.72422916,108.698526 M4.3592114,41.16352 C5.842383,39.5643721 7.39016998,38.0285141 8.96214632,36.5165141 C7.05185046,37.6958277 5.57630016,39.3022656 4.3592114,41.16352 M33.589886,25.3363957 C36.6519925,23.951307 39.1988327,21.8763247 41.6296966,19.6403011 C39.0937913,21.5456265 36.5611996,23.4529401 33.8539806,25.1143839 C33.7572232,25.1740289 33.6776966,25.2618395 33.589886,25.3363957 M68.6104303,102.291662 C67.7203948,105.332561 65.9535783,107.911212 65.0642055,110.862976 C66.18288,110.074005 69.0713534,103.2821 68.6104303,102.291662 M32.6945487,132.522715 C33.2916611,132.522715 33.8944067,132.574408 34.4852232,132.513437 C36.9061463,132.264585 39.2952587,131.805319 41.6840398,131.353011 C45.2282765,130.682005 48.4974836,129.17597 51.8515191,127.939993 C53.3989747,127.36939 54.8791641,126.591354 55.9275901,125.218857 C59.3923002,120.682195 62.1816966,115.798266 64.1619096,110.407686 C65.7425013,106.105626 67.7989274,101.980514 69.4882055,97.715236 C70.6943593,94.6706916 71.4641108,91.4806798 71.8090576,88.207165 C72.0963475,85.4800644 71.9349747,82.7450111 71.954525,80.0122774 C71.9704303,77.7649874 71.930667,75.5193543 72.0721581,73.2647744 C72.1715664,71.6768928 71.8153534,70.0227389 71.6791641,68.396088 C71.4389274,65.531804 71.4823357,62.7029756 72.3528209,59.9245141 C73.1560398,57.3611058 74.2448919,54.9203011 75.5968445,52.6143602 C78.3335546,47.9454845 81.7641345,43.7862419 85.3627144,39.7704786 C87.2955428,37.6139815 89.1912587,35.4362774 90.7894126,33.0189993 C93.730241,28.5711413 95.1411759,23.6587153 95.0195664,18.3397093 C94.9244658,14.1814608 93.1029747,10.9530111 89.5156611,8.75940165 C83.2801108,4.94676259 76.6966315,3.72669159 69.6293652,6.04853774 C64.1559451,7.8468336 59.2826197,10.704159 54.8244895,14.3332241 C52.0440398,16.5967508 49.5054836,19.1306679 46.7326552,21.4008218 C42.9561345,24.4934135 39.1193061,27.4938869 34.6714481,29.5967034 C31.2292706,31.2243484 27.6111404,32.3692005 23.9721345,33.4454608 C20.8656256,34.3643247 17.9032587,35.6046087 15.1045842,37.2325851 C11.8744777,39.1114016 9.14671436,41.515094 7.25861969,44.7899342 C7.03428833,45.179946 7.02567294,45.1749756 6.51471436,45.1855792 C6.35963744,45.1888928 6.35002797,45.3177922 6.2980043,45.4211768 C5.82548359,46.3638987 5.51698655,47.347378 5.50439484,48.4133661 C5.49577945,49.1334135 5.77379129,50.1632833 5.52725874,50.5098869 C4.73563744,51.6219342 5.33175578,52.6991886 5.4775546,53.6362774 C5.65880904,54.7986916 5.96332975,56.0048454 6.31954276,57.1695792 C7.21322324,60.0935082 8.24011081,62.9650821 9.69644217,65.651094 C11.0318268,68.115094 12.3254599,70.6009638 12.7108327,73.3916857 C12.82217,74.2005377 13.7970339,75.1240407 12.7565605,75.9878987 C12.7562292,75.98823 12.8294599,76.0687508 12.8606079,76.1167981 C13.4129866,76.9680644 13.6919925,77.9290111 13.7340753,78.9161354 C13.7748327,79.8591886 14.1118268,80.7406087 14.1522528,81.6727271 C14.2175309,83.1771058 14.7755428,84.6394016 14.4531286,86.1845377 C14.306667,86.8876857 14.3407972,87.6335792 14.3394718,88.3602537 C14.3364895,89.9776265 13.7884185,91.5187863 13.7035901,93.1401354 C13.6717795,93.74752 13.1412706,94.5192596 12.8490102,95.2147863 C11.8012469,97.707946 9.94264336,99.6069756 8.31201614,101.68726 C6.77781495,103.643946 5.05407531,105.562195 4.89270253,108.244893 C4.82775578,109.327118 4.50567294,110.469319 5.06401614,111.48494 C6.56607531,114.21436 7.35603981,117.308609 9.41677353,119.755709 C11.0205605,121.660372 12.0974836,123.96797 14.0515191,125.622786 C15.9624777,127.241153 17.786951,128.983449 19.9944777,130.178999 C21.078028,130.76584 22.1768209,131.366597 23.4489155,131.64726 C26.5053889,132.321911 29.5800871,132.565461 32.6945487,132.522715 M57.9899806,6.56049041 C58.1586434,6.50946082 58.3412232,6.48394603 58.4939806,6.40276259 C62.3096019,4.37350816 66.2862647,2.76640756 70.5038268,1.77961467 C70.6562528,1.74382768 70.8653416,1.74912946 70.9558031,1.51485727 C70.6705013,1.55561467 70.4024303,1.58742532 70.1366789,1.63348449 C66.6348564,2.24252591 63.3888445,3.57890461 60.2359451,5.16148449 C59.4512824,5.55547265 58.5923948,5.86131881 58.005886,6.57904662 C57.065815,6.64465609 56.4918978,7.43793419 55.6784067,7.76432472 C55.5359215,7.82131881 55.38217,8.08044307 55.5995428,8.30046674 C55.6717795,8.37336614 55.7715191,8.4204194 55.8162528,8.33459691 C56.2897676,7.43163833 57.4382647,7.36105845 57.9899806,6.56049041 M47.3307617,20.2960644 C48.4222647,19.6171058 49.2907617,18.6896265 50.1576019,17.7611531 C49.2241581,18.6150703 48.0962055,19.255591 47.3483238,20.3146206 C46.5514008,20.5969401 46.042099,21.244088 45.4731522,21.8146916 C46.1961818,21.4376028 46.8168209,20.9326087 47.3307617,20.2960644 M71.4160635,107.123567 C70.7825013,108.856585 70.1757795,110.579331 68.8934126,112.006502 C68.1183593,112.868703 67.5003712,113.906857 66.9890812,114.952632 C66.8038505,115.332372 66.4635428,115.447023 66.2696966,115.786337 C65.8173889,116.578621 65.6513771,117.473626 65.0721581,118.243378 C63.766596,119.978384 62.4779333,121.721011 61.1150457,123.415591 C60.2157321,124.533603 59.3740753,125.708277 58.4396374,126.800112 C56.6983357,128.834005 54.4758978,130.198218 52.0089155,131.169437 C49.1582173,132.291757 46.3343593,133.509508 43.4203712,134.440301 C37.990028,136.174644 32.4473534,136.873153 26.7111641,136.188893 C23.2554008,135.77668 19.8897676,135.123899 16.9280635,133.35907 C12.1915901,130.536206 8.28683271,126.776916 5.52891555,121.927118 C5.42553093,121.745532 5.29265519,121.580514 5.16839484,121.41152 C4.04110489,119.878313 3.02349543,118.294408 2.50590963,116.427189 C2.24943626,115.503686 1.87069069,114.616964 1.45251318,113.745484 C0.212229155,111.1612 0.450477676,108.55836 1.45218182,105.966124 C2.46051318,103.356987 4.14448951,101.14184 6.02695105,99.1778632 C8.542312,96.5534845 9.72261969,93.5099342 10.098383,89.9922064 C10.4479688,86.7203484 9.87372028,83.5515437 9.29085637,80.3708099 C8.93331791,78.419094 8.6135546,76.4594253 8.22950726,74.5130111 C7.60986229,71.3753543 6.16645401,68.5786679 4.68427649,65.7750229 C2.7547617,62.1244194 1.27987413,58.2812951 0.388181818,54.2287508 C-0.358043034,50.8376028 0.00976761678,47.5077567 1.16456052,44.3104549 C1.8299333,42.4684194 2.69478537,40.6605141 4.09644217,39.1683957 C5.46098655,37.715378 6.83779129,36.2925141 8.46510489,35.132088 C12.3761581,32.3423602 16.6878268,30.3853425 21.2592824,28.9608218 C26.4785487,27.3345022 31.5616256,25.4102892 36.0210812,22.1341235 C39.3254126,19.7065732 42.4693652,17.0868336 45.4890576,14.3153306 C49.6009155,10.5414608 53.9076138,7.02837206 58.8846552,4.43017088 C63.7092706,1.91182768 68.7482765,-0.0485036778 74.2631167,0.000914066109 C82.5637084,0.0777448429 89.670738,3.01095194 94.7054363,9.83831289 C98.4286079,14.8882537 99.0320161,20.6748099 97.8155901,26.7161827 C97.5958978,27.8070229 97.3735546,28.8975318 97.118738,29.9804194 C96.4636374,32.7621945 95.3323712,35.3199697 93.6702647,37.6660052 C92.7016966,39.0332005 91.6572469,40.3424076 90.6880161,41.6950229 C89.5501226,43.2825732 88.2829984,44.7372478 86.9731286,46.1554727 C85.4561581,47.7980289 84.1121581,49.5605377 82.8347617,51.3853425 C82.3897439,52.0208928 81.6842765,52.4065969 81.2538386,53.0905259 C79.626525,55.6767981 77.934596,58.2246324 76.7728445,61.0693661 C76.1455783,62.6048928 75.5060516,64.1023129 75.382454,65.8326798 C75.3072351,66.8936975 75.3718505,67.9510703 75.2794008,69.0054608 C75.1408919,70.5847271 75.4132706,72.1411295 75.6644422,73.6846087 C75.7608682,74.2770821 75.0424777,74.7565614 75.1972232,74.7979815 C76.0345724,75.0203247 75.4457439,75.4908573 75.4629747,75.8328218 C75.4729155,76.0349519 75.3446789,76.2569638 75.3904067,76.4425259 C76.1677795,79.5967508 75.8317795,82.8182419 75.8980516,86.003946 C75.9596848,88.9613425 76.2181463,91.9747389 75.4185724,94.8734845 C75.1266434,95.9305259 74.9139096,97.0160644 74.6060753,98.0727744 C74.2366079,99.34023 73.5549984,100.529153 73.4413416,101.851615 C73.2812942,103.714195 72.3398978,105.275236 71.6619333,106.940325 C71.6248209,107.03178 71.4873061,107.08281 71.3951877,107.155378 C71.4820043,106.163615 72.29417,105.424348 72.322667,104.404419 C71.626809,105.883283 70.7579806,107.284277 70.3974599,108.914573 C70.7371049,108.317461 71.0764185,107.72068 71.4160635,107.123567" id="Fill-217"></path>
                            <path d="M40.8459617,34.7774324 C42.7900564,33.6365567 44.3663404,32.0731957 45.8418907,30.3951839 C44.1827664,31.8634443 42.5518079,33.3631839 40.8459617,34.7774324 L40.8459617,34.7774324 Z M52.0837368,25.0132194 C52.0191215,24.9442963 51.9545061,24.8753732 51.8898907,24.8064502 C50.1863641,26.3628525 48.341015,27.760533 46.8618197,29.568107 L52.0837368,25.0132194 Z M12.9218434,107.483657 C11.9234528,108.474758 11.4688256,111.548131 12.1239262,112.18103 C12.3108138,110.624628 12.3157842,109.009574 12.9218434,107.483657 L12.9218434,107.483657 Z M20.4798552,45.5678703 C18.1374647,47.1554206 16.0469084,48.9765803 15.0349321,51.7480833 C16.6456777,49.5070892 18.4151451,47.4102372 20.4798552,45.5678703 L20.4798552,45.5678703 Z M55.2823641,22.1896928 C59.1987191,19.1219531 63.3056067,16.3988289 67.9009203,14.4663318 C64.8905061,14.864959 56.5402102,20.3831129 55.2823641,22.1896928 L55.2823641,22.1896928 Z M53.9048966,95.3584975 C52.9691333,97.2277046 52.3892516,99.2294561 51.8381984,101.226569 C51.2745534,103.269077 50.5137487,105.240675 49.8536777,107.24574 C49.229725,109.141125 48.3280919,110.945385 47.5487309,112.78974 C50.8842102,107.410426 52.1281392,101.292509 53.9048966,95.3584975 L53.9048966,95.3584975 Z M20.3973463,65.3554206 C20.4129203,65.2404383 20.3874055,65.0747579 20.453015,65.0214087 C20.5716422,64.9246514 20.6329439,65.072107 20.7118079,65.1592549 C20.9351451,65.404462 20.8307664,65.7745922 21.1369439,66.0201306 C21.7019144,66.4724383 22.0906008,67.0417164 22.3719262,67.7607697 C22.6118315,68.3737874 23.2666008,68.8194679 23.7129439,69.3595863 C23.8126836,69.4798703 23.9376067,69.6833259 23.8090386,69.8543082 C23.5701274,70.1714206 23.761654,70.2754679 24.0247546,70.3500241 C24.3498197,70.4414798 24.521796,70.6873496 24.6321392,70.9706632 C25.0304351,71.9912549 25.5606126,72.9604857 25.6792398,74.0847934 C25.7557842,74.8101425 25.8727546,75.6769827 26.1414883,76.2061661 C26.8897013,77.6807224 26.9168729,79.2354679 26.8459617,80.7123437 C26.7816777,82.0497164 26.5245416,83.4195626 26.5861747,84.7592549 C26.6391925,85.9166987 26.0569913,86.8600833 25.8949558,87.9380005 C25.6987901,89.2428999 24.7941747,90.3817874 24.6159025,91.7380478 C24.5058907,92.5710892 23.6264587,93.2039886 23.63408,93.8637283 C23.6513108,95.3889827 22.3003522,96.2097638 22.0617724,97.5852431 C21.9858907,98.0226395 21.8066244,98.6777401 21.4262221,99.0939295 C20.6445416,99.948178 20.4159025,101.130474 19.6063877,101.981409 C18.5871215,103.05303 18.057938,104.487823 16.9710741,105.551492 C16.3182931,106.190687 15.8079972,107.015113 15.2367309,107.750734 C14.7191451,108.416107 14.7655357,109.447965 14.5945534,110.327728 C14.3466954,111.601148 15.0773463,112.592912 15.4070505,113.711586 C16.1950268,116.384344 17.8372516,118.593858 19.7598079,120.37658 C23.5144587,123.858521 28.0113581,125.002711 33.0112635,123.180225 C33.5189084,122.995326 34.0258907,122.809101 34.5378434,122.637125 C37.5399735,121.629125 40.1335357,119.963042 42.5425297,117.918213 C45.6950978,115.242142 47.1878789,111.510355 48.9344824,107.978048 C49.545512,106.742734 49.7830978,105.228083 50.2443522,103.856249 C50.5601392,102.917172 50.9001155,101.979421 51.1174883,101.015492 C51.3365179,100.04361 51.6350741,99.0992312 51.926009,98.1518703 C52.2162812,97.2061661 52.6251806,96.292604 52.8551451,95.3343082 C53.0599262,94.4820478 53.4790978,93.7205803 53.6557132,92.8371721 C53.8916422,91.6562016 54.277015,90.4798703 54.5977724,89.3012194 C55.7509084,85.0624502 56.613441,80.7680123 57.133015,76.4033259 C57.4209676,73.984391 57.6307191,71.5425922 58.1317368,69.164746 C59.7501037,61.4794916 63.2890386,54.6892431 68.1633581,48.5865685 C70.3420564,45.8591366 72.653299,43.236746 74.9340564,40.5921543 C78.1999499,36.8056928 79.9720682,32.2988525 81.3071215,27.5709945 C82.137512,24.6314916 81.9937013,21.7274443 80.9147901,18.8906632 C80.2994528,17.2739531 79.3829084,15.9239886 77.449086,15.604888 C75.6484706,15.3076573 73.8915948,15.7341188 72.1890623,16.0489117 C71.1767546,16.236462 70.0739854,16.7179295 69.0580327,17.2093377 C66.6208729,18.3886514 64.1489203,19.5023555 62.029867,21.2188052 C61.5252043,21.6270419 60.8969439,21.6817164 60.3926126,22.0896218 C59.7471215,22.6115153 59.2961392,23.31632 58.5919972,23.7851957 C58.1877368,24.0539295 57.7032871,24.080107 57.3305061,24.4247224 C54.9665771,26.608391 52.2944824,28.4451247 50.1608493,30.8932194 C49.4202576,31.7434916 48.50537,32.4396809 47.6985061,33.2349472 C44.6688729,36.2195153 41.1431925,38.4525567 37.1715002,39.9115389 C32.3024824,41.7002253 27.7585297,44.0979531 23.5078315,47.0275153 C21.8825061,48.1475153 20.1415357,49.203894 18.9761392,50.9067579 C18.3004942,51.8945448 17.4316658,52.9015508 17.3262931,54.0331484 C17.1698907,55.7068525 16.9995712,57.4547815 17.569512,59.1221898 C17.7070268,59.524462 17.4618197,60.0851247 17.5473108,60.2226395 C17.877015,60.7504975 18.0758315,61.3476099 18.4330386,61.8539295 C19.2044469,62.9484147 20.2681155,63.8838466 20.3973463,65.3554206 L20.3973463,65.3554206 Z M19.4728493,97.6336218 C19.7293226,97.5368644 19.7929439,97.280391 19.8814173,97.0752786 C20.7237368,95.124888 21.6343167,93.1983555 22.1979617,91.1412667 C22.5276658,89.9374324 23.1062221,88.7902608 23.0873345,87.4996099 C22.5051333,89.7823555 21.4905061,91.9110182 20.769796,94.1424028 C20.3874055,95.3266869 19.6719972,96.3913496 19.4920682,97.6511839 C18.4625297,99.0091011 17.9572043,100.64006 17.1248256,102.100699 C18.0052516,100.662261 19.0400919,99.3030182 19.4728493,97.6336218 L19.4728493,97.6336218 Z M57.6883759,92.2072549 C57.6525889,91.9875626 57.6870505,91.792391 57.4680209,91.6820478 C57.4292516,92.020036 57.1572043,92.3427815 57.6045416,92.6390182 C57.8646599,92.8109945 57.6201155,93.0906632 57.553512,93.2987579 C56.95408,95.1702845 56.3712161,97.0497638 55.7923286,98.9242727 C55.2416067,100.708983 54.5838552,102.469172 54.1709795,104.296959 C53.9638789,105.214498 53.5188611,106.039255 53.181867,106.905101 C53.0267901,107.302734 52.8962339,107.682142 52.8962339,108.114237 C52.8959025,108.993006 52.8349321,109.01587 52.0224351,108.553953 C51.9545061,108.515515 51.8517842,108.538711 51.7421037,108.531752 C51.7421037,108.629503 51.7119499,108.726261 51.7464114,108.784249 C52.2646599,109.644462 52.1549795,110.675989 51.5462694,111.504722 C51.1446599,112.051468 50.7791688,112.604509 50.6055357,113.3229 C50.3447546,114.404131 49.6035002,115.255066 48.7426244,115.966166 C48.6644232,116.030782 48.4864824,116.000959 48.4781984,116.151397 C48.4298197,117.042758 47.7124232,117.470213 47.1713108,118.001054 C46.6547191,118.507705 46.0178434,118.877835 45.5323996,119.43419 C44.7016777,120.387184 43.7672398,121.176154 42.6286836,121.810711 C42.1031451,122.103634 41.5693226,122.659989 40.9841392,122.88929 C38.822009,123.736912 36.7019617,124.685267 34.5119972,125.475231 C30.8116895,126.810284 27.1687073,126.418616 23.4962339,125.527586 C21.3357605,125.003373 19.3827191,124.036793 17.5973463,122.709361 C16.9147428,122.201716 16.3623641,121.583728 15.80137,120.956462 C13.657796,118.561054 12.1550741,115.818711 11.4002339,112.701267 C10.9167783,110.704817 11.2216303,108.75277 12.2216777,106.955468 C12.4847783,106.482616 12.6872398,105.86264 13.5749558,105.969669 C13.961654,106.016391 14.34537,105.297006 14.6452516,104.840391 C16.7656303,101.612604 18.4897013,98.1840123 19.8781037,94.5821188 C21.3397368,90.7906869 22.6151451,86.9594916 23.1075475,82.8893851 C23.465086,79.9349709 23.065796,77.1015034 22.3457487,74.2504738 C21.7691806,71.9670656 20.5776067,70.0580951 19.2170386,68.1991602 C18.197441,66.8064502 17.2855357,65.3355389 16.2788611,63.932888 C15.9219854,63.4358466 16.3723049,63.1187342 16.478009,62.4795389 C15.9269558,63.228746 15.8364942,63.0783082 15.6018907,62.4619768 C15.3672871,61.8459768 14.9371806,61.2707342 14.5975357,60.6736218 C13.8711925,59.3952312 13.4559972,58.0015271 13.44208,56.5654087 C13.4367783,56.0206514 13.1521392,55.5660241 13.2257013,55.0504265 C13.318151,54.4002963 13.3635475,53.7335981 13.5474528,53.10832 C13.8721866,52.0025685 14.0759735,50.8368407 15.1568729,50.0859768 C15.4554292,49.8785448 15.278151,49.2350419 15.6174647,48.8708762 C17.0694883,47.3118229 18.4366836,45.6503792 20.2525416,44.4942608 C24.5728256,41.7433022 29.0978907,39.400249 33.838009,37.4260005 C37.1383641,36.0511839 40.2892753,34.3145212 42.8904587,31.760391 C46.7183404,28.0020951 50.7447073,24.4644857 54.8870505,21.0604147 C58.814009,17.8336218 63.0216303,15.0644383 67.8469084,13.3317519 C69.8728493,12.6044147 71.950151,12.1726514 74.0970386,12.024533 C77.1614647,11.8131247 79.4561392,13.2078229 81.2365416,15.5243673 C84.6555238,19.9735508 85.45808,24.980746 84.1425771,30.3653614 C83.2581747,33.9868052 81.9555948,37.4594679 80.1185297,40.7101188 C79.2559972,42.2357046 78.4342221,43.7798466 77.0116895,44.940604 C76.3330623,45.4943082 75.9695593,46.4294087 75.4479972,47.1809354 C73.6642812,49.7503082 71.4203049,51.9535271 69.6448729,54.5384738 C68.8542457,55.6892904 68.1858907,56.9033969 67.4406599,58.0750892 C65.8143404,60.6322016 64.7039499,63.4544028 63.481228,66.2063555 C62.4082812,68.6209827 62.0202576,71.2596099 61.6335593,73.8747105 C61.21737,76.6922727 60.7766599,79.5071839 60.2968493,82.3144738 C60.0198315,83.9361543 59.8266481,85.6105212 59.2497487,87.1298111 C58.8491333,88.1855271 58.8342221,89.3098348 58.3547428,90.3330774 C58.0793818,90.9199176 58.3752871,91.7237993 57.6883759,92.2072549 L57.6883759,92.2072549 Z" id="Fill-219"></path>
                            <path d="M47.7064919,80.6502135 C47.7966221,80.6975981 47.8870836,80.7453141 47.9772138,80.7926987 C48.2668232,80.0242727 49.0899238,79.4778585 48.7111783,78.4284383 C48.3761724,79.16903 48.0414978,79.9096218 47.7064919,80.6502135 L47.7064919,80.6502135 Z M30.4498765,51.7515626 C28.5707286,52.104462 26.6435333,53.8739295 26.8393676,55.0727934 C27.7492848,53.5869709 29.0681013,52.6349709 30.4498765,51.7515626 L30.4498765,51.7515626 Z M46.3727641,40.3941661 C46.3177581,40.3209354 46.2624209,40.248036 46.207415,40.1754679 C43.7036516,42.3455508 41.199557,44.515965 38.696125,46.6863792 C38.7491428,46.7483437 38.8024919,46.8103082 38.855841,46.872604 L46.3727641,40.3941661 Z M53.6010718,33.4889354 C55.9547286,31.7509472 58.3736635,30.1136928 60.9735215,28.7517993 C63.6015451,27.3749945 66.260054,26.0657874 68.9560067,24.8447224 C63.4786102,27.0817401 58.0661605,29.4393732 53.6010718,33.4889354 L53.6010718,33.4889354 Z M36.6890718,103.768935 C37.3223025,102.736746 38.0907286,101.826498 38.6073203,100.697882 C39.7766931,98.1444147 41.1339475,95.6757756 42.2466576,93.0904975 C43.9051191,89.2387579 45.6503972,85.4277756 47.696551,81.7622608 C47.8244564,81.5326277 47.943415,81.3016691 47.60377,80.9686514 C43.5339948,88.4265922 40.640551,96.3534087 36.6890718,103.768935 L36.6890718,103.768935 Z M53.8386576,37.4675863 C52.7776398,37.9424265 52.2530954,38.9686514 51.491628,39.7516573 C50.4915806,40.3328644 49.9385392,41.3796336 49.0485037,42.0817874 C47.5139712,43.292249 45.9386812,44.4639413 44.5032256,45.7854087 C41.5325747,48.5207934 38.2524327,50.7548289 34.6150836,52.51303 C33.2647877,53.1661425 31.6894978,53.3056454 30.535699,54.4349235 C29.8299002,55.1254798 28.9720067,55.6838229 28.9083854,56.7653851 C28.8139475,58.3678466 29.0644564,59.9162963 29.8365274,61.3567224 C31.2640303,64.0195389 33.1869179,66.3473496 34.8675806,68.8388525 C36.6141842,71.428107 38.1748942,74.0627579 38.5725274,77.2872312 C38.952267,80.3715389 38.723628,83.428675 38.5423735,86.4911129 C38.5055925,87.1114206 38.0857581,87.7028999 38.0628942,88.4212904 C38.031415,89.4246514 38.0211428,90.5400123 37.3839357,91.3621188 C36.2344445,92.8459531 35.8533795,94.6558466 35.1008587,96.3027105 C34.8543262,96.8428289 35.0054268,97.6387579 34.5312493,98.051965 C33.8983499,98.6036809 33.7280303,99.3300241 33.4251664,100.023563 C33.3072019,100.294284 33.1431783,100.566332 32.935415,100.77277 C32.2498292,101.454379 31.8180658,102.354355 31.3405747,103.13206 C30.4031546,104.659302 29.359699,106.011255 28.0428706,107.209456 C27.6634623,107.555066 27.0640303,107.512983 26.836054,108.051776 C26.6080777,108.589574 26.1889061,108.987539 25.7495215,109.358332 C25.3008587,109.737077 25.071557,110.232462 24.8932848,110.812012 C25.2223262,110.90645 25.4347286,110.772249 25.6514386,110.692722 C27.0146576,110.193361 28.1803854,109.312604 29.4968824,108.713835 C31.8061368,107.663421 33.7542079,106.139492 35.2966931,104.102284 C36.4508232,102.578024 37.2341605,100.85329 38.0602434,99.1520833 C39.6971664,95.7804857 41.3605984,92.4194916 42.8957937,89.0011721 C43.7556753,87.0862372 44.6500185,85.1908525 45.6016871,83.323965 C47.1829416,80.2224265 48.5918883,77.0413614 49.9650481,73.848036 C51.0648351,71.2905922 51.9750836,68.6539531 52.5708706,65.9202253 C53.0904445,63.5334324 53.9963854,61.2712312 54.8821132,59.0050537 C56.568409,54.6900715 58.2838647,50.39232 61.063983,46.6187815 C63.5617818,43.2282963 66.0917226,39.860675 68.3489534,36.2985448 C70.0335925,33.6397046 71.4958883,30.8877519 72.2136161,27.7964857 C72.2904919,27.4647934 72.5363617,27.0297164 72.2543735,26.7858348 C72.0154623,26.5790656 71.6257818,26.8507815 71.323912,26.9700715 C68.1587522,28.2226158 65.1118883,29.7140715 62.16377,31.420249 C61.6312729,31.7284147 61.1580895,32.4252667 60.3432729,32.0846277 C60.2282907,32.0365803 59.988054,32.1979531 60.0579712,32.3361306 C60.3048351,32.8245567 59.8256871,32.8185922 59.6421132,32.9398703 C58.4826812,33.7063082 57.3381605,34.4913022 56.2072256,35.3001543 C55.3224919,35.9327224 54.7078173,36.8343555 53.8386576,37.4675863 L53.8386576,37.4675863 Z M30.4757226,99.9615981 C30.7312019,99.9437046 30.8044327,99.736604 30.8982079,99.5526987 C32.08448,97.2245567 32.9642434,94.7612194 34.0414978,92.3860241 C34.5580895,91.2458111 34.3814741,89.8779531 35.2493084,88.8639886 C35.3977581,88.6903555 35.3510363,88.5193732 35.1439357,88.4305685 C34.8722197,88.3139295 34.7260895,88.4951839 34.6956043,88.7171957 C34.5776398,89.5830419 34.1641013,90.3425212 33.8768114,91.1487224 C33.136551,93.2253614 32.5023262,95.3318229 31.5118883,97.3233022 C31.100338,98.1513732 30.644054,99.0231839 30.4965984,99.9814798 C29.7646221,100.951373 29.2420658,102.031279 28.8334978,103.170498 C29.3461132,102.083302 30.3292611,101.237338 30.4757226,99.9615981 L30.4757226,99.9615981 Z M62.6260185,49.48903 C62.9474386,50.0331247 62.8384209,50.3747579 62.6223735,50.9016218 C62.095841,52.1863082 61.0205747,53.1956336 60.8174505,54.6287697 C60.7452138,55.140391 60.347912,55.5267579 60.1046931,55.9571957 C59.4853795,57.052675 59.3664209,58.3274206 58.8094031,59.3947342 C58.2808824,60.4073732 58.0542315,61.5164383 57.5154386,62.5065448 C57.2291428,63.0320833 57.3298765,63.6865212 56.9570954,64.1961543 C56.7055925,64.5394443 56.0839593,66.676391 56.0117226,67.0876099 C55.8304682,68.1234443 55.6197226,69.1543082 55.4106339,70.1851721 C55.3748469,70.3621188 55.2953203,70.544036 55.0544209,70.5059295 C54.8059002,70.4668289 54.6856161,70.5798229 54.7810481,70.8005093 C55.1382552,71.6275863 54.7117937,72.3685093 54.3940185,73.0179768 C53.4698528,74.9054087 52.6672966,76.8455271 51.8557937,78.7776928 C51.6950836,79.160746 50.9485274,79.0566987 51.2146102,79.8198229 C51.3488114,80.2051957 50.9150599,80.872888 50.6148469,81.3712549 C50.3225866,81.8576928 50.1260895,82.400462 49.8613321,82.9047934 C47.9112729,86.6223318 46.1192729,90.4137638 44.4213795,94.2539058 C43.4796516,96.383894 42.3556753,98.4323673 41.3635806,100.541148 C41.1130718,101.073977 40.9490481,101.672083 40.7807167,102.242024 C40.6259712,102.765574 40.3989889,103.516438 39.7594623,103.84548 C39.6408351,103.90645 39.5669416,103.960462 39.5281724,104.082071 C38.7461605,106.544746 36.6453321,107.832746 34.7718173,109.27516 C33.4304682,110.308012 31.7945392,110.918048 30.2725984,111.631799 C29.3308706,112.073172 28.4646931,112.775657 27.367557,112.930734 C26.26777,113.086474 25.1752729,113.284959 24.0602434,113.307492 C22.9786812,113.329361 21.9786339,113.076202 21.0829652,112.454569 C20.6137581,112.129172 20.5425155,111.715634 20.7472966,111.193077 C21.2546102,109.897125 22.0197226,108.812249 23.1980422,108.041835 C23.6493558,107.746261 24.1318173,107.49045 24.4323617,107.007989 C24.6467522,106.663705 25.0099238,107.097125 25.4082197,106.705456 C26.8174978,105.319373 27.6952729,103.63374 28.5992256,101.939492 C30.471415,98.4300478 31.8651191,94.7194679 33.2071309,90.9883437 C33.7876753,89.3736218 34.0898765,87.6903082 34.3539712,85.9977164 C34.5209771,84.9290774 34.6333084,83.8597756 34.7048824,82.7821898 C34.7376871,82.2824975 34.9388232,81.8719413 35.5521724,82.1761306 C35.9179948,82.3577164 36.0306576,82.0916336 36.2023025,81.9034206 C36.3242434,81.7695508 36.2993913,81.616462 36.1820895,81.5037993 C35.9680303,81.2990182 35.7821368,81.5124147 35.6147996,81.5939295 C34.9282197,81.9279413 34.7038883,81.7287934 34.7386812,80.9779295 C34.8354386,78.9089117 34.8877937,76.8392312 34.3503262,74.8053377 C34.0829179,73.7917046 33.707486,72.8191602 33.2180658,71.9006277 C31.7875806,69.2142845 29.939912,66.79303 28.3059712,64.2352549 C27.1107522,62.3630656 25.8814031,60.4912076 25.6302315,58.2061425 C25.5715806,57.6743082 25.1494268,57.0261661 25.8850481,56.5944028 C25.9258055,56.5708762 25.9615925,56.4953259 25.9582789,56.4469472 C25.8157937,54.3567224 25.880409,54.3043673 27.3009534,52.8394206 C28.2227996,51.888746 29.3471073,51.2273496 30.4926221,50.700817 C34.7075333,48.7626869 38.2593913,45.9428052 41.7363617,42.9251011 C45.9688351,39.2513022 49.8248824,35.1523673 54.2220422,31.6866632 C59.0393676,27.8905922 64.5495688,25.2894087 70.3984209,23.4924383 C73.4857108,22.5440833 75.7730954,24.848036 75.1001013,28.051965 C74.4281013,31.2509235 73.2149889,34.2451011 71.6035806,37.0938111 C69.7535925,40.3636809 67.6338765,43.4615744 65.5827522,46.6002253 C65.0201013,47.4614324 64.5429416,48.3955389 63.8566931,49.1901425 C63.5008114,49.6020241 63.2367167,49.9638703 62.6260185,49.48903 L62.6260185,49.48903 Z" id="Fill-221"></path>
                            <path d="M53.8386244,37.4676525 C53.3067901,38.4859247 52.4697724,39.1917235 51.4915948,39.7517235 C52.2530623,38.9687176 52.7776067,37.9424928 53.8386244,37.4676525" id="Fill-223"></path>
                        </g>
                    </g>
                </g>
            </g>
        </g>
    </g>
</svg>