<?xml version="1.0" encoding="UTF-8"?>
<svg width="10px" height="8px" viewBox="0 0 10 8" version="1.1" xmlns="http://www.w3.org/2000/svg" xmlns:xlink="http://www.w3.org/1999/xlink">
    <!-- Generator: Sketch 61.2 (89653) - https://sketch.com -->
    <title>Path</title>
    <desc>Created with Sketch.</desc>
    <g id="Page-1" stroke="none" stroke-width="1" fill="none" fill-rule="evenodd">
        <g id="People-Copy-2" transform="translate(-90.000000, -177.000000)" fill="#172633" fill-rule="nonzero">
            <g id="noun_Arrow_2094742" transform="translate(90.000000, 177.000000)">
                <path d="M9.54664579,3.44082683 L6.32792826,0.243554438 C6.13073685,0.0374510579 5.83654414,-0.0462340781 5.55941597,0.0249458396 C5.28228779,0.0961257572 5.0658057,0.310976879 4.99390518,0.586196079 C4.92200466,0.861415279 5.00599289,1.15372122 5.21330554,1.34977961 L7.11598607,3.2368696 L0.788057815,3.2368696 C0.352825502,3.2368696 0,3.58734435 0,4.01967687 C0,4.45200939 0.352825502,4.80248415 0.788057815,4.80248415 L7.09838677,4.80248415 L5.21330554,6.67791944 C4.91876112,6.98577567 4.9250775,7.47077913 5.22754068,7.77096355 C5.53000386,8.07114798 6.01826575,8.07699665 6.32792826,7.78414461 L9.54664579,4.58687222 C9.69497764,4.44040497 9.77807979,4.24102944 9.77739224,4.03327402 C9.77790629,4.02680926 9.77790629,4.02031429 9.77739224,4.01384952 C9.77777778,4.00738285 9.77777778,4.00089169 9.77739224,3.99442502 C9.77732228,3.78681864 9.69433578,3.58772056 9.54664579,3.44082683 Z" id="Path" transform="translate(4.888889, 4.000000) scale(-1, 1) translate(-4.888889, -4.000000) "></path>
            </g>
        </g>
    </g>
</svg>