<?xml version="1.0" encoding="UTF-8"?>
<svg width="211px" height="25px" viewBox="0 0 211 25" version="1.1" xmlns="http://www.w3.org/2000/svg" xmlns:xlink="http://www.w3.org/1999/xlink">
    <!-- Generator: Sketch 61.2 (89653) - https://sketch.com -->
    <title>Group 7</title>
    <desc>Created with Sketch.</desc>
    <g id="Page-1" stroke="none" stroke-width="1" fill="none" fill-rule="evenodd">
        <g id="Landing" transform="translate(-52.000000, -37.000000)">
            <g id="Group-7" transform="translate(52.000000, 37.000000)">
                <path d="M39.3195652,19.3478261 C41.0804348,19.3478261 42.4891304,18.8978261 43.5847826,18.076087 C45.15,16.8826087 46.0108696,14.9065217 46.0108696,12.4413043 C46.0108696,8.15652174 43.4086957,5.35869565 39.5347826,5.35869565 L33.5673913,5.35869565 L33.5673913,19.3478261 L39.3195652,19.3478261 Z M39.0652174,16.4326087 L37.0304348,16.4326087 L37.0304348,8.25434783 L39.1043478,8.25434783 C41.276087,8.25434783 42.5086957,9.89782609 42.5086957,12.4413043 C42.5086957,15.0043478 41.3347826,16.4326087 39.0652174,16.4326087 Z M52.7086957,19.6413043 C53.9804348,19.6413043 54.9978261,19.3086957 55.8391304,18.7217391 C56.7195652,18.1152174 57.3065217,17.2543478 57.5217391,16.3543478 L54.4108696,16.3543478 C54.1369565,16.9804348 53.5891304,17.3521739 52.7478261,17.3521739 C51.4369565,17.3521739 50.6934783,16.5108696 50.4978261,15.1608696 L57.6978261,15.1608696 C57.7173913,13.126087 57.1304348,11.3847826 55.9369565,10.2891304 C55.076087,9.50652174 53.9413043,9.03695652 52.5130435,9.03695652 C49.4608696,9.03695652 47.3673913,11.326087 47.3673913,14.3195652 C47.3673913,17.3521739 49.4021739,19.6413043 52.7086957,19.6413043 Z M54.4695652,13.2630435 L50.5173913,13.2630435 C50.7326087,12.0695652 51.3586957,11.3065217 52.5717391,11.3065217 C53.6086957,11.3065217 54.3521739,12.0695652 54.4695652,13.2630435 Z M63.6913043,19.6608696 C66.3130435,19.6608696 68.25,18.526087 68.25,16.3347826 C68.25,13.7717391 66.176087,13.3217391 64.4152174,13.0282609 C63.1434783,12.7934783 62.0086957,12.6956522 62.0086957,11.9913043 C62.0086957,11.3652174 62.6152174,11.0717391 63.3978261,11.0717391 C64.2782609,11.0717391 64.8847826,11.3456522 65.0021739,12.2456522 L67.9369565,12.2456522 C67.7804348,10.2695652 66.2543478,9.03695652 63.4173913,9.03695652 C61.05,9.03695652 59.0934783,10.1326087 59.0934783,12.2456522 C59.0934783,14.5934783 60.9521739,15.0630435 62.6934783,15.3565217 C64.023913,15.5913043 65.2369565,15.6891304 65.2369565,16.5891304 C65.2369565,17.2347826 64.6304348,17.5869565 63.6717391,17.5869565 C62.6152174,17.5869565 61.95,17.0978261 61.8326087,16.1 L58.8195652,16.1 C58.9173913,18.3108696 60.7565217,19.6608696 63.6913043,19.6608696 Z M73.1282609,7.94130435 L73.1282609,5.35869565 L69.9391304,5.35869565 L69.9391304,7.94130435 L73.1282609,7.94130435 Z M73.1282609,19.3478261 L73.1282609,9.33043478 L69.9391304,9.33043478 L69.9391304,19.3478261 L73.1282609,19.3478261 Z M79.9630435,22.8108696 C81.45,22.8108696 82.7608696,22.4782609 83.6413043,21.6956522 C84.4434783,20.9717391 84.9717391,19.876087 84.9717391,18.3695652 L84.9717391,9.33043478 L81.9195652,9.33043478 L81.9195652,10.4065217 L81.8804348,10.4065217 C81.2934783,9.56521739 80.3934783,9.03695652 79.0630435,9.03695652 C76.5782609,9.03695652 74.8565217,11.1108696 74.8565217,14.0456522 C74.8565217,17.1173913 76.95,18.8 79.2,18.8 C80.4130435,18.8 81.176087,18.3108696 81.7630435,17.6456522 L81.8413043,17.6456522 L81.8413043,18.6434783 C81.8413043,19.8565217 81.273913,20.5608696 79.923913,20.5608696 C78.8673913,20.5608696 78.3391304,20.1108696 78.1630435,19.5826087 L75.0717391,19.5826087 C75.3847826,21.676087 77.2043478,22.8108696 79.9630435,22.8108696 Z M79.9434783,16.4326087 C78.75,16.4326087 77.9673913,15.4543478 77.9673913,13.9478261 C77.9673913,12.4217391 78.75,11.4434783 79.9434783,11.4434783 C81.273913,11.4434783 81.9782609,12.5782609 81.9782609,13.9282609 C81.9782609,15.3369565 81.3326087,16.4326087 79.9434783,16.4326087 Z M90.3391304,19.3478261 L90.3391304,13.8108696 C90.3391304,12.5782609 91.0434783,11.6978261 92.1,11.6978261 C93.1369565,11.6978261 93.6652174,12.4217391 93.6652174,13.4782609 L93.6652174,19.3478261 L96.8543478,19.3478261 L96.8543478,12.8326087 C96.8543478,10.6021739 95.5630435,9.03695652 93.3717391,9.03695652 C91.9826087,9.03695652 91.023913,9.62391304 90.2804348,10.7 L90.2217391,10.7 L90.2217391,9.33043478 L87.15,9.33043478 L87.15,19.3478261 L90.3391304,19.3478261 Z M105.915217,19.5434783 C107.636957,19.5434783 108.673913,18.7217391 109.280435,17.9391304 L109.3,17.9391304 C109.456522,18.976087 110.004348,19.4456522 111.041304,19.4456522 C111.452174,19.4456522 111.706522,19.3673913 111.902174,19.2891304 L111.902174,18.1347826 L111.843478,18.1347826 C110.963043,18.3304348 110.767391,17.8804348 110.767391,17.0586957 L110.767391,12.2456522 C110.767391,9.83913043 109.182609,9.03695652 107.030435,9.03695652 C104.35,9.03695652 103.058696,10.5043478 103,12.4608696 L104.526087,12.4608696 C104.584783,10.9347826 105.406522,10.2304348 107.05,10.2304348 C108.497826,10.2304348 109.319565,10.876087 109.319565,12.0108696 C109.319565,13.1065217 108.321739,13.2434783 106.893478,13.4586957 C104.369565,13.85 102.491304,14.3391304 102.491304,16.726087 C102.491304,18.6434783 103.997826,19.5434783 105.915217,19.5434783 Z M106.267391,18.3304348 C105.230435,18.3304348 104.173913,18.0369565 104.173913,16.6869565 C104.173913,15.2 105.445652,14.926087 107.030435,14.6326087 C107.891304,14.476087 108.81087,14.2217391 109.33913,13.8891304 L109.33913,15.6108696 C109.33913,16.7847826 108.380435,18.3304348 106.267391,18.3304348 Z M116.476087,19.4065217 C116.945652,19.4065217 117.376087,19.3478261 117.747826,19.2695652 L117.747826,17.9 L117.68913,17.9 C117.513043,17.9586957 117.16087,18.0369565 116.847826,18.0369565 C116.202174,18.0369565 115.830435,17.8021739 115.830435,17.0978261 L115.830435,10.523913 L117.786957,10.523913 L117.786957,9.2326087 L115.830435,9.2326087 L115.830435,6.04347826 L114.245652,6.04347826 L114.245652,9.2326087 L112.778261,9.2326087 L112.778261,10.523913 L114.245652,10.523913 L114.245652,17.45 C114.245652,18.8782609 115.184783,19.4065217 116.476087,19.4065217 Z M128.813043,19.3478261 C133.019565,19.3478261 135.152174,16.5891304 135.152174,12.4021739 C135.152174,8.21521739 133.156522,5.35869565 128.95,5.35869565 L123.863043,5.35869565 L123.863043,19.3478261 L128.813043,19.3478261 Z M128.754348,17.8021739 L125.623913,17.8021739 L125.623913,6.88478261 L128.891304,6.88478261 C132.178261,6.88478261 133.352174,9.11521739 133.352174,12.4021739 C133.352174,15.6891304 132.041304,17.8021739 128.754348,17.8021739 Z M144.030435,19.3478261 C145.536957,19.3478261 146.75,18.8586957 147.532609,18.0173913 C148.178261,17.3326087 148.55,16.4130435 148.55,15.3369565 C148.55,13.4586957 147.317391,12.323913 145.732609,11.9521739 L145.732609,11.8934783 C147.121739,11.4630435 147.982609,10.5043478 147.982609,8.95869565 C147.982609,7.96086957 147.65,7.15869565 147.082609,6.57173913 C146.3,5.75 145.184783,5.35869565 143.717391,5.35869565 L137.78913,5.35869565 L137.78913,19.3478261 L144.030435,19.3478261 Z M143.502174,11.3456522 L139.55,11.3456522 L139.55,6.88478261 L143.736957,6.88478261 C145.302174,6.88478261 146.221739,7.70652174 146.221739,9.05652174 C146.221739,10.5043478 145.204348,11.3456522 143.502174,11.3456522 Z M143.952174,17.7630435 L139.55,17.7630435 L139.55,12.8326087 L143.834783,12.8326087 C145.536957,12.8326087 146.769565,13.6934783 146.769565,15.4347826 C146.769565,16.1 146.534783,16.6478261 146.143478,17.0586957 C145.673913,17.5086957 144.95,17.7630435 143.952174,17.7630435 Z M156.019565,19.6217391 C159.032609,19.6217391 161.165217,18.1543478 161.165217,15.5326087 C161.165217,12.3826087 158.680435,11.7173913 155.96087,11.1695652 C153.867391,10.7586957 152.302174,10.2891304 152.302174,8.70434783 C152.302174,7.25652174 153.554348,6.45434783 155.452174,6.45434783 C157.506522,6.45434783 158.797826,7.45217391 159.052174,9.44782609 L160.715217,9.44782609 C160.363043,6.86521739 158.915217,5.08478261 155.413043,5.08478261 C152.576087,5.08478261 150.658696,6.47391304 150.658696,8.7826087 C150.658696,11.423913 152.771739,12.1282609 155.236957,12.676087 C157.741304,13.223913 159.423913,13.673913 159.423913,15.5913043 C159.423913,17.3326087 158.034783,18.2130435 156.097826,18.2130435 C153.456522,18.2130435 152.008696,16.9804348 151.773913,14.6130435 L150.052174,14.6130435 C150.208696,17.4304348 152.086957,19.6217391 156.019565,19.6217391 Z M173.619565,19.3478261 C175.126087,19.3478261 176.33913,18.8586957 177.121739,18.0173913 C177.767391,17.3326087 178.13913,16.4130435 178.13913,15.3369565 C178.13913,13.4586957 176.906522,12.323913 175.321739,11.9521739 L175.321739,11.8934783 C176.71087,11.4630435 177.571739,10.5043478 177.571739,8.95869565 C177.571739,7.96086957 177.23913,7.15869565 176.671739,6.57173913 C175.88913,5.75 174.773913,5.35869565 173.306522,5.35869565 L167.378261,5.35869565 L167.378261,19.3478261 L173.619565,19.3478261 Z M173.091304,11.3456522 L169.13913,11.3456522 L169.13913,6.88478261 L173.326087,6.88478261 C174.891304,6.88478261 175.81087,7.70652174 175.81087,9.05652174 C175.81087,10.5043478 174.793478,11.3456522 173.091304,11.3456522 Z M173.541304,17.7630435 L169.13913,17.7630435 L169.13913,12.8326087 L173.423913,12.8326087 C175.126087,12.8326087 176.358696,13.6934783 176.358696,15.4347826 C176.358696,16.1 176.123913,16.6478261 175.732609,17.0586957 C175.263043,17.5086957 174.53913,17.7630435 173.541304,17.7630435 Z M183.104348,19.5434783 C184.826087,19.5434783 185.863043,18.7217391 186.469565,17.9391304 L186.48913,17.9391304 C186.645652,18.976087 187.193478,19.4456522 188.230435,19.4456522 C188.641304,19.4456522 188.895652,19.3673913 189.091304,19.2891304 L189.091304,18.1347826 L189.032609,18.1347826 C188.152174,18.3304348 187.956522,17.8804348 187.956522,17.0586957 L187.956522,12.2456522 C187.956522,9.83913043 186.371739,9.03695652 184.219565,9.03695652 C181.53913,9.03695652 180.247826,10.5043478 180.18913,12.4608696 L181.715217,12.4608696 C181.773913,10.9347826 182.595652,10.2304348 184.23913,10.2304348 C185.686957,10.2304348 186.508696,10.876087 186.508696,12.0108696 C186.508696,13.1065217 185.51087,13.2434783 184.082609,13.4586957 C181.558696,13.85 179.680435,14.3391304 179.680435,16.726087 C179.680435,18.6434783 181.186957,19.5434783 183.104348,19.5434783 Z M183.456522,18.3304348 C182.419565,18.3304348 181.363043,18.0369565 181.363043,16.6869565 C181.363043,15.2 182.634783,14.926087 184.219565,14.6326087 C185.080435,14.476087 186,14.2217391 186.528261,13.8891304 L186.528261,15.6108696 C186.528261,16.7847826 185.569565,18.3304348 183.456522,18.3304348 Z M192.393478,19.3478261 L192.393478,13.126087 C192.393478,11.4630435 193.567391,10.3282609 195.171739,10.3282609 C196.6,10.3282609 197.46087,11.0717391 197.46087,12.3826087 L197.46087,19.3478261 L199.045652,19.3478261 L199.045652,12.2456522 C199.045652,10.1521739 197.754348,8.99782609 195.641304,8.99782609 C194.173913,8.99782609 193.156522,9.60434783 192.432609,10.5630435 L192.393478,10.5630435 L192.393478,9.2326087 L190.808696,9.2326087 L190.808696,19.3478261 L192.393478,19.3478261 Z M203.267391,19.3478261 L203.267391,15.2978261 L204.754348,13.8891304 L208.334783,19.3478261 L210.193478,19.3478261 L205.85,12.8717391 L209.723913,9.2326087 L207.708696,9.2326087 L203.267391,13.5565217 L203.267391,5.35869565 L201.682609,5.35869565 L201.682609,19.3478261 L203.267391,19.3478261 Z" id="DesignatDBSBank" fill="#121111" fill-rule="nonzero"></path>
                <path d="M23.1243687,12.4983383 L23.1243687,12.4959842 C23.1243687,10.8527868 23.1926479,9.38693544 24.410686,6.79893878 C24.7662087,6.04953405 25.5439637,4.94936082 24.3973441,3.67498042 C23.4681191,2.74587549 22.4046903,2.90124946 21.6912904,3.3093023 C22.1009656,2.59677926 22.2555748,1.53348773 21.3255651,0.602813372 C20.0486656,-0.543658161 18.9507047,0.233996383 18.1980639,0.585549598 C15.6152268,1.80970811 14.1468316,1.87719378 12.4987131,1.87719378 L12.4971435,1.87719378 C10.8513794,1.87719378 9.38455389,1.80970811 6.80014707,0.585549598 C6.05064555,0.233996383 4.94954541,-0.543658161 3.67578523,0.602813372 C2.74734512,1.53348773 2.9003847,2.59677926 3.30770542,3.3093023 C2.59352073,2.89889531 1.53323114,2.74587549 0.602436579,3.67498042 C-0.544183027,4.94936082 0.234356774,6.04953405 0.589094667,6.79893878 C1.80713274,9.38693544 1.87305748,10.8504326 1.87305748,12.4983383 C1.87305748,14.1446746 1.80713274,15.6144495 0.589094667,18.1977379 C0.234356774,18.9487121 -0.544183027,20.0488853 0.602436579,21.3271893 C1.53323114,22.2523706 2.59352073,22.0962119 3.30770542,21.691298 C2.89881506,22.403821 2.74420585,23.4647584 3.67578523,24.3970022 C4.94954541,25.5442584 6.05064555,24.7666039 6.80014707,24.4079882 C9.38455389,23.1908921 10.8498097,23.1226218 12.4987131,23.1226218 C14.1468316,23.1226218 15.6152268,23.1908921 18.1964943,24.4079882 C18.9507047,24.7666039 20.0486656,25.5442584 21.3255651,24.3970022 C22.2540052,23.4647584 22.1009656,22.403821 21.6897208,21.691298 C22.4046903,22.0985661 23.4681191,22.2547248 24.3973441,21.3271893 C25.5439637,20.0488853 24.7662087,18.9487121 24.410686,18.1985226 C23.1926479,15.6136648 23.1243687,14.1454593 23.1243687,12.4983383 L23.1243687,12.4983383 Z M20.2982378,20.3156891 L14.2433643,15.2354312 C14.2433643,15.2354312 13.4263684,14.437374 12.4987131,14.437374 C11.5749819,14.437374 10.7532771,15.2354312 10.7532771,15.2354312 L4.70154281,20.3156891 L4.67878308,20.2960711 L9.76283633,14.2435489 C9.76283633,14.2435489 10.5602118,13.4243044 10.5602118,12.4983383 C10.5602118,11.573157 9.76283633,10.7562666 9.76283633,10.7562666 L4.67878308,4.6990361 L4.70154281,4.67863346 L10.7548467,9.76046073 C10.7548467,9.76046073 11.5749819,10.5600874 12.4987131,10.5600874 C13.4263684,10.5600874 14.2433643,9.76046073 14.2433643,9.76046073 L20.2950986,4.68098761 L20.314719,4.70060553 L15.2385139,10.7562666 C15.2385139,10.7562666 14.4379992,11.573157 14.4379992,12.4983383 C14.4379992,13.4243044 15.2385139,14.2435489 15.2385139,14.2435489 L20.314719,20.2960711 L20.2982378,20.3156891 L20.2982378,20.3156891 Z" id="Fill-2-Copy" fill="#FF3333"></path>
            </g>
        </g>
    </g>
</svg>