<?xml version="1.0" encoding="UTF-8"?>
<svg width="70px" height="72px" viewBox="0 0 70 72" version="1.1" xmlns="http://www.w3.org/2000/svg" xmlns:xlink="http://www.w3.org/1999/xlink">
    <!-- Generator: Sketch 62 (91390) - https://sketch.com -->
    <title>10</title>
    <desc>Created with Sketch.</desc>
    <g id="Ver-1" stroke="none" stroke-width="1" fill="none" fill-rule="evenodd">
        <g id="Our-Work" transform="translate(-92.000000, -7104.000000)" fill="#000000">
            <g id="Group-6" transform="translate(92.000000, 7104.000000)">
                <g id="10">
                    <path d="M54.7290237,47.772939 L54.5051479,47.6360456 C54.1752367,48.3731166 53.8453254,49.1103947 53.5158284,49.8474657 C54.0151479,49.1971698 54.5418047,48.5653059 54.7290237,47.772939 M55.493432,44.9946846 C55.942426,44.0749509 56.3491716,43.0771402 56.2891124,41.9612822 C56.0240237,42.9725544 55.7587278,43.9836195 55.493432,44.9946846 M10.4030769,19.1597142 C10.530858,19.0159864 10.6623669,18.875158 10.7857988,18.7274953 C13.3327219,15.6858089 16.1656509,12.9392408 19.2580769,10.4540337 C21.0006213,9.05382662 23.0639645,8.09225857 24.7505917,6.66927041 C26.6250592,5.08785029 28.4980769,3.60418165 30.804142,2.72856035 C30.8217456,2.72172603 30.806213,2.62666686 30.806213,2.47216982 C26.037929,2.86814615 21.8540828,4.68752485 18.2546746,7.73003964 C14.6337278,10.7909864 11.6556213,14.3798325 10.4030769,19.1597142 M66.0949112,27.2266964 C66.034645,20.8624953 63.9771006,15.2840337 59.3666272,10.7897438 C55.2739053,6.80036508 50.6710947,3.72367869 44.7616864,3.16077928 C55.3147041,8.15645976 62.4159763,16.1524065 66.0949112,27.2266964 M45.9887574,6.18672603 C46.5914201,7.0174065 47.5049408,7.44444792 48.252574,8.08128224 C52.5476331,11.7401284 55.460503,16.3021402 57.3944083,21.5798917 C59.3011834,26.7837083 59.666716,32.1515485 59.2572781,37.5842112 C59.0006805,40.9874953 58.1573669,44.3083532 56.9292604,47.5130278 C56.8333728,47.7632053 56.5233432,48.0819331 56.883284,48.3074657 C57.1833728,48.4950988 57.3277219,48.1113414 57.5124556,47.9535308 C59.4519527,46.296726 61.009142,44.305868 62.2765976,42.1184716 C63.4380178,40.1145663 64.426716,38.0719331 64.2858876,35.5757497 C63.6569231,24.4223473 59.0545266,15.4070515 50.1001183,8.67069053 C48.8179586,7.70601597 47.4695266,6.83122307 45.9887574,6.18672603 M61.8831065,47.9305426 C61.4328698,47.9040337 61.1750296,48.0726136 60.9981657,48.2935899 C60.033284,49.4982941 58.7871598,50.3177911 57.5062426,51.1548917 C56.7687574,51.6368148 56.0234024,52.110868 55.2672781,52.5704243 C54.0406213,53.3159864 53.3849408,54.5699805 52.5215385,55.6545663 C49.953284,58.8803651 46.9994083,61.6979686 43.4952663,63.9315485 C39.3130769,66.5975544 34.8813314,68.3334716 29.8436095,68.5542408 C27.1498521,68.6724953 24.6118343,68.4225248 22.0357101,67.613797 C17.8758876,66.3080278 14.5218935,63.8669331 11.6659763,60.7005722 C7.39307692,55.962939 5.21002959,50.2252172 3.99621302,44.0575544 C3.90446746,43.5907497 3.76488166,43.1334716 3.64745562,42.6718444 C3.32313609,43.8251876 3.37180473,44.9476728 3.35233728,46.068087 C3.27177515,50.7471106 4.51168639,55.1504834 6.8241716,59.1131461 C9.07701183,62.9735012 12.3558284,65.9528503 16.5073669,67.8496846 C20.260858,69.5646846 24.1860355,70.3964006 28.3089941,70.1816373 C32.8407692,69.9455426 37.1523964,68.783087 41.2931657,66.9535603 C48.3163609,63.8507793 54.4115385,59.5480574 58.9308876,53.2335603 C60.1014201,51.5982941 61.1133136,49.8636195 61.8831065,47.9305426 M20.9743195,12.7600988 C20.7512722,12.8532941 20.6207988,12.8760751 20.5319527,12.9493888 C17.9189645,15.1092408 15.6151775,17.5785012 13.4385503,20.1635308 C11.7666272,22.1496254 10.3428107,24.3260456 9.04221893,26.5658385 C8.15810651,28.0890633 7.30982249,29.6621994 7.11328402,31.4799213 C6.63571006,35.895513 6.72227811,40.2843888 7.61239645,44.6498621 C8.88171598,50.8765485 11.2159467,56.5724361 15.6828994,61.2466964 C17.9568639,63.6262822 20.6678107,65.3247142 23.7867456,66.2771698 C28.8383432,67.8200692 33.5726627,66.5281757 38.1400592,64.3358089 C41.0951775,62.9173769 43.692426,60.9447438 46.113432,58.7660456 C47.2162426,57.7738266 48.2751479,56.6809568 49.1464201,55.2503059 C47.5913018,55.4277911 46.2441124,55.7721994 44.8602663,55.9182053 C40.1510059,56.4150396 35.7335503,55.4621698 31.6041716,53.2660751 C25.9857396,50.278442 22.2183728,45.6395959 20.0939349,39.6767556 C17.3869231,32.0794775 17.5828402,24.4090929 19.6971302,16.721726 C20.0545858,15.4219627 20.5222189,14.1524361 20.9743195,12.7600988 M33.1468639,5.89864911 C31.2610059,6.2109568 29.8110947,6.80140059 28.5426036,7.82758402 C27.258787,8.86577928 26.4840237,10.2616373 25.6510651,11.663087 C24.508284,13.5853947 23.7208876,15.6632349 23.1149112,17.7458385 C22.579142,19.5861343 22.2111243,21.5256314 21.9936686,23.4792112 C21.4781953,28.1039746 21.401568,32.6664006 22.7251479,37.1927911 C24.1054734,41.9146846 26.3806805,46.0554538 30.1194675,49.3307497 C36.177574,54.6377024 43.7036095,55.5373473 50.8166864,52.3473769 C51.2793491,52.1400692 51.7051479,51.8855426 51.9723077,51.4363414 C53.7165089,48.505868 54.9576627,45.3463414 55.7301479,42.0532349 C56.7764201,37.593945 56.9317456,33.0516077 56.3301183,28.4929095 C55.4685799,21.9636491 53.1146746,16.0946254 48.5866272,11.2316964 C46.2403846,8.71231775 43.686213,6.42696272 40.1247041,5.74912248 C39.0622781,5.5469923 37.8780769,5.14418165 37.0173669,6.02643017 C36.0760947,6.99131183 35.1863905,8.07962544 34.5592899,9.26506923 C31.8976331,14.2976136 31.3388757,19.5985603 32.9573669,25.0718148 C33.5865385,27.1997734 34.9343491,28.8427024 36.8171006,30.0449213 C37.1749704,30.2735603 37.9124556,30.425158 37.6653846,30.9489154 C37.4477219,31.4109568 36.7551775,31.2792408 36.249645,31.1342704 C36.0613905,31.0802172 35.881213,30.9808089 35.7134615,30.8764302 C33.6053846,29.5640337 31.8750592,27.8790633 30.9327515,25.5520811 C28.932574,20.6127319 29.1583136,15.6147734 30.7152959,10.611016 C31.2195858,8.98983254 32.0498521,7.52211065 33.1468639,5.89864911 M9.98411243,13.1687083 C9.70038462,13.1755426 9.59724852,13.4097734 9.4862426,13.6003059 C8.43893491,15.4010456 7.48150888,17.2523177 6.83784024,19.2344775 C6.61727811,19.9131461 6.01254438,20.495513 6.18195266,21.3317852 C6.5795858,21.1240633 6.7554142,20.8390929 6.77363905,20.4395959 C6.80470414,19.7565781 7.15097633,19.1810456 7.43014793,18.5833532 C8.27573964,16.773087 9.11905325,14.9617852 9.96298817,13.1506905 C11.1660355,11.5729982 12.369497,9.99530591 13.5725444,8.4178207 C12.7534615,9.1511639 11.955503,9.89320532 11.3445562,10.8098325 C10.8392308,11.5676136 10.1050592,12.1899509 9.98411243,13.1687083 M-1.84741111e-13,45.3718148 C0.0743491124,41.9163414 0.548195266,38.5089154 1.74585799,35.2827024 C3.00337278,31.8955722 3.6412426,28.3860456 4.42387574,24.8883237 C5.84748521,18.5226728 8.29106509,12.6012527 12.8725444,7.77767278 C16.7030769,3.74459585 21.339645,1.13243609 26.8650888,0.315631355 C30.8979586,-0.280611248 34.9159172,-0.0536289998 38.8402663,1.18069053 C39.247426,1.30867869 39.6676331,1.42424082 40.1073077,1.35009881 C43.9310059,0.706015971 47.5660355,1.38509881 51.0867456,2.89962544 C55.3857396,4.74903372 59.1901775,7.30941834 62.3561243,10.7719331 C64.7860355,13.4294479 66.7054438,16.4371698 67.8322781,19.8528799 C69.1136095,23.7376728 69.6752663,27.7293296 68.8851775,31.8311639 C68.6992012,32.7952172 68.7743787,33.8682053 68.4952071,34.7595663 C68.1514201,35.8569923 68.0010651,36.9921106 67.6427811,38.0692408 C67.0305917,39.9105722 66.8185207,41.8303947 66.3987278,43.7085899 C65.8704142,46.0718148 64.9755325,48.3058089 63.9213905,50.4706314 C62.4563609,53.4789746 60.6092308,56.2754538 58.2319231,58.6098917 C56.1155621,60.6883532 53.9292012,62.7059272 51.2932249,64.2295663 C49.409645,65.3185012 47.6074556,66.5623473 45.6509763,67.5425544 C39.3327515,70.7076728 32.6767456,72.3700692 25.5825148,71.9361935 C20.1007692,71.6008976 15.0518639,69.9227615 10.6021006,66.6545071 C4.38680473,62.0893888 0.977721893,55.9082645 0.198402367,48.2579686 C0.100857988,47.2990929 0.0648224852,46.3340041 -1.84741111e-13,45.3718148" id="Fill-519"></path>
                </g>
            </g>
        </g>
    </g>
</svg>