<?xml version="1.0" encoding="UTF-8"?>
<svg width="100px" height="43px" viewBox="0 0 100 43" version="1.1" xmlns="http://www.w3.org/2000/svg" xmlns:xlink="http://www.w3.org/1999/xlink">
    <!-- Generator: Sketch 62 (91390) - https://sketch.com -->
    <title>96</title>
    <desc>Created with Sketch.</desc>
    <g id="Ver-1" stroke="none" stroke-width="1" fill="none" fill-rule="evenodd">
        <g id="Our-Work" transform="translate(-349.000000, -7068.000000)" fill="#000000">
            <g id="Group-6-Copy" transform="translate(349.000000, 7068.000000)">
                <g id="96" transform="translate(50.500000, 22.000000) rotate(90.000000) translate(-50.500000, -22.000000) translate(29.000000, -28.000000)">
                    <g id="81">
                        <path d="M2.18610169,78.1857062 L2.18610169,69.1003955 C1.00983051,72.2580226 1.06011299,75.2331638 2.18610169,78.1857062 M37.4849718,24.189661 C36.1651977,27.9619774 34.8448588,31.7348588 33.5245198,35.5077401 C35.7719774,32.0461582 37.0827119,28.269322 37.4849718,24.189661 M33.4036158,0.986836158 C35.7962712,0.257457627 37.8465537,0.255762712 39.0324294,2.75858757 C39.5499435,3.85124294 39.1668927,5.90096045 38.2533333,6.84446328 C39.4245198,6.62186441 40.0674576,6.87949153 40.2358192,8.21621469 C40.3742373,9.3179096 41.1329944,10.3320339 41.3363842,11.4371186 C42.1584181,15.8941808 42.7934463,20.3947458 41.4883616,24.8546328 C41.1533333,25.9981356 39.7527684,26.8653672 40.8064407,28.2806215 C40.0267797,31.4032203 39.2589831,34.5337288 37.5866667,37.3331638 C37.1866667,38.0020904 36.6471186,38.5885311 36.1629379,39.2060452 C34.1154802,41.8156497 32.0714124,44.4280791 29.9985311,47.0173446 C29.8589831,47.1913559 29.4759322,47.150678 29.2318644,47.2648023 C29.0188701,47.3636723 28.8414689,47.5405085 28.6476836,47.6823164 C29.5522034,48.8546328 28.1923164,49.2201695 27.7476836,49.5648023 C26.4075706,50.6020904 24.8731073,51.3885311 23.4126554,52.269887 C23.2431638,52.3727119 22.979322,52.4133898 22.900791,52.5597175 C22.0380791,54.1608475 20.8499435,55.1947458 18.9454237,55.4992655 C18.2736723,55.6071751 17.7262147,56.490226 16.9267797,56.7631073 C16.8120904,57.1241243 16.8075706,57.6015254 16.5663277,57.8280791 C14.0493785,60.1947458 11.4945763,62.5212994 8.9120904,64.8941808 C9.04033898,66.2648023 7.28327684,69.0992655 5.84090395,69.5405085 C6.16237288,69.7472881 6.3940113,69.8970056 6.40135593,69.9015254 C6.19909605,70.7032203 5.86011299,71.4156497 5.86689266,72.1252542 C5.89909605,75.7438983 5.99966102,79.3162147 7.41152542,82.7947458 C8.85785311,86.3591525 9.79175141,90.1286441 11.1284746,93.7422034 C11.6019209,95.0224294 12.5567232,96.1405085 13.3770621,97.270452 C13.860678,97.9365537 14.0098305,98.3772316 13.1872316,98.8744068 C10.9934463,100.20096 9.38497175,100.126384 7.99062147,97.890226 C6.10644068,94.8687571 4.23073446,91.7229944 3.10305085,88.3777966 C1.71152542,84.2489831 0.915480226,79.889661 0.18779661,75.5755367 C-0.593559322,70.9438983 1.50531073,67.0811864 4.21774011,63.5382486 C7.18384181,59.6619774 10.7623729,56.4574576 14.8702825,53.7975706 C19.840904,50.5794915 23.9465537,46.4167797 27.6448588,41.8060452 C31.5188701,36.9755367 34.3250847,31.6286441 35.6968362,25.5964407 C36.7454237,20.9879661 37.1510734,16.330904 35.9092655,11.6551977 C35.0075706,8.26084746 34.1957062,4.84276836 33.3533333,1.43316384 C33.32,1.29813559 33.3844068,1.13881356 33.4036158,0.986836158" id="Fill-1"></path>
                        <path d="M23.4122599,21.9671751 C21.2218644,23.1829944 20.6325989,23.1344068 18.9591525,21.489209 C17.1715819,19.7321469 15.469322,17.889209 13.7235593,16.089774 C13.4388136,15.7965537 13.0806215,15.5666102 12.830339,15.249661 C12.390226,14.6931638 12.0071751,14.0925989 11.5998305,13.510113 C12.4212994,13.3801695 13.2998305,13.0084181 14.050678,13.1829944 C14.9512429,13.3925989 15.9060452,13.909548 16.5546328,14.5711299 C18.8648023,16.9287571 21.0546328,19.4038983 23.4122599,21.9671751" id="Fill-4"></path>
                        <path d="M6.63661017,37.5731073 C4.78067797,37.0957062 2.8439548,36.6555932 0.953559322,36.0657627 C0.549039548,35.939209 0.313446328,35.2691525 -0.000112994351,34.8499435 C0.414011299,34.560113 0.793107345,34.1764972 1.25186441,34.0064407 C1.71118644,33.8346893 2.26090395,33.7827119 2.75242938,33.839774 C4.98915254,34.100226 7.22079096,34.4109605 9.45186441,34.7216949 C9.85525424,34.7776271 10.2716384,34.8657627 10.6337853,35.039209 C10.8818079,35.1578531 11.2315254,35.4764972 11.2055367,35.6584181 C11.1648588,35.9493785 10.899887,36.3589831 10.640565,36.4437288 C9.38576271,36.8533333 8.10045198,37.1708475 6.63661017,37.5731073" id="Fill-6"></path>
                        <path d="M25.8729944,84.3526554 C24.7933333,85.6221469 23.8696045,85.6955932 22.9289266,84.9294915 C21.6650847,83.900113 20.3882486,82.8707345 19.2498305,81.7114124 C18.8854237,81.339661 18.940791,80.5560452 18.8040678,79.9611299 C19.659435,79.879774 20.839096,79.4023729 21.3108475,79.7893785 C22.9475706,81.1306215 24.3379661,82.7724294 25.8729944,84.3526554" id="Fill-9"></path>
                        <path d="M32.5685311,75.2149153 C29.4046893,76.5945763 27.2142938,74.2810169 24.7041243,73.3855367 C24.4741808,73.3030508 24.2255932,72.4872316 24.3261582,72.399096 C24.8244633,71.9618079 25.629548,71.2183051 25.9770056,71.3719774 C28.1826554,72.3488136 30.2979096,73.5307345 32.4335028,74.6629379 C32.5176836,74.7075706 32.5046893,74.9352542 32.5685311,75.2149153" id="Fill-11"></path>
                        <path d="M14.1498305,26.0786441 C13.3814689,26.1775141 12.5283616,26.5379661 11.86,26.3244068 C10.0255367,25.7368362 8.25096045,24.9464407 6.49446328,24.1447458 C6.12045198,23.9741243 5.92271186,23.4170621 5.64418079,23.0374011 C6.10237288,22.7967232 6.62779661,22.2752542 7.00689266,22.3656497 C8.52666667,22.7283616 10.0340113,23.2012429 11.4814689,23.7916384 C12.4763842,24.1972881 13.3645198,24.8639548 14.300678,25.4142373 C14.2503955,25.6357062 14.200113,25.8571751 14.1498305,26.0786441" id="Fill-13"></path>
                        <path d="M31.9963842,60.0494915 C31.7562712,60.5946893 31.7212429,60.8850847 31.5585311,61.0110734 C29.8545763,62.3251977 28.1732203,63.6760452 26.3856497,64.8670056 C25.8783051,65.2048588 25.0461017,65.0557062 24.3178531,64.8771751 C26.5585311,62.819548 28.5703955,60.5653107 31.9963842,60.0494915" id="Fill-15"></path>
                    </g>
                </g>
            </g>
        </g>
    </g>
</svg>