<?xml version="1.0" encoding="UTF-8"?>
<svg width="113px" height="113px" viewBox="0 0 113 113" version="1.1" xmlns="http://www.w3.org/2000/svg" xmlns:xlink="http://www.w3.org/1999/xlink">
    <!-- Generator: Sketch 61.2 (89653) - https://sketch.com -->
    <title>Group 12</title>
    <desc>Created with Sketch.</desc>
    <g id="Page-1" stroke="none" stroke-width="1" fill="none" fill-rule="evenodd">
        <g id="Work" transform="translate(-326.000000, -10554.000000)">
            <g id="Group-12" transform="translate(326.000000, 10554.000000)">
                <g id="noun_Arrow_1569919" transform="translate(0.000000, 46.882979)" fill="#000000" fill-rule="nonzero">
                    <g id="Group" transform="translate(0.000000, 0.300562)">
                        <path d="M32.0439168,9.5929114 C32.030718,9.25597906 31.8920338,8.86655125 31.6610349,8.62094407 L24.1212855,0.609564796 C23.6103735,0.150441468 22.630678,-0.0390888638 22.0596365,0.491756285 C21.4971716,1.01459046 21.5139004,2.02859187 22.0742448,2.55349947 L27.3756278,8.17913859 L1.41369977,8.17913859 C0.63295921,8.17913859 -2.35617022e-06,8.81212372 -2.35617022e-06,9.5929114 C-2.35617022e-06,10.3736991 0.63295921,11.0066607 1.41369977,11.0066607 L27.3756278,11.0066607 L22.0742448,16.6322998 C21.5918425,17.1155503 21.502685,18.1652241 22.0596365,18.694043 C22.6164467,19.2228147 23.6313435,19.0538773 24.1212855,18.5761873 L31.6610349,10.5648787 C31.9190355,10.2907148 32.0447608,9.96905042 32.0439168,9.5929114 L32.0439168,9.5929114 Z" id="Path"></path>
                    </g>
                </g>
                <g id="noun_Arrow_1569919-Copy" transform="translate(96.500000, 57.382979) scale(-1, 1) translate(-96.500000, -57.382979) translate(80.000000, 46.882979)" fill="#000000" fill-rule="nonzero">
                    <g id="Group" transform="translate(0.000000, 0.300562)">
                        <path d="M32.0439168,9.5929114 C32.030718,9.25597906 31.8920338,8.86655125 31.6610349,8.62094407 L24.1212855,0.609564796 C23.6103735,0.150441468 22.630678,-0.0390888638 22.0596365,0.491756285 C21.4971716,1.01459046 21.5139004,2.02859187 22.0742448,2.55349947 L27.3756278,8.17913859 L1.41369977,8.17913859 C0.63295921,8.17913859 -2.35617022e-06,8.81212372 -2.35617022e-06,9.5929114 C-2.35617022e-06,10.3736991 0.63295921,11.0066607 1.41369977,11.0066607 L27.3756278,11.0066607 L22.0742448,16.6322998 C21.5918425,17.1155503 21.502685,18.1652241 22.0596365,18.694043 C22.6164467,19.2228147 23.6313435,19.0538773 24.1212855,18.5761873 L31.6610349,10.5648787 C31.9190355,10.2907148 32.0447608,9.96905042 32.0439168,9.5929114 L32.0439168,9.5929114 Z" id="Path"></path>
                    </g>
                </g>
                <g id="noun_Arrow_1569919-Copy-4" transform="translate(90.768161, 22.630527) scale(-1, 1) rotate(45.000000) translate(-90.768161, -22.630527) translate(74.268161, 12.130527)" fill="#000000" fill-rule="nonzero">
                    <g id="Group" transform="translate(0.000000, 0.300562)">
                        <path d="M32.0439168,9.5929114 C32.030718,9.25597906 31.8920338,8.86655125 31.6610349,8.62094407 L24.1212855,0.609564796 C23.6103735,0.150441468 22.630678,-0.0390888638 22.0596365,0.491756285 C21.4971716,1.01459046 21.5139004,2.02859187 22.0742448,2.55349947 L27.3756278,8.17913859 L1.41369977,8.17913859 C0.63295921,8.17913859 -2.35617022e-06,8.81212372 -2.35617022e-06,9.5929114 C-2.35617022e-06,10.3736991 0.63295921,11.0066607 1.41369977,11.0066607 L27.3756278,11.0066607 L22.0742448,16.6322998 C21.5918425,17.1155503 21.502685,18.1652241 22.0596365,18.694043 C22.6164467,19.2228147 23.6313435,19.0538773 24.1212855,18.5761873 L31.6610349,10.5648787 C31.9190355,10.2907148 32.0447608,9.96905042 32.0439168,9.5929114 L32.0439168,9.5929114 Z" id="Path"></path>
                    </g>
                </g>
                <g id="noun_Arrow_1569919-Copy-7" transform="translate(90.768161, 90.369473) scale(-1, -1) rotate(45.000000) translate(-90.768161, -90.369473) translate(74.268161, 79.869473)" fill="#000000" fill-rule="nonzero">
                    <g id="Group" transform="translate(0.000000, 0.300562)">
                        <path d="M32.0439168,9.5929114 C32.030718,9.25597906 31.8920338,8.86655125 31.6610349,8.62094407 L24.1212855,0.609564796 C23.6103735,0.150441468 22.630678,-0.0390888638 22.0596365,0.491756285 C21.4971716,1.01459046 21.5139004,2.02859187 22.0742448,2.55349947 L27.3756278,8.17913859 L1.41369977,8.17913859 C0.63295921,8.17913859 -2.35617022e-06,8.81212372 -2.35617022e-06,9.5929114 C-2.35617022e-06,10.3736991 0.63295921,11.0066607 1.41369977,11.0066607 L27.3756278,11.0066607 L22.0742448,16.6322998 C21.5918425,17.1155503 21.502685,18.1652241 22.0596365,18.694043 C22.6164467,19.2228147 23.6313435,19.0538773 24.1212855,18.5761873 L31.6610349,10.5648787 C31.9190355,10.2907148 32.0447608,9.96905042 32.0439168,9.5929114 L32.0439168,9.5929114 Z" id="Path"></path>
                    </g>
                </g>
                <g id="noun_Arrow_1569919-Copy-5" transform="translate(21.029712, 22.630527) rotate(45.000000) translate(-21.029712, -22.630527) translate(4.529712, 12.130527)" fill="#000000" fill-rule="nonzero">
                    <g id="Group" transform="translate(0.000000, 0.300562)">
                        <path d="M32.0439168,9.5929114 C32.030718,9.25597906 31.8920338,8.86655125 31.6610349,8.62094407 L24.1212855,0.609564796 C23.6103735,0.150441468 22.630678,-0.0390888638 22.0596365,0.491756285 C21.4971716,1.01459046 21.5139004,2.02859187 22.0742448,2.55349947 L27.3756278,8.17913859 L1.41369977,8.17913859 C0.63295921,8.17913859 -2.35617022e-06,8.81212372 -2.35617022e-06,9.5929114 C-2.35617022e-06,10.3736991 0.63295921,11.0066607 1.41369977,11.0066607 L27.3756278,11.0066607 L22.0742448,16.6322998 C21.5918425,17.1155503 21.502685,18.1652241 22.0596365,18.694043 C22.6164467,19.2228147 23.6313435,19.0538773 24.1212855,18.5761873 L31.6610349,10.5648787 C31.9190355,10.2907148 32.0447608,9.96905042 32.0439168,9.5929114 L32.0439168,9.5929114 Z" id="Path"></path>
                    </g>
                </g>
                <g id="noun_Arrow_1569919-Copy-6" transform="translate(21.029712, 91.571601) scale(1, -1) rotate(45.000000) translate(-21.029712, -91.571601) translate(4.529712, 81.071601)" fill="#000000" fill-rule="nonzero">
                    <g id="Group" transform="translate(0.000000, 0.300562)">
                        <path d="M32.0439168,9.5929114 C32.030718,9.25597906 31.8920338,8.86655125 31.6610349,8.62094407 L24.1212855,0.609564796 C23.6103735,0.150441468 22.630678,-0.0390888638 22.0596365,0.491756285 C21.4971716,1.01459046 21.5139004,2.02859187 22.0742448,2.55349947 L27.3756278,8.17913859 L1.41369977,8.17913859 C0.63295921,8.17913859 -2.35617022e-06,8.81212372 -2.35617022e-06,9.5929114 C-2.35617022e-06,10.3736991 0.63295921,11.0066607 1.41369977,11.0066607 L27.3756278,11.0066607 L22.0742448,16.6322998 C21.5918425,17.1155503 21.502685,18.1652241 22.0596365,18.694043 C22.6164467,19.2228147 23.6313435,19.0538773 24.1212855,18.5761873 L31.6610349,10.5648787 C31.9190355,10.2907148 32.0447608,9.96905042 32.0439168,9.5929114 L32.0439168,9.5929114 Z" id="Path"></path>
                    </g>
                </g>
                <g id="noun_Arrow_1569919-Copy-2" transform="translate(56.180851, 16.500000) scale(-1, 1) rotate(90.000000) translate(-56.180851, -16.500000) translate(39.680851, 6.000000)" fill="#000000" fill-rule="nonzero">
                    <g id="Group" transform="translate(0.000000, 0.300562)">
                        <path d="M32.0439168,9.5929114 C32.030718,9.25597906 31.8920338,8.86655125 31.6610349,8.62094407 L24.1212855,0.609564796 C23.6103735,0.150441468 22.630678,-0.0390888638 22.0596365,0.491756285 C21.4971716,1.01459046 21.5139004,2.02859187 22.0742448,2.55349947 L27.3756278,8.17913859 L1.41369977,8.17913859 C0.63295921,8.17913859 -2.35617022e-06,8.81212372 -2.35617022e-06,9.5929114 C-2.35617022e-06,10.3736991 0.63295921,11.0066607 1.41369977,11.0066607 L27.3756278,11.0066607 L22.0742448,16.6322998 C21.5918425,17.1155503 21.502685,18.1652241 22.0596365,18.694043 C22.6164467,19.2228147 23.6313435,19.0538773 24.1212855,18.5761873 L31.6610349,10.5648787 C31.9190355,10.2907148 32.0447608,9.96905042 32.0439168,9.5929114 L32.0439168,9.5929114 Z" id="Path"></path>
                    </g>
                </g>
                <g id="noun_Arrow_1569919-Copy-3" transform="translate(55.617021, 96.500000) scale(-1, 1) rotate(-90.000000) translate(-55.617021, -96.500000) translate(39.117021, 86.000000)" fill="#000000" fill-rule="nonzero">
                    <g id="Group" transform="translate(0.000000, 0.300562)">
                        <path d="M32.0439168,9.5929114 C32.030718,9.25597906 31.8920338,8.86655125 31.6610349,8.62094407 L24.1212855,0.609564796 C23.6103735,0.150441468 22.630678,-0.0390888638 22.0596365,0.491756285 C21.4971716,1.01459046 21.5139004,2.02859187 22.0742448,2.55349947 L27.3756278,8.17913859 L1.41369977,8.17913859 C0.63295921,8.17913859 -2.35617022e-06,8.81212372 -2.35617022e-06,9.5929114 C-2.35617022e-06,10.3736991 0.63295921,11.0066607 1.41369977,11.0066607 L27.3756278,11.0066607 L22.0742448,16.6322998 C21.5918425,17.1155503 21.502685,18.1652241 22.0596365,18.694043 C22.6164467,19.2228147 23.6313435,19.0538773 24.1212855,18.5761873 L31.6610349,10.5648787 C31.9190355,10.2907148 32.0447608,9.96905042 32.0439168,9.5929114 L32.0439168,9.5929114 Z" id="Path"></path>
                    </g>
                </g>
                <circle id="Oval" fill="#FFD86D" cx="56.5" cy="56.5" r="12.0212766"></circle>
            </g>
        </g>
    </g>
</svg>