<?xml version="1.0" encoding="UTF-8"?>
<svg width="98px" height="72px" viewBox="0 0 98 72" version="1.1" xmlns="http://www.w3.org/2000/svg" xmlns:xlink="http://www.w3.org/1999/xlink">
    <!-- Generator: Sketch 61.2 (89653) - https://sketch.com -->
    <title>Fill 519</title>
    <desc>Created with Sketch.</desc>
    <g id="Page-1" stroke="none" stroke-width="1" fill="none" fill-rule="evenodd">
        <g id="People-Copy" transform="translate(-1279.000000, -2030.000000)" fill="#FF94B8">
            <g id="Group-7" transform="translate(57.000000, 1239.000000)">
                <g id="Group-6-Copy-5" transform="translate(916.000000, 458.000000)">
                    <g id="10" transform="translate(303.000000, 333.000000)">
                        <path d="M109.458047,95.5458781 L109.010296,95.2720911 C108.350473,96.7462331 107.690651,98.2207893 107.031657,99.6949313 C108.030296,98.3943396 109.083609,97.1306118 109.458047,95.5458781 M110.986864,89.9893692 C111.884852,88.1499018 112.698343,86.1542805 112.578225,83.9225645 C112.048047,85.9451089 111.517456,87.967239 110.986864,89.9893692 M20.8061538,38.3194284 C21.061716,38.0319728 21.3247337,37.750316 21.5715976,37.4549905 C26.6654438,31.3716177 32.3313018,25.8784816 38.5161538,20.9080674 C42.0012426,18.1076532 46.127929,16.1845171 49.5011834,13.3385408 C53.2501183,10.1757006 56.9961538,7.2083633 61.608284,5.4571207 C61.6434911,5.44345206 61.612426,5.25333372 61.612426,4.94433963 C52.075858,5.7362923 43.7081657,9.37504969 36.5093491,15.4600793 C29.2674556,21.5819728 23.3112426,28.7596651 20.8061538,38.3194284 M132.189822,54.4533929 C132.06929,41.7249905 127.954201,30.5680674 118.733254,21.5794876 C110.547811,13.6007302 101.342189,7.44735739 89.5233728,6.32155857 C110.629408,16.3129195 124.831953,32.304813 132.189822,54.4533929 M91.9775148,12.3734521 C93.1828402,14.034813 95.0098817,14.8888958 96.5051479,16.1625645 C105.095266,23.4802568 110.921006,32.6042805 114.788817,43.1597834 C118.602367,53.5674166 119.333432,64.303097 118.514556,75.1684225 C118.001361,81.9749905 116.314734,88.6167065 113.858521,95.0260556 C113.666746,95.5264106 113.046686,96.1638663 113.766568,96.6149313 C114.366746,96.9901976 114.655444,96.2226828 115.024911,95.9070615 C118.903905,92.5934521 122.018284,88.6117361 124.553195,84.2369432 C126.876036,80.2291325 128.853432,76.1438663 128.571775,71.1514994 C127.313846,48.8446947 118.109053,30.8141029 100.200237,17.3413811 C97.6359172,15.4120319 94.9390533,13.6624461 91.9775148,12.3734521 M123.766213,95.8610852 C122.86574,95.8080674 122.350059,96.1452272 121.996331,96.5871799 C120.066568,98.9965882 117.57432,100.635582 115.012485,102.309783 C113.537515,103.27363 112.046805,104.221736 110.534556,105.140849 C108.081243,106.631973 106.769882,109.139961 105.043077,111.309133 C99.906568,117.76073 93.9988166,123.395937 86.9905325,127.863097 C78.6261538,133.195109 69.7626627,136.666943 59.6872189,137.108482 C54.2997041,137.344991 49.2236686,136.84505 44.0714201,135.227594 C35.7517751,132.616056 29.043787,127.733866 23.3319527,121.401144 C14.7861538,111.925878 10.4200592,100.450434 7.99242604,88.1151089 C7.80893491,87.1814994 7.52976331,86.2669432 7.29491124,85.3436887 C6.64627219,87.6503751 6.74360947,89.8953456 6.70467456,92.136174 C6.5435503,101.494221 9.02337278,110.300967 13.6483432,118.226292 C18.1540237,125.947002 24.7116568,131.905701 33.0147337,135.699369 C40.521716,139.129369 48.372071,140.792801 56.6179882,140.363275 C65.6815385,139.891085 74.3047929,137.566174 82.5863314,133.907121 C96.6327219,127.701559 108.823077,119.096115 117.861775,106.467121 C120.20284,103.196588 122.226627,99.727239 123.766213,95.8610852 M41.9486391,25.5201976 C41.5025444,25.7065882 41.2415976,25.7521503 41.0639053,25.8987775 C35.837929,30.2184816 31.230355,35.1570024 26.8771006,40.3270615 C23.5332544,44.2992509 20.6856213,48.6520911 18.0844379,53.1316769 C16.316213,56.1781266 14.619645,59.3243988 14.226568,62.9598426 C13.2714201,71.791026 13.4445562,80.5687775 15.2247929,89.2997242 C17.763432,101.753097 22.4318935,113.144872 31.3657988,122.493393 C35.9137278,127.252564 41.3356213,130.649428 47.5734911,132.55434 C57.6766864,135.640138 67.1453254,133.056351 76.2801183,128.671618 C82.190355,125.834754 87.3848521,121.889488 92.2268639,117.532091 C94.4324852,115.547653 96.5502959,113.361914 98.2928402,110.500612 C95.1826036,110.855582 92.4882249,111.544399 89.7205325,111.836411 C80.3020118,112.830079 71.4671006,110.92434 63.2083432,106.53215 C51.9714793,100.556884 44.4367456,91.2791917 40.1878698,79.3535112 C34.7738462,64.158955 35.1656805,48.8181858 39.3942604,33.4434521 C40.1091716,30.8439254 41.0444379,28.3048722 41.9486391,25.5201976 M66.2937278,11.7972982 C62.5220118,12.4219136 59.6221893,13.6028012 57.0852071,15.655168 C54.517574,17.7315586 52.9680473,20.5232745 51.3021302,23.326174 C49.016568,27.1707893 47.4417751,31.3264698 46.2298225,35.4916769 C45.158284,39.1722686 44.4222485,43.0512627 43.9873373,46.9584225 C42.9563905,56.2079491 42.8031361,65.3328012 45.4502959,74.3855822 C48.2109467,83.8293692 52.7613609,92.1109077 60.2389349,98.6614994 C72.3551479,109.275405 87.4072189,111.074695 101.633373,104.694754 C102.558698,104.280138 103.410296,103.771085 103.944615,102.872683 C107.433018,97.0117361 109.915325,90.6926828 111.460296,84.1064698 C113.55284,75.1878899 113.863491,66.1032154 112.660237,56.9858189 C110.93716,43.9272982 106.229349,32.1892509 97.1732544,22.4633929 C92.4807692,17.4246355 87.372426,12.8539254 80.2494083,11.498245 C78.1245562,11.0939846 75.7561538,10.2883633 74.0347337,12.0528603 C72.1521893,13.9826237 70.3727811,16.1592509 69.1185799,18.5301385 C63.7952663,28.5952272 62.6777515,39.1971207 65.9147337,50.1436296 C67.1730769,54.3995467 69.8686982,57.6854047 73.6342012,60.0898426 C74.3499408,60.5471207 75.8249112,60.850316 75.3307692,61.8978308 C74.8954438,62.8219136 73.510355,62.5584816 72.4992899,62.2685408 C72.1227811,62.1604343 71.762426,61.9616177 71.4269231,61.7528603 C67.2107692,59.1280674 63.7501183,55.7581266 61.865503,51.1041621 C57.8651479,41.2254639 58.3166272,31.2295467 61.4305917,21.2220319 C62.4391716,17.9796651 64.0997041,15.0442213 66.2937278,11.7972982 M19.9682249,26.3374166 C19.4007692,26.3510852 19.194497,26.8195467 18.9724852,27.2006118 C16.8778698,30.8020911 14.9630178,34.5046355 13.6756805,38.468955 C13.2345562,39.8262923 12.0250888,40.991026 12.3639053,42.6635704 C13.1591716,42.2481266 13.5108284,41.6781858 13.5472781,40.8791917 C13.6094083,39.5131562 14.3019527,38.3620911 14.8602959,37.1667065 C16.5514793,33.546174 18.2381065,29.9235704 19.9259763,26.3013811 C22.332071,23.1459964 24.7389941,19.9906118 27.1450888,16.8356414 C25.5069231,18.3023278 23.9110059,19.7864106 22.6891124,21.6196651 C21.6784615,23.1352272 20.2101183,24.3799018 19.9682249,26.3374166 M-3.69482223e-13,90.7436296 C0.148698225,83.8326828 1.09639053,77.0178308 3.49171598,70.5654047 C6.00674556,63.7911444 7.28248521,56.7720911 8.84775148,49.7766473 C11.6949704,37.0453456 16.5821302,25.2025053 25.7450888,15.5553456 C33.4061538,7.4891917 42.6792899,2.26487218 53.7301775,0.63126271 C61.7959172,-0.561222497 69.8318343,-0.107258 77.6805325,2.36138105 C78.4948521,2.61735739 79.3352663,2.84848165 80.2146154,2.70019762 C87.8620118,1.41203194 95.132071,2.77019762 102.173491,5.79925088 C110.771479,9.49806744 118.380355,14.6188367 124.712249,21.5438663 C129.572071,26.8588958 133.410888,32.8743396 135.664556,39.7057598 C138.227219,47.4753456 139.350533,55.4586592 137.770355,63.6623278 C137.398402,65.5904343 137.548757,67.7364106 136.990414,69.5191325 C136.30284,71.7139846 136.00213,73.9842213 135.285562,76.1384816 C134.061183,79.8211444 133.637041,83.6607893 132.797456,87.4171799 C131.740828,92.1436296 129.951065,96.6116177 127.842781,100.941263 C124.912722,106.957949 121.218462,112.550908 116.463846,117.219783 C112.231124,121.376706 107.858402,125.411854 102.58645,128.459133 C98.8192899,130.637002 95.2149112,133.124695 91.3019527,135.085109 C78.665503,141.415346 65.3534911,144.740138 51.1650296,143.872387 C40.2015385,143.201795 30.1037278,139.845523 21.2042012,133.309014 C8.77360947,124.178778 1.95544379,111.816529 0.396804734,96.5159373 C0.201715976,94.5981858 0.12964497,92.6680083 -3.69482223e-13,90.7436296" id="Fill-519"></path>
                    </g>
                </g>
            </g>
        </g>
    </g>
</svg>