<?xml version="1.0" encoding="UTF-8"?>
<svg width="98px" height="104px" viewBox="0 0 98 104" version="1.1" xmlns="http://www.w3.org/2000/svg" xmlns:xlink="http://www.w3.org/1999/xlink">
    <!-- Generator: Sketch 61.2 (89653) - https://sketch.com -->
    <title>46</title>
    <desc>Created with Sketch.</desc>
    <g id="Page-1" stroke="none" stroke-width="1" fill="none" fill-rule="evenodd">
        <g id="People-Copy" transform="translate(-363.000000, -1540.000000)" fill="#F393FF">
            <g id="Group-7" transform="translate(57.000000, 1239.000000)">
                <g id="Group-6">
                    <g id="Fill-225" transform="translate(-0.000000, 0.000000)">
                        <g id="46" transform="translate(306.000000, 301.000000)">
                            <path d="M15.2595799,23.940139 C19.4504675,15.552565 24.5878048,7.77718042 30.0171539,0.209724795 C30.6376273,0.369192251 30.0925385,0.755641955 30.313722,0.999606452 C30.6653788,1.16197332 31.0567989,0.314517695 31.5091066,1.06836385 C31.9249646,1.76090823 31.6785149,2.28155911 31.3856746,2.81877805 C29.844432,5.64652953 27.6185149,8.03481355 26.2752604,11.0170621 C25.8154971,12.0368254 25.6146095,13.285642 24.4809409,14.0800798 C23.7830119,14.5688372 23.9474498,15.8048136 23.3307042,16.6187189 C22.9446687,17.1286005 22.7301125,17.841855 22.3005859,18.4171804 C20.5891066,20.707713 19.6028936,23.2985414 19.321651,26.1461745 C19.2711184,26.6589556 19.0573906,27.1232751 18.5818876,27.1390147 C17.2854379,27.1825059 15.9976865,27.7197248 14.7269172,26.5852278 C13.8044912,25.7613816 13.7187515,25.0154053 13.9796983,24.0221508 C14.6088699,21.6293106 15.8568581,19.517713 17.081651,17.4077721 C18.5143728,14.9399615 20.1413551,12.5885414 21.6589882,10.1754053 C23.7001717,6.9297248 25.9853196,3.86463604 28.1528344,0.713807636 C28.3591066,0.41434018 28.5566805,-0.204890589 29.0089882,0.0676537895 C29.3494616,0.272683375 28.9907634,0.763097577 28.796503,1.06132243 C27.5712959,2.9417958 26.2595208,4.75848219 24.9158521,6.55942894 C23.6281007,8.28540527 22.5486924,10.1762337 21.4734261,12.0492514 C19.7358521,15.0770621 17.8214143,18.0033934 16.2491066,21.125642 C15.8009409,22.0157603 15.3573314,22.9174763 15.2595799,23.940139" id="Fill-167"></path>
                            <path d="M8.63559178,60.1374289 C7.84819533,60.7703283 7.27866871,59.7853579 7.02973379,59.5852988 C6.35624267,59.044352 5.30044385,59.602281 5.0374261,58.961926 C4.63937877,57.992281 3.78073971,57.1717485 4.13695273,55.8728136 C4.8253551,53.3602692 5.86872788,50.9951804 6.83878705,48.5965414 C7.54210066,46.8577248 8.21227817,45.101926 9.23949711,43.5122218 C9.69760362,42.8035236 10.2240533,42.178494 11.0015089,41.822281 C11.7988462,41.4565414 12.4988462,41.4304467 13.2667752,42.087784 C13.8350592,42.5740562 14.5677811,42.8934053 15.0938166,43.4650029 C15.5945859,44.0084349 15.992219,44.5771331 15.4015681,45.3177248 C14.9869527,45.8371331 15.0619231,46.5180798 14.8531657,47.1103875 C14.0139942,49.4903875 13.694645,52.0534644 12.3484912,54.2541153 C11.3502663,55.8864822 10.612574,57.6431094 9.84298823,59.386068 C9.6226332,59.8851804 9.40931959,60.4882573 8.63559178,60.1374289" id="Fill-169"></path>
                            <path d="M58.2784734,42.3130266 C58.0933255,42.7305414 57.9740356,42.9989437 57.8588876,43.2582337 C57.995574,43.4367544 58.1219054,43.3303047 58.2577634,43.2921982 C58.5365208,43.2134999 58.6322013,42.6795946 58.9697752,42.8929082 C59.3781776,43.1509556 58.8529705,43.4599496 58.8844498,43.7656301 C59.3313728,43.8695946 59.4502486,43.3174644 59.8147456,43.302139 C60.379716,44.1711331 60.083148,44.8707189 59.5571125,45.6502455 C58.1277042,47.7684704 56.8888285,49.9948017 56.0546273,52.4311331 C55.7398344,53.3510739 54.561432,53.8004822 54.538651,54.8682928 C54.5096569,56.2227307 53.8775859,57.3986479 53.1672308,58.3670502 C51.9403669,60.0395946 51.6781776,62.0074644 50.9479409,63.8253934 C50.7424971,64.3369319 51.0241539,64.9669319 50.5188285,65.3861035 C50.3556332,65.5215473 50.0992427,65.8301272 49.992793,65.5700088 C49.6274675,64.6811331 48.9154557,65.1094171 48.3260474,64.9619615 C47.2321421,64.6881745 47.0167575,63.6153934 46.9098936,62.6718431 C46.7417279,61.1848609 47.1708403,59.7467544 47.7743314,58.4213106 C50.0839172,53.3461035 52.7700119,48.4771686 56.093148,43.9859852 C56.5993018,43.3017248 57.0532663,42.4430857 58.2784734,42.3130266" id="Fill-171"></path>
                            <path d="M42.9748581,22.1607721 C42.7213669,22.9506538 42.476574,23.7773994 42.1916036,24.5904763 C40.3869291,29.7447958 38.045864,34.657636 35.5101243,39.485565 C34.5379942,41.3362159 33.4175799,43.1123106 32.6819586,45.0872218 C32.4715444,45.6530207 32.0933788,46.0995295 31.418645,45.4976952 C31.2595918,45.3556242 31.0234971,45.291423 30.8130829,45.2168668 C29.4134971,44.7214822 28.8667515,43.6487011 29.3058048,42.192784 C29.7556273,40.6991745 30.5877575,39.3911272 31.3942072,38.0797662 C34.8063965,32.5331982 38.0160415,26.8822514 40.4660415,20.8299437 C40.7766924,20.0628431 40.866574,20.0636715 41.4112486,20.6476952 C41.4704794,20.711068 41.5905977,20.7570443 41.6767515,20.7491745 C42.692787,20.6584644 42.7851539,21.4031982 42.9748581,22.1607721" id="Fill-173"></path>
                            <path d="M8.7601835,80.0504408 C7.82988764,82.3397307 6.3089409,84.0918017 5.42255036,86.1648786 C4.5266332,88.2603224 3.4418403,90.2803816 2.8793551,92.517068 C3.69491723,90.7239911 4.50592314,88.9284289 5.32686989,87.137423 C6.26959178,85.0825709 7.4649764,83.1735177 8.64006516,81.2466538 C9.22988764,80.2799082 9.89219533,80.3291982 10.5561598,80.8614467 C11.2043847,81.3816834 11.3390001,82.2577189 10.7284675,82.8682514 C9.48462137,84.1120976 8.78503557,85.7013875 8.33065687,87.2625118 C7.53953261,89.9813283 6.14864504,92.5013283 5.72947344,95.3406775 C5.63296456,95.9951153 5.15953261,96.5530443 5.06219533,97.2820384 C4.95284622,98.1021567 4.9101835,98.804642 5.31692906,99.5688431 C5.55260953,100.012867 6.134148,100.59689 5.61763912,101.092275 C5.19515391,101.497778 4.57633735,101.795174 3.87219533,101.425707 C3.60337877,101.284879 3.21154445,101.377246 2.87562729,101.365648 C0.911485274,101.299376 -0.247863838,100.019494 0.0449763985,98.0383698 C0.43763912,95.3816834 1.43544977,92.8968905 2.48917758,90.4431627 C3.86971013,87.2277189 5.37077522,84.0744053 7.41402965,81.2106183 C7.71556811,80.7881331 7.96823084,80.3213283 8.7601835,80.0504408" id="Fill-175"></path>
                            <path d="M62.3137042,105.104766 C59.6537042,105.099382 58.8522249,103.934648 59.7522841,101.729027 C60.4560119,100.004293 61.6530533,98.5827544 62.8086746,97.1587307 C65.5063669,93.8351804 68.3142368,90.6068964 71.3035267,87.5355946 C72.0345918,86.7842337 72.9222249,86.5154171 73.8334675,86.2366597 C74.151574,86.1397366 74.8606865,85.9483757 74.8337634,86.2254763 C74.777432,86.7921035 75.3461302,87.3069556 74.8341776,87.9133461 C72.547787,90.6209792 70.507432,93.5195591 68.3933492,96.3609792 C67.4613965,97.6139378 66.4300356,98.7952396 65.5324616,100.071393 C64.9256569,100.934589 64.3051835,101.86737 64.9206865,103.029618 C64.9944143,103.168376 64.9563078,103.532459 64.890864,103.553997 C63.8404498,103.904411 63.2054794,105.023169 62.3137042,105.104766" id="Fill-177"></path>
                            <path d="M89.5047279,44.8724585 C90.8707634,43.3378431 91.7207042,41.4714526 93.0676865,39.9463638 C93.4644912,39.4973698 93.9399942,39.1076065 94.2792249,38.6205059 C94.8392249,37.815713 95.4153788,38.4291449 95.7856746,38.682636 C96.1452013,38.9282573 96.3137811,39.4990266 95.9281598,40.0391449 C94.3533669,42.2447662 93.0867397,44.6591449 92.0230711,47.1161863 C91.2650829,48.8678431 90.0067397,50.4020443 89.7441362,52.4403283 C89.6443137,53.2119852 89.1170356,54.1025177 88.8246095,54.9665414 C88.4336036,56.1217485 87.6304675,55.1653579 87.0108226,55.1231094 C86.9130711,55.1164822 86.826503,54.8290266 86.7370356,54.8306834 C86.3555563,54.836068 86.1310592,55.8073698 85.6841362,55.1334644 C85.0777456,54.2189082 84.4303492,53.3561272 84.8544912,52.0041745 C85.5283965,49.8581982 86.5634853,47.9222218 87.6963255,46.022281 C89.2321835,43.4463638 90.6487515,40.7797366 92.8344912,38.6540562 C92.9956155,38.4974881 93.1434853,38.3255946 93.315793,38.182281 C93.4934853,38.0344112 93.7324794,37.9080798 93.9230119,38.0899141 C94.1653196,38.3214526 94.0369172,38.6014526 93.8248462,38.7754171 C91.9712959,40.2930502 91.0480415,42.4821035 89.7491066,44.3990266 C89.6505267,44.5448254 89.5854971,44.7142337 89.5047279,44.8724585" id="Fill-179"></path>
                            <path d="M43.7828403,82.9957425 C44.3544379,82.4564526 44.9997634,81.9751508 45.4781657,81.3633757 C46.0365089,80.649707 46.6582249,80.493139 47.444793,80.8042041 C47.9124261,80.9897662 47.8130178,81.4801804 47.7678699,81.7929023 C47.6514794,82.5976952 47.175148,83.2177544 46.3972782,83.5043816 C46.2113018,83.5727248 45.9313018,83.4318964 45.931716,83.7682278 C45.9358581,85.4113638 44.4948521,86.2861567 43.8756214,87.6024881 C43.685503,88.0059201 43.331361,88.3890562 43.0820119,88.8028431 C42.3538462,90.011068 41.7582249,91.3236715 40.2149113,91.7863343 C39.8553847,91.8940266 39.2854439,92.2158609 39.4797042,92.7621923 C40.0724261,94.4285236 38.9052072,95.5414822 38.2428995,96.7770443 C37.1543788,98.8070443 35.773432,100.671778 34.7640237,102.751482 C34.6501184,102.98592 34.5797042,103.319352 34.2524853,103.238169 C33.8436687,103.136275 34.3854439,102.773435 34.101716,102.559707 C33.5922486,102.831009 33.1449113,103.563731 32.4345563,102.699293 C32.1810652,102.390713 31.8086983,102.912192 31.6264498,103.239825 C31.4876924,103.48876 31.3352663,103.723198 31.0225444,103.540121 C30.6443788,103.318524 30.9703551,103.086985 31.0701776,102.883612 C32.8893492,99.1760976 35.1363906,95.7282869 37.4683433,92.3318372 C39.5219527,89.3404763 41.575148,86.3487011 43.6283433,83.3581686 C43.67929,83.2380502 43.7310652,83.1171035 43.7828403,82.9957425" id="Fill-181"></path>
                            <path d="M63.6669409,69.8359496 C64.9261125,67.8875473 66.1948107,65.9416301 67.5960533,64.084352 C65.997651,65.2830502 64.070787,68.0648254 63.6669409,69.8359496 M66.1310237,72.7937603 C65.7391894,72.9080798 66.7382427,71.5461863 65.670432,72.3824585 C65.6418521,72.4048254 65.5855208,72.4392041 65.5726805,72.4292633 C64.8689527,71.8829319 64.2493078,71.9135828 63.6052249,72.5812751 C63.4362308,72.7564822 62.1248699,71.2868964 62.0967042,70.8528136 C62.0544557,70.1975473 62.2201362,69.5770739 62.5084202,69.0034053 C64.1354024,65.7635236 66.4242782,63.0716301 69.3162308,60.8933461 C70.7327989,59.8259496 72.2189527,59.9423402 73.7022072,60.7371923 C74.498716,61.1642337 74.4949882,61.6774289 73.8326805,62.3165414 C73.1355799,62.9887899 72.4724439,63.7016301 71.8482427,64.4422218 C71.1279468,65.2967189 70.5248699,66.2348846 69.7320888,67.0479615 C68.690787,68.1153579 68.3320888,69.6292633 67.5749291,70.8967189 C67.1561717,71.5963047 66.7875326,72.3062455 66.1310237,72.7937603" id="Fill-183"></path>
                            <path d="M99.13329,74.7408372 C98.9676095,75.3062218 98.867787,75.646281 98.7157752,76.1648609 C98.9684379,75.9693579 99.1225208,75.9101272 99.1689113,75.8036775 C99.5458344,74.942139 100.238379,75.1649792 100.783882,75.4437366 C101.367905,75.7419615 101.519503,76.4154526 101.285894,76.9961627 C100.904828,77.943855 100.464118,78.8824349 99.9264853,79.7493579 C99.184651,80.9455709 98.3454794,82.1016065 97.8401539,83.407997 C97.3120474,84.7723757 96.5420474,86.0998905 96.8713373,87.7040917 C97.027077,88.4612514 96.3945918,88.9061035 95.7028758,88.596281 C95.3271953,88.4272869 94.9892072,88.4463402 94.6176687,88.4649792 C92.2633492,88.5826124 91.0476687,86.9129674 91.9622249,84.6650976 C93.2516332,81.4968727 95.3325799,78.8186479 97.4996805,76.2137366 C97.9138817,75.7158668 98.1992663,75.0535591 99.13329,74.7408372" id="Fill-185"></path>
                            <path d="M13.3097279,124.220317 C13.295645,125.066115 14.0093137,125.477003 14.1078936,126.152151 C13.064935,126.294636 12.4075977,125.728837 12.1793728,124.564518 C11.9316805,123.299547 12.3272427,122.134399 12.9427456,121.125819 C14.2524498,118.980257 15.3455267,116.710849 17.1750533,114.857713 C17.890793,114.132861 18.3857634,112.959843 19.0820356,112.082979 C21.0664734,109.582032 23.1378936,107.149843 25.1840474,104.698186 C25.594935,104.205701 26.0824498,103.791914 26.644935,103.470908 C26.9328048,103.30647 27.2165326,103.269192 27.4845208,103.484577 C27.7723906,103.716115 27.7404971,104.011855 27.579787,104.29724 C27.340793,104.721796 27.1262368,105.169961 26.8275977,105.549784 C24.0628048,109.062624 21.2230415,112.518719 18.5361184,116.089547 C17.489432,117.480849 16.6722131,119.079666 16.1088995,120.749725 C15.8487811,121.521382 16.1275385,122.368009 16.2157634,123.179429 C16.2393728,123.400612 16.5479527,123.701322 16.1569468,123.867003 C15.4060001,124.185938 14.7768285,124.501145 15.4374794,125.479488 C15.5878344,125.701914 15.2461184,125.819547 15.0083669,125.824932 C14.5833965,125.834873 14.0942249,125.828246 14.0441066,125.300139 C13.9985444,124.815524 13.7239291,124.569074 13.3097279,124.220317" id="Fill-187"></path>
                            <path d="M31.3133137,66.5308313 C31.0697634,66.3581094 30.933077,66.3249733 30.8266273,66.5838491 C30.438935,67.5269852 30.1158581,68.5098846 29.6097042,69.3859201 C29.3036095,69.9152692 29.3694675,71.0071035 28.1972782,70.6885828 C28.0108876,70.6380502 28.0489942,70.8729023 28.1334912,71.0058609 C28.3310652,71.3165118 28.2084616,71.5443224 27.9943196,71.8056834 C27.6289942,72.2509496 27.5283433,72.7450917 27.6231953,73.3556242 C27.7992308,74.4830798 27.0147338,75.0327248 25.9833728,74.5700621 C25.8595267,74.5141449 25.6395859,74.3260976 25.6284024,74.4039674 C25.3649705,76.2413638 24.3692308,73.8050325 23.9628995,74.6951508 C23.6580474,74.4416597 23.5147338,74.118997 23.4799409,73.7205354 C23.4004143,72.8072218 23.7740237,72.0347366 24.1977515,71.2763343 C25.8031953,68.4030207 28.1028403,66.1095887 30.4613018,63.8774585 C31.0291717,63.3394112 31.8849113,63.3104171 32.6209468,63.0937899 C33.0529586,62.9666301 33.3076924,63.3244999 33.4713018,63.6666301 C33.6953847,64.1355059 33.4485208,64.1843816 33.0649705,64.0592928 C33.0140237,64.9005354 32.4639646,65.4829023 32.0124853,66.1216005 C31.8136687,66.4028431 31.6848521,66.7429023 31.3133137,66.5308313" id="Fill-189"></path>
                            <path d="M64.8876746,20.3439615 C64.7948936,20.2752041 64.7025267,20.2064467 64.6101598,20.1376893 C64.0774971,20.9814171 63.539864,21.8218313 63.0200415,22.6734289 C62.9595681,22.7728372 62.8411066,22.9521863 63.0208699,23.060707 C63.1459586,23.1360917 63.3605149,23.1576301 63.4031776,22.9994053 C63.673651,21.9908254 64.6201007,21.3492278 64.8876746,20.3439615 M60.96229,30.5854999 C60.6330001,31.0614171 60.8678521,31.8749082 59.8302782,31.940352 C59.0801598,31.9879852 59.2156036,31.6255591 59.2151894,31.2395236 C58.5702782,31.2975118 58.8283255,32.063784 58.2571421,32.2157958 C58.0218758,31.1790502 58.4041835,30.1866242 58.357793,29.1904704 C58.3648344,29.1610621 58.3693906,29.1287544 58.37229,29.0939615 C59.1733551,28.4063875 59.3580888,27.3775118 59.8021125,26.4936065 C59.9851894,26.128281 60.0493906,25.6925414 60.2743018,25.3615946 C62.084361,22.6986952 63.5572604,19.8233106 65.5069054,17.2432514 C67.0348936,15.2211212 68.3880888,13.0681035 70.0200415,11.1201153 C70.3953078,10.6723638 70.7270829,10.1815354 71.53229,9.71224551 C70.9109882,10.8372159 70.4379705,11.6929556 69.9653669,12.5486952 C69.9769646,12.5147307 69.9873196,12.4799378 69.996432,12.4439023 C68.7509291,13.4301153 68.2435326,14.9527189 67.1769646,16.0892869 C67.5414616,16.3978668 67.6508107,16.0760325 67.8260178,16.0395828 C68.1258995,15.9778668 68.3110474,16.1659141 68.4270237,16.4239615 C68.4841835,16.5502928 68.5980888,16.7366834 68.3963728,16.7884585 C67.5016983,17.0183402 67.7162545,17.7605887 67.6901598,18.3491686 C67.6611657,18.9998786 67.3074379,19.3573343 66.7987989,19.6481035 C66.0151302,20.095855 65.5491539,20.7308254 65.6332368,21.6789319 C65.495722,21.8823047 65.3586214,22.0860917 65.2211066,22.2894644 C64.3645385,22.7094644 63.1393314,24.7552041 63.2263137,25.619642 C62.7375563,25.6449082 62.5445385,26.5710621 61.8793314,26.0632514 C61.6821717,25.5156775 61.5703373,25.2563875 61.0583847,25.9381627 C60.4114024,26.7988727 60.5153669,27.9710621 59.7350119,28.7402337 C59.6190356,28.854139 59.6269054,29.0223047 59.7859586,29.119642 C59.992645,29.2463875 60.1844202,29.1536065 60.2158995,28.9506479 C60.3534143,28.0733698 61.0538285,27.4566242 61.2658995,26.6220088 C61.3557811,26.2699378 61.4506332,25.9617721 61.9108107,26.0313579 C62.1903965,27.6570976 60.9386805,28.7675709 60.5095681,30.1555591 C60.4528226,30.3394644 59.7631776,29.8440798 60.0133551,30.4628964 C60.1351302,30.7648491 60.5944794,30.9147899 60.96229,30.5854999" id="Fill-191"></path>
                            <path d="M86.5816687,105.677109 C86.3522013,106.30918 86.5298936,106.87995 86.7320237,107.427938 C86.8384734,107.716222 86.9188285,107.93492 86.5733847,108.054624 C86.2581776,108.163973 86.0643314,107.942376 85.9524971,107.701725 C85.6671125,107.088707 85.7379409,106.405275 85.9073492,105.820837 C86.5530888,103.58995 87.7637989,101.653559 89.2569942,99.8878195 C89.7001894,99.3642692 90.2253965,98.8900088 90.5724971,98.3088846 C91.2033255,97.2526715 92.276935,96.9515473 93.3004261,96.6177011 C93.7784143,96.4615473 93.8699527,97.1027307 93.9681184,97.4477603 C94.0240356,97.6453343 93.878651,98.0284704 93.7026155,98.1436183 C92.0014912,99.2561627 91.7277042,101.32924 90.5737397,102.81995 C90.193503,103.311192 90.3678817,104.307346 89.8766391,104.959299 C89.4885326,105.474565 89.279361,106.118648 88.5578226,106.364269 C88.1415504,106.505512 88.4567575,107.041488 88.2687101,107.360009 C88.1722013,107.523618 88.1129705,107.720364 87.9075267,107.746873 C87.7029113,107.773382 87.444864,107.598589 87.4817279,107.467701 C87.7298344,106.588352 86.691432,106.364269 86.5816687,105.677109" id="Fill-193"></path>
                            <path d="M43.7828403,82.9957425 C43.7310652,83.1171035 43.67929,83.2380502 43.6283433,83.3581686 C42.1343196,84.6749141 40.9289942,86.2625473 39.75929,87.8427248 C38.1501184,90.0164526 36.6950297,92.3123698 35.293787,94.6285828 C34.1079291,96.588997 32.5952663,98.3505946 31.7635504,100.534263 C31.4259764,101.420654 30.8659764,102.229589 29.8884616,102.834737 C29.6581657,101.50018 30.5081066,100.645269 30.9981066,99.7046183 C32.2887575,97.2256242 33.9190533,94.9541449 35.5224261,92.6743816 C38.4152072,88.561778 41.1327811,84.3095887 44.7379882,80.7453875 C44.9442604,80.5416005 45.1091125,80.2611863 45.6053255,80.412784 C45.2814202,81.4921923 44.2459172,82.0588195 43.7828403,82.9957425" id="Fill-195"></path>
                            <path d="M87.5649823,67.2490147 C87.1213728,67.5741627 87.6440947,68.4522692 86.9648048,68.3093698 C86.3857515,68.1871804 86.5949231,67.4809674 86.7403078,67.0328017 C87.6428521,64.2576538 89.4218462,62.2040443 91.9977634,60.8591331 C92.3879409,60.6553461 92.9541539,60.344281 93.3149231,60.9212633 C93.6355149,61.4328017 93.139716,61.7438668 92.8568166,62.0640443 C91.6709586,63.407713 90.5459882,64.7795473 90.2498344,66.6314408 C90.1756924,67.0965887 89.7983551,67.2643402 89.4139764,67.4217366 C89.2797752,67.4768254 89.1447456,67.566707 89.0494794,67.6748136 C88.2968758,68.5305532 87.729006,68.6208491 87.5649823,67.2490147" id="Fill-197"></path>
                            <path d="M64.3401835,17.4522573 C64.2159231,18.8344467 63.0342072,19.5974053 62.3917811,20.6734999 C61.915864,21.470423 61.5277575,22.3746242 60.7672841,23.0075236 C60.5779942,23.1649201 60.5021953,23.5120207 60.1898876,23.3363994 C59.9413669,23.1963994 59.8908344,22.9130857 60.0585859,22.6467544 C61.0688226,21.0450384 62.0513078,19.423855 63.25829,17.9571686 C63.5432604,17.6108964 63.9926687,17.620423 64.3724912,17.4795946 L64.3401835,17.4522573 Z" id="Fill-199"></path>
                            <path d="M64.3723669,17.4797603 C64.2311243,17.1736656 64.0671007,16.8891094 64.3239054,16.5399378 C65.7789942,14.559642 67.2038462,12.5561508 68.8904734,10.7589319 C69.0209468,10.6197603 69.0930178,10.2900562 69.3879291,10.4963283 C69.5747338,10.6272159 69.5283433,10.8297603 69.4003551,10.991713 C67.7514202,13.0763875 66.151361,15.1966834 64.6536095,17.3936065 C64.611361,17.4553224 64.4473373,17.4346124 64.3400592,17.452423 L64.3723669,17.4797603 Z" id="Fill-201"></path>
                            <path d="M58.3721243,29.0937958 C58.3696391,29.1285887 58.3646687,29.1613106 58.3580415,29.1907189 C58.1588107,29.6948017 57.7238995,30.1027899 57.7611776,30.7050384 C57.774432,30.9195946 57.8030119,31.2244467 57.4762072,31.196281 C57.1841953,31.1710147 57.2235444,30.899713 57.2492249,30.6685887 C57.4782782,28.6137366 58.1766214,26.6922573 58.9549054,24.7997721 C59.0886924,24.4750384 59.4801125,24.126281 59.8375681,24.2927899 C60.2608817,24.4899496 59.9411184,24.9082928 59.7911776,25.1534999 C59.0452013,26.3733224 58.7200533,27.7356301 58.3721243,29.0937958" id="Fill-203"></path>
                            <path d="M69.9966391,12.4440266 C69.9875267,12.4796479 69.9771717,12.5144408 69.9651598,12.5484053 C70.4414912,12.0642041 71.2703078,11.9208905 71.3506628,11.0278727 C71.3639172,10.8804171 71.7391835,10.3411272 72.1185918,10.6737307 C72.479361,10.9897662 72.0941539,11.3236124 71.8853965,11.5211863 C70.9418462,12.4146183 70.1929705,13.4240266 69.7642723,14.7792928 C69.4018462,14.3559792 68.8604853,14.079707 69.5811953,13.5656834 C69.9684734,13.2894112 69.8135622,12.8018964 69.9966391,12.4440266" id="Fill-205"></path>
                            <path d="M65.2209823,22.2895887 C65.3584971,22.0862159 65.4960119,21.8824289 65.6331125,21.6790562 C65.7983788,21.548997 65.963645,21.419352 66.1284971,21.2892928 C66.1868995,21.3294704 66.2444734,21.3696479 66.3024616,21.4098254 C65.9226391,22.0878727 65.5424024,22.7655059 65.1625799,23.4435532 C65.0813965,23.4170443 65.0002131,23.3901212 64.9190297,23.3631982 C65.0196805,23.0057425 65.1203314,22.6474585 65.2209823,22.2895887" id="Fill-207"></path>
                            <path d="M61.4021717,30.0004408 C61.1809882,29.2221567 61.7480297,28.7056479 62.0454261,28.1054704 C62.3370237,27.5168905 62.6766687,26.9519201 62.9956036,26.3761804 C63.1082663,26.6690207 63.0817575,26.9283106 62.9185622,27.2149378 C62.3954261,28.133636 61.9050119,29.0705591 61.4021717,30.0004408" id="Fill-209"></path>
                        </g>
                    </g>
                </g>
            </g>
        </g>
    </g>
</svg>