<?xml version="1.0" encoding="UTF-8"?>
<svg width="21px" height="13px" viewBox="0 0 21 13" version="1.1" xmlns="http://www.w3.org/2000/svg" xmlns:xlink="http://www.w3.org/1999/xlink">
    <!-- Generator: Sketch 61.2 (89653) - https://sketch.com -->
    <title>noun_Arrow_1569919</title>
    <desc>Created with Sketch.</desc>
    <g id="Page-1" stroke="none" stroke-width="1" fill="none" fill-rule="evenodd">
        <g id="Landing-Copy" transform="translate(-363.000000, -4896.000000)" fill="#FFFFFF" fill-rule="nonzero">
            <g id="noun_Arrow_1569919" transform="translate(363.000000, 4896.000000)">
                <g id="Group" transform="translate(0.000000, 0.765384)">
                    <path d="M20.4,5.9984341 C20.3915973,5.78393438 20.3033073,5.53601472 20.1562473,5.37965493 L15.356245,0.279406782 C15.030985,-0.012882825 14.4072851,-0.133542663 14.0437451,0.204406883 C13.6856652,0.537256436 13.6963152,1.18279557 14.0530451,1.51696512 L17.4280447,5.09839031 L0.89999988,5.09839031 C0.402959946,5.09839031 0,5.50136476 0,5.9984341 C0,6.49550343 0.402959946,6.89846289 0.89999988,6.89846289 L17.4280447,6.89846289 L14.0530451,10.4798881 C13.7459352,10.7875377 13.6891752,11.4557868 14.0437451,11.7924463 C14.3982251,12.1290759 15.044335,12.021526 15.356245,11.7174164 L20.1562473,6.61721326 C20.3204973,6.4426735 20.4005373,6.23789377 20.4,5.9984341 L20.4,5.9984341 Z" id="Path"></path>
                </g>
            </g>
        </g>
    </g>
</svg>