<?xml version="1.0" encoding="UTF-8"?>
<svg width="264px" height="86px" viewBox="0 0 264 86" version="1.1" xmlns="http://www.w3.org/2000/svg" xmlns:xlink="http://www.w3.org/1999/xlink">
    <!-- Generator: Sketch 62 (91390) - https://sketch.com -->
    <title>Group 8 Copy 3</title>
    <desc>Created with Sketch.</desc>
    <g id="Page-1" stroke="none" stroke-width="1" fill="none" fill-rule="evenodd">
        <g id="Landing-Copy" transform="translate(-586.000000, -4942.000000)" fill-rule="nonzero">
            <g id="awards" transform="translate(194.000000, 4942.000000)">
                <g id="Group-8-Copy-3" transform="translate(392.000000, 0.000000)">
                    <path d="M62.72,37.1 L63.6,35.1 C64.42,32.84 65.34,30.1 66.16,27.78 C67.28,30.6 68.34,33.38 69.78,37.1 L70.16,37.1 L71.04,35.14 C72.18,32.08 73.68,28.2 74.66,25.58 C75.24,24.02 75.74,23.56 75.92,23.38 C76,23.28 76.54,22.88 77.2,22.8 L77.2,22.6 L72.8,22.6 L72.8,22.8 C73.46,22.88 74.48,23.12 74.48,23.9 C74.48,24.16 74.48,24.64 74.06,25.86 C73.26,28.22 71.94,31.72 71.38,33.2 C70.44,30.84 67.8,24.3 67.8,23.82 C67.8,23 69.3,22.84 69.62,22.8 L69.62,22.6 L62.5,22.6 L62.5,22.82 C63.8,22.86 64.28,23.52 64.5,23.92 C64.92,24.72 65.48,26.06 65.94,27.2 C65.12,29.7 64.32,31.98 63.9,33.16 C62.7,30.3 60.14,24.38 60.14,23.82 C60.14,22.92 61.32,22.82 61.58,22.8 L61.58,22.6 L55.04,22.6 L55.04,22.82 C56.2,22.86 56.64,23.62 56.8,23.92 C57.14,24.58 57.32,25.02 57.74,26.02 C59.12,29.4 60.54,32.7 62.32,37.1 L62.72,37.1 Z M79.6716667,37.14 C82.4516667,37.14 84.5716667,34.96 84.5716667,32.18 C84.5716667,28.86 81.9916667,27.26 79.7116667,27.26 C76.6916667,27.26 74.7516667,29.6 74.7516667,32.18 C74.7516667,35.56 77.5116667,37.14 79.6716667,37.14 Z M79.7316667,36.82 C78.0516667,36.82 77.4516667,34.5 77.4516667,32.2 C77.4516667,29.86 78.2116667,27.58 79.6116667,27.58 C81.3316667,27.58 81.8716667,30.24 81.8716667,32.16 C81.8716667,34.02 81.3316667,36.82 79.7316667,36.82 Z M90.2833333,37 L90.2833333,36.8 C89.7433333,36.72 88.7633333,36.62 88.5833333,36.12 L88.5833333,30.44 C88.8633333,29.68 89.4833333,29.14 90.0633333,29.14 C90.4233333,29.14 90.3633333,29.92 91.5433333,29.92 C92.0033333,29.92 92.5633333,29.42 92.5633333,28.62 C92.5633333,27.84 92.0233333,27.26 91.3233333,27.26 C89.6033333,27.26 88.8433333,29.4 88.5633333,30.04 L88.5233333,30.04 L88.5633333,27.24 L88.4433333,27.24 L84.9833333,28.68 L84.9833333,28.8 C85.3033333,28.94 85.6833333,29.16 85.9233333,29.3 C86.1033333,29.42 86.1233333,29.52 86.1233333,29.72 L86.1233333,36 C86.1233333,36.42 85.6033333,36.74 84.9833333,36.8 L84.9833333,37 L90.2833333,37 Z M96.955,37 L96.955,36.78 C95.935,36.68 95.475,36.6 95.475,36.06 L95.475,22.54 L95.335,22.54 L91.635,23.88 L91.635,24 C91.955,24.14 92.575,24.48 92.815,24.62 C92.995,24.74 93.015,24.84 93.015,25.04 L93.015,35.96 C93.015,36.38 92.715,36.7 91.495,36.78 L91.495,37 L96.955,37 Z M104.006667,37.14 L107.766667,35.94 L107.766667,35.8 C107.266667,35.6 106.546667,35.26 106.346667,35.14 L106.346667,22.48 L106.186667,22.48 L102.206667,23.8 L102.206667,23.92 L103.846667,24.58 L103.886667,27.6 C103.306667,27.42 102.626667,27.26 101.826667,27.26 C98.8866667,27.26 96.9266667,29.48 96.9266667,32.26 C96.9266667,35.36 98.7666667,37.1 100.666667,37.1 C102.186667,37.1 103.146667,36.38 103.866667,35.06 L103.886667,35.1 L103.886667,37.14 L104.006667,37.14 Z M102.106667,35.88 C100.446667,35.88 99.6066667,33.92 99.6066667,31.9 C99.6066667,29.74 100.226667,27.62 101.906667,27.62 C102.566667,27.62 103.426667,28.76 103.866667,29.86 L103.866667,34.34 C103.706667,35.4 102.926667,35.88 102.106667,35.88 Z M107.658333,27.14 C109.518333,27.14 110.678333,25.9 110.678333,24.38 C110.678333,23.3 110.158333,22.4 109.058333,22.4 C108.258333,22.4 107.558333,22.9 107.558333,23.78 C107.558333,24.36 107.938333,24.98 108.678333,24.98 C108.818333,24.98 109.198333,24.92 109.438333,24.66 C109.478333,24.76 109.518333,24.94 109.518333,25.08 C109.518333,25.98 108.718333,26.76 107.658333,26.94 L107.658333,27.14 Z M112.89,37.12 C114.95,37.12 116.99,36.16 116.99,33.98 C116.99,32.58 116.11,31.58 114.81,31.18 C114.43,31.06 113.53,30.84 112.97,30.68 C112.13,30.44 111.53,30.1 111.53,29.14 C111.53,28.2 112.25,27.54 113.15,27.54 C114.35,27.54 115.61,29.32 116.29,30.76 L116.45,30.72 L116.21,27.84 C115.45,27.54 114.37,27.26 113.11,27.26 C111.33,27.26 109.49,28.38 109.49,30.18 C109.49,31.46 110.19,32.46 111.21,32.84 C111.73,33.02 112.61,33.26 113.17,33.42 C114.03,33.66 114.63,34.02 114.63,34.84 C114.63,36.26 113.67,36.84 112.69,36.84 C111.31,36.84 110.05,34.58 109.55,33.36 L109.39,33.36 L109.39,36.4 C110.27,36.8 111.49,37.12 112.89,37.12 Z M132.453333,36.6 C133.693333,36.16 135.013333,34.96 135.013333,33.06 C135.013333,30.92 133.033333,29.68 131.033333,29.46 L131.033333,29.38 C132.893333,29.02 134.193333,27.9 134.193333,26.16 C134.193333,24.58 133.193333,23.52 131.793333,23.02 C130.913333,22.7 129.973333,22.6 128.933333,22.6 L121.513333,22.6 L121.513333,22.8 C122.233333,22.88 122.633333,22.98 123.033333,23.4 C123.353333,23.74 123.413333,24.9 123.433333,25.84 C123.449697,27.1490909 123.452672,27.8557025 123.453213,28.94571 L123.453333,29.74 C123.453333,31.2 123.433333,33.14 123.413333,33.88 C123.393333,34.74 123.313333,35.72 123.053333,36.04 C122.693333,36.46 121.953333,36.7 121.293333,36.8 L121.293333,37 L128.833333,37 C130.013333,37 131.413333,36.98 132.453333,36.6 Z M126.433333,29.48 L126.433064,29.3883309 C126.430884,28.8227551 126.417619,26.1471429 126.473333,24.42 C126.513333,23.44 126.513333,23.38 126.573333,23.04 C126.773333,22.96 127.173333,22.9 127.653333,22.9 C128.433333,22.9 129.073333,23.04 129.573333,23.3 C130.453333,23.74 131.053333,24.84 131.053333,26.16 C131.053333,27.98 130.053333,29.32 128.013333,29.46 C127.693333,29.48 127.193333,29.48 126.433333,29.48 Z M128.133333,36.7 C127.333333,36.7 126.973333,36.48 126.773333,36.18 C126.493333,35.76 126.473333,35.12 126.453333,34.12 C126.433333,33.24 126.433333,31.5 126.433333,29.78 L128.113333,29.78 C128.753333,29.78 129.193333,29.84 129.713333,30.02 C130.953333,30.48 131.833333,31.76 131.833333,33.28 C131.833333,34.62 131.293333,35.62 130.333333,36.2 C129.593333,36.64 128.793333,36.7 128.133333,36.7 Z M140.825,37.1 C143.425,37.1 144.565,34.92 144.825,33.68 L144.625,33.64 C144.305,34.64 143.025,35.28 141.825,35.28 C139.765,35.28 138.505,33.52 138.505,31.2 C138.505,31.02 138.505,30.82 138.525,30.6 L144.605,30.6 C144.465,28.3 142.745,27.26 140.545,27.26 C137.725,27.26 136.045,29.7 136.045,31.96 C136.045,34.78 137.825,37.1 140.825,37.1 Z M138.545,30.32 C138.585,29.58 139.225,27.6 140.385,27.6 C141.305,27.6 141.805,28.52 141.805,29.38 C141.805,29.72 141.725,29.92 141.545,30.1 C141.345,30.2 141.045,30.24 140.885,30.24 C139.885,30.28 139.485,30.32 138.545,30.32 Z M148.296667,37.12 C150.356667,37.12 152.396667,36.16 152.396667,33.98 C152.396667,32.58 151.516667,31.58 150.216667,31.18 C149.836667,31.06 148.936667,30.84 148.376667,30.68 C147.536667,30.44 146.936667,30.1 146.936667,29.14 C146.936667,28.2 147.656667,27.54 148.556667,27.54 C149.756667,27.54 151.016667,29.32 151.696667,30.76 L151.856667,30.72 L151.616667,27.84 C150.856667,27.54 149.776667,27.26 148.516667,27.26 C146.736667,27.26 144.896667,28.38 144.896667,30.18 C144.896667,31.46 145.596667,32.46 146.616667,32.84 C147.136667,33.02 148.016667,33.26 148.576667,33.42 C149.436667,33.66 150.036667,34.02 150.036667,34.84 C150.036667,36.26 149.076667,36.84 148.096667,36.84 C146.716667,36.84 145.456667,34.58 144.956667,33.36 L144.796667,33.36 L144.796667,36.4 C145.676667,36.8 146.896667,37.12 148.296667,37.12 Z M156.268333,37.14 C158.148333,37.14 159.148333,35.7 159.448333,34.88 L159.328333,34.82 C159.048333,35.22 158.408333,35.62 157.628333,35.62 C156.688333,35.62 156.188333,35.04 156.188333,33.68 L156.188333,28.68 L159.068333,28.68 L159.688333,27.46 L156.148333,27.46 L156.148333,25.32 L155.988333,25.32 L152.288333,28.46 L152.288333,28.68 L153.788333,28.68 C153.788333,30.42 153.708333,32.9 153.708333,35.4 C153.708333,36.26 154.988333,37.14 156.268333,37.14 Z M174.431667,36.6 C175.671667,36.16 176.991667,34.96 176.991667,33.06 C176.991667,30.92 175.011667,29.68 173.011667,29.46 L173.011667,29.38 C174.871667,29.02 176.171667,27.9 176.171667,26.16 C176.171667,24.58 175.171667,23.52 173.771667,23.02 C172.891667,22.7 171.951667,22.6 170.911667,22.6 L163.491667,22.6 L163.491667,22.8 C164.211667,22.88 164.611667,22.98 165.011667,23.4 C165.331667,23.74 165.391667,24.9 165.411667,25.84 C165.426212,27.0036364 165.430179,27.6912397 165.431261,28.5952216 L165.431667,29.74 C165.431667,31.2 165.411667,33.14 165.391667,33.88 C165.371667,34.74 165.291667,35.72 165.031667,36.04 C164.671667,36.46 163.931667,36.7 163.271667,36.8 L163.271667,37 L170.811667,37 C171.991667,37 173.391667,36.98 174.431667,36.6 Z M168.411667,29.48 L168.411101,29.3138821 C168.408299,28.6183418 168.398095,26.0807143 168.451667,24.42 C168.491667,23.44 168.491667,23.38 168.551667,23.04 C168.751667,22.96 169.151667,22.9 169.631667,22.9 C170.411667,22.9 171.051667,23.04 171.551667,23.3 C172.431667,23.74 173.031667,24.84 173.031667,26.16 C173.031667,27.98 172.031667,29.32 169.991667,29.46 C169.671667,29.48 169.171667,29.48 168.411667,29.48 Z M170.111667,36.7 C169.311667,36.7 168.951667,36.48 168.751667,36.18 C168.471667,35.76 168.451667,35.12 168.431667,34.12 C168.411667,33.24 168.411667,31.5 168.411667,29.78 L170.091667,29.78 C170.731667,29.78 171.171667,29.84 171.691667,30.02 C172.931667,30.48 173.811667,31.76 173.811667,33.28 C173.811667,34.62 173.271667,35.62 172.311667,36.2 C171.571667,36.64 170.771667,36.7 170.111667,36.7 Z M184.823333,37.1 C186.203333,37.1 187.143333,35.72 187.203333,34.7 L187.063333,34.7 C186.963333,35.1 186.723333,35.46 186.103333,35.46 C185.583333,35.46 185.103333,35.16 185.103333,33.96 C185.103333,32.14 185.163333,31.66 185.163333,29.76 C185.163333,29.3 185.143333,28.76 185.043333,28.58 C184.563333,27.62 183.903333,27.32 182.983333,27.26 C182.223333,27.3 180.183333,28.14 178.923333,28.9 C178.263333,29.3 177.783333,29.7 177.783333,30.48 C177.783333,31.02 178.343333,31.42 178.923333,31.42 C179.563333,31.42 180.283333,31.02 180.283333,30.64 L180.283333,29.1 C180.283333,28.76 180.383333,28.3 181.203333,28.18 C181.963333,28.28 182.583333,28.94 182.703333,29.72 L182.703333,31.24 C182.143333,31.58 181.283333,31.98 179.483333,32.98 C178.583333,33.48 177.903333,34.32 177.903333,35.1 C177.903333,36.48 178.903333,37.1 179.883333,37.1 C181.363333,37.1 182.283333,36.18 182.703333,35.18 L182.743333,35.2 C182.823333,36.44 183.783333,37.1 184.823333,37.1 Z M181.463333,35.42 C180.883333,35.42 180.343333,34.88 180.343333,34.22 C180.343333,32.58 181.863333,32.16 182.703333,31.52 L182.703333,34.58 C182.703333,34.78 182.683333,34.92 182.583333,35.08 C182.463333,35.3 181.843333,35.42 181.463333,35.42 Z M191.475,37 L191.475,36.8 C190.935,36.72 190.475,36.64 190.375,36.12 L190.375,29.64 C190.795,29.18 191.335,28.94 191.955,28.94 C193.155,28.94 193.575,30.06 193.575,31.36 L193.575,36.08 C193.575,36.5 193.095,36.74 192.375,36.78 L192.375,37 L197.295,37 L197.295,36.82 C196.835,36.76 196.055,36.54 196.055,36.14 L196.055,30.34 C196.055,28.54 195.235,27.26 193.655,27.26 C192.135,27.26 191.035,28.52 190.395,29.46 L190.355,29.42 L190.355,27.24 L190.235,27.24 L186.775,28.6 L186.775,28.72 C187.095,28.86 187.475,29.04 187.715,29.18 C187.895,29.3 187.915,29.4 187.915,29.6 L187.915,36 C187.915,36.42 187.395,36.74 186.775,36.8 L186.775,37 L191.475,37 Z M202.046667,37 L202.046667,36.8 C201.506667,36.72 200.966667,36.58 200.966667,36.08 L200.966667,32.24 L201.026667,32.24 C201.126667,32.24 201.246667,32.28 201.446667,32.62 C202.566667,34.56 203.466667,36.1 203.466667,36.32 C203.466667,36.56 203.066667,36.78 202.546667,36.8 L202.546667,37 L208.086667,37 L208.086667,36.8 C207.746667,36.78 207.106667,36.58 206.886667,36.48 C206.566667,36.26 206.226667,35.94 205.826667,35.3 C205.126667,34.16 204.186667,32.48 203.146667,30.66 C203.786667,30.02 204.266667,29.54 204.986667,28.86 C205.866667,28.04 207.766667,27.68 207.946667,27.66 L207.946667,27.46 L203.046667,27.46 L203.046667,27.66 C203.706667,27.7 204.586667,28.12 204.586667,28.36 C204.586667,28.74 202.906667,30.64 201.226667,31.96 L200.966667,32 L200.966667,22.54 L200.806667,22.54 L197.306667,24.16 L197.306667,24.28 C197.646667,24.46 198.146667,24.68 198.326667,24.82 C198.480952,24.94 198.502993,25.0453061 198.506142,25.1862974 L198.506667,36 C198.506667,36.5 197.926667,36.74 197.306667,36.8 L197.306667,37 L202.046667,37 Z" id="World’sBestBank" fill="#172633"></path>
                    <path d="M80.04,63 L80.04,61.688 L73.992,61.688 L73.992,57.816 L79.528,57.816 L79.528,56.52 L73.992,56.52 L73.992,52.92 L79.864,52.92 L79.864,51.608 L72.52,51.608 L72.52,63 L80.04,63 Z M84.6093333,63.176 C85.6973333,63.176 86.5933333,62.68 87.0893333,61.928 L87.1213333,61.928 L87.1213333,63 L88.4813333,63 L88.4813333,54.872 L87.0733333,54.872 L87.0733333,59.528 C87.0733333,61.16 86.0973333,62.024 84.9613333,62.024 C83.7933333,62.024 83.0893333,61.416 83.0893333,59.72 L83.0893333,54.872 L81.6813333,54.872 L81.6813333,59.832 C81.6813333,62.056 82.7533333,63.176 84.6093333,63.176 Z M92.2186667,63 L92.2186667,58.856 C92.2186667,57.064 93.0826667,56.072 94.6186667,56.072 C94.7946667,56.072 95.0026667,56.104 95.1786667,56.12 L95.1786667,54.856 C95.0026667,54.808 94.7626667,54.792 94.5866667,54.792 C93.5466667,54.792 92.7306667,55.224 92.1866667,56.12 L92.1546667,56.12 L92.1546667,54.872 L90.8106667,54.872 L90.8106667,63 L92.2186667,63 Z M99.396,63.224 C101.78,63.224 103.268,61.592 103.268,58.936 C103.268,56.28 101.78,54.648 99.396,54.648 C97.012,54.648 95.54,56.28 95.54,58.936 C95.54,61.592 97.012,63.224 99.396,63.224 Z M99.396,62.072 C97.924,62.072 97.012,60.872 97.012,58.936 C97.012,57 97.924,55.8 99.396,55.8 C100.884,55.8 101.796,57 101.796,58.936 C101.796,60.872 100.884,62.072 99.396,62.072 Z M106.413333,63 L106.413333,58.488 C106.413333,56.856 107.149333,55.848 108.349333,55.848 C109.389333,55.848 109.997333,56.6 109.997333,57.88 L109.997333,63 L111.405333,63 L111.405333,58.392 C111.405333,56.84 112.141333,55.848 113.325333,55.848 C114.365333,55.848 114.989333,56.456 114.989333,58.088 L114.989333,63 L116.397333,63 L116.397333,57.976 C116.397333,55.784 115.389333,54.696 113.661333,54.696 C112.461333,54.696 111.629333,55.256 111.085333,56.232 C110.653333,55.224 109.789333,54.696 108.669333,54.696 C107.725333,54.696 106.973333,55.096 106.397333,55.88 L106.365333,55.88 L106.365333,54.872 L105.005333,54.872 L105.005333,63 L106.413333,63 Z M121.910667,63.224 C124.294667,63.224 125.782667,61.592 125.782667,58.936 C125.782667,56.28 124.294667,54.648 121.910667,54.648 C119.526667,54.648 118.054667,56.28 118.054667,58.936 C118.054667,61.592 119.526667,63.224 121.910667,63.224 Z M121.910667,62.072 C120.438667,62.072 119.526667,60.872 119.526667,58.936 C119.526667,57 120.438667,55.8 121.910667,55.8 C123.398667,55.8 124.310667,57 124.310667,58.936 C124.310667,60.872 123.398667,62.072 121.910667,62.072 Z M128.928,63 L128.928,58.344 C128.928,56.712 129.888,55.848 131.04,55.848 C132.208,55.848 132.912,56.456 132.912,58.152 L132.912,63 L134.32,63 L134.32,58.04 C134.32,55.816 133.232,54.696 131.376,54.696 C130.288,54.696 129.408,55.192 128.912,55.944 L128.88,55.944 L128.88,54.872 L127.52,54.872 L127.52,63 L128.928,63 Z M139.801333,63.224 C141.881333,63.224 143.113333,61.992 143.385333,60.568 L141.945333,60.568 C141.753333,61.48 140.985333,62.136 139.801333,62.136 C138.473333,62.136 137.449333,61.224 137.385333,59.224 L143.465333,59.224 C143.465333,58.52 143.417333,57.944 143.305333,57.48 C142.889333,55.736 141.593333,54.648 139.753333,54.648 C137.385333,54.648 135.977333,56.424 135.977333,58.824 C135.977333,61.48 137.401333,63.224 139.801333,63.224 Z M142.073333,58.152 L137.401333,58.152 C137.545333,56.6 138.457333,55.736 139.753333,55.736 C141.001333,55.736 141.929333,56.568 142.073333,58.152 Z M144.914667,66.024 C146.658667,66.024 147.458667,65.448 148.258667,63.368 L151.522667,54.872 L150.034667,54.872 L147.666667,61.336 L147.634667,61.336 L145.298667,54.872 L143.778667,54.872 L146.866667,63.032 C146.338667,64.472 145.922667,64.856 144.850667,64.856 C144.594667,64.856 144.370667,64.824 144.178667,64.76 L144.178667,65.944 C144.386667,66.008 144.642667,66.024 144.914667,66.024 Z M152.508,65.304 L153.34,63 L153.34,61.128 L151.612,61.128 L151.612,63 L152.188,63 L151.58,65.304 L152.508,65.304 Z M165.822667,63 L165.822667,61.736 L159.998667,61.736 C160.014667,60.728 160.446667,60.024 162.606667,58.776 C164.334667,57.768 165.566667,56.888 165.566667,55 C165.566667,53.192 164.190667,51.992 162.126667,51.992 C159.982667,51.992 158.590667,53.24 158.510667,55.384 L160.014667,55.384 C160.094667,54.056 160.734667,53.272 162.110667,53.272 C163.294667,53.272 164.030667,53.992 164.030667,55.032 C164.030667,56.36 163.182667,56.952 161.550667,57.912 C158.878667,59.464 158.366667,60.632 158.366667,62.68 C158.366667,62.76 158.366667,62.888 158.382667,63 L165.822667,63 Z M170.952,63.224 C173.48,63.224 174.856,61.24 174.856,57.608 C174.856,53.976 173.48,51.992 170.952,51.992 C168.424,51.992 167.048,53.976 167.048,57.608 C167.048,61.24 168.424,63.224 170.952,63.224 Z M170.952,61.96 C169.416,61.96 168.584,60.44 168.584,57.608 C168.584,54.792 169.416,53.288 170.952,53.288 C172.504,53.288 173.336,54.792 173.336,57.608 C173.336,60.44 172.504,61.96 170.952,61.96 Z M180.833333,63 L180.833333,52.216 L179.585333,52.216 C179.377333,53.528 178.641333,54.024 176.961333,54.024 L176.961333,55.144 L179.377333,55.144 L179.377333,63 L180.833333,63 Z M188.186667,63.224 C190.730667,63.224 192.202667,61.128 192.202667,57.192 C192.202667,53.72 190.842667,51.992 188.394667,51.992 C186.202667,51.992 184.714667,53.496 184.714667,55.704 C184.714667,57.816 186.090667,59.24 188.122667,59.24 C189.274667,59.24 190.170667,58.744 190.778667,57.864 L190.810667,57.864 C190.746667,60.696 189.738667,61.944 188.234667,61.944 C187.178667,61.944 186.554667,61.352 186.362667,60.232 L184.858667,60.232 C185.034667,62.088 186.250667,63.224 188.186667,63.224 Z M188.378667,58.04 C187.082667,58.04 186.234667,57.08 186.234667,55.672 C186.234667,54.216 187.098667,53.272 188.394667,53.272 C189.722667,53.272 190.554667,54.2 190.554667,55.672 C190.554667,57.064 189.674667,58.04 188.378667,58.04 Z" id="Euromoney,2019" fill="#6F7981"></path>
                    <path d="M24,6.12 C23.07,8.01 21.42,9 19.59,9.72 C19.38,9.84 19.17,10.02 19.08,10.2 C18.42,11.7 17.73,13.29 17.07,14.79 C16.83,15.39 16.62,15.93 16.38,16.62 C17.16,15.63 17.85,14.79 18.57,13.98 C19.83,12.51 21.3,11.4 23.31,11.1 C25.38,10.74 27.39,10.92 29.43,11.46 C29.46,11.52 29.52,11.52 29.61,11.58 C29.13,12.33 28.68,13.11 28.17,13.8 C27.12,15.15 25.86,16.26 24.18,16.86 C21.78,17.61 19.32,17.79 16.86,17.37 C16.62,17.31 16.41,17.28 16.17,17.22 C14.94,20.79 13.98,24.3 13.35,27.93 C13.8,27.24 14.22,26.46 14.64,25.77 C15.72,24 17.01,22.59 19.02,21.9 C20.58,21.36 22.14,21.15 23.76,21.15 C24.3,21.15 24.81,21.21 25.44,21.21 C25.11,21.9 24.9,22.53 24.66,23.13 C23.88,24.78 22.92,26.22 21.36,27.18 C19.5,28.41 17.4,28.98 15.21,29.22 C14.52,29.28 13.77,29.34 13.05,29.4 C12.42,33.03 12.06,36.72 12,40.47 C12.09,40.35 12.12,40.17 12.18,39.99 C12.42,39.3 12.69,38.58 12.99,37.83 C13.8,35.67 15.21,34.02 17.37,33.03 C18.84,32.4 20.4,31.98 21.99,31.74 C22.26,31.74 22.53,31.68 22.83,31.62 C22.83,31.8 22.83,31.86 22.83,31.98 C22.74,32.31 22.68,32.73 22.59,33.15 C22.11,35.31 21.24,37.35 19.38,38.76 C17.4,40.35 15.15,41.34 12.69,41.88 C12.42,41.94 12.18,41.94 11.88,42 C11.82,45.81 12.12,49.56 12.78,53.31 C13.05,52.08 13.26,50.91 13.53,49.74 C13.92,48.09 14.7,46.62 15.99,45.51 C17.61,44.16 19.47,43.29 21.48,42.57 C21.69,42.57 21.9,42.45 22.26,42.39 C22.2,43.47 22.17,44.4 22.05,45.33 C21.84,47.04 21.36,48.6 20.25,49.89 C18.39,52.05 16.08,53.7 13.35,54.63 C13.26,54.63 13.17,54.69 13.05,54.75 C13.74,58.23 14.67,61.62 15.93,64.89 C15.99,64.29 15.93,63.72 15.96,63.12 C15.99,61.14 16.32,59.28 17.55,57.69 C18.57,56.4 19.8,55.35 21.12,54.54 C21.84,54.06 22.59,53.67 23.37,53.25 C23.46,53.58 23.52,53.88 23.58,54.12 C24,56.58 24,58.98 22.74,61.2 C21.69,63.03 20.28,64.56 18.57,65.85 C17.97,66.33 17.31,66.72 16.65,67.14 C17.88,70.29 19.26,73.35 20.94,76.29 C20.97,76.11 20.94,75.99 20.94,75.87 C20.85,75.03 20.73,74.16 20.67,73.35 C20.52,71.82 20.82,70.35 21.54,69 C22.41,67.41 23.58,66.06 24.96,64.89 C25.47,64.47 25.98,64.08 26.52,63.6 C27.24,65.37 27.69,67.05 27.72,68.82 C27.72,69.81 27.66,70.8 27.3,71.76 C26.28,74.34 24.72,76.62 22.56,78.51 C22.32,78.66 22.35,78.78 22.47,79.02 C23.88,81.36 25.41,83.58 27.06,85.77 C27.06,85.77 26.79,86.37 24.75,85.08 C24.3,84.36 23.82,83.7 23.37,82.95 C22.41,81.48 21.51,80.01 20.64,78.51 C20.43,78.15 20.25,78.03 19.83,78.15 C17.22,78.72 14.55,78.72 11.94,78.03 C10.05,77.55 8.58,76.38 7.32,74.97 C6.78,74.34 6.3,73.56 5.79,72.93 C5.73,72.81 5.73,72.75 5.67,72.63 C5.73,72.57 5.79,72.51 5.85,72.51 C7.95,71.82 10.08,71.46 12.3,71.64 C14.52,71.76 16.29,72.81 17.82,74.34 C18.18,74.7 18.48,75.03 18.9,75.33 C18.87,75.21 18.81,75.09 18.75,74.97 C17.37,72.24 16.14,69.36 15.12,66.42 C15.03,66.12 14.88,66.06 14.58,66.06 C11.97,66.24 9.45,65.79 7.02,64.74 C5.16,63.9 3.87,62.49 2.88,60.81 C2.4,60.03 2.07,59.16 1.59,58.23 C2.46,58.23 3.24,58.11 4.02,58.11 C5.55,58.05 7.05,58.17 8.52,58.59 C10.53,59.19 11.94,60.42 13.14,62.04 C13.41,62.37 13.65,62.73 13.89,63.09 C13.17,59.85 12.39,56.64 11.64,53.43 C10.44,53.13 9.18,52.89 7.95,52.5 C6.09,51.87 4.35,50.97 2.97,49.5 C1.77,48.21 0.54,45.39 0.39,43.65 C0.42,43.65 0.42,43.65 0.45,43.65 C3.06,43.71 5.55,44.19 7.8,45.57 C9.15,46.38 10.02,47.73 10.74,49.14 C10.92,49.44 11.07,49.74 11.28,50.07 C10.98,46.86 10.86,43.68 11.1,40.47 C9.48,39.99 8.01,39.36 6.63,38.49 C4.68,37.2 2.97,35.67 2.25,33.33 C1.86,32.1 1.62,30.81 1.59,29.52 C1.56,29.4 1.59,29.28 1.59,28.98 C2.76,29.4 3.81,29.67 4.89,30.03 C6.33,30.63 7.68,31.38 8.76,32.55 C9.72,33.57 10.23,34.8 10.65,36.06 C10.83,36.66 10.98,37.23 11.25,37.83 C11.28,37.65 11.28,37.59 11.31,37.41 C11.52,34.32 11.94,31.26 12.57,28.23 C12.63,27.93 12.6,27.69 12.27,27.57 C9.84,26.4 7.83,24.72 6.33,22.41 C5.28,20.85 5.04,19.08 5.07,17.22 C5.1,16.5 5.19,15.87 5.25,15.03 C6.18,15.51 7.02,15.87 7.8,16.32 C9.45,17.25 10.92,18.42 11.88,20.13 C12.63,21.42 12.81,22.89 12.96,24.36 C12.99,24.84 12.99,25.29 13.11,25.71 C13.14,25.59 13.17,25.47 13.23,25.35 C13.98,22.23 14.94,19.14 16.14,16.14 C16.26,15.84 16.26,15.66 15.96,15.51 C13.89,14.04 12.3,12.18 11.19,9.87 C10.29,8.04 10.29,6.18 10.68,4.29 C10.8,3.6 11.01,2.94 11.19,2.25 L11.22,2.22 C12.57,3.03 13.77,3.96 14.82,5.13 C16.44,6.84 17.31,8.82 17.1,11.28 C17.07,12.18 16.98,13.11 16.89,14.16 C16.98,14.04 17.01,13.98 17.04,13.86 C17.7,12.51 18.33,11.16 18.99,9.75 C19.05,9.57 19.08,9.39 19.05,9.21 C18.99,7.98 19.05,6.75 19.35,5.52 C19.62,4.62 19.98,3.66 20.67,2.97 C21.48,2.1 22.47,1.44 23.46,0.87 C24,0.51 24.54,0.27 25.11,-2.98427949e-13 C25.2,-2.98427949e-13 25.26,0.06 25.35,0.06 C25.32,0.51 25.23,0.93 25.23,1.38 C25.14,3.03 24.75,4.68 24,6.12 Z" id="Path" fill="#CDCDCD"></path>
                    <path d="M240,6.12 C240.93,8.01 242.58,9 244.41,9.72 C244.62,9.84 244.83,10.02 244.92,10.2 C245.61,11.73 246.27,13.32 246.93,14.82 C247.17,15.39 247.35,15.93 247.62,16.62 C246.84,15.63 246.15,14.79 245.46,13.98 C244.2,12.51 242.7,11.4 240.69,11.1 C238.65,10.77 236.61,10.95 234.6,11.46 C234.54,11.52 234.51,11.52 234.39,11.58 C234.9,12.33 235.35,13.11 235.83,13.8 C236.88,15.15 238.14,16.26 239.82,16.86 C242.22,17.61 244.68,17.79 247.14,17.4 C247.38,17.31 247.59,17.28 247.83,17.22 C249.09,20.79 250.02,24.3 250.68,27.93 C250.2,27.24 249.78,26.46 249.36,25.77 C248.31,24 246.99,22.59 244.98,21.9 C243.45,21.36 241.86,21.12 240.27,21.12 C239.76,21.12 239.22,21.18 238.59,21.18 C238.89,21.9 239.1,22.53 239.34,23.13 C240.12,24.78 241.08,26.22 242.64,27.18 C244.5,28.41 246.6,29.01 248.79,29.22 C249.48,29.28 250.23,29.34 250.95,29.4 C251.58,33.03 251.94,36.72 252.03,40.47 C251.91,40.35 251.88,40.17 251.82,39.99 C251.58,39.3 251.31,38.58 251.04,37.83 C250.2,35.67 248.79,34.02 246.66,33.03 C245.19,32.37 243.63,31.98 242.04,31.74 C241.77,31.74 241.5,31.68 241.2,31.62 C241.2,31.8 241.2,31.86 241.2,31.98 C241.26,32.31 241.32,32.73 241.41,33.15 C241.92,35.31 242.76,37.38 244.62,38.79 C246.57,40.38 248.85,41.37 251.34,41.91 C251.58,41.94 251.82,41.94 252.12,42 C252.18,45.81 251.88,49.56 251.22,53.31 C250.95,52.08 250.74,50.91 250.5,49.74 C250.11,48.09 249.3,46.62 248.01,45.51 C246.39,44.16 244.5,43.29 242.52,42.57 C242.31,42.57 242.1,42.45 241.77,42.39 C241.8,43.47 241.83,44.4 241.95,45.33 C242.16,47.04 242.64,48.6 243.75,49.89 C245.64,52.05 247.92,53.7 250.65,54.63 C250.74,54.63 250.83,54.69 250.95,54.75 C250.26,58.23 249.33,61.62 248.07,64.89 C248.01,64.29 248.07,63.72 248.04,63.12 C248.01,61.14 247.68,59.28 246.45,57.69 C245.43,56.4 244.23,55.35 242.85,54.54 C242.13,54.06 241.41,53.64 240.6,53.25 C240.51,53.58 240.48,53.88 240.42,54.12 C240,56.58 240,58.98 241.26,61.2 C242.31,63.03 243.75,64.56 245.43,65.85 C246.06,66.33 246.69,66.72 247.35,67.14 C246.12,70.29 244.71,73.35 243.03,76.26 C243.03,76.08 243.03,75.96 243.06,75.84 C243.15,75.03 243.27,74.13 243.36,73.32 C243.48,71.79 243.18,70.32 242.46,68.97 C241.59,67.41 240.42,66.06 239.04,64.89 C238.53,64.5 238.02,64.08 237.48,63.6 C236.73,65.37 236.31,67.08 236.25,68.82 C236.25,69.81 236.31,70.8 236.7,71.76 C237.72,74.34 239.28,76.62 241.44,78.51 C241.68,78.69 241.65,78.81 241.53,79.05 C240.12,81.36 238.59,83.58 236.94,85.77 C236.94,85.77 237.24,86.37 239.25,85.08 C239.73,84.39 240.21,83.73 240.66,82.98 C241.59,81.51 242.52,80.04 243.39,78.54 C243.57,78.15 243.75,78.03 244.17,78.15 C246.81,78.75 249.48,78.75 252.09,78.03 C253.95,77.55 255.45,76.38 256.68,74.97 C257.22,74.34 257.7,73.56 258.21,72.93 C258.24,72.81 258.3,72.75 258.36,72.63 C258.27,72.57 258.21,72.51 258.18,72.51 C256.08,71.82 253.92,71.46 251.73,71.64 C249.54,71.76 247.77,72.81 246.21,74.34 C245.85,74.7 245.52,75.03 245.1,75.33 C245.13,75.21 245.19,75.09 245.25,74.97 C246.63,72.21 247.86,69.33 248.91,66.42 C249,66.12 249.12,66.06 249.42,66.06 C252.03,66.24 254.58,65.76 256.98,64.71 C258.84,63.9 260.13,62.49 261.12,60.78 C261.6,60.03 261.96,59.16 262.41,58.23 C261.54,58.23 260.76,58.11 259.98,58.11 C258.48,58.05 256.98,58.17 255.51,58.56 C253.5,59.16 252.09,60.39 250.89,62.01 C250.59,62.37 250.35,62.73 250.11,63.09 C250.86,59.88 251.61,56.64 252.36,53.43 C253.56,53.13 254.85,52.89 256.05,52.5 C257.91,51.87 259.65,50.97 261.03,49.5 C262.23,48.21 263.46,45.39 263.61,43.65 C263.58,43.65 263.58,43.65 263.55,43.65 C260.97,43.68 258.48,44.16 256.23,45.57 C254.85,46.38 253.98,47.73 253.26,49.14 C253.08,49.44 252.93,49.74 252.72,50.07 C253.02,46.86 253.14,43.68 252.9,40.47 C254.52,39.99 255.99,39.36 257.34,38.49 C259.32,37.2 261.03,35.67 261.75,33.33 C262.14,32.1 262.38,30.81 262.41,29.52 C262.44,29.4 262.41,29.28 262.41,28.98 C261.27,29.4 260.16,29.7 259.11,30.03 C257.67,30.63 256.35,31.38 255.24,32.55 C254.28,33.57 253.77,34.8 253.35,36.06 C253.17,36.66 253.02,37.26 252.78,37.83 C252.78,37.65 252.75,37.59 252.75,37.41 C252.48,34.32 252.06,31.26 251.43,28.23 C251.37,27.93 251.4,27.69 251.76,27.57 C254.19,26.4 256.17,24.69 257.67,22.41 C258.72,20.82 258.96,19.08 258.93,17.19 C258.93,16.5 258.84,15.84 258.75,15.03 C257.85,15.51 256.98,15.87 256.23,16.32 C254.55,17.28 253.08,18.45 252.12,20.13 C251.37,21.42 251.19,22.89 251.07,24.36 C251.01,24.81 251.01,25.29 250.89,25.71 C250.86,25.59 250.83,25.47 250.8,25.35 C250.02,22.26 249.09,19.14 247.89,16.14 C247.77,15.84 247.77,15.66 248.04,15.51 C250.11,14.04 251.67,12.18 252.81,9.87 C253.71,8.04 253.71,6.18 253.32,4.29 C253.2,3.6 253.02,2.97 252.84,2.28 L252.78,2.22 C251.46,3.03 250.23,3.96 249.18,5.13 C247.56,6.84 246.69,8.82 246.87,11.28 C246.93,12.15 247.02,13.11 247.08,14.16 C247.02,14.04 246.99,13.98 246.96,13.86 C246.3,12.51 245.64,11.16 244.98,9.78 C244.92,9.6 244.92,9.42 244.92,9.24 C244.98,8.01 244.95,6.78 244.62,5.55 C244.38,4.62 244.02,3.66 243.33,2.97 C242.52,2.1 241.56,1.44 240.54,0.87 C240,0.51 239.46,0.27 238.89,-2.98427949e-13 C238.8,-2.98427949e-13 238.74,0.06 238.65,0.06 C238.68,0.51 238.77,0.93 238.8,1.38 C238.86,3.03 239.25,4.68 240,6.12 Z" id="Path" fill="#CDCDCD"></path>
                </g>
            </g>
        </g>
    </g>
</svg>