<?xml version="1.0" encoding="UTF-8"?>
<svg width="309px" height="86px" viewBox="0 0 309 86" version="1.1" xmlns="http://www.w3.org/2000/svg" xmlns:xlink="http://www.w3.org/1999/xlink">
    <!-- Generator: Sketch 61.2 (89653) - https://sketch.com -->
    <title>Group 8 Copy 2</title>
    <desc>Created with Sketch.</desc>
    <g id="Page-1" stroke="none" stroke-width="1" fill="none" fill-rule="evenodd">
        <g id="Landing" transform="translate(-194.000000, -4320.000000)" fill-rule="nonzero">
            <g id="awards" transform="translate(194.000000, 4320.000000)">
                <g id="Group-8-Copy-2">
                    <path d="M69.6,36.6 C70.84,36.16 72.16,34.96 72.16,33.06 C72.16,30.92 70.18,29.68 68.18,29.46 L68.18,29.38 C70.04,29.02 71.34,27.9 71.34,26.16 C71.34,24.58 70.34,23.52 68.94,23.02 C68.06,22.7 67.12,22.6 66.08,22.6 L58.66,22.6 L58.66,22.8 C59.38,22.88 59.78,22.98 60.18,23.4 C60.5,23.74 60.56,24.9 60.58,25.84 C60.6,27.44 60.6,28.14 60.6,29.74 C60.6,31.2 60.58,33.14 60.56,33.88 C60.54,34.74 60.46,35.72 60.2,36.04 C59.84,36.46 59.1,36.7 58.44,36.8 L58.44,37 L65.98,37 C67.16,37 68.56,36.98 69.6,36.6 Z M63.58,29.48 C63.58,29.24 63.56,26.28 63.62,24.42 C63.66,23.44 63.66,23.38 63.72,23.04 C63.92,22.96 64.32,22.9 64.8,22.9 C65.58,22.9 66.22,23.04 66.72,23.3 C67.6,23.74 68.2,24.84 68.2,26.16 C68.2,27.98 67.2,29.32 65.16,29.46 C64.84,29.48 64.34,29.48 63.58,29.48 Z M65.28,36.7 C64.48,36.7 64.12,36.48 63.92,36.18 C63.64,35.76 63.62,35.12 63.6,34.12 C63.58,33.24 63.58,31.5 63.58,29.78 L65.26,29.78 C65.9,29.78 66.34,29.84 66.86,30.02 C68.1,30.48 68.98,31.76 68.98,33.28 C68.98,34.62 68.44,35.62 67.48,36.2 C66.74,36.64 65.94,36.7 65.28,36.7 Z M77.9716667,37.1 C80.5716667,37.1 81.7116667,34.92 81.9716667,33.68 L81.7716667,33.64 C81.4516667,34.64 80.1716667,35.28 78.9716667,35.28 C76.9116667,35.28 75.6516667,33.52 75.6516667,31.2 C75.6516667,31.02 75.6516667,30.82 75.6716667,30.6 L81.7516667,30.6 C81.6116667,28.3 79.8916667,27.26 77.6916667,27.26 C74.8716667,27.26 73.1916667,29.7 73.1916667,31.96 C73.1916667,34.78 74.9716667,37.1 77.9716667,37.1 Z M75.6916667,30.32 C75.7316667,29.58 76.3716667,27.6 77.5316667,27.6 C78.4516667,27.6 78.9516667,28.52 78.9516667,29.38 C78.9516667,29.72 78.8716667,29.92 78.6916667,30.1 C78.4916667,30.2 78.1916667,30.24 78.0316667,30.24 C77.0316667,30.28 76.6316667,30.32 75.6916667,30.32 Z M85.4433333,37.12 C87.5033333,37.12 89.5433333,36.16 89.5433333,33.98 C89.5433333,32.58 88.6633333,31.58 87.3633333,31.18 C86.9833333,31.06 86.0833333,30.84 85.5233333,30.68 C84.6833333,30.44 84.0833333,30.1 84.0833333,29.14 C84.0833333,28.2 84.8033333,27.54 85.7033333,27.54 C86.9033333,27.54 88.1633333,29.32 88.8433333,30.76 L89.0033333,30.72 L88.7633333,27.84 C88.0033333,27.54 86.9233333,27.26 85.6633333,27.26 C83.8833333,27.26 82.0433333,28.38 82.0433333,30.18 C82.0433333,31.46 82.7433333,32.46 83.7633333,32.84 C84.2833333,33.02 85.1633333,33.26 85.7233333,33.42 C86.5833333,33.66 87.1833333,34.02 87.1833333,34.84 C87.1833333,36.26 86.2233333,36.84 85.2433333,36.84 C83.8633333,36.84 82.6033333,34.58 82.1033333,33.36 L81.9433333,33.36 L81.9433333,36.4 C82.8233333,36.8 84.0433333,37.12 85.4433333,37.12 Z M93.415,37.14 C95.295,37.14 96.295,35.7 96.595,34.88 L96.475,34.82 C96.195,35.22 95.555,35.62 94.775,35.62 C93.835,35.62 93.335,35.04 93.335,33.68 L93.335,28.68 L96.215,28.68 L96.835,27.46 L93.295,27.46 L93.295,25.32 L93.135,25.32 L89.435,28.46 L89.435,28.68 L90.935,28.68 C90.935,30.42 90.855,32.9 90.855,35.4 C90.855,36.26 92.135,37.14 93.415,37.14 Z M111.578333,36.6 C112.818333,36.16 114.138333,34.96 114.138333,33.06 C114.138333,30.92 112.158333,29.68 110.158333,29.46 L110.158333,29.38 C112.018333,29.02 113.318333,27.9 113.318333,26.16 C113.318333,24.58 112.318333,23.52 110.918333,23.02 C110.038333,22.7 109.098333,22.6 108.058333,22.6 L100.638333,22.6 L100.638333,22.8 C101.358333,22.88 101.758333,22.98 102.158333,23.4 C102.478333,23.74 102.538333,24.9 102.558333,25.84 C102.574697,27.1490909 102.577672,27.8557025 102.578213,28.94571 L102.578333,29.74 C102.578333,31.2 102.558333,33.14 102.538333,33.88 C102.518333,34.74 102.438333,35.72 102.178333,36.04 C101.818333,36.46 101.078333,36.7 100.418333,36.8 L100.418333,37 L107.958333,37 C109.138333,37 110.538333,36.98 111.578333,36.6 Z M105.558333,29.48 L105.558064,29.3883309 C105.555884,28.8227551 105.542619,26.1471429 105.598333,24.42 C105.638333,23.44 105.638333,23.38 105.698333,23.04 C105.898333,22.96 106.298333,22.9 106.778333,22.9 C107.558333,22.9 108.198333,23.04 108.698333,23.3 C109.578333,23.74 110.178333,24.84 110.178333,26.16 C110.178333,27.98 109.178333,29.32 107.138333,29.46 C106.818333,29.48 106.318333,29.48 105.558333,29.48 Z M107.258333,36.7 C106.458333,36.7 106.098333,36.48 105.898333,36.18 C105.618333,35.76 105.598333,35.12 105.578333,34.12 C105.558333,33.24 105.558333,31.5 105.558333,29.78 L107.238333,29.78 C107.878333,29.78 108.318333,29.84 108.838333,30.02 C110.078333,30.48 110.958333,31.76 110.958333,33.28 C110.958333,34.62 110.418333,35.62 109.458333,36.2 C108.718333,36.64 107.918333,36.7 107.258333,36.7 Z M121.97,37.1 C123.35,37.1 124.29,35.72 124.35,34.7 L124.21,34.7 C124.11,35.1 123.87,35.46 123.25,35.46 C122.73,35.46 122.25,35.16 122.25,33.96 C122.25,32.14 122.31,31.66 122.31,29.76 C122.31,29.3 122.29,28.76 122.19,28.58 C121.71,27.62 121.05,27.32 120.13,27.26 C119.37,27.3 117.33,28.14 116.07,28.9 C115.41,29.3 114.93,29.7 114.93,30.48 C114.93,31.02 115.49,31.42 116.07,31.42 C116.71,31.42 117.43,31.02 117.43,30.64 L117.43,29.1 C117.43,28.76 117.53,28.3 118.35,28.18 C119.11,28.28 119.73,28.94 119.85,29.72 L119.85,31.24 C119.29,31.58 118.43,31.98 116.63,32.98 C115.73,33.48 115.05,34.32 115.05,35.1 C115.05,36.48 116.05,37.1 117.03,37.1 C118.51,37.1 119.43,36.18 119.85,35.18 L119.89,35.2 C119.97,36.44 120.93,37.1 121.97,37.1 Z M118.61,35.42 C118.03,35.42 117.49,34.88 117.49,34.22 C117.49,32.58 119.01,32.16 119.85,31.52 L119.85,34.58 C119.85,34.78 119.83,34.92 119.73,35.08 C119.61,35.3 118.99,35.42 118.61,35.42 Z M128.621667,37 L128.621667,36.8 C128.081667,36.72 127.621667,36.64 127.521667,36.12 L127.521667,29.64 C127.941667,29.18 128.481667,28.94 129.101667,28.94 C130.301667,28.94 130.721667,30.06 130.721667,31.36 L130.721667,36.08 C130.721667,36.5 130.241667,36.74 129.521667,36.78 L129.521667,37 L134.441667,37 L134.441667,36.82 C133.981667,36.76 133.201667,36.54 133.201667,36.14 L133.201667,30.34 C133.201667,28.54 132.381667,27.26 130.801667,27.26 C129.281667,27.26 128.181667,28.52 127.541667,29.46 L127.501667,29.42 L127.501667,27.24 L127.381667,27.24 L123.921667,28.6 L123.921667,28.72 C124.241667,28.86 124.621667,29.04 124.861667,29.18 C125.041667,29.3 125.061667,29.4 125.061667,29.6 L125.061667,36 C125.061667,36.42 124.541667,36.74 123.921667,36.8 L123.921667,37 L128.621667,37 Z M139.193333,37 L139.193333,36.8 C138.653333,36.72 138.113333,36.58 138.113333,36.08 L138.113333,32.24 L138.173333,32.24 C138.273333,32.24 138.393333,32.28 138.593333,32.62 C139.713333,34.56 140.613333,36.1 140.613333,36.32 C140.613333,36.56 140.213333,36.78 139.693333,36.8 L139.693333,37 L145.233333,37 L145.233333,36.8 C144.893333,36.78 144.253333,36.58 144.033333,36.48 C143.713333,36.26 143.373333,35.94 142.973333,35.3 C142.273333,34.16 141.333333,32.48 140.293333,30.66 C140.933333,30.02 141.413333,29.54 142.133333,28.86 C143.013333,28.04 144.913333,27.68 145.093333,27.66 L145.093333,27.46 L140.193333,27.46 L140.193333,27.66 C140.853333,27.7 141.733333,28.12 141.733333,28.36 C141.733333,28.74 140.053333,30.64 138.373333,31.96 L138.113333,32 L138.113333,22.54 L137.953333,22.54 L134.453333,24.16 L134.453333,24.28 C134.793333,24.46 135.293333,24.68 135.473333,24.82 C135.653333,24.96 135.653333,25.08 135.653333,25.26 L135.653333,36 C135.653333,36.5 135.073333,36.74 134.453333,36.8 L134.453333,37 L139.193333,37 Z M150.716667,25.98 C151.496667,25.98 152.156667,25.32 152.156667,24.54 C152.156667,23.72 151.516667,23.12 150.716667,23.12 C149.916667,23.12 149.276667,23.72 149.276667,24.54 C149.276667,25.3 149.956667,25.98 150.716667,25.98 Z M153.316667,37 L153.316667,36.8 C152.816667,36.76 152.036667,36.56 152.036667,36.06 L152.036667,27.24 L151.916667,27.24 L148.376667,28.54 L148.376667,28.66 C148.756667,28.78 149.136667,28.96 149.376667,29.12 C149.556667,29.24 149.576667,29.42 149.576667,29.62 L149.576667,36 C149.576667,36.5 148.836667,36.74 148.216667,36.8 L148.216667,37 L153.316667,37 Z M158.328333,37 L158.328333,36.8 C157.788333,36.72 157.328333,36.64 157.228333,36.12 L157.228333,29.64 C157.648333,29.18 158.188333,28.94 158.808333,28.94 C160.008333,28.94 160.428333,30.06 160.428333,31.36 L160.428333,36.08 C160.428333,36.5 159.948333,36.74 159.228333,36.78 L159.228333,37 L164.148333,37 L164.148333,36.82 C163.688333,36.76 162.908333,36.54 162.908333,36.14 L162.908333,30.34 C162.908333,28.54 162.088333,27.26 160.508333,27.26 C158.988333,27.26 157.888333,28.52 157.248333,29.46 L157.208333,29.42 L157.208333,27.24 L157.088333,27.24 L153.628333,28.6 L153.628333,28.72 C153.948333,28.86 154.328333,29.04 154.568333,29.18 C154.748333,29.3 154.768333,29.4 154.768333,29.6 L154.768333,36 C154.768333,36.42 154.248333,36.74 153.628333,36.8 L153.628333,37 L158.328333,37 Z M171.871667,37.14 C173.751667,37.14 174.751667,35.7 175.051667,34.88 L174.931667,34.82 C174.651667,35.22 174.011667,35.62 173.231667,35.62 C172.291667,35.62 171.791667,35.04 171.791667,33.68 L171.791667,28.68 L174.671667,28.68 L175.291667,27.46 L171.751667,27.46 L171.751667,25.32 L171.591667,25.32 L167.891667,28.46 L167.891667,28.68 L169.391667,28.68 C169.391667,30.42 169.311667,32.9 169.311667,35.4 C169.311667,36.26 170.591667,37.14 171.871667,37.14 Z M179.523333,37 L179.523333,36.8 C178.983333,36.72 178.383333,36.58 178.383333,36.08 L178.383333,30.08 C178.383333,29.86 178.423333,29.62 178.483333,29.54 C178.723333,29.18 179.203333,28.86 180.043333,28.86 C181.243333,28.86 181.643333,29.96 181.643333,31.36 L181.643333,36.08 C181.643333,36.5 181.083333,36.74 180.363333,36.78 L180.363333,37 L185.323333,37 L185.323333,36.82 C184.863333,36.76 184.123333,36.54 184.123333,36.14 L184.123333,30.32 C184.123333,28.56 183.563333,27.26 181.803333,27.26 C179.903333,27.26 178.743333,28.76 178.383333,29.42 L178.343333,29.4 L178.403333,22.48 L178.243333,22.48 L174.723333,24.06 L174.723333,24.18 C175.063333,24.38 175.503333,24.56 175.723333,24.74 C175.903333,24.88 175.923333,24.96 175.923333,25.16 L175.923333,36 C175.923333,36.5 175.323333,36.74 174.703333,36.8 L174.703333,37 L179.523333,37 Z M190.135,37.1 C192.735,37.1 193.875,34.92 194.135,33.68 L193.935,33.64 C193.615,34.64 192.335,35.28 191.135,35.28 C189.075,35.28 187.815,33.52 187.815,31.2 C187.815,31.02 187.815,30.82 187.835,30.6 L193.915,30.6 C193.775,28.3 192.055,27.26 189.855,27.26 C187.035,27.26 185.355,29.7 185.355,31.96 C185.355,34.78 187.135,37.1 190.135,37.1 Z M187.855,30.32 C187.895,29.58 188.535,27.6 189.695,27.6 C190.615,27.6 191.115,28.52 191.115,29.38 C191.115,29.72 191.035,29.92 190.855,30.1 C190.655,30.2 190.355,30.24 190.195,30.24 C189.195,30.28 188.795,30.32 187.855,30.32 Z M204.498333,37.1 L205.378333,35.1 C206.198333,32.84 207.118333,30.1 207.938333,27.78 C209.058333,30.6 210.118333,33.38 211.558333,37.1 L211.938333,37.1 L212.818333,35.14 C213.958333,32.08 215.458333,28.2 216.438333,25.58 C217.018333,24.02 217.518333,23.56 217.698333,23.38 C217.778333,23.28 218.318333,22.88 218.978333,22.8 L218.978333,22.6 L214.578333,22.6 L214.578333,22.8 C215.238333,22.88 216.258333,23.12 216.258333,23.9 C216.258333,24.16 216.258333,24.64 215.838333,25.86 C215.038333,28.22 213.718333,31.72 213.158333,33.2 C212.218333,30.84 209.578333,24.3 209.578333,23.82 C209.578333,23 211.078333,22.84 211.398333,22.8 L211.398333,22.6 L204.278333,22.6 L204.278333,22.82 C205.578333,22.86 206.058333,23.52 206.278333,23.92 C206.698333,24.72 207.258333,26.06 207.718333,27.2 C206.898333,29.7 206.098333,31.98 205.678333,33.16 C204.478333,30.3 201.918333,24.38 201.918333,23.82 C201.918333,22.92 203.098333,22.82 203.358333,22.8 L203.358333,22.6 L196.818333,22.6 L196.818333,22.82 C197.978333,22.86 198.418333,23.62 198.578333,23.92 C198.918333,24.58 199.098333,25.02 199.518333,26.02 C200.898333,29.4 202.318333,32.7 204.098333,37.1 L204.498333,37.1 Z M221.45,37.14 C224.23,37.14 226.35,34.96 226.35,32.18 C226.35,28.86 223.77,27.26 221.49,27.26 C218.47,27.26 216.53,29.6 216.53,32.18 C216.53,35.56 219.29,37.14 221.45,37.14 Z M221.51,36.82 C219.83,36.82 219.23,34.5 219.23,32.2 C219.23,29.86 219.99,27.58 221.39,27.58 C223.11,27.58 223.65,30.24 223.65,32.16 C223.65,34.02 223.11,36.82 221.51,36.82 Z M232.061667,37 L232.061667,36.8 C231.521667,36.72 230.541667,36.62 230.361667,36.12 L230.361667,30.44 C230.641667,29.68 231.261667,29.14 231.841667,29.14 C232.201667,29.14 232.141667,29.92 233.321667,29.92 C233.781667,29.92 234.341667,29.42 234.341667,28.62 C234.341667,27.84 233.801667,27.26 233.101667,27.26 C231.381667,27.26 230.621667,29.4 230.341667,30.04 L230.301667,30.04 L230.341667,27.24 L230.221667,27.24 L226.761667,28.68 L226.761667,28.8 C227.081667,28.94 227.461667,29.16 227.701667,29.3 C227.881667,29.42 227.901667,29.52 227.901667,29.72 L227.901667,36 C227.901667,36.42 227.381667,36.74 226.761667,36.8 L226.761667,37 L232.061667,37 Z M238.733333,37 L238.733333,36.78 C237.713333,36.68 237.253333,36.6 237.253333,36.06 L237.253333,22.54 L237.113333,22.54 L233.413333,23.88 L233.413333,24 C233.733333,24.14 234.353333,24.48 234.593333,24.62 C234.773333,24.74 234.793333,24.84 234.793333,25.04 L234.793333,35.96 C234.793333,36.38 234.493333,36.7 233.273333,36.78 L233.273333,37 L238.733333,37 Z M245.785,37.14 L249.545,35.94 L249.545,35.8 C249.045,35.6 248.325,35.26 248.125,35.14 L248.125,22.48 L247.965,22.48 L243.985,23.8 L243.985,23.92 L245.625,24.58 L245.665,27.6 C245.085,27.42 244.405,27.26 243.605,27.26 C240.665,27.26 238.705,29.48 238.705,32.26 C238.705,35.36 240.545,37.1 242.445,37.1 C243.965,37.1 244.925,36.38 245.645,35.06 L245.665,35.1 L245.665,37.14 L245.785,37.14 Z M243.885,35.88 C242.225,35.88 241.385,33.92 241.385,31.9 C241.385,29.74 242.005,27.62 243.685,27.62 C244.345,27.62 245.205,28.76 245.645,29.86 L245.645,34.34 C245.485,35.4 244.705,35.88 243.885,35.88 Z" id="BestBankintheWorld" fill="#172633"></path>
                    <path d="M85.44,63.208 C87.056,63.208 88.416,62.52 89.024,61.432 L89.056,61.432 L89.056,63 L90.368,63 L90.368,56.952 L85.824,56.952 L85.824,58.216 L88.96,58.216 C88.944,60.888 87.584,61.944 85.728,61.944 C83.552,61.944 82.224,60.216 82.224,57.336 C82.224,54.472 83.6,52.728 85.84,52.728 C87.488,52.728 88.544,53.576 88.8,55.032 L90.368,55.032 C90.16,52.808 88.448,51.384 85.84,51.384 C82.656,51.384 80.688,53.64 80.688,57.336 C80.688,60.984 82.528,63.208 85.44,63.208 Z M94.1853333,63 L94.1853333,51.608 L92.7773333,51.608 L92.7773333,63 L94.1853333,63 Z M99.7786667,63.224 C102.162667,63.224 103.650667,61.592 103.650667,58.936 C103.650667,56.28 102.162667,54.648 99.7786667,54.648 C97.3946667,54.648 95.9226667,56.28 95.9226667,58.936 C95.9226667,61.592 97.3946667,63.224 99.7786667,63.224 Z M99.7786667,62.072 C98.3066667,62.072 97.3946667,60.872 97.3946667,58.936 C97.3946667,57 98.3066667,55.8 99.7786667,55.8 C101.266667,55.8 102.178667,57 102.178667,58.936 C102.178667,60.872 101.266667,62.072 99.7786667,62.072 Z M109.292,63.192 C111.372,63.192 112.7,61.512 112.7,58.92 C112.7,56.328 111.372,54.664 109.308,54.664 C108.22,54.664 107.276,55.176 106.828,55.992 L106.796,55.992 L106.796,51.608 L105.388,51.608 L105.388,63 L106.78,63 L106.78,61.816 L106.812,61.816 C107.244,62.664 108.204,63.192 109.292,63.192 Z M108.94,62.056 C107.596,62.056 106.732,60.856 106.732,58.92 C106.732,57 107.596,55.8 108.94,55.8 C110.332,55.8 111.228,57.016 111.228,58.92 C111.228,60.824 110.332,62.056 108.94,62.056 Z M116.485333,63.176 C117.797333,63.176 118.741333,62.68 119.301333,61.816 L119.333333,61.816 C119.333333,62.184 119.365333,62.632 119.445333,63 L120.725333,63 C120.613333,62.504 120.533333,61.816 120.533333,60.92 L120.533333,57.8 C120.533333,55.656 119.317333,54.648 117.333333,54.648 C115.269333,54.648 114.149333,55.816 114.069333,57.352 L115.477333,57.352 C115.525333,56.392 116.149333,55.736 117.333333,55.736 C118.421333,55.736 119.173333,56.296 119.173333,57.64 L119.173333,57.96 C118.533333,58.008 117.541333,58.12 116.821333,58.232 C114.485333,58.6 113.733333,59.448 113.733333,60.792 C113.733333,62.168 114.789333,63.176 116.485333,63.176 Z M116.837333,62.088 C115.781333,62.088 115.173333,61.528 115.173333,60.696 C115.173333,59.896 115.653333,59.496 117.045333,59.288 C117.669333,59.176 118.549333,59.08 119.173333,59.032 L119.173333,59.528 C119.173333,60.488 119.013333,60.936 118.517333,61.448 C118.117333,61.864 117.493333,62.088 116.837333,62.088 Z M124.174667,63 L124.174667,51.608 L122.766667,51.608 L122.766667,63 L124.174667,63 Z M131.761333,63 L131.761333,58.12 L137.073333,58.12 L137.073333,56.808 L131.761333,56.808 L131.761333,52.92 L137.425333,52.92 L137.425333,51.608 L130.289333,51.608 L130.289333,63 L131.761333,63 Z M140.426667,53.192 L140.426667,51.608 L139.018667,51.608 L139.018667,53.192 L140.426667,53.192 Z M140.426667,63 L140.426667,54.872 L139.018667,54.872 L139.018667,63 L140.426667,63 Z M144.164,63 L144.164,58.344 C144.164,56.712 145.124,55.848 146.276,55.848 C147.444,55.848 148.148,56.456 148.148,58.152 L148.148,63 L149.556,63 L149.556,58.04 C149.556,55.816 148.468,54.696 146.612,54.696 C145.524,54.696 144.644,55.192 144.148,55.944 L144.116,55.944 L144.116,54.872 L142.756,54.872 L142.756,63 L144.164,63 Z M153.853333,63.176 C155.165333,63.176 156.109333,62.68 156.669333,61.816 L156.701333,61.816 C156.701333,62.184 156.733333,62.632 156.813333,63 L158.093333,63 C157.981333,62.504 157.901333,61.816 157.901333,60.92 L157.901333,57.8 C157.901333,55.656 156.685333,54.648 154.701333,54.648 C152.637333,54.648 151.517333,55.816 151.437333,57.352 L152.845333,57.352 C152.893333,56.392 153.517333,55.736 154.701333,55.736 C155.789333,55.736 156.541333,56.296 156.541333,57.64 L156.541333,57.96 C155.901333,58.008 154.909333,58.12 154.189333,58.232 C151.853333,58.6 151.101333,59.448 151.101333,60.792 C151.101333,62.168 152.157333,63.176 153.853333,63.176 Z M154.205333,62.088 C153.149333,62.088 152.541333,61.528 152.541333,60.696 C152.541333,59.896 153.021333,59.496 154.413333,59.288 C155.037333,59.176 155.917333,59.08 156.541333,59.032 L156.541333,59.528 C156.541333,60.488 156.381333,60.936 155.885333,61.448 C155.485333,61.864 154.861333,62.088 154.205333,62.088 Z M161.542667,63 L161.542667,58.344 C161.542667,56.712 162.502667,55.848 163.654667,55.848 C164.822667,55.848 165.526667,56.456 165.526667,58.152 L165.526667,63 L166.934667,63 L166.934667,58.04 C166.934667,55.816 165.846667,54.696 163.990667,54.696 C162.902667,54.696 162.022667,55.192 161.526667,55.944 L161.494667,55.944 L161.494667,54.872 L160.134667,54.872 L160.134667,63 L161.542667,63 Z M172.416,63.224 C174.4,63.224 175.728,61.864 175.888,60.008 L174.416,60.008 C174.32,61.176 173.52,62.072 172.4,62.072 C170.96,62.072 170.08,60.888 170.08,58.936 C170.08,57 170.96,55.8 172.4,55.8 C173.52,55.8 174.32,56.6 174.416,57.752 L175.888,57.752 C175.728,55.928 174.368,54.648 172.416,54.648 C170.064,54.648 168.592,56.296 168.592,58.936 C168.592,61.576 170.064,63.224 172.416,63.224 Z M180.889333,63.224 C182.969333,63.224 184.201333,61.992 184.473333,60.568 L183.033333,60.568 C182.841333,61.48 182.073333,62.136 180.889333,62.136 C179.561333,62.136 178.537333,61.224 178.473333,59.224 L184.553333,59.224 C184.553333,58.52 184.505333,57.944 184.393333,57.48 C183.977333,55.736 182.681333,54.648 180.841333,54.648 C178.473333,54.648 177.065333,56.424 177.065333,58.824 C177.065333,61.48 178.489333,63.224 180.889333,63.224 Z M183.161333,58.152 L178.489333,58.152 C178.633333,56.6 179.545333,55.736 180.841333,55.736 C182.089333,55.736 183.017333,56.568 183.161333,58.152 Z M186.882667,65.304 L187.714667,63 L187.714667,61.128 L185.986667,61.128 L185.986667,63 L186.562667,63 L185.954667,65.304 L186.882667,65.304 Z M200.197333,63 L200.197333,61.736 L194.373333,61.736 C194.389333,60.728 194.821333,60.024 196.981333,58.776 C198.709333,57.768 199.941333,56.888 199.941333,55 C199.941333,53.192 198.565333,51.992 196.501333,51.992 C194.357333,51.992 192.965333,53.24 192.885333,55.384 L194.389333,55.384 C194.469333,54.056 195.109333,53.272 196.485333,53.272 C197.669333,53.272 198.405333,53.992 198.405333,55.032 C198.405333,56.36 197.557333,56.952 195.925333,57.912 C193.253333,59.464 192.741333,60.632 192.741333,62.68 C192.741333,62.76 192.741333,62.888 192.757333,63 L200.197333,63 Z M205.326667,63.224 C207.854667,63.224 209.230667,61.24 209.230667,57.608 C209.230667,53.976 207.854667,51.992 205.326667,51.992 C202.798667,51.992 201.422667,53.976 201.422667,57.608 C201.422667,61.24 202.798667,63.224 205.326667,63.224 Z M205.326667,61.96 C203.790667,61.96 202.958667,60.44 202.958667,57.608 C202.958667,54.792 203.790667,53.288 205.326667,53.288 C206.878667,53.288 207.710667,54.792 207.710667,57.608 C207.710667,60.44 206.878667,61.96 205.326667,61.96 Z M215.208,63 L215.208,52.216 L213.96,52.216 C213.752,53.528 213.016,54.024 211.336,54.024 L211.336,55.144 L213.752,55.144 L213.752,63 L215.208,63 Z M222.977333,63.224 C225.217333,63.224 226.753333,61.976 226.753333,60.088 C226.753333,58.76 225.985333,57.832 224.657333,57.432 L224.657333,57.4 C225.809333,56.968 226.545333,56.12 226.545333,54.952 C226.545333,53.192 225.057333,51.992 222.977333,51.992 C220.913333,51.992 219.425333,53.192 219.425333,54.952 C219.425333,56.12 220.161333,56.968 221.297333,57.4 L221.297333,57.432 C219.985333,57.832 219.217333,58.76 219.217333,60.088 C219.217333,61.976 220.737333,63.224 222.977333,63.224 Z M222.977333,56.824 C221.697333,56.824 220.881333,56.12 220.881333,55 C220.881333,53.944 221.729333,53.256 222.977333,53.256 C224.225333,53.256 225.073333,53.944 225.073333,55 C225.073333,56.12 224.257333,56.824 222.977333,56.824 Z M222.977333,61.944 C221.617333,61.944 220.705333,61.176 220.705333,59.992 C220.705333,58.856 221.633333,58.072 222.977333,58.072 C224.321333,58.072 225.249333,58.856 225.249333,59.992 C225.249333,61.176 224.337333,61.944 222.977333,61.944 Z" id="GlobalFinance,2018" fill="#6F7981"></path>
                    <path d="M24,6.12 C23.07,8.01 21.42,9 19.59,9.72 C19.38,9.84 19.17,10.02 19.08,10.2 C18.42,11.7 17.73,13.29 17.07,14.79 C16.83,15.39 16.62,15.93 16.38,16.62 C17.16,15.63 17.85,14.79 18.57,13.98 C19.83,12.51 21.3,11.4 23.31,11.1 C25.38,10.74 27.39,10.92 29.43,11.46 C29.46,11.52 29.52,11.52 29.61,11.58 C29.13,12.33 28.68,13.11 28.17,13.8 C27.12,15.15 25.86,16.26 24.18,16.86 C21.78,17.61 19.32,17.79 16.86,17.37 C16.62,17.31 16.41,17.28 16.17,17.22 C14.94,20.79 13.98,24.3 13.35,27.93 C13.8,27.24 14.22,26.46 14.64,25.77 C15.72,24 17.01,22.59 19.02,21.9 C20.58,21.36 22.14,21.15 23.76,21.15 C24.3,21.15 24.81,21.21 25.44,21.21 C25.11,21.9 24.9,22.53 24.66,23.13 C23.88,24.78 22.92,26.22 21.36,27.18 C19.5,28.41 17.4,28.98 15.21,29.22 C14.52,29.28 13.77,29.34 13.05,29.4 C12.42,33.03 12.06,36.72 12,40.47 C12.09,40.35 12.12,40.17 12.18,39.99 C12.42,39.3 12.69,38.58 12.99,37.83 C13.8,35.67 15.21,34.02 17.37,33.03 C18.84,32.4 20.4,31.98 21.99,31.74 C22.26,31.74 22.53,31.68 22.83,31.62 C22.83,31.8 22.83,31.86 22.83,31.98 C22.74,32.31 22.68,32.73 22.59,33.15 C22.11,35.31 21.24,37.35 19.38,38.76 C17.4,40.35 15.15,41.34 12.69,41.88 C12.42,41.94 12.18,41.94 11.88,42 C11.82,45.81 12.12,49.56 12.78,53.31 C13.05,52.08 13.26,50.91 13.53,49.74 C13.92,48.09 14.7,46.62 15.99,45.51 C17.61,44.16 19.47,43.29 21.48,42.57 C21.69,42.57 21.9,42.45 22.26,42.39 C22.2,43.47 22.17,44.4 22.05,45.33 C21.84,47.04 21.36,48.6 20.25,49.89 C18.39,52.05 16.08,53.7 13.35,54.63 C13.26,54.63 13.17,54.69 13.05,54.75 C13.74,58.23 14.67,61.62 15.93,64.89 C15.99,64.29 15.93,63.72 15.96,63.12 C15.99,61.14 16.32,59.28 17.55,57.69 C18.57,56.4 19.8,55.35 21.12,54.54 C21.84,54.06 22.59,53.67 23.37,53.25 C23.46,53.58 23.52,53.88 23.58,54.12 C24,56.58 24,58.98 22.74,61.2 C21.69,63.03 20.28,64.56 18.57,65.85 C17.97,66.33 17.31,66.72 16.65,67.14 C17.88,70.29 19.26,73.35 20.94,76.29 C20.97,76.11 20.94,75.99 20.94,75.87 C20.85,75.03 20.73,74.16 20.67,73.35 C20.52,71.82 20.82,70.35 21.54,69 C22.41,67.41 23.58,66.06 24.96,64.89 C25.47,64.47 25.98,64.08 26.52,63.6 C27.24,65.37 27.69,67.05 27.72,68.82 C27.72,69.81 27.66,70.8 27.3,71.76 C26.28,74.34 24.72,76.62 22.56,78.51 C22.32,78.66 22.35,78.78 22.47,79.02 C23.88,81.36 25.41,83.58 27.06,85.77 C27.06,85.77 26.79,86.37 24.75,85.08 C24.3,84.36 23.82,83.7 23.37,82.95 C22.41,81.48 21.51,80.01 20.64,78.51 C20.43,78.15 20.25,78.03 19.83,78.15 C17.22,78.72 14.55,78.72 11.94,78.03 C10.05,77.55 8.58,76.38 7.32,74.97 C6.78,74.34 6.3,73.56 5.79,72.93 C5.73,72.81 5.73,72.75 5.67,72.63 C5.73,72.57 5.79,72.51 5.85,72.51 C7.95,71.82 10.08,71.46 12.3,71.64 C14.52,71.76 16.29,72.81 17.82,74.34 C18.18,74.7 18.48,75.03 18.9,75.33 C18.87,75.21 18.81,75.09 18.75,74.97 C17.37,72.24 16.14,69.36 15.12,66.42 C15.03,66.12 14.88,66.06 14.58,66.06 C11.97,66.24 9.45,65.79 7.02,64.74 C5.16,63.9 3.87,62.49 2.88,60.81 C2.4,60.03 2.07,59.16 1.59,58.23 C2.46,58.23 3.24,58.11 4.02,58.11 C5.55,58.05 7.05,58.17 8.52,58.59 C10.53,59.19 11.94,60.42 13.14,62.04 C13.41,62.37 13.65,62.73 13.89,63.09 C13.17,59.85 12.39,56.64 11.64,53.43 C10.44,53.13 9.18,52.89 7.95,52.5 C6.09,51.87 4.35,50.97 2.97,49.5 C1.77,48.21 0.54,45.39 0.39,43.65 C0.42,43.65 0.42,43.65 0.45,43.65 C3.06,43.71 5.55,44.19 7.8,45.57 C9.15,46.38 10.02,47.73 10.74,49.14 C10.92,49.44 11.07,49.74 11.28,50.07 C10.98,46.86 10.86,43.68 11.1,40.47 C9.48,39.99 8.01,39.36 6.63,38.49 C4.68,37.2 2.97,35.67 2.25,33.33 C1.86,32.1 1.62,30.81 1.59,29.52 C1.56,29.4 1.59,29.28 1.59,28.98 C2.76,29.4 3.81,29.67 4.89,30.03 C6.33,30.63 7.68,31.38 8.76,32.55 C9.72,33.57 10.23,34.8 10.65,36.06 C10.83,36.66 10.98,37.23 11.25,37.83 C11.28,37.65 11.28,37.59 11.31,37.41 C11.52,34.32 11.94,31.26 12.57,28.23 C12.63,27.93 12.6,27.69 12.27,27.57 C9.84,26.4 7.83,24.72 6.33,22.41 C5.28,20.85 5.04,19.08 5.07,17.22 C5.1,16.5 5.19,15.87 5.25,15.03 C6.18,15.51 7.02,15.87 7.8,16.32 C9.45,17.25 10.92,18.42 11.88,20.13 C12.63,21.42 12.81,22.89 12.96,24.36 C12.99,24.84 12.99,25.29 13.11,25.71 C13.14,25.59 13.17,25.47 13.23,25.35 C13.98,22.23 14.94,19.14 16.14,16.14 C16.26,15.84 16.26,15.66 15.96,15.51 C13.89,14.04 12.3,12.18 11.19,9.87 C10.29,8.04 10.29,6.18 10.68,4.29 C10.8,3.6 11.01,2.94 11.19,2.25 L11.22,2.22 C12.57,3.03 13.77,3.96 14.82,5.13 C16.44,6.84 17.31,8.82 17.1,11.28 C17.07,12.18 16.98,13.11 16.89,14.16 C16.98,14.04 17.01,13.98 17.04,13.86 C17.7,12.51 18.33,11.16 18.99,9.75 C19.05,9.57 19.08,9.39 19.05,9.21 C18.99,7.98 19.05,6.75 19.35,5.52 C19.62,4.62 19.98,3.66 20.67,2.97 C21.48,2.1 22.47,1.44 23.46,0.87 C24,0.51 24.54,0.27 25.11,-2.98427949e-13 C25.2,-2.98427949e-13 25.26,0.06 25.35,0.06 C25.32,0.51 25.23,0.93 25.23,1.38 C25.14,3.03 24.75,4.68 24,6.12 Z" id="Path" fill="#172633"></path>
                    <path d="M285,6.12 C285.93,8.01 287.58,9 289.41,9.72 C289.62,9.84 289.83,10.02 289.92,10.2 C290.61,11.73 291.27,13.32 291.93,14.82 C292.17,15.39 292.35,15.93 292.62,16.62 C291.84,15.63 291.15,14.79 290.46,13.98 C289.2,12.51 287.7,11.4 285.69,11.1 C283.65,10.77 281.61,10.95 279.6,11.46 C279.54,11.52 279.51,11.52 279.39,11.58 C279.9,12.33 280.35,13.11 280.83,13.8 C281.88,15.15 283.14,16.26 284.82,16.86 C287.22,17.61 289.68,17.79 292.14,17.4 C292.38,17.31 292.59,17.28 292.83,17.22 C294.09,20.79 295.02,24.3 295.68,27.93 C295.2,27.24 294.78,26.46 294.36,25.77 C293.31,24 291.99,22.59 289.98,21.9 C288.45,21.36 286.86,21.12 285.27,21.12 C284.76,21.12 284.22,21.18 283.59,21.18 C283.89,21.9 284.1,22.53 284.34,23.13 C285.12,24.78 286.08,26.22 287.64,27.18 C289.5,28.41 291.6,29.01 293.79,29.22 C294.48,29.28 295.23,29.34 295.95,29.4 C296.58,33.03 296.94,36.72 297.03,40.47 C296.91,40.35 296.88,40.17 296.82,39.99 C296.58,39.3 296.31,38.58 296.04,37.83 C295.2,35.67 293.79,34.02 291.66,33.03 C290.19,32.37 288.63,31.98 287.04,31.74 C286.77,31.74 286.5,31.68 286.2,31.62 C286.2,31.8 286.2,31.86 286.2,31.98 C286.26,32.31 286.32,32.73 286.41,33.15 C286.92,35.31 287.76,37.38 289.62,38.79 C291.57,40.38 293.85,41.37 296.34,41.91 C296.58,41.94 296.82,41.94 297.12,42 C297.18,45.81 296.88,49.56 296.22,53.31 C295.95,52.08 295.74,50.91 295.5,49.74 C295.11,48.09 294.3,46.62 293.01,45.51 C291.39,44.16 289.5,43.29 287.52,42.57 C287.31,42.57 287.1,42.45 286.77,42.39 C286.8,43.47 286.83,44.4 286.95,45.33 C287.16,47.04 287.64,48.6 288.75,49.89 C290.64,52.05 292.92,53.7 295.65,54.63 C295.74,54.63 295.83,54.69 295.95,54.75 C295.26,58.23 294.33,61.62 293.07,64.89 C293.01,64.29 293.07,63.72 293.04,63.12 C293.01,61.14 292.68,59.28 291.45,57.69 C290.43,56.4 289.23,55.35 287.85,54.54 C287.13,54.06 286.41,53.64 285.6,53.25 C285.51,53.58 285.48,53.88 285.42,54.12 C285,56.58 285,58.98 286.26,61.2 C287.31,63.03 288.75,64.56 290.43,65.85 C291.06,66.33 291.69,66.72 292.35,67.14 C291.12,70.29 289.71,73.35 288.03,76.26 C288.03,76.08 288.03,75.96 288.06,75.84 C288.15,75.03 288.27,74.13 288.36,73.32 C288.48,71.79 288.18,70.32 287.46,68.97 C286.59,67.41 285.42,66.06 284.04,64.89 C283.53,64.5 283.02,64.08 282.48,63.6 C281.73,65.37 281.31,67.08 281.25,68.82 C281.25,69.81 281.31,70.8 281.7,71.76 C282.72,74.34 284.28,76.62 286.44,78.51 C286.68,78.69 286.65,78.81 286.53,79.05 C285.12,81.36 283.59,83.58 281.94,85.77 C281.94,85.77 282.24,86.37 284.25,85.08 C284.73,84.39 285.21,83.73 285.66,82.98 C286.59,81.51 287.52,80.04 288.39,78.54 C288.57,78.15 288.75,78.03 289.17,78.15 C291.81,78.75 294.48,78.75 297.09,78.03 C298.95,77.55 300.45,76.38 301.68,74.97 C302.22,74.34 302.7,73.56 303.21,72.93 C303.24,72.81 303.3,72.75 303.36,72.63 C303.27,72.57 303.21,72.51 303.18,72.51 C301.08,71.82 298.92,71.46 296.73,71.64 C294.54,71.76 292.77,72.81 291.21,74.34 C290.85,74.7 290.52,75.03 290.1,75.33 C290.13,75.21 290.19,75.09 290.25,74.97 C291.63,72.21 292.86,69.33 293.91,66.42 C294,66.12 294.12,66.06 294.42,66.06 C297.03,66.24 299.58,65.76 301.98,64.71 C303.84,63.9 305.13,62.49 306.12,60.78 C306.6,60.03 306.96,59.16 307.41,58.23 C306.54,58.23 305.76,58.11 304.98,58.11 C303.48,58.05 301.98,58.17 300.51,58.56 C298.5,59.16 297.09,60.39 295.89,62.01 C295.59,62.37 295.35,62.73 295.11,63.09 C295.86,59.88 296.61,56.64 297.36,53.43 C298.56,53.13 299.85,52.89 301.05,52.5 C302.91,51.87 304.65,50.97 306.03,49.5 C307.23,48.21 308.46,45.39 308.61,43.65 C308.58,43.65 308.58,43.65 308.55,43.65 C305.97,43.68 303.48,44.16 301.23,45.57 C299.85,46.38 298.98,47.73 298.26,49.14 C298.08,49.44 297.93,49.74 297.72,50.07 C298.02,46.86 298.14,43.68 297.9,40.47 C299.52,39.99 300.99,39.36 302.34,38.49 C304.32,37.2 306.03,35.67 306.75,33.33 C307.14,32.1 307.38,30.81 307.41,29.52 C307.44,29.4 307.41,29.28 307.41,28.98 C306.27,29.4 305.16,29.7 304.11,30.03 C302.67,30.63 301.35,31.38 300.24,32.55 C299.28,33.57 298.77,34.8 298.35,36.06 C298.17,36.66 298.02,37.26 297.78,37.83 C297.78,37.65 297.75,37.59 297.75,37.41 C297.48,34.32 297.06,31.26 296.43,28.23 C296.37,27.93 296.4,27.69 296.76,27.57 C299.19,26.4 301.17,24.69 302.67,22.41 C303.72,20.82 303.96,19.08 303.93,17.19 C303.93,16.5 303.84,15.84 303.75,15.03 C302.85,15.51 301.98,15.87 301.23,16.32 C299.55,17.28 298.08,18.45 297.12,20.13 C296.37,21.42 296.19,22.89 296.07,24.36 C296.01,24.81 296.01,25.29 295.89,25.71 C295.86,25.59 295.83,25.47 295.8,25.35 C295.02,22.26 294.09,19.14 292.89,16.14 C292.77,15.84 292.77,15.66 293.04,15.51 C295.11,14.04 296.67,12.18 297.81,9.87 C298.71,8.04 298.71,6.18 298.32,4.29 C298.2,3.6 298.02,2.97 297.84,2.28 L297.78,2.22 C296.46,3.03 295.23,3.96 294.18,5.13 C292.56,6.84 291.69,8.82 291.87,11.28 C291.93,12.15 292.02,13.11 292.08,14.16 C292.02,14.04 291.99,13.98 291.96,13.86 C291.3,12.51 290.64,11.16 289.98,9.78 C289.92,9.6 289.92,9.42 289.92,9.24 C289.98,8.01 289.95,6.78 289.62,5.55 C289.38,4.62 289.02,3.66 288.33,2.97 C287.52,2.1 286.56,1.44 285.54,0.87 C285,0.51 284.46,0.27 283.89,-2.98427949e-13 C283.8,-2.98427949e-13 283.74,0.06 283.65,0.06 C283.68,0.51 283.77,0.93 283.8,1.38 C283.86,3.03 284.25,4.68 285,6.12 Z" id="Path" fill="#172633"></path>
                </g>
            </g>
        </g>
    </g>
</svg>