<?xml version="1.0" encoding="UTF-8"?>
<svg width="313px" height="86px" viewBox="0 0 313 86" version="1.1" xmlns="http://www.w3.org/2000/svg" xmlns:xlink="http://www.w3.org/1999/xlink">
    <!-- Generator: Sketch 62 (91390) - https://sketch.com -->
    <title>Group 8 Copy</title>
    <desc>Created with Sketch.</desc>
    <g id="Page-1" stroke="none" stroke-width="1" fill="none" fill-rule="evenodd">
        <g id="Landing-Copy" transform="translate(-934.000000, -4942.000000)" fill-rule="nonzero">
            <g id="awards" transform="translate(194.000000, 4942.000000)">
                <g id="Group-8-Copy" transform="translate(740.000000, 0.000000)">
                    <path d="M68.5,37.14 C71.12,37.14 73.86,35.7 74.26,35.4 L74.26,32.52 C74.26,31.9 74.26,31.16 74.46,30.88 C74.7,30.5 75.34,30.34 75.84,30.28 L75.84,30.08 L69.06,30.08 L69.06,30.28 C69.72,30.34 70.48,30.56 70.76,30.92 C71.16,31.4 71.24,32.2 71.24,33.14 C71.24,34.06 71.12,35.04 70.92,35.38 C70.36,36.34 69.38,36.82 68.38,36.82 C65.24,36.82 63.62,33.82 63.62,29.82 C63.62,26.04 65.42,22.66 68.5,22.66 C70.26,22.66 71.56,23.4 72.46,24.28 C73.16,24.96 73.86,26.3 74.16,27.48 L74.4,27.48 L74.4,22.84 L74.2,22.84 C73.84,23.3 73.58,23.74 73.54,23.74 C73.4,23.74 71.8,22.32 68.48,22.32 C65.74,22.32 63.94,23.16 62.62,24.4 C60.74,26.18 60.32,28.44 60.32,29.78 C60.32,34.34 63.3,37.14 68.5,37.14 Z M81.1516667,37 L81.1516667,36.78 C80.1316667,36.68 79.6716667,36.6 79.6716667,36.06 L79.6716667,22.54 L79.5316667,22.54 L75.8316667,23.88 L75.8316667,24 C76.1516667,24.14 76.7716667,24.48 77.0116667,24.62 C77.1916667,24.74 77.2116667,24.84 77.2116667,25.04 L77.2116667,35.96 C77.2116667,36.38 76.9116667,36.7 75.6916667,36.78 L75.6916667,37 L81.1516667,37 Z M86.0433333,37.14 C88.8233333,37.14 90.9433333,34.96 90.9433333,32.18 C90.9433333,28.86 88.3633333,27.26 86.0833333,27.26 C83.0633333,27.26 81.1233333,29.6 81.1233333,32.18 C81.1233333,35.56 83.8833333,37.14 86.0433333,37.14 Z M86.1033333,36.82 C84.4233333,36.82 83.8233333,34.5 83.8233333,32.2 C83.8233333,29.86 84.5833333,27.58 85.9833333,27.58 C87.7033333,27.58 88.2433333,30.24 88.2433333,32.16 C88.2433333,34.02 87.7033333,36.82 86.1033333,36.82 Z M96.855,37.1 C99.675,37.1 101.655,34.88 101.655,32.02 C101.655,29.56 100.295,27.26 97.875,27.26 C96.295,27.26 95.015,28.52 94.555,29.6 L94.515,29.58 L94.575,22.48 L94.415,22.48 L90.895,24.1 L90.895,24.22 C91.355,24.46 91.855,24.72 92.095,24.88 L92.095,37.08 L92.235,37.08 L93.095,35.9 L93.195,35.9 C94.275,36.7 95.475,37.1 96.855,37.1 Z M96.775,36.78 C95.375,36.78 94.615,34.66 94.555,33.36 C94.535,32.86 94.515,32.22 94.515,31.76 C94.515,31.2 94.535,30.44 94.555,30.12 C94.575,29.78 95.155,28.92 96.435,28.92 C98.215,28.92 98.995,30.6 98.995,32.52 C98.995,35 98.135,36.78 96.775,36.78 Z M109.226667,37.1 C110.606667,37.1 111.546667,35.72 111.606667,34.7 L111.466667,34.7 C111.366667,35.1 111.126667,35.46 110.506667,35.46 C109.986667,35.46 109.506667,35.16 109.506667,33.96 C109.506667,32.14 109.566667,31.66 109.566667,29.76 C109.566667,29.3 109.546667,28.76 109.446667,28.58 C108.966667,27.62 108.306667,27.32 107.386667,27.26 C106.626667,27.3 104.586667,28.14 103.326667,28.9 C102.666667,29.3 102.186667,29.7 102.186667,30.48 C102.186667,31.02 102.746667,31.42 103.326667,31.42 C103.966667,31.42 104.686667,31.02 104.686667,30.64 L104.686667,29.1 C104.686667,28.76 104.786667,28.3 105.606667,28.18 C106.366667,28.28 106.986667,28.94 107.106667,29.72 L107.106667,31.24 C106.546667,31.58 105.686667,31.98 103.886667,32.98 C102.986667,33.48 102.306667,34.32 102.306667,35.1 C102.306667,36.48 103.306667,37.1 104.286667,37.1 C105.766667,37.1 106.686667,36.18 107.106667,35.18 L107.146667,35.2 C107.226667,36.44 108.186667,37.1 109.226667,37.1 Z M105.866667,35.42 C105.286667,35.42 104.746667,34.88 104.746667,34.22 C104.746667,32.58 106.266667,32.16 107.106667,31.52 L107.106667,34.58 C107.106667,34.78 107.086667,34.92 106.986667,35.08 C106.866667,35.3 106.246667,35.42 105.866667,35.42 Z M116.238333,37 L116.238333,36.78 C115.218333,36.68 114.758333,36.6 114.758333,36.06 L114.758333,22.54 L114.618333,22.54 L110.918333,23.88 L110.918333,24 C111.238333,24.14 111.858333,24.48 112.098333,24.62 C112.278333,24.74 112.298333,24.84 112.298333,25.04 L112.298333,35.96 C112.298333,36.38 111.998333,36.7 110.778333,36.78 L110.778333,37 L116.238333,37 Z M131.521667,36.6 C132.761667,36.16 134.081667,34.96 134.081667,33.06 C134.081667,30.92 132.101667,29.68 130.101667,29.46 L130.101667,29.38 C131.961667,29.02 133.261667,27.9 133.261667,26.16 C133.261667,24.58 132.261667,23.52 130.861667,23.02 C129.981667,22.7 129.041667,22.6 128.001667,22.6 L120.581667,22.6 L120.581667,22.8 C121.301667,22.88 121.701667,22.98 122.101667,23.4 C122.421667,23.74 122.481667,24.9 122.501667,25.84 C122.516212,27.0036364 122.520179,27.6912397 122.521261,28.5952216 L122.521667,29.74 C122.521667,31.2 122.501667,33.14 122.481667,33.88 C122.461667,34.74 122.381667,35.72 122.121667,36.04 C121.761667,36.46 121.021667,36.7 120.361667,36.8 L120.361667,37 L127.901667,37 C129.081667,37 130.481667,36.98 131.521667,36.6 Z M125.501667,29.48 L125.501101,29.3138821 C125.498299,28.6183418 125.488095,26.0807143 125.541667,24.42 C125.581667,23.44 125.581667,23.38 125.641667,23.04 C125.841667,22.96 126.241667,22.9 126.721667,22.9 C127.501667,22.9 128.141667,23.04 128.641667,23.3 C129.521667,23.74 130.121667,24.84 130.121667,26.16 C130.121667,27.98 129.121667,29.32 127.081667,29.46 C126.761667,29.48 126.261667,29.48 125.501667,29.48 Z M127.201667,36.7 C126.401667,36.7 126.041667,36.48 125.841667,36.18 C125.561667,35.76 125.541667,35.12 125.521667,34.12 C125.501667,33.24 125.501667,31.5 125.501667,29.78 L127.181667,29.78 C127.821667,29.78 128.261667,29.84 128.781667,30.02 C130.021667,30.48 130.901667,31.76 130.901667,33.28 C130.901667,34.62 130.361667,35.62 129.401667,36.2 C128.661667,36.64 127.861667,36.7 127.201667,36.7 Z M141.913333,37.1 C143.293333,37.1 144.233333,35.72 144.293333,34.7 L144.153333,34.7 C144.053333,35.1 143.813333,35.46 143.193333,35.46 C142.673333,35.46 142.193333,35.16 142.193333,33.96 C142.193333,32.14 142.253333,31.66 142.253333,29.76 C142.253333,29.3 142.233333,28.76 142.133333,28.58 C141.653333,27.62 140.993333,27.32 140.073333,27.26 C139.313333,27.3 137.273333,28.14 136.013333,28.9 C135.353333,29.3 134.873333,29.7 134.873333,30.48 C134.873333,31.02 135.433333,31.42 136.013333,31.42 C136.653333,31.42 137.373333,31.02 137.373333,30.64 L137.373333,29.1 C137.373333,28.76 137.473333,28.3 138.293333,28.18 C139.053333,28.28 139.673333,28.94 139.793333,29.72 L139.793333,31.24 C139.233333,31.58 138.373333,31.98 136.573333,32.98 C135.673333,33.48 134.993333,34.32 134.993333,35.1 C134.993333,36.48 135.993333,37.1 136.973333,37.1 C138.453333,37.1 139.373333,36.18 139.793333,35.18 L139.833333,35.2 C139.913333,36.44 140.873333,37.1 141.913333,37.1 Z M138.553333,35.42 C137.973333,35.42 137.433333,34.88 137.433333,34.22 C137.433333,32.58 138.953333,32.16 139.793333,31.52 L139.793333,34.58 C139.793333,34.78 139.773333,34.92 139.673333,35.08 C139.553333,35.3 138.933333,35.42 138.553333,35.42 Z M148.565,37 L148.565,36.8 C148.025,36.72 147.565,36.64 147.465,36.12 L147.465,29.64 C147.885,29.18 148.425,28.94 149.045,28.94 C150.245,28.94 150.665,30.06 150.665,31.36 L150.665,36.08 C150.665,36.5 150.185,36.74 149.465,36.78 L149.465,37 L154.385,37 L154.385,36.82 C153.925,36.76 153.145,36.54 153.145,36.14 L153.145,30.34 C153.145,28.54 152.325,27.26 150.745,27.26 C149.225,27.26 148.125,28.52 147.485,29.46 L147.445,29.42 L147.445,27.24 L147.325,27.24 L143.865,28.6 L143.865,28.72 C144.185,28.86 144.565,29.04 144.805,29.18 C144.985,29.3 145.005,29.4 145.005,29.6 L145.005,36 C145.005,36.42 144.485,36.74 143.865,36.8 L143.865,37 L148.565,37 Z M159.136667,37 L159.136667,36.8 C158.596667,36.72 158.056667,36.58 158.056667,36.08 L158.056667,32.24 L158.116667,32.24 C158.216667,32.24 158.336667,32.28 158.536667,32.62 C159.656667,34.56 160.556667,36.1 160.556667,36.32 C160.556667,36.56 160.156667,36.78 159.636667,36.8 L159.636667,37 L165.176667,37 L165.176667,36.8 C164.836667,36.78 164.196667,36.58 163.976667,36.48 C163.656667,36.26 163.316667,35.94 162.916667,35.3 C162.216667,34.16 161.276667,32.48 160.236667,30.66 C160.876667,30.02 161.356667,29.54 162.076667,28.86 C162.956667,28.04 164.856667,27.68 165.036667,27.66 L165.036667,27.46 L160.136667,27.46 L160.136667,27.66 C160.796667,27.7 161.676667,28.12 161.676667,28.36 C161.676667,28.74 159.996667,30.64 158.316667,31.96 L158.056667,32 L158.056667,22.54 L157.896667,22.54 L154.396667,24.16 L154.396667,24.28 C154.736667,24.46 155.236667,24.68 155.416667,24.82 C155.570952,24.94 155.592993,25.0453061 155.596142,25.1862974 L155.596667,36 C155.596667,36.5 155.016667,36.74 154.396667,36.8 L154.396667,37 L159.136667,37 Z M173.22,37.14 C176,37.14 178.12,34.96 178.12,32.18 C178.12,28.86 175.54,27.26 173.26,27.26 C170.24,27.26 168.3,29.6 168.3,32.18 C168.3,35.56 171.06,37.14 173.22,37.14 Z M173.28,36.82 C171.6,36.82 171,34.5 171,32.2 C171,29.86 171.76,27.58 173.16,27.58 C174.88,27.58 175.42,30.24 175.42,32.16 C175.42,34.02 174.88,36.82 173.28,36.82 Z M183.811667,37 L183.811667,36.8 C183.011667,36.72 182.131667,36.46 182.131667,36.04 L182.131667,28.52 L184.151667,28.52 L184.511667,27.46 L182.151667,27.46 C182.151667,26.5 182.171667,26 182.231667,24.92 C182.331667,23.28 183.051667,22.98 183.391667,22.98 C183.931667,23.36 184.131667,24.9 185.391667,24.9 C185.931667,24.9 186.371667,24.3 186.371667,23.72 C186.371667,22.82 185.491667,22.44 184.471667,22.44 C182.531667,22.44 180.811667,23.34 180.071667,24.66 C179.731667,25.26 179.691667,26.44 179.691667,27.46 L178.551667,27.46 L178.231667,28.52 L179.671667,28.52 L179.671667,35.98 C179.671667,36.4 178.671667,36.74 178.051667,36.8 L178.051667,37 L183.811667,37 Z M192.135,37.14 C194.015,37.14 195.015,35.7 195.315,34.88 L195.195,34.82 C194.915,35.22 194.275,35.62 193.495,35.62 C192.555,35.62 192.055,35.04 192.055,33.68 L192.055,28.68 L194.935,28.68 L195.555,27.46 L192.015,27.46 L192.015,25.32 L191.855,25.32 L188.155,28.46 L188.155,28.68 L189.655,28.68 C189.655,30.42 189.575,32.9 189.575,35.4 C189.575,36.26 190.855,37.14 192.135,37.14 Z M199.786667,37 L199.786667,36.8 C199.246667,36.72 198.646667,36.58 198.646667,36.08 L198.646667,30.08 C198.646667,29.86 198.686667,29.62 198.746667,29.54 C198.986667,29.18 199.466667,28.86 200.306667,28.86 C201.506667,28.86 201.906667,29.96 201.906667,31.36 L201.906667,36.08 C201.906667,36.5 201.346667,36.74 200.626667,36.78 L200.626667,37 L205.586667,37 L205.586667,36.82 C205.126667,36.76 204.386667,36.54 204.386667,36.14 L204.386667,30.32 C204.386667,28.56 203.826667,27.26 202.066667,27.26 C200.166667,27.26 199.006667,28.76 198.646667,29.42 L198.606667,29.4 L198.666667,22.48 L198.506667,22.48 L194.986667,24.06 L194.986667,24.18 C195.326667,24.38 195.766667,24.56 195.986667,24.74 C196.166667,24.88 196.186667,24.96 196.186667,25.16 L196.186667,36 C196.186667,36.5 195.586667,36.74 194.966667,36.8 L194.966667,37 L199.786667,37 Z M210.398333,37.1 C212.998333,37.1 214.138333,34.92 214.398333,33.68 L214.198333,33.64 C213.878333,34.64 212.598333,35.28 211.398333,35.28 C209.338333,35.28 208.078333,33.52 208.078333,31.2 C208.078333,31.02 208.078333,30.82 208.098333,30.6 L214.178333,30.6 C214.038333,28.3 212.318333,27.26 210.118333,27.26 C207.298333,27.26 205.618333,29.7 205.618333,31.96 C205.618333,34.78 207.398333,37.1 210.398333,37.1 Z M208.118333,30.32 C208.158333,29.58 208.798333,27.6 209.958333,27.6 C210.878333,27.6 211.378333,28.52 211.378333,29.38 C211.378333,29.72 211.298333,29.92 211.118333,30.1 C210.918333,30.2 210.618333,30.24 210.458333,30.24 C209.458333,30.28 209.058333,30.32 208.118333,30.32 Z M228.121667,37 L228.121667,36.8 C227.541667,36.7 226.741667,36.58 226.341667,36 C226.141667,35.72 226.121667,34.84 226.121667,34.1 L226.121667,30.08 C226.761667,29.12 228.541667,26.36 229.201667,25.36 C230.181667,23.88 230.741667,23.02 232.221667,22.8 L232.221667,22.6 L227.601667,22.6 L227.601667,22.8 C228.341667,22.92 229.301667,22.98 229.301667,23.82 C229.301667,24.36 228.821667,25.14 228.581667,25.54 C228.081667,26.38 226.601667,28.7 225.941667,29.7 C225.041667,28.26 223.921667,26.46 223.361667,25.5 C222.941667,24.78 222.461667,23.98 222.461667,23.64 C222.461667,22.96 223.421667,22.88 224.201667,22.8 L224.201667,22.6 L217.201667,22.6 L217.201667,22.8 C218.321667,22.86 218.941667,23.88 219.941667,25.44 C220.701667,26.62 223.001667,30.38 223.141667,30.6 C223.141667,32.06 223.121667,33.06 223.101667,33.8 C223.081667,34.66 223.081667,35.7 222.821667,35.98 C222.221667,36.66 221.701667,36.72 221.001667,36.8 L221.001667,37 L228.121667,37 Z M233.713333,37.1 C236.313333,37.1 237.453333,34.92 237.713333,33.68 L237.513333,33.64 C237.193333,34.64 235.913333,35.28 234.713333,35.28 C232.653333,35.28 231.393333,33.52 231.393333,31.2 C231.393333,31.02 231.393333,30.82 231.413333,30.6 L237.493333,30.6 C237.353333,28.3 235.633333,27.26 233.433333,27.26 C230.613333,27.26 228.933333,29.7 228.933333,31.96 C228.933333,34.78 230.713333,37.1 233.713333,37.1 Z M231.433333,30.32 C231.473333,29.58 232.113333,27.6 233.273333,27.6 C234.193333,27.6 234.693333,28.52 234.693333,29.38 C234.693333,29.72 234.613333,29.92 234.433333,30.1 C234.233333,30.2 233.933333,30.24 233.773333,30.24 C232.773333,30.28 232.373333,30.32 231.433333,30.32 Z M244.865,37.1 C246.245,37.1 247.185,35.72 247.245,34.7 L247.105,34.7 C247.005,35.1 246.765,35.46 246.145,35.46 C245.625,35.46 245.145,35.16 245.145,33.96 C245.145,32.2613333 245.197267,31.7299556 245.204236,30.1218844 L245.205,29.76 C245.205,29.3 245.185,28.76 245.085,28.58 C244.605,27.62 243.945,27.32 243.025,27.26 C242.265,27.3 240.225,28.14 238.965,28.9 C238.305,29.3 237.825,29.7 237.825,30.48 C237.825,31.02 238.385,31.42 238.965,31.42 C239.605,31.42 240.325,31.02 240.325,30.64 L240.325,29.1 C240.325,28.76 240.425,28.3 241.245,28.18 C242.005,28.28 242.625,28.94 242.745,29.72 L242.745,31.24 C242.185,31.58 241.325,31.98 239.525,32.98 C238.625,33.48 237.945,34.32 237.945,35.1 C237.945,36.48 238.945,37.1 239.925,37.1 C241.405,37.1 242.325,36.18 242.745,35.18 L242.785,35.2 C242.865,36.44 243.825,37.1 244.865,37.1 Z M241.505,35.42 C240.925,35.42 240.385,34.88 240.385,34.22 C240.385,32.58 241.905,32.16 242.745,31.52 L242.745,34.58 C242.745,34.78 242.725,34.92 242.625,35.08 C242.505,35.3 241.885,35.42 241.505,35.42 Z M252.136667,37 L252.136667,36.8 C251.596667,36.72 250.616667,36.62 250.436667,36.12 L250.436667,30.44 C250.716667,29.68 251.336667,29.14 251.916667,29.14 C252.276667,29.14 252.216667,29.92 253.396667,29.92 C253.856667,29.92 254.416667,29.42 254.416667,28.62 C254.416667,27.84 253.876667,27.26 253.176667,27.26 C251.456667,27.26 250.696667,29.4 250.416667,30.04 L250.376667,30.04 L250.416667,27.24 L250.296667,27.24 L246.836667,28.68 L246.836667,28.8 C247.156667,28.94 247.536667,29.16 247.776667,29.3 C247.956667,29.42 247.976667,29.52 247.976667,29.72 L247.976667,36 C247.976667,36.42 247.456667,36.74 246.836667,36.8 L246.836667,37 L252.136667,37 Z" id="GlobalBankoftheYear" fill="#172633"></path>
                    <path d="M101.536,63 L101.536,52.92 L105.424,52.92 L105.424,51.608 L96.16,51.608 L96.16,52.92 L100.048,52.92 L100.048,63 L101.536,63 Z M108.073333,63 L108.073333,58.344 C108.073333,56.696 109.033333,55.848 110.185333,55.848 C111.353333,55.848 112.057333,56.456 112.057333,58.152 L112.057333,63 L113.465333,63 L113.465333,58.04 C113.465333,55.816 112.377333,54.696 110.521333,54.696 C109.577333,54.696 108.665333,55.08 108.105333,55.896 L108.073333,55.896 L108.073333,51.608 L106.665333,51.608 L106.665333,63 L108.073333,63 Z M118.946667,63.224 C121.026667,63.224 122.258667,61.992 122.530667,60.568 L121.090667,60.568 C120.898667,61.48 120.130667,62.136 118.946667,62.136 C117.618667,62.136 116.594667,61.224 116.530667,59.224 L122.610667,59.224 C122.610667,58.52 122.562667,57.944 122.450667,57.48 C122.034667,55.736 120.738667,54.648 118.898667,54.648 C116.530667,54.648 115.122667,56.424 115.122667,58.824 C115.122667,61.48 116.546667,63.224 118.946667,63.224 Z M121.218667,58.152 L116.546667,58.152 C116.690667,56.6 117.602667,55.736 118.898667,55.736 C120.146667,55.736 121.074667,56.568 121.218667,58.152 Z M132.149333,63 C134.549333,63 135.941333,61.768 135.941333,59.864 C135.941333,58.472 135.157333,57.512 133.797333,57.192 L133.797333,57.16 C135.029333,56.712 135.685333,55.784 135.685333,54.504 C135.685333,52.776 134.469333,51.608 131.845333,51.608 L128.133333,51.608 L128.133333,63 L132.149333,63 Z M131.733333,56.584 L129.605333,56.584 L129.605333,52.856 L131.797333,52.856 C133.509333,52.856 134.229333,53.512 134.229333,54.712 C134.229333,55.864 133.525333,56.584 131.733333,56.584 Z M131.941333,61.752 L129.605333,61.752 L129.605333,57.816 L131.733333,57.816 C133.637333,57.816 134.421333,58.552 134.421333,59.784 C134.421333,61.064 133.621333,61.752 131.941333,61.752 Z M139.774667,63.176 C141.086667,63.176 142.030667,62.68 142.590667,61.816 L142.622667,61.816 C142.622667,62.184 142.654667,62.632 142.734667,63 L144.014667,63 C143.902667,62.504 143.822667,61.816 143.822667,60.92 L143.822667,57.8 C143.822667,55.656 142.606667,54.648 140.622667,54.648 C138.558667,54.648 137.438667,55.816 137.358667,57.352 L138.766667,57.352 C138.814667,56.392 139.438667,55.736 140.622667,55.736 C141.710667,55.736 142.462667,56.296 142.462667,57.64 L142.462667,57.96 C141.822667,58.008 140.830667,58.12 140.110667,58.232 C137.774667,58.6 137.022667,59.448 137.022667,60.792 C137.022667,62.168 138.078667,63.176 139.774667,63.176 Z M140.126667,62.088 C139.070667,62.088 138.462667,61.528 138.462667,60.696 C138.462667,59.896 138.942667,59.496 140.334667,59.288 C140.958667,59.176 141.838667,59.08 142.462667,59.032 L142.462667,59.528 C142.462667,60.488 142.302667,60.936 141.806667,61.448 C141.406667,61.864 140.782667,62.088 140.126667,62.088 Z M147.464,63 L147.464,58.344 C147.464,56.712 148.424,55.848 149.576,55.848 C150.744,55.848 151.448,56.456 151.448,58.152 L151.448,63 L152.856,63 L152.856,58.04 C152.856,55.816 151.768,54.696 149.912,54.696 C148.824,54.696 147.944,55.192 147.448,55.944 L147.416,55.944 L147.416,54.872 L146.056,54.872 L146.056,63 L147.464,63 Z M156.513333,63 L156.513333,58.936 L156.545333,58.936 L160.145333,63 L162.001333,63 L157.921333,58.552 L161.569333,54.872 L159.825333,54.872 L156.545333,58.248 L156.513333,58.248 L156.513333,51.608 L155.105333,51.608 L155.105333,63 L156.513333,63 Z M165.786667,63.224 C167.866667,63.224 169.098667,61.992 169.370667,60.568 L167.930667,60.568 C167.738667,61.48 166.970667,62.136 165.786667,62.136 C164.458667,62.136 163.434667,61.224 163.370667,59.224 L169.450667,59.224 C169.450667,58.52 169.402667,57.944 169.290667,57.48 C168.874667,55.736 167.578667,54.648 165.738667,54.648 C163.370667,54.648 161.962667,56.424 161.962667,58.824 C161.962667,61.48 163.386667,63.224 165.786667,63.224 Z M168.058667,58.152 L163.386667,58.152 C163.530667,56.6 164.442667,55.736 165.738667,55.736 C166.986667,55.736 167.914667,56.568 168.058667,58.152 Z M172.596,63 L172.596,58.856 C172.596,57.064 173.46,56.072 174.996,56.072 C175.172,56.072 175.38,56.104 175.556,56.12 L175.556,54.856 C175.38,54.808 175.14,54.792 174.964,54.792 C173.924,54.792 173.108,55.224 172.564,56.12 L172.532,56.12 L172.532,54.872 L171.188,54.872 L171.188,63 L172.596,63 Z M176.269333,65.304 L177.101333,63 L177.101333,61.128 L175.373333,61.128 L175.373333,63 L175.949333,63 L175.341333,65.304 L176.269333,65.304 Z M189.584,63 L189.584,61.736 L183.76,61.736 C183.776,60.728 184.208,60.024 186.368,58.776 C188.096,57.768 189.328,56.888 189.328,55 C189.328,53.192 187.952,51.992 185.888,51.992 C183.744,51.992 182.352,53.24 182.272,55.384 L183.776,55.384 C183.856,54.056 184.496,53.272 185.872,53.272 C187.056,53.272 187.792,53.992 187.792,55.032 C187.792,56.36 186.944,56.952 185.312,57.912 C182.64,59.464 182.128,60.632 182.128,62.68 C182.128,62.76 182.128,62.888 182.144,63 L189.584,63 Z M194.713333,63.224 C197.241333,63.224 198.617333,61.24 198.617333,57.608 C198.617333,53.976 197.241333,51.992 194.713333,51.992 C192.185333,51.992 190.809333,53.976 190.809333,57.608 C190.809333,61.24 192.185333,63.224 194.713333,63.224 Z M194.713333,61.96 C193.177333,61.96 192.345333,60.44 192.345333,57.608 C192.345333,54.792 193.177333,53.288 194.713333,53.288 C196.265333,53.288 197.097333,54.792 197.097333,57.608 C197.097333,60.44 196.265333,61.96 194.713333,61.96 Z M204.594667,63 L204.594667,52.216 L203.346667,52.216 C203.138667,53.528 202.402667,54.024 200.722667,54.024 L200.722667,55.144 L203.138667,55.144 L203.138667,63 L204.594667,63 Z M212.364,63.224 C214.604,63.224 216.14,61.976 216.14,60.088 C216.14,58.76 215.372,57.832 214.044,57.432 L214.044,57.4 C215.196,56.968 215.932,56.12 215.932,54.952 C215.932,53.192 214.444,51.992 212.364,51.992 C210.3,51.992 208.812,53.192 208.812,54.952 C208.812,56.12 209.548,56.968 210.684,57.4 L210.684,57.432 C209.372,57.832 208.604,58.76 208.604,60.088 C208.604,61.976 210.124,63.224 212.364,63.224 Z M212.364,56.824 C211.084,56.824 210.268,56.12 210.268,55 C210.268,53.944 211.116,53.256 212.364,53.256 C213.612,53.256 214.46,53.944 214.46,55 C214.46,56.12 213.644,56.824 212.364,56.824 Z M212.364,61.944 C211.004,61.944 210.092,61.176 210.092,59.992 C210.092,58.856 211.02,58.072 212.364,58.072 C213.708,58.072 214.636,58.856 214.636,59.992 C214.636,61.176 213.724,61.944 212.364,61.944 Z" id="TheBanker,2018" fill="#858F96"></path>
                    <path d="M24,6.12 C23.07,8.01 21.42,9 19.59,9.72 C19.38,9.84 19.17,10.02 19.08,10.2 C18.42,11.7 17.73,13.29 17.07,14.79 C16.83,15.39 16.62,15.93 16.38,16.62 C17.16,15.63 17.85,14.79 18.57,13.98 C19.83,12.51 21.3,11.4 23.31,11.1 C25.38,10.74 27.39,10.92 29.43,11.46 C29.46,11.52 29.52,11.52 29.61,11.58 C29.13,12.33 28.68,13.11 28.17,13.8 C27.12,15.15 25.86,16.26 24.18,16.86 C21.78,17.61 19.32,17.79 16.86,17.37 C16.62,17.31 16.41,17.28 16.17,17.22 C14.94,20.79 13.98,24.3 13.35,27.93 C13.8,27.24 14.22,26.46 14.64,25.77 C15.72,24 17.01,22.59 19.02,21.9 C20.58,21.36 22.14,21.15 23.76,21.15 C24.3,21.15 24.81,21.21 25.44,21.21 C25.11,21.9 24.9,22.53 24.66,23.13 C23.88,24.78 22.92,26.22 21.36,27.18 C19.5,28.41 17.4,28.98 15.21,29.22 C14.52,29.28 13.77,29.34 13.05,29.4 C12.42,33.03 12.06,36.72 12,40.47 C12.09,40.35 12.12,40.17 12.18,39.99 C12.42,39.3 12.69,38.58 12.99,37.83 C13.8,35.67 15.21,34.02 17.37,33.03 C18.84,32.4 20.4,31.98 21.99,31.74 C22.26,31.74 22.53,31.68 22.83,31.62 C22.83,31.8 22.83,31.86 22.83,31.98 C22.74,32.31 22.68,32.73 22.59,33.15 C22.11,35.31 21.24,37.35 19.38,38.76 C17.4,40.35 15.15,41.34 12.69,41.88 C12.42,41.94 12.18,41.94 11.88,42 C11.82,45.81 12.12,49.56 12.78,53.31 C13.05,52.08 13.26,50.91 13.53,49.74 C13.92,48.09 14.7,46.62 15.99,45.51 C17.61,44.16 19.47,43.29 21.48,42.57 C21.69,42.57 21.9,42.45 22.26,42.39 C22.2,43.47 22.17,44.4 22.05,45.33 C21.84,47.04 21.36,48.6 20.25,49.89 C18.39,52.05 16.08,53.7 13.35,54.63 C13.26,54.63 13.17,54.69 13.05,54.75 C13.74,58.23 14.67,61.62 15.93,64.89 C15.99,64.29 15.93,63.72 15.96,63.12 C15.99,61.14 16.32,59.28 17.55,57.69 C18.57,56.4 19.8,55.35 21.12,54.54 C21.84,54.06 22.59,53.67 23.37,53.25 C23.46,53.58 23.52,53.88 23.58,54.12 C24,56.58 24,58.98 22.74,61.2 C21.69,63.03 20.28,64.56 18.57,65.85 C17.97,66.33 17.31,66.72 16.65,67.14 C17.88,70.29 19.26,73.35 20.94,76.29 C20.97,76.11 20.94,75.99 20.94,75.87 C20.85,75.03 20.73,74.16 20.67,73.35 C20.52,71.82 20.82,70.35 21.54,69 C22.41,67.41 23.58,66.06 24.96,64.89 C25.47,64.47 25.98,64.08 26.52,63.6 C27.24,65.37 27.69,67.05 27.72,68.82 C27.72,69.81 27.66,70.8 27.3,71.76 C26.28,74.34 24.72,76.62 22.56,78.51 C22.32,78.66 22.35,78.78 22.47,79.02 C23.88,81.36 25.41,83.58 27.06,85.77 C27.06,85.77 26.79,86.37 24.75,85.08 C24.3,84.36 23.82,83.7 23.37,82.95 C22.41,81.48 21.51,80.01 20.64,78.51 C20.43,78.15 20.25,78.03 19.83,78.15 C17.22,78.72 14.55,78.72 11.94,78.03 C10.05,77.55 8.58,76.38 7.32,74.97 C6.78,74.34 6.3,73.56 5.79,72.93 C5.73,72.81 5.73,72.75 5.67,72.63 C5.73,72.57 5.79,72.51 5.85,72.51 C7.95,71.82 10.08,71.46 12.3,71.64 C14.52,71.76 16.29,72.81 17.82,74.34 C18.18,74.7 18.48,75.03 18.9,75.33 C18.87,75.21 18.81,75.09 18.75,74.97 C17.37,72.24 16.14,69.36 15.12,66.42 C15.03,66.12 14.88,66.06 14.58,66.06 C11.97,66.24 9.45,65.79 7.02,64.74 C5.16,63.9 3.87,62.49 2.88,60.81 C2.4,60.03 2.07,59.16 1.59,58.23 C2.46,58.23 3.24,58.11 4.02,58.11 C5.55,58.05 7.05,58.17 8.52,58.59 C10.53,59.19 11.94,60.42 13.14,62.04 C13.41,62.37 13.65,62.73 13.89,63.09 C13.17,59.85 12.39,56.64 11.64,53.43 C10.44,53.13 9.18,52.89 7.95,52.5 C6.09,51.87 4.35,50.97 2.97,49.5 C1.77,48.21 0.54,45.39 0.39,43.65 C0.42,43.65 0.42,43.65 0.45,43.65 C3.06,43.71 5.55,44.19 7.8,45.57 C9.15,46.38 10.02,47.73 10.74,49.14 C10.92,49.44 11.07,49.74 11.28,50.07 C10.98,46.86 10.86,43.68 11.1,40.47 C9.48,39.99 8.01,39.36 6.63,38.49 C4.68,37.2 2.97,35.67 2.25,33.33 C1.86,32.1 1.62,30.81 1.59,29.52 C1.56,29.4 1.59,29.28 1.59,28.98 C2.76,29.4 3.81,29.67 4.89,30.03 C6.33,30.63 7.68,31.38 8.76,32.55 C9.72,33.57 10.23,34.8 10.65,36.06 C10.83,36.66 10.98,37.23 11.25,37.83 C11.28,37.65 11.28,37.59 11.31,37.41 C11.52,34.32 11.94,31.26 12.57,28.23 C12.63,27.93 12.6,27.69 12.27,27.57 C9.84,26.4 7.83,24.72 6.33,22.41 C5.28,20.85 5.04,19.08 5.07,17.22 C5.1,16.5 5.19,15.87 5.25,15.03 C6.18,15.51 7.02,15.87 7.8,16.32 C9.45,17.25 10.92,18.42 11.88,20.13 C12.63,21.42 12.81,22.89 12.96,24.36 C12.99,24.84 12.99,25.29 13.11,25.71 C13.14,25.59 13.17,25.47 13.23,25.35 C13.98,22.23 14.94,19.14 16.14,16.14 C16.26,15.84 16.26,15.66 15.96,15.51 C13.89,14.04 12.3,12.18 11.19,9.87 C10.29,8.04 10.29,6.18 10.68,4.29 C10.8,3.6 11.01,2.94 11.19,2.25 L11.22,2.22 C12.57,3.03 13.77,3.96 14.82,5.13 C16.44,6.84 17.31,8.82 17.1,11.28 C17.07,12.18 16.98,13.11 16.89,14.16 C16.98,14.04 17.01,13.98 17.04,13.86 C17.7,12.51 18.33,11.16 18.99,9.75 C19.05,9.57 19.08,9.39 19.05,9.21 C18.99,7.98 19.05,6.75 19.35,5.52 C19.62,4.62 19.98,3.66 20.67,2.97 C21.48,2.1 22.47,1.44 23.46,0.87 C24,0.51 24.54,0.27 25.11,-2.98427949e-13 C25.2,-2.98427949e-13 25.26,0.06 25.35,0.06 C25.32,0.51 25.23,0.93 25.23,1.38 C25.14,3.03 24.75,4.68 24,6.12 Z" id="Path" fill="#CDCDCD"></path>
                    <path d="M289,6.12 C289.93,8.01 291.58,9 293.41,9.72 C293.62,9.84 293.83,10.02 293.92,10.2 C294.61,11.73 295.27,13.32 295.93,14.82 C296.17,15.39 296.35,15.93 296.62,16.62 C295.84,15.63 295.15,14.79 294.46,13.98 C293.2,12.51 291.7,11.4 289.69,11.1 C287.65,10.77 285.61,10.95 283.6,11.46 C283.54,11.52 283.51,11.52 283.39,11.58 C283.9,12.33 284.35,13.11 284.83,13.8 C285.88,15.15 287.14,16.26 288.82,16.86 C291.22,17.61 293.68,17.79 296.14,17.4 C296.38,17.31 296.59,17.28 296.83,17.22 C298.09,20.79 299.02,24.3 299.68,27.93 C299.2,27.24 298.78,26.46 298.36,25.77 C297.31,24 295.99,22.59 293.98,21.9 C292.45,21.36 290.86,21.12 289.27,21.12 C288.76,21.12 288.22,21.18 287.59,21.18 C287.89,21.9 288.1,22.53 288.34,23.13 C289.12,24.78 290.08,26.22 291.64,27.18 C293.5,28.41 295.6,29.01 297.79,29.22 C298.48,29.28 299.23,29.34 299.95,29.4 C300.58,33.03 300.94,36.72 301.03,40.47 C300.91,40.35 300.88,40.17 300.82,39.99 C300.58,39.3 300.31,38.58 300.04,37.83 C299.2,35.67 297.79,34.02 295.66,33.03 C294.19,32.37 292.63,31.98 291.04,31.74 C290.77,31.74 290.5,31.68 290.2,31.62 C290.2,31.8 290.2,31.86 290.2,31.98 C290.26,32.31 290.32,32.73 290.41,33.15 C290.92,35.31 291.76,37.38 293.62,38.79 C295.57,40.38 297.85,41.37 300.34,41.91 C300.58,41.94 300.82,41.94 301.12,42 C301.18,45.81 300.88,49.56 300.22,53.31 C299.95,52.08 299.74,50.91 299.5,49.74 C299.11,48.09 298.3,46.62 297.01,45.51 C295.39,44.16 293.5,43.29 291.52,42.57 C291.31,42.57 291.1,42.45 290.77,42.39 C290.8,43.47 290.83,44.4 290.95,45.33 C291.16,47.04 291.64,48.6 292.75,49.89 C294.64,52.05 296.92,53.7 299.65,54.63 C299.74,54.63 299.83,54.69 299.95,54.75 C299.26,58.23 298.33,61.62 297.07,64.89 C297.01,64.29 297.07,63.72 297.04,63.12 C297.01,61.14 296.68,59.28 295.45,57.69 C294.43,56.4 293.23,55.35 291.85,54.54 C291.13,54.06 290.41,53.64 289.6,53.25 C289.51,53.58 289.48,53.88 289.42,54.12 C289,56.58 289,58.98 290.26,61.2 C291.31,63.03 292.75,64.56 294.43,65.85 C295.06,66.33 295.69,66.72 296.35,67.14 C295.12,70.29 293.71,73.35 292.03,76.26 C292.03,76.08 292.03,75.96 292.06,75.84 C292.15,75.03 292.27,74.13 292.36,73.32 C292.48,71.79 292.18,70.32 291.46,68.97 C290.59,67.41 289.42,66.06 288.04,64.89 C287.53,64.5 287.02,64.08 286.48,63.6 C285.73,65.37 285.31,67.08 285.25,68.82 C285.25,69.81 285.31,70.8 285.7,71.76 C286.72,74.34 288.28,76.62 290.44,78.51 C290.68,78.69 290.65,78.81 290.53,79.05 C289.12,81.36 287.59,83.58 285.94,85.77 C285.94,85.77 286.24,86.37 288.25,85.08 C288.73,84.39 289.21,83.73 289.66,82.98 C290.59,81.51 291.52,80.04 292.39,78.54 C292.57,78.15 292.75,78.03 293.17,78.15 C295.81,78.75 298.48,78.75 301.09,78.03 C302.95,77.55 304.45,76.38 305.68,74.97 C306.22,74.34 306.7,73.56 307.21,72.93 C307.24,72.81 307.3,72.75 307.36,72.63 C307.27,72.57 307.21,72.51 307.18,72.51 C305.08,71.82 302.92,71.46 300.73,71.64 C298.54,71.76 296.77,72.81 295.21,74.34 C294.85,74.7 294.52,75.03 294.1,75.33 C294.13,75.21 294.19,75.09 294.25,74.97 C295.63,72.21 296.86,69.33 297.91,66.42 C298,66.12 298.12,66.06 298.42,66.06 C301.03,66.24 303.58,65.76 305.98,64.71 C307.84,63.9 309.13,62.49 310.12,60.78 C310.6,60.03 310.96,59.16 311.41,58.23 C310.54,58.23 309.76,58.11 308.98,58.11 C307.48,58.05 305.98,58.17 304.51,58.56 C302.5,59.16 301.09,60.39 299.89,62.01 C299.59,62.37 299.35,62.73 299.11,63.09 C299.86,59.88 300.61,56.64 301.36,53.43 C302.56,53.13 303.85,52.89 305.05,52.5 C306.91,51.87 308.65,50.97 310.03,49.5 C311.23,48.21 312.46,45.39 312.61,43.65 C312.58,43.65 312.58,43.65 312.55,43.65 C309.97,43.68 307.48,44.16 305.23,45.57 C303.85,46.38 302.98,47.73 302.26,49.14 C302.08,49.44 301.93,49.74 301.72,50.07 C302.02,46.86 302.14,43.68 301.9,40.47 C303.52,39.99 304.99,39.36 306.34,38.49 C308.32,37.2 310.03,35.67 310.75,33.33 C311.14,32.1 311.38,30.81 311.41,29.52 C311.44,29.4 311.41,29.28 311.41,28.98 C310.27,29.4 309.16,29.7 308.11,30.03 C306.67,30.63 305.35,31.38 304.24,32.55 C303.28,33.57 302.77,34.8 302.35,36.06 C302.17,36.66 302.02,37.26 301.78,37.83 C301.78,37.65 301.75,37.59 301.75,37.41 C301.48,34.32 301.06,31.26 300.43,28.23 C300.37,27.93 300.4,27.69 300.76,27.57 C303.19,26.4 305.17,24.69 306.67,22.41 C307.72,20.82 307.96,19.08 307.93,17.19 C307.93,16.5 307.84,15.84 307.75,15.03 C306.85,15.51 305.98,15.87 305.23,16.32 C303.55,17.28 302.08,18.45 301.12,20.13 C300.37,21.42 300.19,22.89 300.07,24.36 C300.01,24.81 300.01,25.29 299.89,25.71 C299.86,25.59 299.83,25.47 299.8,25.35 C299.02,22.26 298.09,19.14 296.89,16.14 C296.77,15.84 296.77,15.66 297.04,15.51 C299.11,14.04 300.67,12.18 301.81,9.87 C302.71,8.04 302.71,6.18 302.32,4.29 C302.2,3.6 302.02,2.97 301.84,2.28 L301.78,2.22 C300.46,3.03 299.23,3.96 298.18,5.13 C296.56,6.84 295.69,8.82 295.87,11.28 C295.93,12.15 296.02,13.11 296.08,14.16 C296.02,14.04 295.99,13.98 295.96,13.86 C295.3,12.51 294.64,11.16 293.98,9.78 C293.92,9.6 293.92,9.42 293.92,9.24 C293.98,8.01 293.95,6.78 293.62,5.55 C293.38,4.62 293.02,3.66 292.33,2.97 C291.52,2.1 290.56,1.44 289.54,0.87 C289,0.51 288.46,0.27 287.89,-2.98427949e-13 C287.8,-2.98427949e-13 287.74,0.06 287.65,0.06 C287.68,0.51 287.77,0.93 287.8,1.38 C287.86,3.03 288.25,4.68 289,6.12 Z" id="Path" fill="#CDCDCD"></path>
                </g>
            </g>
        </g>
    </g>
</svg>