<?xml version="1.0" encoding="UTF-8"?>
<svg width="1320px" height="870px" viewBox="0 0 1320 870" version="1.1" xmlns="http://www.w3.org/2000/svg" xmlns:xlink="http://www.w3.org/1999/xlink">
    <!-- Generator: Sketch 62 (91390) - https://sketch.com -->
    <title>Avatars Copy</title>
    <desc>Created with Sketch.</desc>
    <defs>
        <rect id="path-1" x="0" y="0" width="1320" height="870"></rect>
    </defs>
    <g id="Page-1" stroke="none" stroke-width="1" fill="none" fill-rule="evenodd">
        <g id="Work" transform="translate(-60.000000, -9237.000000)">
            <g id="Avatars-Copy" transform="translate(60.000000, 9237.000000)">
                <mask id="mask-2" fill="white">
                    <use xlink:href="#path-1"></use>
                </mask>
                <use id="Mask" fill="#FFFFFF" xlink:href="#path-1"></use>
                <g id="Group-24" mask="url(#mask-2)">
                    <g transform="translate(-388.000000, 4.000000)">
                        <g id="Group-23" transform="translate(726.000000, 263.780000)">
                            <polygon id="Rectangle_Left_Isometric" fill="#7568FF" points="93.01875 330.103125 0 283.59375 0 260.90625 93.01875 307.415625"></polygon>
                            <polygon id="Rectangle_Right_Isometric" fill="#5E52D9" points="93.01875 330.103125 614.83125 69.196875 614.83125 46.509375 93.01875 307.415625"></polygon>
                            <polygon id="Rectangle_Top_Isometric" fill="#8C81FF" points="0 260.90625 521.8125 0 614.83125 46.509375 93.01875 307.415625"></polygon>
                            <polygon id="Rectangle_Left_Isometric" fill="#D56B95" points="317.625 468.496875 224.60625 421.9875 224.60625 399.3 317.625 445.809375"></polygon>
                            <polygon id="Rectangle_Right_Isometric" fill="#B15A7D" points="317.625 468.496875 839.4375 207.590625 839.4375 184.903125 317.625 445.809375"></polygon>
                            <polygon id="Rectangle_Top_Isometric" fill="#FF81B3" points="224.60625 399.3 746.41875 138.39375 839.4375 184.903125 317.625 445.809375"></polygon>
                            <g id="Group-33" transform="translate(36.300000, 209.859375)">
                                <polygon id="Rectangle_Left_Isometric" fill="#675EC0" points="63.525 86.2125 0 54.45 0 31.7625 63.525 63.525"></polygon>
                                <polygon id="Rectangle_Right_Isometric" fill="#564EA4" points="63.525 86.2125 127.05 54.45 127.05 31.7625 63.525 63.525"></polygon>
                                <polygon id="Rectangle_Top_Isometric" fill="#FF81B3" points="0 31.7625 63.525 0 127.05 31.7625 63.525 63.525"></polygon>
                            </g>
                            <polygon id="Rectangle_Left_Isometric" fill="#675EC0" points="140.6625 218.934375 124.78125 210.99375 124.78125 188.30625 140.6625 196.246875"></polygon>
                            <polygon id="Rectangle_Right_Isometric" fill="#564EA4" points="140.6625 218.934375 490.05 44.240625 490.05 21.553125 140.6625 196.246875"></polygon>
                            <polygon id="Rectangle_Top_Isometric" fill="#FF81B3" points="124.78125 188.30625 474.16875 13.6125 490.05 21.553125 140.6625 196.246875"></polygon>
                            <polygon id="Rectangle-Copy-25_Left_Isometric" fill="#675EC0" points="183.76875 246.159375 167.8875 238.21875 167.8875 215.53125 183.76875 223.471875"></polygon>
                            <polygon id="Rectangle-Copy-25_Right_Isometric" fill="#564EA4" points="183.76875 246.159375 410.64375 132.721875 410.64375 110.034375 183.76875 223.471875"></polygon>
                            <polygon id="Rectangle-Copy-25_Top_Isometric" fill="#FF81B3" points="167.8875 215.53125 394.7625 102.09375 410.64375 110.034375 183.76875 223.471875"></polygon>
                            <polygon id="Rectangle-Copy-26_Left_Isometric" fill="#7568FF" points="192.84375 398.165625 113.4375 358.4625 113.4375 335.775 192.84375 375.478125"></polygon>
                            <polygon id="Rectangle-Copy-26_Right_Isometric" fill="#5E52D9" points="192.84375 398.165625 442.40625 273.384375 442.40625 250.696875 192.84375 375.478125"></polygon>
                            <polygon id="Rectangle-Copy-26_Top_Isometric" fill="#8C81FF" points="113.4375 335.775 363 210.99375 442.40625 250.696875 192.84375 375.478125"></polygon>
                            <polygon id="Rectangle-Copy-26_Left_Isometric" fill="#7568FF" points="474.16875 252.965625 394.7625 213.2625 394.7625 190.575 474.16875 230.278125"></polygon>
                            <polygon id="Rectangle-Copy-26_Right_Isometric" fill="#5E52D9" points="474.16875 252.965625 723.73125 128.184375 723.73125 105.496875 474.16875 230.278125"></polygon>
                            <polygon id="Rectangle-Copy-26_Top_Isometric" fill="#8C81FF" points="394.7625 190.575 644.325 65.79375 723.73125 105.496875 474.16875 230.278125"></polygon>
                        </g>
                        <g id="Group-39" transform="translate(370.260000, 735.680000)">
                            <g id="Group-16" transform="translate(79.200000, 0.000000)">
                                <g id="Rectangle_Isometric">
                                    <polygon id="Rectangle_Right_Isometric" fill="#172633" opacity="0.8" points="39.6 415.8 792 39.6 792 19.8 39.6 396"></polygon>
                                    <polygon id="Rectangle_Top_Isometric" fill="#FFE98D" points="0 376.2 752.4 0 792 19.8 39.6 396"></polygon>
                                </g>
                                <g id="Rectangle_Isometric-Copy" transform="translate(69.300000, 43.560000)">
                                    <polygon id="Rectangle_Right_Isometric" fill="#172633" opacity="0.8" points="39.6 415.8 792 39.6 792 19.8 39.6 396"></polygon>
                                    <polygon id="Rectangle_Top_Isometric" fill="#FFE98D" points="0 376.2 752.4 0 792 19.8 39.6 396"></polygon>
                                </g>
                                <g id="Rectangle_Isometric-Copy-2" transform="translate(132.660000, 91.080000)">
                                    <polygon id="Rectangle_Right_Isometric" fill="#172633" opacity="0.8" points="39.6 415.8 792 39.6 792 19.8 39.6 396"></polygon>
                                    <polygon id="Rectangle_Top_Isometric" fill="#FFE98D" points="0 376.2 752.4 0 792 19.8 39.6 396"></polygon>
                                </g>
                            </g>
                        </g>
                        <g id="Group-35" transform="translate(1195.000000, 488.000000)">
                            <g id="Group-22">
                                <g id="Group-21">
                                    <g id="Rectangle_Isometric">
                                        <polygon id="Rectangle_Left_Isometric" fill="#675EC0" opacity="0.8" points="421.136719 437.982188 0 227.413828 0 210.568359 421.136719 421.136719"></polygon>
                                        <polygon id="Rectangle_Right_Isometric" fill="#564EA4" opacity="0.8" points="421.136719 437.982188 842.273438 227.413828 842.273438 210.568359 421.136719 421.136719"></polygon>
                                        <polygon id="Rectangle_Top_Isometric" fill="#8C81FF" points="0 210.568359 421.136719 0 842.273438 210.568359 421.136719 421.136719"></polygon>
                                    </g>
                                </g>
                            </g>
                            <g id="Rectangle_Isometric" transform="translate(259.545000, 190.877500)">
                                <polygon id="Rectangle_Right_Isometric" fill="#070E11" points="224.60625 156.014375 262.040625 137.297188 262.040625 112.340937 224.60625 131.058125"></polygon>
                                <polygon id="Rectangle_Left_Isometric" fill="#3DBDCE" points="224.60625 156.014375 0 43.71125 0 18.755 224.60625 131.058125"></polygon>
                                <polygon id="Rectangle_Top_Isometric" fill="#FFE98D" points="37.434375 0.0378125 0 18.755 224.60625 131.058125 262.040625 112.340938"></polygon>
                            </g>
                            <g id="Rectangle-Copy-25_Isometric" transform="translate(259.545000, 101.035000)">
                                <polygon id="Rectangle-Copy-25_Left_Isometric" fill="#3DBDCE" points="314.44875 200.935625 0 43.71125 0 18.755 314.44875 175.979375"></polygon>
                                <polygon id="Rectangle-Copy-25_Top_Isometric" fill="#FFE98D" points="37.434375 0.0378125 0 18.755 314.44875 175.979375 351.883125 157.262188"></polygon>
                            </g>
                        </g>
                        <g id="Group-13" transform="translate(1270.500000, 0.000000)">
                            <g id="Rectangle-Copy-32_Isometric" transform="translate(0.000000, 31.732250)">
                                <polygon id="Rectangle-Copy-32_Left_Isometric" fill="#267884" points="733.71375 592.9605 0 226.103625 0 196.156125 733.71375 563.013"></polygon>
                                <polygon id="Rectangle-Copy-32_Top_Isometric" fill="#FFFFFF" points="0 196.156125 392.31225 0 1126.026 366.856875 733.71375 563.013"></polygon>
                            </g>
                            <g id="Rectangle_Isometric">
                                <polygon id="Rectangle_Left_Isometric" fill="#2D8996" points="177.88815 318.329825 0 229.38575 0 196.4435 177.88815 285.387575"></polygon>
                                <polygon id="Rectangle_Right_Isometric" fill="#1F616B" points="177.88815 318.329825 569.900925 122.323437 569.900925 89.3811875 177.88815 285.387575"></polygon>
                                <polygon id="Rectangle_Top_Isometric" fill="#3DBDCE" points="0 196.4435 392.012775 0.4371125 569.900925 89.3811875 177.88815 285.387575"></polygon>
                            </g>
                            <g id="Rectangle-Copy-25_Isometric" transform="translate(237.601000, 256.338500)">
                                <polygon id="Rectangle-Copy-25_Left_Isometric" fill="#2D8996" points="74.86875 104.81625 0 67.381875 0 37.434375 74.86875 74.86875"></polygon>
                                <polygon id="Rectangle-Copy-25_Right_Isometric" fill="#1F616B" points="74.86875 104.81625 149.7375 67.381875 149.7375 37.434375 74.86875 74.86875"></polygon>
                                <polygon id="Rectangle-Copy-25_Top_Isometric" fill="#142A35" points="0 37.434375 74.86875 0 149.7375 37.434375 74.86875 74.86875"></polygon>
                            </g>
                            <g id="Rectangle-Copy-25_Isometric-Copy" transform="translate(377.338500, 181.469750)">
                                <polygon id="Rectangle-Copy-25_Left_Isometric" fill="#2D8996" points="74.86875 104.81625 0 67.381875 0 37.434375 74.86875 74.86875"></polygon>
                                <polygon id="Rectangle-Copy-25_Top_Isometric" fill="#142A35" points="0 37.434375 74.86875 0 149.7375 37.434375 74.86875 74.86875"></polygon>
                            </g>
                            <g id="Rectangle-Copy-28_Isometric" transform="translate(356.375250, 178.475000)">
                                <polygon id="Rectangle-Copy-28_Left_Isometric" fill="#D56B95" points="74.86875 245.5695 0 208.135125 0 178.187625 74.86875 215.622"></polygon>
                                <polygon id="Rectangle-Copy-28_Right_Isometric" fill="#B15A7D" points="74.86875 245.5695 431.244 67.381875 431.244 37.434375 74.86875 215.622"></polygon>
                                <polygon id="Rectangle-Copy-28_Top_Isometric" fill="#FF81B3" points="0 178.187625 356.37525 0 431.244 37.434375 74.86875 215.622"></polygon>
                            </g>
                        </g>
                        <g id="Group-15" transform="translate(0.000000, 557.810000)">
                            <polygon id="Rectangle_Right_Isometric" fill="#FFFFFF" opacity="0.596330915" points="393.40125 565.996406 1056.78375 234.305156 1056.78375 215.020781 393.40125 546.712031"></polygon>
                            <polygon id="Rectangle_Top_Isometric" fill="#FFFFFF" points="3.28856942e-12 350.011406 663.3825 18.3201563 1056.78375 215.020781 393.40125 546.712031"></polygon>
                            <polygon id="Rectangle-Copy-25_Right_Isometric" fill="#AB5275" points="150.418125 301.800469 688.452188 32.7834375 688.452188 13.4990625 150.418125 282.516094"></polygon>
                            <polygon id="Rectangle-Copy-25_Top_Isometric" fill="#FF81B3" points="123.42 269.017031 661.454063 9.67226299e-14 688.452188 13.4990625 150.418125 282.516094"></polygon>
                            <polygon id="Rectangle_Top_Isometric" fill="#FFD86D" points="1.64428471e-12 330.727031 125.348438 268.052813 518.749688 464.753438 393.40125 527.427656"></polygon>
                            <polygon id="Rectangle-Copy-26_Right_Isometric" fill="#52B481" points="329.762813 338.440781 468.610313 269.017031 468.610313 249.732656 329.762813 319.156406"></polygon>
                            <polygon id="Rectangle-Copy-26_Top_Isometric" fill="#142A35" points="237.197812 272.873906 376.045312 203.450156 468.610312 249.732656 329.762812 319.156406"></polygon>
                            <polygon id="Rectangle-Copy-26_Left_Isometric" fill="#76FFB7" points="499.465312 247.804219 406.900312 201.521719 406.900312 182.237344 499.465312 228.519844"></polygon>
                            <polygon id="Rectangle-Copy-26_Right_Isometric" fill="#52B481" points="499.465313 247.804219 638.312813 178.380469 638.312813 159.096094 499.465313 228.519844"></polygon>
                            <polygon id="Rectangle-Copy-26_Top_Isometric" fill="#142A35" points="406.900312 182.237344 545.747812 112.813594 638.312812 159.096094 499.465312 228.519844"></polygon>
                            <g id="Group-26" transform="translate(572.745938, 29.105469)">
                                <polygon id="Rectangle-Copy-26_Left_Isometric" fill="#76FFB7" points="92.565 134.990625 3.88666876e-12 88.708125 3.88666876e-12 69.42375 92.565 115.70625"></polygon>
                                <polygon id="Rectangle-Copy-26_Right_Isometric" fill="#52B481" points="92.565 134.990625 231.4125 65.566875 231.4125 46.2825 92.565 115.70625"></polygon>
                                <polygon id="Rectangle-Copy-26_Top_Isometric" fill="#142A35" points="1.27897692e-13 69.42375 138.8475 -3.62376795e-13 231.4125 46.2825 92.565 115.70625"></polygon>
                            </g>
                            <polygon id="Rectangle-Copy-29_Right_Isometric" fill="#564EA4" points="557.318438 465.717656 1056.78375 215.985 1056.78375 196.700625 557.318438 446.433281"></polygon>
                            <polygon id="Rectangle-Copy-29_Top_Isometric" fill="#22A3FF" points="341.333438 338.440781 840.79875 88.708125 1056.78375 196.700625 557.318438 446.433281"></polygon>
                        </g>
                    </g>
                </g>
            </g>
        </g>
    </g>
</svg>