<?xml version="1.0" encoding="UTF-8"?>
<svg width="23px" height="23px" viewBox="0 0 23 23" version="1.1" xmlns="http://www.w3.org/2000/svg" xmlns:xlink="http://www.w3.org/1999/xlink">
    <!-- Generator: Sketch 61.2 (89653) - https://sketch.com -->
    <title>Fill 2</title>
    <desc>Created with Sketch.</desc>
    <g id="Page-1" stroke="none" stroke-width="1" fill="none" fill-rule="evenodd">
        <g id="Landing-Copy" transform="translate(-61.000000, -6144.000000)" fill="#FF3333">
            <g id="footer" transform="translate(0.000000, 6067.000000)">
                <path d="M82.2744192,88.4984713 L82.2744192,88.4963054 C82.2744192,86.9845638 82.3372361,85.6359806 83.4578311,83.2550237 C83.784912,82.5655713 84.5004466,81.553412 83.4455565,80.380982 C82.5906696,79.5262055 81.6123151,79.6691495 80.9559872,80.0445581 C81.3328883,79.3890369 81.4751288,78.4108087 80.6195198,77.5545883 C79.4447724,76.4998345 78.4346484,77.2152767 77.7422188,77.5387056 C75.3660086,78.6649315 74.0150851,78.7270183 72.498816,78.7270183 L72.497372,78.7270183 C70.983269,78.7270183 69.6337896,78.6649315 67.2561353,77.5387056 C66.5665939,77.2152767 65.5535818,76.4998345 64.3817224,77.5545883 C63.5275575,78.4108087 63.6683539,79.3890369 64.043089,80.0445581 C63.3860391,79.6669837 62.4105726,79.5262055 61.5542417,80.380982 C60.4993516,81.553412 61.2156082,82.5655713 61.5419671,83.2550237 C62.6625621,85.6359806 62.7232129,86.982398 62.7232129,88.4984713 C62.7232129,90.0131006 62.6625621,91.3652936 61.5419671,93.7419189 C61.2156082,94.4328151 60.4993516,95.4449745 61.5542417,96.6210141 C62.4105726,97.472181 63.3860391,97.328515 64.043089,96.9559941 C63.6669099,97.6115153 63.5246694,98.5875777 64.3817224,99.445242 C65.5535818,100.500718 66.5665939,99.7852756 67.2561353,99.4553491 C69.6337896,98.3356208 70.981825,98.272812 72.498816,98.272812 C74.0150851,98.272812 75.3660086,98.3356208 77.7407748,99.4553491 C78.4346484,99.7852756 79.4447724,100.500718 80.6195198,99.445242 C81.4736847,98.5875777 81.3328883,97.6115153 80.9545431,96.9559941 C81.6123151,97.3306808 82.5906696,97.4743468 83.4455565,96.6210141 C84.5004466,95.4449745 83.784912,94.4328151 83.4578311,93.7426408 C82.3372361,91.3645716 82.2744192,90.0138226 82.2744192,88.4984713 L82.2744192,88.4984713 Z M79.6743788,95.6904339 L74.1038951,91.0165967 C74.1038951,91.0165967 73.3522589,90.2823841 72.498816,90.2823841 C71.6489833,90.2823841 70.8930149,91.0165967 70.8930149,91.0165967 L65.3254194,95.6904339 L65.3044804,95.6723854 L69.9818094,90.104065 C69.9818094,90.104065 70.7153948,89.35036 70.7153948,88.4984713 C70.7153948,87.6473044 69.9818094,86.8957653 69.9818094,86.8957653 L65.3044804,81.3231132 L65.3254194,81.3043428 L70.894459,85.9796239 C70.894459,85.9796239 71.6489833,86.7152804 72.498816,86.7152804 C73.3522589,86.7152804 74.1038951,85.9796239 74.1038951,85.9796239 L79.6714907,81.3065086 L79.6895415,81.3245571 L75.0194328,86.8957653 C75.0194328,86.8957653 74.2829593,87.6473044 74.2829593,88.4984713 C74.2829593,89.35036 75.0194328,90.104065 75.0194328,90.104065 L79.6895415,95.6723854 L79.6743788,95.6904339 L79.6743788,95.6904339 Z" id="Fill-2"></path>
            </g>
        </g>
    </g>
</svg>