<?xml version="1.0" encoding="UTF-8"?>
<svg width="106px" height="95px" viewBox="0 0 106 95" version="1.1" xmlns="http://www.w3.org/2000/svg" xmlns:xlink="http://www.w3.org/1999/xlink">
    <!-- Generator: Sketch 62 (91390) - https://sketch.com -->
    <title>62</title>
    <desc>Created with Sketch.</desc>
    <g id="Ver-1" stroke="none" stroke-width="1" fill="none" fill-rule="evenodd">
        <g id="Our-Work" transform="translate(-861.000000, -7072.000000)" fill="#000000">
            <g id="Group-9" transform="translate(861.000000, 7072.000000)">
                <g id="62">
                    <path d="M104.6558,49.4462189 C104.618108,49.5510118 104.524084,49.8140296 104.404794,50.1449763 C104.510001,50.1959231 104.623907,50.2501834 104.782546,50.3263964 C104.862901,50.6188225 105.307753,50.9282308 105.03728,51.3237929 C104.793729,51.6795917 105.436984,52.0556864 104.945327,52.3443846 C105.028996,53.0907751 104.503374,53.6292367 104.157102,54.150716 C103.843138,54.6237337 103.76651,55.2143846 103.291422,55.6252722 C102.878463,55.9827278 102.646096,56.5497692 102.33296,57.0261006 C102.060416,57.0385266 101.807339,57.0492959 101.45651,57.0650355 C101.519883,57.2671657 101.567102,57.4187633 101.642072,57.6577574 C101.547635,57.7637929 101.392723,57.939 101.224558,58.1287041 C101.328522,58.4476391 101.425859,58.7475207 101.540593,59.0995917 C101.377398,59.285568 101.215445,59.4703018 101.038581,59.6720178 C101.177753,59.7217219 101.308226,59.7681124 101.530238,59.8472249 C101.276333,60.0274024 101.067575,60.1756864 100.848049,60.331426 C100.890712,60.3815444 100.956984,60.459 101.060948,60.5803609 C100.313315,60.8587041 99.6472796,60.1885266 98.822605,60.512432 C98.3131375,60.8798284 97.9349719,61.6295325 97.1782263,61.9066331 C96.8862145,62.0139112 97.1359778,62.5490592 96.6356227,62.4861006 C96.4575162,62.4637337 96.5892322,63.0369882 96.1717174,62.925568 C96.0159778,63.4449763 95.5524867,63.6537337 95.186747,63.9809527 C94.8831375,64.2518402 94.6060369,64.6051538 94.3616582,64.9584675 C94.1578713,65.2525503 93.9404156,65.5375207 93.7246168,65.8233195 C93.5295281,66.0821953 93.3004748,66.3203609 93.1397648,66.5987041 C93.0030784,66.8360414 93.014676,67.2415444 92.8299423,67.3488225 C92.5814216,67.4929645 92.4115991,67.6487041 92.3585813,67.9837929 C92.1142026,67.8379941 91.9650902,67.749355 91.8151494,67.6598876 C91.3483446,67.8881124 90.8807115,68.1051538 90.4159778,67.5343846 L90.4159778,66.3485266 C89.5225458,65.8452722 88.5885222,65.4058047 88.170179,64.2679941 C88.2029009,63.8927278 88.0206523,63.3608935 88.3818358,62.9218402 C87.8574571,61.8747396 88.3126642,60.9883491 88.8175754,60.115213 C89.4252085,59.0643846 90.2225458,58.1672249 91.1573979,57.3408935 C90.6077529,56.5162189 90.0332559,55.7478757 89.5647943,54.9198876 C89.2425458,54.3503609 88.8863328,53.7290592 88.8685222,53.0775207 C88.8502973,52.4023728 88.6378121,51.6978166 89.0404156,51.013142 C89.220179,50.7066331 89.0474571,50.2626095 89.249173,49.8587633 C89.3701198,49.6160414 89.4450902,49.3463964 89.6314807,49.1136154 C89.7321316,48.9881124 89.7275754,48.7781124 89.8104156,48.4450947 C89.996392,48.2723728 90.4627825,48.0395917 90.5601198,47.7016036 C90.7009482,47.2103609 91.3297056,47.3975799 91.3205932,46.8230828 C91.48296,46.9461006 91.555031,47.0007751 91.6672796,47.0856864 C91.9273979,47.008645 92.2214807,46.9216627 92.5284038,46.8313669 C92.6402381,47.0434379 92.7342618,47.2211302 92.8481671,47.4373432 C92.6232559,47.844503 92.3776346,48.289355 92.0951494,48.8004793 C92.6534926,48.7453905 93.084676,48.7023136 93.4529009,48.6658639 C93.6032559,48.8162189 93.6831967,48.8957456 93.7718358,48.9843846 C93.6210665,49.2801243 93.4690547,49.5791775 93.2685813,49.9739112 C93.6227233,50.0103609 93.8977529,50.0385266 94.2386405,50.0733195 C94.1545577,50.4726095 94.070889,50.873142 93.988463,51.2670473 C93.844321,51.3954497 93.6885813,51.5346213 93.5282855,51.6779349 C93.6297648,51.7794142 93.6715991,51.8336746 93.6807115,51.8282899 C93.8281671,51.7466923 93.9718949,51.6576391 94.147102,51.5516036 C94.2063328,51.7098284 94.2431967,51.8071657 94.2908298,51.9330828 C93.9710665,52.0950355 93.6670429,52.2491183 93.3203565,52.4243254 C93.4810665,52.4781716 93.6086405,52.5208343 93.8447352,52.5995325 C93.5755044,52.8691775 93.3365103,53.1085858 93.025031,53.4213077 C93.42225,53.734858 93.774321,54.0132012 94.1516582,54.311426 C94.7075162,54.4170473 95.1540251,54.1826095 95.5910074,53.804858 C96.6020724,52.9321361 97.7133742,52.1704201 98.7095281,51.293142 C99.7292914,50.3947396 100.814084,49.5145621 101.540179,48.3108935 C101.710001,48.0292367 102.008226,47.8254497 102.264617,47.5694734 L103.453374,47.5694734 C103.518404,47.6518994 103.630238,47.7939704 103.746214,47.9397692 C103.616155,48.3104793 103.482783,48.6923728 103.308818,49.1885858 C103.669173,49.0895917 103.961599,49.0092367 104.34225,48.9044438 C104.402309,49.0079941 104.495504,49.1691183 104.6558,49.4462189" id="Fill-25"></path>
                    <path d="M32.9700429,73.236071 C32.6034748,73.3495621 32.3023506,73.4431716 31.9130014,73.5637041 C32.0078535,73.3603314 32.0703979,73.2261302 32.1495103,73.0558935 C31.8902204,72.6653018 31.5969659,72.315716 31.0605754,72.3931716 C31.0191553,72.2349467 30.9926464,72.1330533 30.9553683,71.9913964 L30.022173,71.9913964 C29.9289778,71.8982012 29.8482085,71.8538817 29.8270843,71.7900947 C29.6841849,71.3593254 29.6539482,70.8473728 29.3946582,70.5093846 C29.0608121,70.0748876 29.2269068,69.6486746 29.2115813,69.2278462 C29.1987411,68.8861302 29.3366701,68.5361302 29.4207529,68.1931716 C29.7222914,66.9671361 30.1886819,65.8011598 30.7826464,64.6923432 C31.1483861,64.010568 31.558031,63.3466036 32.0070251,62.7166036 C32.4456642,62.1011006 32.9596878,61.5390296 33.4554867,60.9347101 C33.3208713,60.8485562 33.1734156,60.7483195 33.0201612,60.6576095 C31.5385636,59.7811598 30.2408713,58.6777278 29.0376168,57.4541775 C28.469747,56.8767811 28.4664334,56.1018107 28.3007529,55.3885562 C28.2340665,55.1031716 28.2899837,54.7887929 28.2899837,54.4876686 C28.5935932,53.9086154 29.2053683,53.8597396 29.7989186,53.623645 C29.9989778,53.975716 30.2044216,54.3377278 30.4363742,54.7448876 C30.4769659,54.7150651 30.5473801,54.6632899 30.6737115,54.5700947 C30.7511671,54.6471361 30.8874393,54.7212781 30.9255458,54.830213 C31.1616405,55.5016331 31.7100429,55.8433491 32.2928239,56.1341183 C33.4786819,56.7268402 34.6753091,57.2963669 35.9485636,57.9147692 C36.2463742,57.5999763 36.5441849,57.1170178 36.9766109,56.8755385 C37.3750724,56.6526982 37.3957825,56.0152426 38.0170843,56.0765444 C37.9284452,55.9676095 37.8667293,55.8918107 37.7747766,55.7791479 C37.9653091,55.6457751 38.1583269,55.5107456 38.4271435,55.3226982 C38.5120547,55.1354793 38.6416997,54.8500947 38.7684452,54.5705089 C38.9606346,54.5593254 39.1391553,54.5489704 39.3963742,54.5340592 C39.2870251,54.3932308 39.2298653,54.3199172 39.1412263,54.2055976 C39.6208713,54.1355976 39.6527648,53.6389704 39.9547174,53.3722249 C40.2736523,53.0901538 40.499392,52.7028757 40.8017588,52.3151834 C40.8688594,52.3644734 40.9388594,52.4158343 41.0722322,52.514 C41.1310488,52.3756568 41.1861375,52.2451834 41.2553091,52.081574 C41.3369068,52.147432 41.4122914,52.2079053 41.5481494,52.3180828 C41.6960192,51.5248876 42.1458417,50.8886746 42.6238298,50.3166627 C43.1163151,49.7268402 43.5590961,49.0496213 44.3651316,48.6548876 C44.4661967,48.738142 44.6016405,48.8495621 44.7548949,48.9754793 C44.4363742,49.5872544 44.1277943,50.193645 43.4750133,50.5129941 L43.4750133,51.4163669 C43.6295103,51.3786746 43.7864926,51.385716 43.8192145,51.3252426 C43.950102,51.0812781 44.0424689,50.8166036 44.094244,50.691929 C44.6310488,50.2495621 45.0696878,49.8883787 45.6230606,49.4327574 C45.6545399,49.8548284 45.6744216,50.1302722 45.6943032,50.3945325 C45.5257233,50.4637041 45.397321,50.5163077 45.2622914,50.5718107 C45.2970843,50.6202722 45.3405754,50.7138817 45.3637707,50.7089112 C45.6379719,50.6525799 45.9092736,50.5813373 46.2427056,50.4989112 C46.3371435,50.6654201 46.4522914,50.8679645 46.5682677,51.0717515 C46.5061375,51.1409231 46.4319955,51.2229349 46.3520547,51.311574 C46.3992736,51.6387929 46.7927648,51.9274911 46.4883269,52.3023432 C46.3996878,52.2224024 46.3209896,52.1511598 46.2406346,52.0778462 C46.2033565,52.1478462 46.1308713,52.2219882 46.1457825,52.2687929 C46.1872026,52.4013373 46.2646582,52.5226982 46.3516405,52.6941775 C46.2895103,53.2678462 45.8309896,53.6489112 45.405605,54.0361893 C45.0030014,54.4027574 44.5602204,54.7245917 44.0424689,55.1400355 C44.2553683,55.2622249 44.4405162,55.3690888 44.6488594,55.4892071 C44.5188003,55.7389704 44.440102,55.8897396 44.3572618,56.0479645 C44.4053091,56.1013964 44.4773801,56.1800947 44.5892145,56.3035266 C44.3435932,56.3428757 44.1364926,56.376426 43.8395103,56.4248876 C43.9202796,56.6307456 43.9894511,56.8059527 44.069392,57.0093254 L43.3172026,57.0093254 C43.1776168,57.2955385 43.0558417,57.5453018 42.9398653,57.7830533 C43.0475577,57.8990296 43.1229423,57.980213 43.231463,58.0970178 C43.0007529,58.1396805 42.7940665,58.1782012 42.4933565,58.2345325 C42.5662559,58.4267219 42.6329423,58.599858 42.7112263,58.805716 C42.5182085,58.8342959 42.3102796,58.8649467 42.039392,58.9047101 C42.1189186,59.1192663 42.183534,59.2932308 42.2903979,59.5815148 C41.9963151,59.4671953 41.782173,59.3839408 41.5237115,59.2837041 C41.4019364,59.5156568 41.277676,59.7525799 41.1567293,59.9828757 C41.1998062,60.0648876 41.2167884,60.1547692 41.2677352,60.1825207 C41.3576168,60.2313964 41.4789778,60.222284 41.568031,60.2719882 C41.913889,60.4650059 41.9946582,60.9123432 42.3347174,61.1041183 C42.7012855,61.3112189 42.8607529,61.6666036 43.0943624,61.9830533 C43.3047766,62.2680237 43.4609304,62.5082604 43.437321,62.8690296 C43.4290369,62.9924615 43.5392145,63.1233491 43.6075577,63.2778462 C43.5479127,63.3793254 43.4625872,63.5238817 43.3461967,63.7218698 C43.0409304,63.7570769 42.8189186,64.1658935 42.261818,63.9500947 C41.2888594,63.5727574 40.2761375,63.2347692 39.2195103,63.1076095 C39.1606938,63.100568 39.1122322,63.0069586 39.0161375,62.9108639 C38.7071435,63.2592071 38.4002204,63.6050651 38.0150133,64.0395621 C38.0100429,64.080568 37.9893328,64.2582604 37.9665517,64.4500355 C37.7503387,64.484 37.5432381,64.5167219 37.2214038,64.5672544 C37.433889,64.8654793 37.5925281,65.0883195 37.8290369,65.4205089 C37.5618772,65.3422249 37.3837707,65.2904497 37.1576168,65.2241775 C37.1108121,65.2796805 37.01596,65.391929 36.9128239,65.5137041 C37.0437115,65.8753018 36.9385044,66.0964852 36.5147766,66.3371361 C36.388031,66.7927574 36.2662559,67.230568 36.1647766,67.5958935 C35.9734156,67.6663077 35.8665517,67.7056568 35.7286227,67.7566036 L35.9759009,68.0038817 C35.6383269,68.2623432 35.2510488,68.4715148 34.9892736,68.7854793 C34.7527648,69.0683787 34.6541849,69.4660118 34.4702796,69.8669586 C34.4880902,69.8942959 34.5622322,70.0053018 34.6798653,70.1813373 C34.4309304,70.4377278 34.1865517,70.6895621 33.9512855,70.9314556 C34.0428239,71.0457751 34.1103387,71.129858 34.2271435,71.2756568 C34.0610488,71.4653609 33.8978535,71.6517515 33.7160192,71.8592663 L33.7160192,72.5178462 C33.4492736,72.7746509 33.1788003,73.0351834 32.9700429,73.236071" id="Fill-27"></path>
                    <path d="M60.7494393,77.7376923 C61.2713328,78.3689349 61.271747,78.3701775 61.9050606,78.0201775 C61.9228713,78.2223077 61.9166582,78.3983432 61.9601494,78.5607101 C61.9912145,78.675858 62.0889659,78.7731953 62.1519245,78.8709467 C62.0715695,78.951716 62.0181375,79.0047337 61.9502085,79.0726627 C62.1080192,79.1463905 62.2587884,79.2172189 62.5056523,79.3327811 C62.2488476,79.6985207 62.0065399,80.0431361 61.7646464,80.3881657 C62.0765399,80.9489941 61.4167174,81.0484024 61.3218653,81.3486982 C61.1756523,81.8126036 60.6115103,81.912426 60.5953565,82.4082249 C60.5767174,82.9864497 59.9835813,83.0576923 59.7259482,83.3944379 C59.5022796,83.6872781 59.1046464,83.8786391 59.0532855,84.2522485 C59.1423387,84.4046746 59.2127529,84.5252071 59.3283151,84.7236095 C58.9940547,84.9124852 58.7028713,85.0777515 58.4108594,85.2430178 L57.7063032,85.5760355 C57.4921612,85.8286982 57.2780192,86.0813609 56.9918062,86.4185207 L56.9918062,86.6401183 C56.2706819,87.1698817 55.5971908,87.6656805 54.815179,88.2405917 C55.0388476,88.354497 55.1742914,88.4236686 55.3987884,88.5384024 C55.0881375,88.9728994 54.7737588,89.4127811 54.4357707,89.8853846 C55.3035222,90.1811243 56.1199127,90.4598817 56.9619837,90.7473373 C56.8787293,90.9146746 56.8083151,91.0559172 56.7130488,91.2472781 C57.0883151,91.3810651 57.4391435,91.5061538 57.839676,91.6490533 L57.839676,92.1402959 C58.0915103,92.3718343 58.3122796,92.5743787 58.5409186,92.7847929 C58.5550014,93.0502959 58.5678417,93.303787 58.5806819,93.5460947 L58.9903269,93.9553254 L57.9510961,94.8201775 C57.7063032,95.0927219 57.4511553,95.0421893 57.1769541,94.860355 C57.0936997,94.8052663 56.9768949,94.773787 56.8758298,94.775858 C55.7094393,94.8015385 54.6552973,94.3575148 53.5941139,93.9694083 C52.8112736,93.6836095 52.0578417,93.3178698 51.2460074,92.968284 C51.0244097,93.1890533 50.6793801,93.3563905 50.6350606,93.8120118 C50.1661849,93.9230178 49.6852973,94.0373373 49.2354748,94.143787 C49.0035222,93.9089349 48.8183742,93.721716 48.6328121,93.5336686 C48.7032263,93.4557988 48.7761257,93.3754438 48.883818,93.256568 C48.7719837,93.023787 48.6514511,92.7731953 48.5793801,92.6240828 C48.2302085,92.677929 47.9212145,92.7259763 47.619676,92.7723669 C47.4527529,92.4426627 47.3028121,92.1448521 47.1491435,91.8404142 C47.074173,91.9153846 47.0211553,91.9684024 47.0016878,91.9878698 C46.7519245,91.7339645 46.5000902,91.4784024 46.1521612,91.125503 C46.2602677,90.3418343 45.7586701,89.4417751 45.8932855,88.4688166 C45.9218653,88.2650296 45.7657115,87.9701183 45.6012736,87.8160355 C44.9348239,87.1905917 44.906244,86.2868047 44.593108,85.5176331 C44.4734038,85.2239645 44.3458298,84.8511834 44.3354748,84.496213 C44.3180784,83.9324852 44.2522204,83.353432 44.3487293,82.805858 C44.5011553,81.9397633 44.665179,81.0160947 45.6737588,80.6752071 C46.0071908,80.5625444 46.374173,80.5501183 46.8136405,80.4772189 L46.8136405,82.2388166 C47.1959482,81.9927811 47.4519245,81.827929 47.833818,81.5818935 C47.8868358,81.7376331 47.9506227,81.9231953 48.0135813,82.1087574 C48.0703269,82.0656805 48.1270724,82.0226036 48.183818,81.9795266 L48.183818,83.0187574 C48.3780784,82.9201775 48.5184926,82.8489349 48.6510369,82.7814201 C49.1302677,83.2005917 49.1178417,83.7373964 49.0515695,84.2895266 C49.2118653,84.3462722 49.3423387,84.3922485 49.5515103,84.4663905 C49.4624571,84.708284 49.3734038,84.9485207 49.2657115,85.2388757 C49.3961849,85.2152663 49.4616287,85.2223077 49.4980784,85.1928994 C49.585889,85.1233136 49.6463624,84.9990533 49.7424571,84.9626036 C50.7071316,84.5960355 51.1925754,83.5704734 52.1609778,83.2138462 C52.3556523,82.5126036 53.0950014,82.3630769 53.5270133,81.8904734 C53.9764216,81.3992308 54.6105636,81.0794675 55.1527529,80.6698225 C55.6775458,80.2730178 55.9732855,79.604497 56.65796,79.394497 C57.1077825,78.5756213 57.755179,77.9551479 58.5608003,77.492071 C58.5326346,76.9374556 59.2955932,76.8686982 59.2777825,76.2838462 L60.2963032,76.2838462 C60.3692026,76.3563314 60.4756523,76.4627811 60.582102,76.5692308 C60.0945872,76.8119527 59.9164807,77.2828994 59.6045872,77.7807692 C60.279321,77.920355 60.6678417,77.0989941 61.3036405,77.4779882 C61.1197352,77.564142 60.9693801,77.6345562 60.7494393,77.7376923" id="Fill-29"></path>
                    <path d="M58.1293269,65.7984675 C58.0767233,65.2703609 58.8198003,65.2123728 58.4677293,64.7203018 C58.3778476,64.8006568 58.2979068,64.8714852 58.2179659,64.9423136 C58.1914571,64.9153905 58.1454807,64.8917811 58.1409245,64.8619586 C58.0572559,64.3085858 58.0908062,63.7837929 58.4834689,63.3327278 C58.9154807,62.8373432 59.3437648,62.3378166 59.7579659,61.8275207 C59.8888535,61.6663964 59.9696227,61.4646805 60.0984393,61.2376982 C59.8938239,60.7046213 59.6134097,60.1520769 59.3698594,59.6028462 C59.1084985,59.0130237 59.1142973,58.373497 58.8301553,57.7898876 C58.6789719,57.4800651 59.0732914,56.9362189 58.9809245,56.5568107 C58.87696,56.1322544 58.6263683,55.771071 58.9925222,55.3709527 C58.9999778,54.2517811 59.7608653,53.5542663 60.4264867,52.7772249 L62.3082026,52.7772249 C62.4183801,52.8816036 62.5273151,52.9851538 62.7037648,53.1520769 C62.4175517,53.5169882 62.1309245,53.8818994 61.8140606,54.2857456 C61.8492677,54.3611302 61.934179,54.5413077 62.0476701,54.782787 C62.1537056,54.782787 62.3566642,54.8436746 62.4291494,54.7720178 C62.7435281,54.4634379 63.1067825,54.5881124 63.4377293,54.5516627 C63.5599186,54.8163373 63.6618121,55.0375207 63.7753032,55.283142 C63.6054807,55.495213 63.4302736,55.7143254 63.1643565,56.0461006 C63.5665458,56.0974615 63.8361908,56.1318402 64.190747,56.1769882 L64.190747,57.2597101 C64.9537056,57.2845621 65.0373742,56.3604793 65.6798003,56.3642071 C65.9713979,55.9201834 66.3967825,55.6111893 66.7799186,55.2570473 C67.2218713,54.8490592 67.6422855,54.4166331 68.0589719,53.9821361 C68.4425222,53.5816036 68.8318713,53.1827278 69.1764867,52.7503018 C69.5310429,52.3046213 69.8358949,51.8191775 70.0409245,51.5250947 C70.5077293,51.3577574 70.770747,51.2633195 71.0971375,51.1465148 C71.2040014,51.2985266 71.3792085,51.4530237 71.4239423,51.639 C71.458321,51.7818994 71.3444156,51.9720178 71.2677884,52.1265148 C71.180392,52.3021361 71.0606878,52.4611893 71.0619304,52.7701834 C71.3912204,52.631426 71.7205103,52.4922544 72.0829364,52.3394142 C72.2763683,52.7163373 72.4834689,53.1197692 72.7974334,53.7315444 C72.7974334,53.7187041 72.7792085,53.9411302 72.8036464,54.1585858 C72.8226997,54.3275799 72.8943565,54.4907751 72.9577293,54.7074024 C72.9129955,54.7852722 72.8309837,54.9294142 72.7551849,55.062787 C72.8690902,55.1858047 72.944889,55.2674024 73.0124038,55.3398876 C72.3579659,56.3878166 71.7689719,57.4726095 71.0511612,58.4869882 C70.4484985,59.3385858 70.5329955,59.3982308 70.0914571,59.6392959 C70.1618713,59.7175799 70.2331139,59.7962781 70.2902736,59.8596509 C69.3964275,60.8611893 68.5100369,61.854858 67.610392,62.8634379 L67.610392,63.2382899 C68.3170192,63.6885266 69.0008653,64.1238521 69.7157766,64.5790592 C69.6122263,64.7820178 69.5488535,64.9062781 69.451102,65.0988817 C69.7215754,65.3312485 69.9034097,65.7781716 70.42696,65.6133195 C70.5416938,65.8411302 70.6353032,66.0271065 70.7272559,66.2101834 C70.6613979,66.3021361 70.5793861,66.4160414 70.4671375,66.5721953 C70.7504511,66.8559231 71.0047707,67.1106568 71.2798003,67.3861006 C71.1750074,67.6557456 71.0859541,67.8856272 70.98696,68.1403609 C71.0594452,68.2646213 71.1464275,68.4145621 71.2267825,68.5524911 C71.1870192,68.6382308 71.1745932,68.7268698 71.1253032,68.7595917 C71.0142973,68.8320769 70.851102,68.8461598 70.7699186,68.9381124 C70.2840606,69.4865148 70.1970784,69.5171657 69.5861316,69.3084083 C68.7950074,69.0379349 67.9442381,68.8788817 67.2214571,68.4841479 C66.2530547,67.9556272 65.382818,67.2473432 64.3825222,66.555213 C63.9625222,66.8658639 63.4911612,67.2920769 63.0371967,67.7771065 C62.5981435,68.2463964 62.0195044,68.6183491 61.2151257,68.8577574 C61.3567825,68.6237337 61.4147707,68.5280533 61.5402736,68.3192959 C61.0361908,68.4133195 60.6132914,68.4920178 60.1908062,68.570716 L60.118321,68.4253314 C60.3726405,68.226929 60.6265458,68.0289408 60.8808653,67.8309527 L60.4877884,67.4378757 L59.7165458,67.4378757 C59.6138239,67.1798284 59.4995044,66.890716 59.3644748,66.551071 L58.4283801,66.551071 C58.2995636,66.2267515 58.1840014,65.9359822 58.1293269,65.7984675" id="Fill-31"></path>
                    <path d="M63.0289541,43.6336509 C62.6412618,43.726432 62.2995458,43.8084438 61.8174156,43.9240059 C61.3224452,43.5582663 60.7305517,43.102645 60.119605,42.6751893 C59.3910251,42.1653077 58.7581257,41.5158402 57.9264097,41.1567278 C57.7338062,41.0734734 57.531676,41.0134142 57.264102,40.9173195 C56.9397825,40.4314615 56.9020902,39.5293314 55.9506701,39.6287396 C55.5203151,39.2352485 55.4677115,38.5518166 54.8385399,38.4855444 C54.6326819,38.134716 54.5026227,37.733355 54.2321494,37.4827633 C52.9974156,36.337497 52.1039837,34.9619349 51.3356405,33.3022308 C51.2689541,32.7898639 51.2685399,32.1068462 51.1579482,31.4217574 C50.9839837,30.3427633 51.5588949,29.4161953 52.4933328,28.8180888 C52.7513801,28.6532367 52.8843387,28.2908107 53.3130369,28.3293314 C53.6112618,28.3562544 53.9260547,28.1976154 54.322031,28.1002781 C54.43925,28.2046568 54.5945754,28.3425858 54.7904926,28.5165503 C54.4719719,29.051284 53.8697233,29.388858 53.8241612,30.1070828 C54.5328594,30.3435917 54.8505517,29.5561953 55.5638062,29.4654852 C55.6507884,29.543355 55.8052855,29.6808698 55.9502559,29.810929 C55.6975932,30.1899231 55.5273565,30.445071 55.2138062,30.9151893 C55.701321,30.7611065 56.0480074,30.7586213 56.1759955,30.5900414 C56.4994867,30.1634142 57.0226227,29.9923491 57.3262322,29.5176746 C57.6091316,29.0757219 58.0730369,28.746432 58.5472973,28.4382663 C59.217889,28.0029408 59.761321,27.3770828 60.3900784,26.870929 C61.3141612,26.1270237 62.1802559,25.3118757 63.2095458,24.6934734 C63.6167056,24.4495089 63.9178298,24.0245385 64.255818,23.6703964 C64.5631553,23.3481479 65.0514985,23.2073195 65.1480074,22.7268462 L66.6672973,22.7268462 L66.6672973,23.7068462 C66.6250488,23.7490947 66.47925,23.8948935 66.3036287,24.070929 C66.5049304,24.0348935 66.705818,24.0063136 66.9029778,23.9615799 C67.1034511,23.9160178 67.3006109,23.854716 67.6046346,23.7714615 C67.558244,24.5008698 67.5934511,25.1466095 68.1203151,25.617142 C68.0093091,25.7666686 67.9459364,25.8519941 67.8183624,26.024716 C67.9790724,26.113355 68.165463,26.2152485 68.5121494,26.4053669 C68.155108,26.5031183 68.033747,26.5362544 67.8680665,26.5818166 C67.9310251,26.7259586 68.0155222,26.860574 68.046173,27.006787 C68.0772381,27.150929 68.0532145,27.3062544 68.0532145,27.4541243 C67.6344571,28.0290355 67.2152855,28.6039467 66.755108,29.2351893 C66.6706109,29.244716 66.4925044,29.2641834 66.2307293,29.2927633 C66.3102559,29.4021124 66.3591316,29.4704556 66.4233328,29.5590947 C66.355818,29.7206331 66.2808476,29.8999822 66.1967648,30.0996272 C65.2026819,30.0515799 65.1956405,31.0758994 64.5809659,31.4747751 C64.7110251,31.6458402 64.7756405,31.7307515 64.8050488,31.7696864 C64.3962322,32.1789172 63.9836878,32.5914615 63.5670014,33.0077337 C63.6005517,33.0383846 63.5471198,32.9899231 63.5703151,33.0106331 C63.3847529,33.1957811 63.193392,33.387142 63.002031,33.5789172 C62.9399009,33.5304556 62.8781849,33.4824083 62.8160547,33.4339467 L62.8160547,34.0287396 C62.6847529,33.9206331 62.6085399,33.8576746 62.4374748,33.7172604 C62.4751671,33.9707515 62.5004334,34.1393314 62.5356405,34.3762544 C62.2535695,34.7415799 61.9143387,35.1810473 61.5469423,35.6573787 C61.381676,35.536432 61.2690133,35.4531775 61.1687766,35.3794497 C60.762031,35.8549527 60.3449304,36.3424675 59.924102,36.8345385 C60.0860547,36.9153077 60.2355813,36.9894497 60.4534511,37.0975562 C60.2504926,37.3547751 60.0761139,37.5759586 59.9125044,37.7834734 C59.9390133,37.8750118 59.9390133,37.9595089 59.9808476,38.0067278 C60.6688358,38.7779704 61.4848121,39.4676154 62.0212026,40.3316391 C62.6255222,41.3045976 63.3806109,42.3090355 63.0289541,43.6336509" id="Fill-33"></path>
                    <path d="M78.7018713,27.3024024 C78.7714571,27.2328166 78.824889,27.1793846 78.8799778,27.1242959 C78.8393861,27.0721065 78.8050074,27.0120473 78.7565458,26.9677278 C78.4637056,26.700568 78.0938239,26.4715148 77.8569009,26.2097396 C77.624534,25.9537633 77.3644156,25.7586746 77.1291494,25.5242367 C76.8164275,25.2123432 76.4676701,24.7658343 76.451102,24.3644734 C76.4216938,23.6462485 76.3782026,22.9259527 76.5488535,22.1733491 C76.8433506,20.874 77.5238831,19.8902722 78.4251849,18.9926982 C79.5692085,17.8532308 80.7095044,16.7100355 81.9098594,15.5096805 C81.4542381,15.117432 81.4310429,14.3768402 80.7095044,14.2326982 C80.4063091,13.6432899 80.1043565,13.0538817 79.8011612,12.4644734 C79.5215754,11.9206272 79.5716938,11.3337041 79.5745932,10.7525799 C79.5770784,10.3387929 79.5754216,9.92500592 79.5754216,9.51121893 C79.9560724,9.02536095 80.3367233,8.53950296 80.7111612,8.0623432 L82.5928772,8.0623432 C82.2913387,8.57719527 82.0332914,9.01749112 81.7802145,9.44991716 C82.4760724,9.9552426 82.7316346,8.86050888 83.3429955,9.19435503 C83.7244748,9.71666272 83.014534,9.96269822 82.7896227,10.4680237 C83.2237056,10.3640592 83.4759541,10.3031716 83.784534,10.2290296 C83.9676109,10.7658343 83.8760724,11.2355385 83.5873742,11.7400355 C83.7414571,11.8000947 83.862818,11.8473136 84.0458949,11.918142 C84.1763683,12.058142 83.9054807,12.0784379 83.8595044,12.2847101 C84.0409245,12.5622249 84.2616938,12.900213 84.5346523,13.318142 C86.3985577,11.362284 88.775244,10.0513373 90.228676,7.8175503 L91.3619304,7.8175503 C91.274534,8.19033136 91.198321,8.51589349 91.0939423,8.96115976 C91.4087352,8.85015385 91.6510429,8.7648284 91.9832322,8.64760947 L91.9832322,9.52405917 C92.1646523,9.57169231 92.2665458,9.59820118 92.3684393,9.62512426 C92.3970192,9.68849704 92.4417529,9.75021302 92.4496227,9.81607101 C92.4632914,9.92707692 92.4347115,10.0447101 92.45625,10.153645 C92.6861316,11.3266627 92.102108,12.2573728 91.4890902,13.1363077 C90.8263683,14.0873136 90.0567825,14.9641775 89.2789127,15.9421065 C89.8339423,16.6085562 90.7215754,16.9324615 91.5027588,17.5545917 C91.5172559,17.6573136 91.5408653,17.8304497 91.5686168,18.0296805 C91.7757174,18.2885562 92.110392,18.5391479 92.205244,18.860568 C92.413173,19.5651243 92.9276109,20.2212189 92.5780251,21.1308047 C92.4926997,21.1697396 92.3046523,21.2621065 92.1120488,21.3441183 C91.9198594,21.425716 91.7239423,21.4961302 91.5056582,21.5810414 C91.206605,21.2770178 90.5310429,21.3735266 90.6217529,20.7816331 C89.932108,20.5824024 89.3253032,20.4067811 88.7371375,20.2365444 C88.6025222,20.0025207 88.4803328,19.7904497 88.3424038,19.5506272 L87.0948298,19.5506272 C87.0633506,19.4160118 87.0389127,19.3141183 87.0090902,19.1882012 C86.5476701,18.8332308 86.1599778,19.2511598 85.8903328,19.3232308 C85.5216938,19.7506864 85.2396227,20.0779053 84.9277293,20.4386746 C84.8382618,20.3707456 84.766605,20.316071 84.6423446,20.2220473 C84.5089719,20.4105089 84.365244,20.6134675 84.1900369,20.8607456 C84.1668417,20.8305089 84.2235872,20.9038225 84.3076701,21.0123432 C83.7841198,21.143645 83.7385577,21.6696805 83.5082618,22.1025207 C83.3272559,21.9911006 83.2083801,21.917787 83.0261316,21.8055385 C82.9950665,22.000213 82.9648298,22.1907456 82.9283801,22.416071 C82.8505103,22.4371953 82.749031,22.4645325 82.5676109,22.5138225 C82.5191494,22.9715148 82.4541198,23.5290296 81.7756582,23.3770178 C81.5478476,23.6723432 81.1659541,23.9469586 81.1920488,24.1755976 C81.2699186,24.8627574 80.6945932,25.1912189 80.5376109,25.7284379 C80.4634689,26.4073136 80.4738239,26.4068994 80.6846523,26.8604497 C80.1929955,27.252284 79.6379659,27.5161302 79.0005103,27.6789112 C78.9172559,27.5737041 78.8240606,27.4568994 78.7018713,27.3024024" id="Fill-35"></path>
                    <path d="M12.6408003,14.5398284 C12.3595577,14.5746213 12.1901494,14.5957456 11.9764216,14.6222544 C12.1064807,14.7663964 12.1806227,14.8479941 12.2990843,14.9792959 C12.0186701,15.5007751 11.48725,15.813497 11.1268949,16.2695325 L11.3033446,16.4459822 C11.0163032,16.6713077 10.7288476,16.8966331 10.4844689,17.0884083 C10.3494393,17.4442071 10.6377233,17.845568 10.1626346,18.0659231 C10.583463,18.3479941 10.9682559,18.5998284 11.3464216,18.8607751 C12.5322796,19.6800651 13.8005636,20.3829645 14.7780784,21.4863964 C15.3380784,22.1180533 15.8653565,22.7285858 15.8752973,23.6356864 C15.8769541,23.7885266 16.0322796,23.9392959 16.1561257,24.1633787 C15.8152381,24.3791775 15.495889,24.5808935 15.0957707,24.8339704 C12.8412736,23.5130828 10.5105636,22.3359231 8.37287127,20.6107751 C8.21961683,20.6981716 7.88494227,20.7718994 7.8232263,20.9437929 C7.5784334,21.6247396 7.09878843,22.1027278 6.61044523,22.5902426 C6.55080026,22.6498876 6.57316712,22.7911302 6.55701328,22.8955089 C6.34784168,22.9187041 6.17014937,22.9377574 5.8988476,22.9675799 C5.95103695,23.1461006 5.99535647,23.2976982 6.07281209,23.5632012 C5.63790085,23.927284 5.31316712,24.4690592 5.14210204,25.1417219 C5.04269375,25.5323136 4.66825588,25.8524911 4.33275292,26.3242663 L4.33275292,28.7788225 C4.11902511,28.7924911 3.9409186,28.8036746 3.73920263,28.8165148 C3.6957115,28.9387041 3.64932097,29.0695917 3.59381801,29.226574 L2.81511979,29.226574 C2.69334464,28.8736746 2.56867008,28.5116627 2.42452807,28.0945621 C2.20790085,28.1898284 1.99168783,28.2846805 1.7340547,28.3977574 C1.68103695,28.2337337 1.63920263,28.1053314 1.59736831,27.976929 C1.53358133,27.9504201 1.46316712,27.8916036 1.40559316,27.9023728 C0.927604994,27.9930828 0.600386059,27.5888225 0.541569491,27.3316036 C0.301747006,26.284503 -0.37588613,25.249 0.274823929,24.124858 C0.286835763,23.0114852 0.978137538,22.1619586 1.36997186,21.1935562 C1.49796002,20.8775207 2.0480192,20.9330237 1.89890677,20.3871065 C1.83760499,20.1626095 2.24517896,19.8068107 2.44565233,19.5147988 C2.62748665,19.2501243 2.79855174,18.9755089 3.00772334,18.7340296 C3.25334464,18.4503018 3.55239789,18.2125503 3.79594819,17.9275799 C3.99849257,17.6898284 4.15464641,17.4127278 4.35304878,17.1211302 C2.98038606,16.0901834 2.14080026,14.625568 1.17861091,13.2599467 C0.87003103,11.938645 0.336954106,10.6554497 0.544883101,9.10840828 C0.862575408,8.74349704 1.26890677,8.27627811 1.70588902,7.77468047 C2.189676,7.87408876 2.73352215,7.5742071 3.17547482,8.07828994 C2.88594819,8.46846746 2.59849257,8.85574556 2.30813754,9.24716568 C2.38807837,9.33166272 2.46222038,9.41118935 2.53553399,9.48905917 C3.14855174,9.61580473 3.37304878,8.72361538 4.01340381,8.93030178 C4.10867008,9.1150355 4.20352215,9.30018343 4.30293044,9.49237278 C4.10577067,9.61870414 3.88003103,9.76367456 3.64310795,9.91527219 C3.78766417,10.0602426 3.89411387,10.1666923 4.00056357,10.273142 C4.32032689,9.94219527 4.63097778,9.93805325 5.00665825,10.3907751 C4.97269375,10.6430237 5.16819671,11.0075207 4.79085943,11.3011893 C4.94742748,11.376574 5.10068192,11.4503018 5.31979434,11.5550947 C5.13961683,11.7974024 4.97973517,12.0119586 4.8161257,12.2318994 C4.96855174,12.2861598 5.09943931,12.3321361 5.3732263,12.4294734 C5.12139198,12.4974024 5.00210204,12.5292959 4.79334464,12.5856272 C4.8152973,12.7691183 4.77139198,13.0201243 4.87577067,13.1605385 C5.30819671,13.7420769 5.78535647,14.2900651 6.29689493,14.9117811 C6.57855174,14.6591183 6.79476476,14.471071 7.00393635,14.2759822 C8.23991269,13.1236746 9.27417304,11.7418994 10.8071316,10.9259231 C10.7988476,10.5013669 11.2432855,10.5311893 11.4346464,10.3037929 C11.6512736,10.046574 11.8919245,9.80965089 12.04725,9.64355621 L12.8064807,9.64355621 C12.4622796,10.1501243 11.8757707,10.4363373 12.0671316,11.1661598 C12.5575458,10.8737337 13.037605,10.5875207 13.6224571,10.2391775 C13.5702677,10.5734379 13.529676,10.831071 13.4841139,11.1239112 C13.6887293,11.2270473 13.9927529,11.3815444 14.3191435,11.5463964 C14.2350606,11.7207751 14.1646464,11.8661598 14.0826346,12.0363964 C14.2006819,12.0612485 14.3034038,12.0823728 14.4106819,12.1047396 C14.4218653,12.148645 14.4649423,12.2236154 14.4442322,12.2513669 C14.1692026,12.6224911 13.8009778,12.9505385 13.6257707,13.3618402 C13.406244,13.8779349 12.9220429,14.1103018 12.6408003,14.5398284" id="Fill-37"></path>
                    <path d="M33.2602736,26.0699053 C34.1603328,24.965645 34.920392,24.0477751 35.6647115,23.1170651 C36.3696819,22.235645 36.9723446,21.2838107 37.5203328,20.3083669 C37.4503328,20.2217988 37.3824038,20.1381302 37.2660133,19.9948166 C37.4573742,19.7777751 37.6466642,19.5623905 37.8475517,19.3341657 L38.5918713,19.3341657 C38.8702145,19.6125089 39.0942973,20.0097278 39.412818,20.1112071 C39.8017529,20.2346391 39.8568417,20.5457041 40.0138239,20.778071 C40.5580843,21.5828639 40.9366642,22.3996686 40.518321,23.448426 C40.261102,24.0933373 40.0005695,24.7386627 39.7329955,25.3806746 C39.6526405,25.5741065 39.5938239,25.7766509 39.4915162,26.0711479 L38.9211612,26.6419172 L38.9211612,27.3526864 C38.4746523,28.1616213 38.1031139,28.8359408 37.6963683,29.5732189 C38.2584393,29.9551124 38.7761908,30.3233373 39.3096819,30.6671243 C40.3667233,31.3484852 41.241102,32.1946982 41.7634097,33.3573609 C41.8756582,33.6075385 41.9270192,33.8854675 42.0438239,34.2760592 C42.0036464,34.3651124 41.9054807,34.5842249 41.79696,34.8244615 C41.564179,34.9329822 41.3127588,35.0502012 41.1164275,35.1413254 C40.5854216,34.9578343 40.1157174,34.8207337 39.6667233,34.633929 C39.2173151,34.4475385 38.7886168,34.2114438 38.3508062,33.9973018 C38.27625,33.3432781 37.5306878,33.6075385 37.2237648,33.1626864 C36.9719304,32.7973609 36.4119304,32.6453491 35.9206878,32.3591361 C34.4486168,33.8610296 33.1521671,35.5016805 31.9625813,37.2297278 C31.8710429,37.3622722 31.9004511,37.578071 31.8739423,37.7549349 C31.3553624,38.1542249 30.8425813,38.0933373 30.3281435,37.730497 L30.3281435,37.3713846 C29.6596227,36.9708521 29.0329364,36.5955858 28.3474334,36.1846982 C28.0193861,35.8003195 28.1863091,35.1964142 27.9725813,34.7291953 C27.7344156,34.2089586 27.9357174,33.7052899 27.8454216,33.322568 C28.5926405,31.6570651 29.47696,30.1982485 30.743173,28.9394911 L30.743173,28.1707337 C30.0112796,27.6608521 29.5564867,26.866 29.0958949,26.0864734 C28.9413979,25.8251124 28.9173742,25.4838107 28.8465458,25.1764734 C28.702818,24.5510296 28.4878476,23.9458817 28.5069009,23.281503 C28.5437648,22.0107337 29.2653032,21.1040473 30.4784985,20.6480118 C31.2435281,20.3605562 31.986605,20.5051124 32.8092085,20.4243432 C32.3664275,21.3409704 31.3056582,21.2626864 30.6855991,22.0310296 C31.7550665,21.9838107 32.406605,20.9764734 33.4971967,21.1686627 C33.4549482,21.4254675 33.4126997,21.6826864 33.3679659,21.953574 C33.5680251,22.0239882 33.8616938,22.1279527 34.144179,22.2281893 L34.144179,23.662568 C33.8534097,24.1699645 33.5340606,24.6761183 33.2735281,25.2112663 C33.1894452,25.3831598 33.2602736,25.6308521 33.2602736,26.0699053" id="Fill-39"></path>
                    <path d="M52.349108,12.0085207 C51.9262085,12.5386982 51.540173,13.0233136 51.1131316,13.5584615 L51.1131316,15.0077515 C50.7159127,15.1672189 50.329463,15.3229586 49.8928949,15.4981657 C49.3768003,14.9969822 49.1676287,14.3321893 49.0023624,13.7038462 C48.781179,13.7862722 48.585676,13.8587574 48.295321,13.9664497 C48.0675103,13.6388166 47.7904097,13.3492899 47.6408831,13.0046746 C47.1935458,11.972071 47.2291671,10.8694675 47.2780429,9.83189349 C47.465676,9.40443787 47.6330133,9.02254438 47.8417707,8.54579882 C47.529463,8.49899408 47.2527766,8.54248521 47.1380429,8.42650888 C46.4082204,7.68881657 45.6879245,6.93828402 45.0189896,6.14591716 C44.6586346,5.71846154 44.2783979,5.23508876 44.1346701,4.71443787 C43.9250843,3.95230769 43.9201139,3.13384615 43.8211198,2.28266272 C44.1649068,1.79928994 44.4444926,1.23307692 44.8810606,0.842899408 C45.2824216,0.484201183 45.8531908,0.315207101 46.4720074,-1.1812773e-13 C46.6161494,0.156153846 46.7565636,0.307337278 46.8986346,0.461005917 C46.8157943,0.540532544 45.7127766,1.60295858 45.7127766,1.60295858 C45.7923032,1.68289941 45.872244,1.76284024 45.9898772,1.88005917 C46.4947884,1.51183432 46.9976287,1.03011834 47.8185754,1.34781065 C47.6147884,1.62698225 47.4561494,1.84402367 47.177392,2.22550296 C47.5543151,2.07846154 47.7647293,1.99686391 48.0563269,1.88337278 C48.1938417,2.09047337 48.3412973,2.31289941 48.5202322,2.58295858 C48.2087529,2.89485207 47.96396,3.13964497 47.6686346,3.43538462 C47.8591671,3.47431953 47.961889,3.49585799 48.1325399,3.53106509 C47.8765636,3.96266272 48.0211198,4.55952663 47.3612973,4.77988166 C48.0161494,5.58550296 48.7451435,6.02952663 49.4849068,6.52076923 C51.9750843,4.45597633 54.4110014,2.43591716 56.8796405,0.388934911 L57.9694038,0.388934911 C57.7784571,0.771656805 57.6268594,1.07692308 57.4731908,1.38591716 C57.8004097,1.63568047 58.0592855,1.35526627 58.3492263,1.22934911 C59.1867411,2.01094675 59.3839009,2.98680473 59.2115932,4.07532544 C58.8636642,4.52183432 58.5062085,4.98035503 58.1412973,5.44840237 C58.1649068,5.46994083 58.2191671,5.52047337 58.3682796,5.65840237 C58.167392,5.68408284 57.97396,5.70893491 57.7801139,5.73378698 C57.8559127,5.81497041 57.9317115,5.89656805 58.0075103,5.97816568 L57.5870961,5.97816568 C56.8129541,7.43491124 55.5044926,8.42609467 54.5464452,9.75319527 C55.859463,10.4846746 57.3286346,11.0289349 58.7178653,11.8569231 C58.7601139,12.0656805 58.807747,12.3026036 58.8636642,12.5826036 C59.0343151,12.4020118 59.1623032,12.266568 59.2857352,12.1360947 C59.8449068,12.2114793 59.8333091,12.8543195 60.3025991,13.0895858 C60.7134867,13.295858 60.9533091,13.843432 61.2730724,14.2452071 L61.2730724,15.5863905 C61.1645517,15.6949112 61.058102,15.8013609 60.9089896,15.9504734 C59.7459127,15.826213 58.7841375,15.1634911 57.7250251,14.6275148 C57.7034867,14.6469822 57.6247884,14.7182249 57.5904097,14.7492899 C56.8494038,14.566213 56.4074511,13.7709467 55.5525399,13.8898225 C55.1540784,13.3774556 54.4988121,13.3376923 53.9876878,13.0357396 C53.471179,12.7308876 52.9708239,12.3999408 52.349108,12.0085207" id="Fill-41"></path>
                    <path d="M85.2449245,30.0558047 C85.4781198,30.1875207 85.6616109,30.291071 85.9308417,30.4430828 C85.8695399,30.8108935 85.8074097,31.1816036 85.7316109,31.6380533 C85.9209009,31.966929 86.0795399,32.4676982 86.6540369,32.6698284 C86.9112559,32.3111302 87.0690665,31.9006568 87.5640369,31.7001834 C87.9115517,31.5589408 88.1157529,31.0639704 88.3820843,30.725568 C88.6749245,30.3532012 89.0816701,30.0988817 89.3123801,29.6453314 C89.5062263,29.2638521 89.9229127,29.0029053 90.1859304,28.6475207 C90.4572322,28.2801243 90.662676,27.8638521 90.8966997,27.4695325 L92.1699541,27.4695325 C92.2370547,27.826574 92.3472322,28.1794734 91.926818,28.5481124 C92.2896582,28.5646805 92.5704867,28.5775207 92.8272914,28.5891183 C92.9420251,29.1159822 93.0455754,29.593142 93.1474689,30.0595325 C92.964392,30.1311893 92.834747,30.1817219 92.6819068,30.2413669 C92.6980606,30.3449172 92.6955754,30.4530237 92.7324393,30.5449763 C93.0472322,31.322432 92.9958713,31.5891775 92.3907233,32.189355 C92.1380606,32.4395325 92.0324393,32.8288817 92.1351612,33.0720178 C92.2966997,33.4539112 91.8116701,33.3068698 92.0407233,33.659355 C91.7980014,33.4592959 91.7217884,33.3963373 91.5900724,33.2878166 L91.5900724,33.9169882 C91.3514926,33.9629645 91.1452204,34.0023136 90.9000133,34.0491183 L90.9000133,34.6666923 C90.6109009,34.9678166 90.4071139,35.180716 90.2372914,35.3579941 C90.6311967,35.7436154 90.9944511,36.099 91.2964038,36.3951538 L91.2964038,37.2459231 C91.5399541,37.4894734 91.7946878,37.7442071 92.0556346,38.0059822 C91.9744511,38.1501243 91.922676,38.2408343 91.8319659,38.4003018 C91.9504275,38.6405385 92.0958121,38.9362781 92.2834452,39.3177574 C92.0655754,39.7725503 91.8249245,40.2749763 91.5962855,40.7521361 L90.6548062,40.7521361 C89.5580014,40.1246213 88.494747,39.5153314 87.434392,38.9081124 C87.2463446,39.1984675 87.096818,39.4295917 86.9700724,39.6255089 C86.7745695,39.5302426 86.6238003,39.4565148 86.3645103,39.3301834 L86.3645103,40.381426 C86.0207233,40.2534379 85.7804867,40.1639704 85.3306642,39.9966331 C85.5162263,40.2501243 85.567173,40.3192959 85.6649245,40.4526686 C85.4578239,40.6473432 85.2387115,40.8532012 84.8920251,41.1787633 C84.8224393,40.7583491 84.7789482,40.4949172 84.7313151,40.2049763 C84.8899541,40.1503018 85.0183565,40.1059822 85.1815517,40.0492367 C85.1977056,39.9643254 85.217173,39.8616036 85.2407825,39.7361006 C85.0978831,39.6863964 84.9665813,39.6416627 84.8348653,39.5961006 C84.8833269,39.3964556 84.9326168,39.1951538 85.0162855,38.8538521 C84.8071139,39.0456272 84.7263446,39.1197692 84.6782973,39.1636746 C84.1974097,39.0733787 83.7426168,38.9884675 83.2633861,38.899 C83.1896582,38.7573432 83.0939778,38.5726095 82.9809009,38.3563964 C83.0662263,38.0258639 83.1631494,37.6505976 83.2613151,37.2678757 C83.4820843,37.3043254 83.7624985,37.3511302 84.0429127,37.3975207 C84.0545103,37.3561006 84.0656938,37.3146805 84.0777056,37.2728462 C83.7848653,37.1258047 83.4924393,36.9787633 83.234392,36.8491183 C83.3855754,36.5368107 83.5359304,36.2257456 83.6924985,35.9018402 C82.9494216,34.6397692 82.1396582,33.4485266 81.6819659,32.0775207 C81.4073506,31.133142 81.7324985,30.1999467 81.8683565,29.2704793 C81.9739778,28.5476982 82.5716701,28.036574 83.2256938,27.6708343 C83.318889,27.618645 83.4071139,27.5585858 83.5562263,27.4658047 L84.6795399,27.4658047 C84.856818,27.6430828 85.0162855,27.8029645 85.128534,27.915213 C84.9073506,28.1363964 84.6824393,28.3608935 84.5490665,28.4938521 L84.5490665,29.1888817 C84.7980014,29.1242663 85.0369955,29.0625503 85.3103683,28.9917219 C85.4536819,29.1255089 85.5849837,29.2485266 85.7672322,29.4187633 C85.5758713,29.6523728 85.4180606,29.8449763 85.2449245,30.0558047" id="Fill-43"></path>
                    <path d="M17.3110843,41.6576627 C17.4386582,41.7852367 17.545108,41.8916864 17.6958772,42.0424556 C17.003747,42.6343491 16.3153446,43.2225148 15.6273565,43.8110947 C15.6426819,43.850858 15.6584216,43.8906213 15.6741612,43.9299704 C15.8203742,43.8873077 15.9988949,43.8835799 16.1053446,43.7941124 C16.3041612,43.6276036 16.4607293,43.4118047 16.7336878,43.3579586 C17.2162322,43.0858284 17.6987766,42.813284 18.1680665,42.5481953 C18.5772973,42.879142 18.2786582,43.140503 18.1026227,43.5418639 C18.3706109,43.4403846 18.5441612,43.3745266 18.7309659,43.303284 C18.8125636,43.3848817 18.9190133,43.4913314 19.0258772,43.5981953 C19.0262914,44.0492604 19.0262914,44.5007396 19.0262914,44.9576036 C18.8945754,45.0860059 18.7603742,45.2177219 18.6183032,45.3560651 C18.6390133,45.4082544 18.6443979,45.4803254 18.6829186,45.5084911 C18.9397233,45.7010947 19.1961139,45.8961834 19.4670014,46.0676627 C19.7581849,46.251568 20.1657588,46.3045858 20.1769423,46.7755325 C20.1781849,46.8297929 20.2701375,46.8910947 20.3306109,46.9337574 C20.5629778,47.0973669 20.835108,47.221213 21.0243979,47.4237574 C21.2132736,47.6254734 21.3205517,47.9034024 21.5114985,48.2297929 C21.5114985,48.4207396 21.5114985,48.7218639 21.5110843,49.022574 C21.3242796,49.2089645 21.1383032,49.395355 20.9825636,49.5510947 C19.5581257,49.0420414 18.1502559,48.5392012 16.7428003,48.0363609 C16.4300784,48.203284 16.0933328,48.3826331 15.756173,48.5619822 C15.7420902,48.5392012 15.7280074,48.5164201 15.7139245,48.4936391 C15.4210843,48.7860651 15.128244,49.0789053 14.7542204,49.452929 C14.7488358,49.5419822 14.7380665,49.7167751 14.7243979,49.9396154 C14.1312618,50.5099704 13.5103742,51.1076627 13.009605,51.5897929 C12.7581849,52.3697337 12.8857588,53.1707988 11.8465281,53.3352367 C11.6315577,52.9914497 10.8594867,52.9363609 11.0355222,52.1348817 C10.8217943,52.0731657 10.5591908,51.9965385 10.2729778,51.9136982 C10.2083624,51.9571893 10.0919719,52.0350592 10.0012618,52.0955325 C9.71049257,51.7881953 9.45658724,51.5189645 9.08753399,51.1283728 C9.00510795,50.4238166 8.89948665,49.5221006 8.78848073,48.5731657 C9.72664641,47.558787 10.6511435,46.5593195 11.6319719,45.4985503 C11.2484216,45.2583136 10.8528594,45.057426 10.5140429,44.7861243 C10.1636287,44.5052959 9.86830322,44.1557101 9.53984168,43.8272485 C9.63055174,43.5344083 9.7229186,43.2357692 9.82232689,42.9131065 C9.63842156,42.8501479 9.50711979,42.805 9.34392452,42.7486686 L9.34392452,41.9857101 C9.4068831,41.9223373 9.48682393,41.8428107 9.57919079,41.7500296 C9.90226772,41.6858284 10.2414985,41.6183136 10.6606701,41.534645 C11.7765281,42.1609172 12.9967648,42.8455917 14.1838653,43.511213 C15.3742796,43.0584911 16.1459364,42.0142899 17.3110843,41.6576627" id="Fill-45"></path>
                </g>
            </g>
        </g>
    </g>
</svg>