<?xml version="1.0" encoding="UTF-8"?>
<svg width="104px" height="101px" viewBox="0 0 104 101" version="1.1" xmlns="http://www.w3.org/2000/svg" xmlns:xlink="http://www.w3.org/1999/xlink">
    <!-- Generator: Sketch 62 (91390) - https://sketch.com -->
    <title>61</title>
    <desc>Created with Sketch.</desc>
    <g id="Ver-1" stroke="none" stroke-width="1" fill="none" fill-rule="evenodd">
        <g id="Our-Work" transform="translate(-1118.000000, -7001.000000)" fill="#000000">
            <g id="Group-10" transform="translate(1118.000000, 7001.000000)">
                <g id="61">
                    <path d="M59.3066095,84.0184598 C59.013355,83.8635485 58.5506923,83.6191698 58.0569645,83.3582231 C58.1551302,83.2028977 58.222645,83.0956195 58.3328225,82.9212409 C58.2077337,82.7791698 58.0329408,82.6383414 57.9368462,82.4565071 C57.8415799,82.2755012 57.8245976,82.0534894 57.7744793,81.8526018 C57.6377929,81.8062113 57.5073195,81.7618917 57.3876154,81.7213 L57.3876154,81.2313 C57.539213,81.159229 57.6928817,81.0855012 57.8863136,80.9931343 C57.7844201,80.788519 57.6920533,80.6025426 57.5827041,80.3842586 C57.7910473,80.2521284 57.9948343,80.0127201 58.1890947,80.0210042 C58.8431183,80.047513 59.5211657,79.8192882 60.1536509,80.1630752 C60.2427041,80.2119509 60.3607515,80.2210633 60.4659586,80.2235485 C61.2301598,80.2434302 61.9802781,80.2513 62.7486213,80.4198799 C63.703355,80.6286373 64.7111065,80.5901166 65.6935917,80.6845545 C66.0427633,80.7181048 66.3824083,80.8353237 66.7295089,80.9015959 C67.0414024,80.9608266 67.409213,80.7615959 67.6614615,81.1144953 C67.6879704,81.1517734 67.8031183,81.1310633 67.876432,81.1285781 C68.7856036,81.0991698 69.6380296,81.3866255 70.5153077,81.5531343 C71.3176154,81.7051462 72.1257219,81.8335485 72.9168462,82.0369213 C74.5458994,82.4548503 76.1948343,82.7857971 77.8015207,83.31059 C78.4224083,83.5135485 79.0685621,83.7260338 79.7263136,83.8523651 C79.9015207,83.8859154 80.0489763,84.0611225 80.3993905,84.3021876 L79.3145976,84.3021876 C79.3108698,84.3481639 79.307142,84.3945545 79.303,84.4413592 C79.6799231,84.580945 80.0560178,84.720945 80.4834734,84.8799982 C80.3956627,85.0349095 80.3124083,85.1823651 80.2382663,85.3132527 C80.3157219,85.4288148 80.3940059,85.5447911 80.5079112,85.7141994 C80.1073787,86.0004124 79.7457811,86.2592882 79.3804556,86.5202349 C79.3270237,86.3876906 79.2748343,86.2584598 79.1969645,86.0650278 C79.0399822,86.1358562 78.8887988,86.203371 78.7343018,86.2729568 C78.6058994,86.2228385 78.448503,86.1611225 78.2911065,86.0998207 C78.1320533,86.038519 77.9721716,85.9772172 77.8810473,85.9424243 C77.6114024,86.0136669 77.3802781,86.0749687 77.1822899,86.1275722 C77.0004556,85.9453237 76.8670828,85.8127793 76.7345385,85.6798207 C76.0668462,86.1905308 75.4616982,85.573371 74.8217574,85.567158 C74.6916982,85.5655012 74.5632959,85.4308858 74.4332367,85.429229 C73.6379704,85.4184598 72.8957219,85.1753237 72.1331775,84.99059 C71.4352485,84.8207675 70.695071,84.8307083 69.9756036,84.7404124 C69.5527041,84.6873947 69.1339467,84.5983414 68.7151893,84.517158 C68.2951893,84.4359746 67.8159586,84.7180456 67.4448343,84.3075722 C67.4100414,84.2690515 67.3027633,84.2972172 67.2286213,84.2922468 C66.056432,84.2172764 64.883,84.154732 63.7124675,84.0607083 C63.2514615,84.0234302 62.7991538,83.885087 62.3381479,83.8494657 C61.8522899,83.8113592 61.3598047,83.8204716 60.8722899,83.8465663 C60.4116982,83.8714184 59.9535917,83.944732 59.3066095,84.0184598" id="Fill-47"></path>
                    <path d="M22.4608876,82.1234065 C22.0379882,81.8678444 21.7372781,81.6855959 21.4452663,81.5091462 C21.7940237,80.5626965 21.7940237,80.5626965 20.6607692,80.0118089 C20.5278107,80.1451817 20.3948521,80.2777261 20.1885799,80.4844124 C20.096213,80.3419272 20.0038462,80.1990278 19.871716,79.9952409 C20.2262722,79.6601521 20.2163314,79.2331107 19.8112426,78.8358917 C20.1421893,78.5426373 20.4205325,78.2961876 20.7813018,77.9760101 C20.8968639,77.9706255 21.1499408,77.9577852 21.4146154,77.944945 C21.4419527,77.817371 21.4639053,77.7142349 21.4866864,77.607371 C21.5430178,77.5783769 21.6051479,77.518732 21.6668639,77.5195604 C21.9961538,77.5241166 22.3022485,77.3505663 22.5917751,77.319087 C23.9217751,77.1753592 25.2049704,76.6716906 26.5768047,76.8203888 C26.9094083,76.8564243 27.3733136,76.5147083 27.5849704,76.6493237 C27.9486391,76.8800338 28.1553254,76.5627556 28.4386391,76.5992053 C28.8085207,76.6468385 29.192071,76.6402113 29.5636095,76.5992053 C29.7595266,76.5776669 29.9417751,76.4347675 30.1149112,76.353584 C30.229645,76.4587911 30.3104142,76.5333474 30.3253254,76.5466018 C31.082071,76.2939391 31.7721302,76.2976669 32.6088166,76.5842941 C32.6378107,76.5660693 32.7860947,76.3958326 32.9318935,76.3979036 C34.0067456,76.4136432 35.0799408,76.4869568 36.1543787,76.4952409 C36.8224852,76.5006255 37.4905917,76.4107438 38.1595266,76.3937616 C38.355858,76.3887911 38.5546746,76.487371 38.8048521,76.5515722 C38.8222485,76.5358326 38.9013609,76.4641758 38.9767456,76.3962468 C39.062071,76.4716314 39.1440828,76.5445308 39.2376923,76.6277852 C39.9190533,76.2396787 40.6339645,76.404945 41.3443195,76.4169568 C41.3443195,76.5755959 41.3443195,76.6505663 41.3443195,76.7259509 C41.1571006,76.8220456 40.9702959,76.9181403 40.7602959,77.0254184 C40.7130769,76.9839982 40.6347929,76.9148266 40.5502959,76.8398562 C39.7392899,77.2677261 38.8321893,76.9603888 37.9731361,77.2271343 C38.2021893,77.2478444 38.4594083,77.3435249 38.6536686,77.2706255 C38.9320118,77.166661 39.0931361,77.6363651 39.4087574,77.3443533 C39.5243195,77.2379036 39.8569231,77.3667201 40.2363314,77.4019272 C40.2247337,77.4081403 40.3688757,77.3240574 40.4981065,77.2482586 C40.6231953,77.3625781 40.7039645,77.4367201 40.7847337,77.5100338 C41.0257988,77.1525781 41.3840828,77.3215722 41.6955621,77.3000338 C41.8073964,77.4122823 41.9138462,77.518732 42.063787,77.6682586 C41.8015976,77.7196195 41.5729586,77.7647675 41.3443195,77.809087 C41.3463905,77.8500929 41.3480473,77.8902704 41.3501183,77.9308622 C41.6321893,77.9515722 41.9146746,77.9718681 42.3106509,78.000448 C42.1942604,78.3765426 42.0944379,78.6983769 41.9689349,79.1038799 C40.9794083,79.0053 39.9757988,78.9046491 39.1204734,78.8193237 C38.7920118,79.132874 38.5795266,79.3362468 38.3869231,79.5197379 C37.865858,79.3905071 37.6695266,78.9738207 37.4251479,78.6080811 C37.2590533,78.7770752 37.1277515,78.9108622 37.0271006,79.0139982 C36.6700592,78.9514539 36.340355,78.8934657 36.0744379,78.8470752 C35.8946746,79.134945 35.763787,79.3445308 35.6411834,79.5408622 L34.8964497,79.5408622 C34.7875148,79.6696787 34.6673964,79.8121639 34.5377515,79.9654184 L33.5080473,79.9654184 C33.4732544,79.8668385 33.4276923,79.7359509 33.3452663,79.5010988 C32.8954438,79.6336432 32.4389941,79.7682586 32.0140237,79.8937616 C31.7033728,79.8539982 31.3985207,79.7989095 31.0911834,79.7786136 C30.791716,79.758732 30.4164497,79.6622231 30.2064497,79.8005663 C29.8904142,80.0084953 29.5892899,79.981158 29.2678698,80.0010397 C28.9389941,80.0209213 28.5550296,79.9517497 28.2982249,80.1000338 C28.057574,80.2392053 27.8554438,79.9347675 27.6002959,80.1961284 C27.4416568,80.3576669 26.9831361,80.2259509 26.6521893,80.386661 C26.8804142,80.4309805 27.1090533,80.4757142 27.3882249,80.5303888 C26.8083432,80.9677852 26.3680473,80.4612172 25.885503,80.4235249 C25.3354438,80.3808622 24.9481657,80.8124598 24.4163314,80.7909213 C24.5563314,80.8592645 24.6963314,80.9271935 24.8247337,80.9897379 C24.7828994,81.0361284 24.7360947,81.1264243 24.699645,81.1222823 C24.5248521,81.1028148 24.3533728,81.0535249 24.1794083,81.022874 C23.9602959,80.9839391 23.7391124,80.9532882 23.5013609,81.0315722 C23.6471598,81.1015722 23.7925444,81.171158 24.0808284,81.3095012 L22.9811243,81.3095012 C22.8017751,81.5903296 22.6518343,81.8243533 22.4608876,82.1234065" id="Fill-49"></path>
                    <path d="M23.2213609,21.088584 C23.4288757,21.2207142 23.6989349,21.3930219 24.0232544,21.6001225 C23.8256805,21.6672231 23.6947929,21.7119568 23.5498225,21.7612468 C23.5630769,21.8121935 23.5614201,21.8971048 23.592071,21.9107734 C23.8447337,22.0263355 24.1036095,22.1278148 24.3608284,22.2338503 C24.0729586,22.628584 24.6321302,22.9926669 24.3479882,23.3318977 C24.1669822,23.5626077 23.9859763,23.7929036 23.7933728,24.0381107 C22.756213,23.5563947 21.6888166,23.6520752 20.6951479,23.7933178 C19.9297041,23.9026669 19.1725444,23.9059805 18.4145562,23.9817793 C18.0314201,24.0207142 17.6814201,24.3015426 17.2668047,24.1926077 C17.1065089,24.1507734 16.9553254,24.073732 16.8,24.0132586 C16.5539645,24.6739095 16.0105325,24.6838503 15.3420118,24.6179923 C15.2521302,24.3624302 15.1597633,24.1010693 15.0922485,23.9097083 C14.8151479,23.6533178 14.5715976,23.4275781 14.269645,23.1488207 C14.2286391,23.2279332 14.1321302,23.4143237 14.1139053,23.4495308 C13.1397041,23.6429627 12.3009467,23.2913059 11.5002959,23.7717793 C11.4054438,23.7021935 11.2919527,23.6193533 11.1693491,23.5303 C10.8168639,23.6160397 10.4395266,23.7079923 10.0679882,23.7991166 C9.96940828,23.594087 9.89982249,23.447874 9.80828402,23.2569272 C9.74284024,23.4371048 9.6956213,23.5671639 9.61609467,23.7850338 C9.32863905,23.7017793 9.03497041,23.6168681 8.70360947,23.5207734 C8.63982249,23.6512468 8.56692308,23.8007734 8.46544379,24.0082882 C8.31343195,23.9324894 8.16224852,23.8579332 8.00319527,23.7788207 C7.54384615,24.1727261 6.96272189,23.8707734 6.52159763,23.9697675 C6.2995858,23.8579332 6.14923077,23.7813059 5.97319527,23.6922527 C5.90402367,23.8856846 5.85721893,24.016158 5.82201183,24.1134953 C4.94804734,24.2211876 4.08940828,24.3268089 3.24650888,24.4307734 C3.18686391,24.5939687 3.13964497,24.724442 3.07337278,24.9062764 C2.98142012,24.7174006 2.91183432,24.5736728 2.8356213,24.4166906 C2.34230769,24.4038503 2.24207101,24.938584 1.82207101,25.125803 C1.55159763,24.9717201 1.24798817,24.798584 0.936508876,24.6213059 C0.917455621,24.4179332 0.900473373,24.2398266 0.88183432,24.0455663 C0.568698225,23.8881698 0.00911242604,24.0683474 4.47641924e-13,23.452016 C0.229881657,23.2966906 0.459349112,23.1413651 0.744319527,22.9487616 C0.554201183,22.885803 0.42704142,22.8431403 0.291183432,22.7984065 C0.313136095,22.3253888 0.678461538,22.1427261 1.08934911,21.9364539 C1.39254438,21.9364539 1.87343195,22.0789391 2.11656805,21.8987616 C2.39201183,21.6949746 2.63680473,21.9455663 2.90106509,21.7388799 C3.14668639,21.5471048 3.60893491,21.8453296 3.93822485,21.5272231 C4.03804734,21.4303 4.35325444,21.4149746 4.46550296,21.4998858 C4.77491124,21.7343237 5.02881657,21.4974006 5.30508876,21.487874 C5.68076923,21.4750338 6.05686391,21.4845604 6.43295858,21.4845604 C6.77136095,21.4845604 7.19011834,21.6108917 7.43035503,21.4572231 C7.87189349,21.1751521 8.31426036,21.432371 8.75662722,21.2898858 C9.19940828,21.1478148 9.7316568,21.3122527 10.2104734,21.2434953 C10.6843195,21.1755663 11.1076331,21.4431403 11.6142012,21.2898858 C12.0967456,21.1445012 12.659645,21.2878148 13.1831953,21.2505367 C13.6814793,21.2145012 14.1764497,21.1196491 14.6689349,21.0293533 C15.1622485,20.9394716 15.696568,21.2447379 16.17,20.8234953 C16.2959172,20.7120752 16.6061538,20.8069272 16.8318935,20.8069272 C18.335858,20.8069272 19.8402367,20.781661 21.3433728,20.8193533 C21.9497633,20.8346787 22.5532544,20.9883474 23.2213609,21.088584" id="Fill-51"></path>
                    <path d="M57.3087929,94.3123947 C56.9442959,94.5348207 56.7334675,94.6632231 56.5255385,94.7895545 C56.8034675,94.9088444 57.1045917,95.0384894 57.4533491,95.1884302 C57.3709231,95.3922172 57.3191479,95.5210338 57.2383787,95.7202645 C57.8306864,96.2926906 56.9488521,96.6049982 56.8726391,97.1786669 C56.3093254,96.8899687 55.7654793,96.6112113 55.2000947,96.3212704 C55.176071,96.3916846 55.1334083,96.5163592 55.0609231,96.7296728 C53.3109231,96.3465367 51.5186746,96.1849982 49.703645,96.1091994 C49.9318698,96.0644657 50.1605089,96.0201462 50.3883195,95.9754124 C50.3866627,95.9402053 50.3845917,95.9054124 50.3825207,95.8702053 L48.6383195,95.8702053 C48.594,95.9928089 48.5467811,96.1228681 48.4945917,96.2670101 L48.0385562,96.2670101 C47.249503,96.2670101 46.4575503,96.2280752 45.6713964,96.2781935 C44.9511006,96.3237556 44.2370178,96.464584 43.3642959,96.5855308 C42.9492663,96.7785485 42.4754201,97.2855308 41.6412189,97.1339332 C41.526071,96.9947616 41.3396805,96.7698503 41.1114556,96.4939923 C41.1416923,96.433519 41.2050651,96.3096728 41.2692663,96.1837556 C40.9395621,95.6916846 40.5924615,95.173519 40.2793254,94.7063 C40.4549467,94.1587261 40.609858,93.6749391 40.8053609,93.0639923 C41.3289112,92.6162409 42.1208639,92.4671284 42.8829941,92.4464184 C45.024,92.388016 47.1674911,92.4149391 49.3097396,92.4364775 C49.6924615,92.4397911 50.0739408,92.5793769 50.4566627,92.6510338 C50.8406272,92.7226906 51.2689112,92.4923947 51.620568,92.8523355 C51.6951243,92.9289627 51.9063669,92.8722172 52.0542367,92.878016 C53.2421657,92.9231639 55.5293846,93.5680752 56.8026391,94.210087 C56.8929349,94.2552349 57.0068402,94.2531639 57.3087929,94.3123947" id="Fill-53"></path>
                    <path d="M74.8251953,20.934087 C74.6545444,20.9933178 74.5236568,21.0384657 74.2896331,21.1196491 C74.5630059,21.3234361 74.7870888,21.4907734 75.0501065,21.6866906 C74.9743077,21.8055663 74.8989231,21.9231994 74.8115266,22.0598858 C74.9386864,22.1203592 75.084071,22.1903592 75.2306982,22.2607734 L75.2306982,22.5097083 C75.088213,22.5763947 74.9353728,22.6480515 74.7825325,22.7197083 C74.8604024,22.807519 74.929574,22.8862172 74.9987456,22.9649154 C74.8015858,23.0668089 74.6151953,23.163732 74.3480355,23.3020752 C72.7583314,23.2010101 71.0617633,23.5145604 69.3714083,23.1798858 C69.5159645,23.2494716 69.6605207,23.3190574 69.8096331,23.3911284 C69.136142,23.865803 68.5028284,23.0721935 67.8430059,23.3393533 C67.8264379,23.36959 67.7933018,23.4031403 67.8003432,23.4209509 C67.8127692,23.4532586 67.8529467,23.4731403 67.8753136,23.5029627 C67.9121775,23.5530811 67.944071,23.6069272 68.0621183,23.78959 C67.5269704,23.7026077 67.0982722,23.6330219 66.6033018,23.5522527 C66.7279763,23.6963947 66.7950769,23.7738503 66.8630059,23.8525485 C66.4918817,24.2621935 66.1671479,23.6781698 65.7127692,23.7622527 C65.8134201,23.8981107 65.8651953,23.9685249 65.9563195,24.0915426 C65.3776805,24.2791758 64.8193373,24.5645604 64.2386272,24.6208917 C63.5750769,24.6859213 63.2756095,25.3788799 62.6783314,25.3478148 C62.5565562,25.8075781 62.4488639,26.2147379 62.3341302,26.6471639 L61.5322367,26.6471639 C61.4473254,26.5626669 61.2427101,26.4487616 61.2501657,26.3505959 C61.3031834,25.6141462 60.4925917,25.257519 60.5253136,24.487519 C60.5808166,23.1732586 61.1101657,22.1543237 62.3598107,21.4907734 C63.2300473,21.0285249 64.1458462,20.7066906 65.1395148,20.5538503 C65.7119408,20.4660397 66.2831243,20.4084657 66.8522367,20.3285249 C67.4238343,20.2481698 67.9813491,20.0998858 68.5691006,20.1243237 C69.1324142,20.147519 69.6977988,20.1292941 70.262355,20.1292941 C70.8641893,20.1292941 71.4738935,20.0696491 72.0666154,20.1437911 C72.8738935,20.2440278 73.6704024,20.4366314 74.4656686,20.6151521 C74.5911716,20.6433178 74.6864379,20.8060988 74.8251953,20.934087" id="Fill-55"></path>
                    <path d="M49.4260473,65.736158 L48.6568757,65.736158 C48.5351006,65.2192349 48.4216095,64.7379332 48.2990059,64.2172823 L47.776284,64.2172823 C47.3985325,63.5901817 48.1246272,63.0831994 47.8752781,62.5468089 C48.2791243,61.958229 48.8718462,61.8410101 49.4711953,61.6914835 C50.6740355,61.392016 51.912497,61.377519 53.1182367,61.1931994 C54.6462249,60.9604184 56.1584734,60.9910693 57.6624379,61.056513 C59.4774675,61.1356255 61.2987101,61.3684065 63.0482959,61.9325485 C63.2114911,61.9851521 63.3436213,62.1355071 63.5370533,62.2742645 C63.3622604,62.3318385 63.2351006,62.374087 63.093858,62.4208917 C63.1025562,62.4710101 63.0922012,62.5501225 63.1228521,62.571661 C63.3833846,62.7592941 63.6509586,62.9369864 63.9384142,63.1324894 C63.8613728,63.226513 63.7992426,63.3027261 63.7395976,63.3756255 C63.8203669,63.5176965 63.9036213,63.6639095 63.995574,63.8271048 C63.791787,63.922371 63.6393609,63.9936136 63.4877633,64.0648562 C63.5656331,64.1547379 63.6331479,64.2321935 63.7052189,64.3150338 C63.2123195,64.5300042 62.8258698,64.7578148 62.198355,64.4587616 C61.5811953,64.1642645 60.7793018,64.2201817 60.0556923,64.1945012 C59.0027929,64.1572231 57.9474083,64.196158 56.8932663,64.17959 C56.4658107,64.1729627 56.0284142,64.2881107 55.6158698,63.9795308 C55.4671716,63.8681107 55.1440947,63.9894716 54.8537396,64.0076965 C54.9813136,64.1559805 55.0484142,64.2334361 55.2012544,64.4111284 C54.6677633,64.4111284 54.2237396,64.4421935 53.7863432,64.4011876 C53.4181183,64.3668089 53.0573491,64.2491758 52.530071,64.1319568 C52.7189467,64.3585249 52.7827337,64.4351521 52.8755148,64.5465722 C52.3424379,64.7834953 51.8499527,64.5817793 51.204213,64.3071639 C51.3682367,64.5788799 51.4274675,64.6762172 51.5579408,64.8928444 C51.1168166,64.7996491 50.7668166,64.7263355 50.3062249,64.6294124 C50.4603077,64.8120752 50.5249231,64.8887024 50.648355,65.0353296 C50.3650414,65.0626669 50.1281183,65.0858622 49.8369349,65.1140278 C49.7118462,65.303732 49.5602485,65.5331994 49.4260473,65.736158" id="Fill-57"></path>
                    <path d="M36.4497041,63.6950988 C36.3022485,63.5476432 36.1957988,63.4411935 36.0019527,63.2473474 C35.9360947,63.4614894 35.8698225,63.6764598 35.8578107,63.7158089 C35.137929,63.6072882 34.6586982,63.5352172 34.0092308,63.4378799 C34.1881657,63.6694184 34.244497,63.742732 34.3447337,63.8732053 C34.2200592,63.9125545 34.1119527,63.9473474 34.0026036,63.9821403 C33.9123077,63.7990633 33.8377515,63.6487083 33.7118343,63.3935604 C33.5594083,63.6019036 33.4508876,63.7506018 33.334497,63.9100693 C32.5889349,63.835513 31.8077515,63.7576432 31.0762722,63.685158 C31.0004734,63.8081758 30.9652663,63.8417261 30.9718935,63.8599509 C30.9839053,63.8922586 31.024497,63.9121403 31.0468639,63.9419627 C31.0849704,63.9920811 31.1181065,64.0463414 31.234497,64.2190633 C30.5601775,64.1159272 29.9865089,64.0281166 29.264142,63.9171107 C29.4488757,64.1349805 29.5147337,64.2120219 29.5805917,64.2898917 C29.1419527,64.6705426 28.7339645,64.2385308 28.1984024,64.1440929 C28.3226627,64.3524361 28.3802367,64.4485308 28.4539645,64.5727911 C27.9204734,64.8478207 27.4375148,64.103087 26.8990533,64.5222586 C27.0423669,64.5918444 27.1836095,64.661016 27.3960947,64.7649805 C26.9731953,64.8573474 26.6091124,64.9364598 26.0776923,65.0520219 C25.5620118,64.8142704 25.1502959,64.3093592 25.0218935,63.5302468 C24.8533136,63.5174065 24.6756213,63.5041521 24.4018343,63.4838562 C24.4395266,63.2200101 24.4768047,62.9619627 24.5277515,62.6103059 C24.5314793,62.6152764 24.4469822,62.5042704 24.3773964,62.412732 C24.43,62.3017261 24.4461538,62.2259272 24.4913018,62.1778799 C25.1283432,61.5052172 25.8536095,61.103442 26.8249112,60.9737971 C27.4346154,60.8921994 28.0687574,60.9282349 28.6494675,60.7749805 C29.9699408,60.4266373 31.2986982,60.613442 32.622071,60.5782349 C33.9371598,60.5430278 35.2547337,60.537229 36.5694083,60.5807201 C37.5763314,60.6146846 38.5115976,60.9315485 39.329645,61.5598917 C39.2339645,61.6642704 39.1598225,61.7450397 39.0786391,61.8336787 C39.0815385,62.2536787 39.4153846,62.3348622 39.7542012,62.4603651 C39.6904142,62.5419627 39.6328402,62.6156906 39.5276331,62.7498917 C39.6916568,62.8608977 39.8697633,62.9814302 40.0060355,63.0737971 C39.8813609,63.3040929 39.7989349,63.4552764 39.6850296,63.6656906 C39.5379882,63.7402468 39.3205325,63.8512527 39.1051479,63.961016 C38.2655621,63.4817852 37.3543195,63.8703059 36.4497041,63.6950988" id="Fill-59"></path>
                    <path d="M53.8360473,1.95079115 C53.7867574,2.2829805 53.7556923,2.49090949 53.7233846,2.71043612 C53.304213,2.38694499 52.9426154,3.01031777 52.4401893,2.53937103 C52.4650414,2.61765505 52.4244497,2.48966689 52.371432,2.32150121 L51.620071,2.32150121 C51.5090651,2.45735919 51.3752781,2.62096866 51.1847456,2.85374973 C51.0948639,2.5977734 51.0488876,2.46730002 50.981787,2.27718168 C50.7958107,2.28712251 50.5916095,2.29789174 50.3244497,2.31238878 C50.4619645,2.46481482 50.5327929,2.54434144 50.6578817,2.68351304 C50.3290059,2.71209292 50.0473491,2.73653079 49.7806036,2.76014026 C49.7524379,2.809016 49.7184734,2.84256629 49.7251006,2.86079115 C49.7375266,2.89268464 49.7781183,2.91256629 49.800071,2.94280298 C49.8377633,2.99292132 49.870071,3.04676748 49.9160473,3.11635328 C48.9484734,3.42948937 48.048,2.69055446 47.0100118,3.03558405 C47.0671716,3.11759588 47.1288876,3.20623493 47.2473491,3.37647162 C46.9387692,3.37647162 46.578,3.48540653 46.4143905,3.35244795 C46.1290059,3.12049529 45.8154556,3.12090949 45.5781183,3.20250712 C44.6010178,3.53925269 43.5311361,3.39718168 42.5710178,3.84037695 C42.3295385,3.95221126 41.9637988,3.79481482 41.6055148,3.7554657 C41.3934438,4.11002192 41.1540355,4.23759588 40.4122012,4.27570239 C40.5977633,4.06031777 40.7385917,3.89629411 40.9311953,3.67262547 L40.2891834,3.67262547 C40.2456923,3.43445979 40.208,3.2277734 40.1669941,3.00410476 C39.9619645,2.97221126 39.7548639,2.94031777 39.5448639,2.90759588 C39.6422012,2.49008109 39.7300118,2.11357221 39.8327337,1.67244795 C40.3662249,1.28268464 41.0753373,1.09132369 41.7496568,0.808424283 C42.1957515,0.621619549 42.7395976,0.949666886 43.0775858,0.473335525 C43.8359882,0.39795091 44.5997751,0.355702389 45.3523787,0.241382863 C47.9456923,-0.153765066 50.5559882,0.112566294 53.1551006,0.000731974972 C53.5879408,-0.0179070783 54.0087692,0.328365111 54.4353964,0.0214420341 C54.8156331,0.489489371 55.4054556,0.0993118566 55.8685325,0.386353277 C56.2355148,0.613749726 56.732142,0.633217182 57.2689467,0.769489371 C57.0084142,0.891678721 56.855574,0.963335525 56.6695976,1.05031777 C56.8050414,1.52292132 57.3352189,1.45830594 57.5808402,1.74907517 C57.4487101,1.80292132 57.3198935,1.85552487 57.1914911,1.90771422 C57.271432,2.05185624 57.3505444,2.19475564 57.4317278,2.34055446 C57.0258107,2.60398641 56.6368757,2.69428227 56.2044497,2.76511067 C55.7869349,2.83345387 55.4220237,2.38735919 55.0272899,2.71913434 C54.6748047,2.49215209 54.3223195,2.26434144 53.8360473,1.95079115" id="Fill-61"></path>
                    <path d="M45.0073491,13.5508681 C44.8400118,13.8209272 44.766284,13.9393888 44.688,14.0657201 C44.9559882,14.2467261 45.1846272,14.4012231 45.4169941,14.5582053 C45.3548639,14.6331758 45.3113728,14.6861935 45.233503,14.7810456 C45.2856923,14.8961935 45.3652189,15.0312231 45.4062249,15.1774361 C45.4352189,15.2805722 45.4120237,15.3982053 45.4120237,15.5750693 C45.0918462,15.7473769 44.7534438,15.9292113 44.5591834,16.0340042 C43.9888284,16.1292704 43.7672308,15.4549509 43.300426,15.8016373 C42.9032071,15.3766669 42.5320828,15.8186195 42.1485325,15.827732 C41.0960473,15.8534124 40.0414911,15.8612823 38.9902485,15.8231758 C38.6108402,15.8095071 38.2368166,15.6446551 37.838355,15.5431758 C37.7729112,15.7341225 37.7281775,15.8654243 37.6830296,15.9963119 C37.3819053,16.3193888 37.113503,15.7341225 36.7320237,15.9921698 C36.4714911,16.1677911 36.008,16.0878503 35.6422604,16.0509864 C35.3071716,16.0174361 34.9807811,15.8890338 34.5131479,15.766016 C34.6490059,16.0074953 34.7049231,16.1073178 34.8329112,16.3343 C33.9771716,16.1412823 33.1918462,16.5045367 32.3916095,16.0895071 C32.0739172,15.9246551 31.5996568,16.0621698 31.1887692,16.2270219 C31.5615503,16.2659568 31.9343314,16.3048917 32.3071124,16.3438266 C32.3054556,16.3798622 32.304213,16.4163119 32.3029704,16.4523474 L30.7646272,16.4523474 C30.6706036,16.3496255 30.4804852,16.1416965 30.3280592,15.9751876 C30.4051006,15.7867261 30.4668166,15.6355426 30.5442722,15.4445959 C30.3624379,15.4073178 30.2593018,15.3861935 30.1048047,15.3543 C30.074568,15.1778503 30.0389467,14.9711639 30.0041538,14.7690338 C29.8637396,14.7193296 29.7332663,14.6733533 29.6032071,14.6277911 L29.6032071,14.0653059 C30.3466982,14.0425249 31.1046864,14.0189154 31.8626746,13.9953059 C31.8630888,13.9427024 31.8630888,13.890513 31.8630888,13.8383237 L29.9457515,13.8383237 C29.6591243,13.4183237 30.0592426,13.1495071 30.1470533,13.1644184 C30.6184142,13.2456018 30.9692426,12.9047142 31.4078817,12.8922882 C33.4834438,12.8330574 35.5577633,12.7448326 37.632497,12.6764894 C38.1962249,12.6578503 38.7620237,12.6499805 39.3245089,12.6785604 C40.4975266,12.7373769 41.6767574,12.7659568 42.8385917,12.9208681 C43.5526746,13.0157201 44.2394201,13.3197438 45.0073491,13.5508681" id="Fill-63"></path>
                    <path d="M14.4331302,3.94090357 C13.942716,4.16995683 13.5703491,4.34433553 13.1959112,4.51912842 C13.0629527,4.38575564 12.9299941,4.25279706 12.7456746,4.06847754 C12.6963846,4.21054854 12.6570355,4.32321126 12.5986331,4.49137695 L11.5776272,4.49137695 C11.5473905,4.37622902 11.5208817,4.27433553 11.4740769,4.09664322 C11.2603491,4.162087 11.1683964,4.3696018 10.9762071,4.5116728 L10.2331302,4.5116728 C10.1912959,4.39362547 10.1444911,4.26273789 10.0583373,4.0204302 C9.98792308,4.20889174 9.94815976,4.31368464 9.90011243,4.44250121 C9.3326568,4.6856373 8.71052663,4.80865505 8.04407692,4.78007517 C7.73922485,4.76764913 7.42774556,4.90930594 7.11378107,4.98261955 C7.04336686,4.91800416 6.96384024,4.84551896 6.88845562,4.77634736 C6.80188757,4.85256038 6.71987574,4.92587399 6.60555621,5.02735328 C6.33301183,4.88693908 6.05425444,4.74321126 5.84052663,4.63303375 C5.49798225,4.69516393 5.19230178,4.75066689 4.84271598,4.81362547 C4.79301183,4.652087 4.75324852,4.52368464 4.70520118,4.36711659 C4.07230178,4.32569647 3.63656213,3.89368464 3.15318935,3.53374381 C3.24928402,3.43764913 3.32881065,3.35812251 3.48827811,3.19824085 L4.48028994,3.19824085 C4.48567456,3.15599233 4.49105917,3.11374381 4.49602959,3.07108109 C4.12780473,2.96338878 3.75916568,2.85528227 3.30644379,2.72273789 C3.49242012,2.52392132 3.5893432,2.42119943 3.72105917,2.28078523 C4.66171006,2.28078523 5.63508284,2.29569647 6.60804142,2.27457221 C7.10922485,2.26338878 7.63360355,2.40835919 8.09999408,2.0608444 C8.34313018,1.87942428 8.60407692,2.39220535 8.83561538,2.12628819 C9.09863314,1.82433553 9.27632544,2.44812251 9.5757929,2.132087 C9.69881065,2.00202783 10.1088698,2.1664657 10.3867988,2.15611067 C10.7541953,2.14327044 11.1199349,2.0608444 11.486503,2.0596018 C13.9331893,2.05048937 16.3815325,2.10267872 18.8261479,2.03392132 C19.9979231,2.00161363 21.1638994,1.75433553 22.3464438,1.82889174 C22.841,1.48179115 23.3831893,1.6408444 23.9402899,1.59569647 C23.7394024,2.26711659 23.1628343,1.94072606 22.5771538,2.22321126 C23.2460888,2.26007517 23.6743728,2.28409884 24.2919467,2.31847754 C24.0119467,2.47090357 23.8636627,2.552087 23.6520059,2.66764913 C23.7729527,2.82753079 23.8860296,2.96048937 23.9792249,3.10628819 C24.0653787,3.24131777 24.1299941,3.3896018 24.2882189,3.69486807 C23.9721834,3.53332961 23.833426,3.462087 23.6176272,3.35108109 C23.545142,3.52711659 23.4842544,3.67498641 23.4196391,3.83155446 C23.3061479,3.76611067 23.1934852,3.70149529 23.0331893,3.60871422 C22.9375089,3.67457221 22.8219467,3.75451304 22.6976864,3.84025269 C22.6347278,3.78350712 22.5560296,3.71143612 22.4769172,3.63977931 C22.3456154,3.77108109 22.2122426,3.90403967 22.0631302,4.05315209 C21.8324201,3.93427635 21.595497,3.812087 21.3362071,3.67871422 C21.2811183,3.79303375 21.2111183,3.93676156 21.1423609,4.07841837 C21.0607633,4.08214618 20.9870355,4.08545979 20.8801716,4.090016 C20.8383373,3.96948345 20.7936036,3.84108109 20.7360296,3.67457221 L20.1793432,3.67457221 C20.1486923,3.76279706 20.1031302,3.89409884 20.0281598,4.11196866 C19.7121243,4.03824085 19.3865621,3.96244203 19.0576864,3.88540061 C19.0042544,4.0191876 18.9528935,4.14883257 18.8708817,4.35386215 C18.7002308,4.09457221 18.5552604,3.87421718 18.4148462,3.66048937 C18.2756746,3.87794499 18.1273905,4.10948345 18.0093432,4.29380298 C17.4166213,4.41185032 17.2057929,4.10492724 17.088574,3.57474973 C16.9112959,3.82202783 16.7783373,4.00717576 16.5894615,4.27060771 L15.6628935,4.27060771 C15.6376272,4.1948089 15.5941361,4.06557813 15.5398757,3.90528227 L15.1041361,3.90528227 C15.2155562,4.03699825 15.2801716,4.11445387 15.346858,4.19273789 C15.1803491,4.44457221 14.9057337,4.35924677 14.4331302,3.94090357" id="Fill-65"></path>
                    <path d="M69.2158757,76.5757616 C69.0965858,76.8226255 68.9777101,77.068661 68.808716,77.4199036 C68.7312604,77.1900219 68.6977101,77.0910278 68.6314379,76.8955249 C68.4119112,76.7662941 67.9165266,76.8951107 67.7964083,76.4908503 C67.7355207,76.2858207 67.8593669,76.0257024 67.9057574,75.7548148 C67.7090118,75.6653474 67.4240414,75.5357024 67.0612012,75.3708503 C67.1179467,74.7942823 67.1767633,74.1903769 67.2455207,73.4895485 C67.2612604,73.5073592 67.1883609,73.4249332 67.0235089,73.2385426 C67.3010237,73.2894894 67.4741598,73.3217971 67.7197811,73.3665308 C67.7429763,73.1681284 67.7744556,72.9059391 67.8200178,72.5203178 C68.3622071,72.2867083 68.9578284,71.9930397 69.5799586,71.7718562 C70.2153432,71.5465308 70.9513787,71.5693119 71.5370592,71.3183059 C72.2109645,71.0287793 72.963568,71.5266491 73.5434497,70.9720338 C73.6180059,71.0407911 73.6987751,71.1153474 73.7791302,71.1894894 C74.5843373,70.772803 75.4429763,71.0399627 76.4747515,70.9322704 C76.2900178,71.1401994 76.2171183,71.2222113 76.1454615,71.3029805 C76.2154615,71.3816787 76.2850473,71.4599627 76.440787,71.635584 C75.7436864,71.5912645 75.1281834,71.81659 74.5512012,71.4094302 C73.9054615,71.7345781 73.231142,71.9280101 72.4872367,71.8725071 C71.6153432,71.8070633 70.8122071,72.0854065 69.8864675,72.456945 C70.1900769,72.6851698 70.3959349,72.8400811 70.6249882,73.0123888 C70.6726213,72.8732172 70.717355,72.7419154 70.7616746,72.6110278 C70.8275325,72.588661 70.8921479,72.5571817 70.9600769,72.5459982 C71.4546331,72.4623296 71.9508462,72.6536906 72.465284,72.3488385 C72.8326805,72.1313829 73.4150473,72.4851107 73.8238639,72.0949332 C73.8433314,72.0762941 73.8967633,72.0949332 73.9344556,72.092448 C74.9948107,72.0170633 76.0543373,71.9255249 77.1159349,71.8762349 C77.4274142,71.8621521 77.7902544,71.7300219 78.0536864,72.0709095 C78.0975917,72.1276551 78.2843964,72.1276551 78.3742781,72.0862349 C79.4101953,71.6161166 80.500787,71.9818562 81.5582426,71.8683651 C81.6700769,71.8559391 81.7839822,71.8667083 81.9012012,71.8667083 C82.0308462,71.9984243 82.1625621,72.1322113 82.3315562,72.3041048 L83.6615562,72.3041048 C83.8305503,72.4544598 83.9407278,72.5530397 84.0778284,72.6756432 C83.9162899,72.7315604 83.7854024,72.7771225 83.5861716,72.8462941 C83.8251657,73.0012053 84.0343373,73.1374775 84.3371183,73.3346373 C83.9254024,73.632448 83.5629763,73.8942231 83.2237456,74.1398444 C82.6094852,73.9501403 82.1078876,73.2882468 81.4302544,73.8871817 C81.2571183,73.4758799 81.0951657,73.0467675 80.4701361,73.2758207 C80.4560533,73.3619746 80.4398994,73.4642823 80.4229172,73.5699036 C80.5815562,73.646945 80.7269408,73.716945 80.8901361,73.795229 C80.797355,73.8399627 80.7368817,73.8764124 80.6714379,73.8987793 C80.2659349,74.0379509 79.9486568,73.3640456 79.4615562,73.8192527 C79.1587751,74.1013237 78.6555207,73.912448 78.2239231,74.0756432 C77.6746923,74.2827438 76.9887751,74.1257616 76.1027988,74.1257616 C76.512858,73.9344006 76.663213,73.8639864 76.9593669,73.7256432 L75.7312604,73.7256432 C75.7991893,73.9041639 75.8638047,74.075229 75.9545148,74.3150515 L74.5942781,74.3150515 C74.3055799,74.4625071 74.1548107,74.5399627 73.9021479,74.6691935 C74.0351065,74.472448 74.4774734,74.0391935 74.5491302,74.0002586 C74.1154615,73.6713829 73.8313195,74.1501994 73.4200178,74.1887201 C73.5016154,74.291442 73.5600178,74.3659982 73.6813787,74.5200811 C73.1826805,74.618661 72.7196036,74.7230397 72.2519704,74.8000811 C71.8758757,74.8613829 71.5942189,75.0316195 71.3647515,75.4085426 C71.1617929,75.3493119 70.9488935,75.2871817 70.6991302,75.2146965 C70.1826213,75.6123296 69.6690118,76.0083059 69.1554024,76.4042823 C69.175284,76.4618562 69.1955799,76.5186018 69.2158757,76.5757616" id="Fill-67"></path>
                    <path d="M20.4291479,47.8142941 C20.5571361,47.8776669 20.6847101,47.9414539 20.812284,48.0052409 C20.7944734,48.0512172 20.7770769,48.0980219 20.7592663,48.1444124 C20.392284,48.1444124 19.9366627,48.0089687 19.6790296,48.1767201 C19.3182604,48.4124006 19.1057751,48.0893237 18.8290888,48.143584 C18.4790888,48.211513 18.1369586,48.0789687 17.7587929,48.2976669 C17.4121065,48.4981403 16.9059527,48.4848858 16.5845325,48.1870752 C16.2308047,48.2537616 15.9176686,48.3005663 15.6107456,48.3734657 C15.333645,48.4393237 15.0677278,48.8410988 14.786071,48.3825781 C14.5653018,48.7532882 14.3225799,48.5610988 14.0815148,48.4095012 C13.8238817,48.7491462 13.458142,48.5569568 13.1421065,48.5892645 C12.8442959,48.6199154 12.5373728,48.5681403 12.2403905,48.602519 C11.8170769,48.6518089 11.3759527,48.6861876 10.9841183,48.8365426 C10.4324024,49.0477852 9.86328994,49.051513 9.2879645,49.1264835 C9.9175503,49.3538799 10.6071953,49.3919864 11.1792071,49.2126373 C11.5859527,49.0850633 11.9603905,49.0995604 12.348497,49.0498562 C12.9196805,48.977371 13.4589704,48.7723414 14.0616331,48.7967793 C14.5901538,48.8183178 15.1783195,49.0444716 15.6728757,48.6257142 C15.9160118,48.8315722 16.0891479,48.8626373 16.4014556,48.6310988 C16.6011006,48.4828148 17.0670769,48.5714539 17.3499763,48.6969568 C17.5815148,48.7992645 17.8279645,48.5167793 18.0342367,48.8079627 C18.0976095,48.897016 18.4202722,48.8837616 18.574355,48.8116906 C19.3866036,48.4302113 20.2025799,48.5648266 21.030568,48.7164243 C21.1618698,48.740448 21.3205089,48.5909213 21.4588521,48.6037616 C22.3771361,48.6899154 23.3103314,48.4061876 24.2228166,48.7371343 C24.369858,48.7901521 24.5856568,48.6112172 24.7724615,48.6029332 C25.2608047,48.5822231 25.7524615,48.623229 26.2395621,48.5896787 C26.9395621,48.5412172 27.6010414,48.6584361 28.3971361,49.0051225 C27.8872544,49.0324598 27.530213,49.0519272 27.1727574,49.0713947 L27.1363077,49.1795012 C27.2328166,49.2109805 27.3272544,49.2507438 27.4258343,49.2718681 C27.5289704,49.2934065 27.6354201,49.2971343 27.7712781,49.3120456 C27.6553018,49.5460693 27.5554793,49.747371 27.4552426,49.9486728 C27.3624615,49.8658326 27.2808639,49.792519 27.1628166,49.6873119 C27.023645,49.7618681 26.8770178,49.8405663 26.6367811,49.9693829 C26.6910414,49.6434065 26.7341183,49.3861876 26.7883787,49.0635249 C26.7631124,49.0382586 26.6566627,48.9318089 26.5655385,48.8406846 C26.068497,48.9405071 25.5847101,49.0382586 25.0748284,49.1405663 C25.1808639,49.2548858 25.2761302,49.3571935 25.3655976,49.4532882 C25.5441183,49.3824598 25.7160118,49.3137024 25.8754793,49.2503296 C26.202284,49.7979036 25.623645,49.6703296 25.4890296,49.8616906 C25.5751834,50.0402113 25.6460118,50.1864243 25.7661302,50.4345308 C25.5697988,50.3802704 25.3515148,50.3637024 25.3419882,50.3102704 C25.2504497,49.7954184 24.9567811,49.6413355 24.4767219,49.7614539 C24.4257751,49.8931698 24.3756568,50.0224006 24.2671361,50.301158 C24.1051834,49.9275485 23.9908639,49.6637024 23.8492071,49.3373119 C24.1818107,49.2888503 24.3893254,49.2586136 24.596426,49.2287911 C24.598497,49.1828148 24.600568,49.1364243 24.6030533,49.0908622 C24.2692071,49.0718089 23.9349467,49.0527556 23.5240592,49.0299746 C23.5650651,49.1538207 23.5899172,49.2296195 23.6437633,49.3928148 C23.5907456,49.5154184 23.5016923,49.7200338 23.3977278,49.9602704 C22.8530533,49.8923414 22.276071,50.0853592 21.6237041,49.7291462 C21.7293254,49.9929923 21.798497,50.1648858 21.8800947,50.3695012 L21.291929,50.3695012 C21.1792663,50.0414539 21.0545917,49.6786136 20.9228757,49.2946491 L20.5882012,49.2946491 C20.6739408,49.4955367 20.746426,49.6657734 20.8222249,49.8438799 C20.3968402,49.9507438 20.0253018,50.0443533 19.5634675,50.1603296 C19.4425207,50.0567793 19.2582012,49.8993829 19.0718107,49.7395012 C18.9326391,50.0348266 18.7992663,50.3185545 18.650568,50.6350042 C18.5714556,50.4730515 18.5018698,50.3305663 18.4306272,50.1851817 C18.1063077,50.8068977 17.5993254,50.9473119 16.9419882,50.8027556 C17.0505089,50.6184361 17.1354201,50.4738799 17.2808047,50.2261876 C16.8989112,50.2046491 16.6213964,50.1880811 16.3008047,50.1698562 L16.3008047,50.8271935 C15.3821065,50.9419272 14.4928166,51.052519 13.5973136,51.1643533 C13.5587929,51.2778444 13.513645,51.4091462 13.4473728,51.6029923 C12.8003905,51.1221048 12.0800947,51.3731107 11.3904497,51.2944124 C11.3225207,51.1544124 11.2525207,51.011513 11.1613964,50.8251225 C11.0951243,51.0053 11.0470769,51.1357734 10.9986154,51.2670752 C10.8524024,51.19459 10.7066036,51.1221048 10.4725799,51.0057142 C10.4282604,51.2654184 10.3938817,51.4638207 10.3806272,51.5421048 C10.0045325,51.9633474 9.69222485,52.3129332 9.35506509,52.6906846 C9.2879645,52.5113355 9.23908876,52.3808622 9.1835858,52.2317497 C9.03115976,52.4558326 8.88328994,52.6737024 8.7296213,52.9002704 C8.38707692,52.4247675 8.11701775,51.968732 8.64015385,51.4882586 C8.49186982,51.332519 8.38997633,51.2252409 8.28186982,51.1121639 C8.1687929,51.1771935 8.05654438,51.2418089 7.87553846,51.3466018 C7.76287574,51.2496787 7.62991716,51.1353592 7.45056805,50.9812764 C7.50731361,50.2974302 7.2956568,49.5576669 7.73139645,48.8995012 C8.59707692,48.3200338 9.63423669,48.3983178 10.5786154,48.1299154 C11.5983787,47.8399746 12.6239408,47.9460101 13.6499172,47.9199154 C13.9079645,47.9132882 14.1349467,47.9195012 14.3648284,47.7124006 C14.489503,47.5997379 14.8105089,47.649442 15.0200947,47.7074302 C15.1617515,47.7463651 15.2520473,48.0143533 15.4235266,47.7451225 C15.9247101,47.9157734 16.3993846,47.6134065 16.9096805,47.6755367 C17.5032308,47.7476077 18.1121065,47.6921048 18.7139408,47.6921048 L20.4076095,47.6921048 C20.4146509,47.7331107 20.4221065,47.7732882 20.4291479,47.8142941" id="Fill-69"></path>
                    <path d="M40.4183728,32.8957616 L40.4183728,32.3784243 C40.1918047,32.3436314 39.9847041,32.3121521 39.6848225,32.2661758 C39.8264793,32.0255249 39.9296154,31.8503178 39.9615089,31.7964716 C40.6234024,31.2567675 41.2231657,32.4451107 41.6539349,31.716945 C42.1190828,31.7815604 42.4649408,31.869371 42.8107988,31.8710278 C45.6692012,31.8822113 48.5276036,31.850732 51.3855917,31.8904953 C52.5188462,31.9066491 53.6504438,32.071087 54.8590828,32.1746373 L55.1034615,32.419016 C55.0603846,32.4641639 55.0177219,32.5490752 54.9742308,32.5494894 C54.0716864,32.5573592 53.169142,32.5536314 52.2661834,32.5565308 C52.0913905,32.5573592 51.9161834,32.5751698 51.7405621,32.6534539 C52.1626331,32.8336314 52.6025148,32.7677734 53.0336982,32.7785426 C53.4847633,32.7897261 53.9403846,32.7429213 54.3864793,32.7922113 C54.7907396,32.8373592 55.1838166,32.9777734 55.7061243,33.1070042 C55.4389645,33.2022704 55.3080769,33.2490752 55.0678402,33.3348148 C55.2770118,33.4226255 55.409142,33.4785426 55.5644675,33.5439864 C55.5706805,33.679016 55.5773077,33.8244006 55.5843491,33.9826255 C55.3847041,34.1085426 55.1978994,34.2820929 54.9783728,34.3491935 C54.7721006,34.4121521 54.5297929,34.3806728 54.3061243,34.3587201 C53.8509172,34.3144006 53.360503,34.5123888 52.946716,34.1702586 C52.528787,34.5562941 52.0226331,34.3164716 51.5587278,34.3541639 C51.073284,34.3930988 50.5816272,34.362448 50.0187278,34.362448 C49.9176627,34.4995485 49.7851183,34.6797261 49.6384911,34.8789568 C49.3510355,34.7936314 49.119497,34.7244598 48.7512722,34.6146965 C48.7276627,34.6300219 48.5768935,34.8068858 48.4368935,34.7986018 C48.0090237,34.7733355 47.5803254,34.9145781 47.1454142,34.6544598 C46.7022189,34.3897852 46.1819822,34.7033355 45.6650592,34.6250515 C44.7898521,34.4920929 43.8798521,34.5886018 43.004645,34.5886018 C42.9392012,34.7737497 42.8932249,34.9046373 42.8385503,35.0595485 C42.7196746,35.0272409 42.5925148,35.0297261 42.5254142,34.9675959 C42.2557692,34.7170042 42.0217456,34.391442 41.5669527,34.6979509 C41.7268343,34.7737497 41.8738757,34.8437497 42.0590237,34.9319746 C41.477071,35.1966491 40.989142,34.9804361 40.4680769,34.7459982 C40.4535799,34.5861166 40.4378402,34.4080101 40.4221006,34.2303178 C40.289142,34.096945 40.1561834,33.9639864 40.0054142,33.8136314 C40.0663018,33.7394894 40.1280178,33.6636906 40.225355,33.5448148 C39.996716,33.3994302 39.7680769,33.2536314 39.4860059,33.0742823 C39.6036391,32.9011462 39.7216864,32.7271817 39.8322781,32.5644006 C40.0041716,32.6617379 40.1507988,32.7445781 40.4183728,32.8957616" id="Fill-71"></path>
                    <path d="M21.8764083,36.096087 C21.7467633,36.1453769 21.6167041,36.1946669 21.422858,36.2683947 C21.5578876,36.4150219 21.6664083,36.5322409 21.7745148,36.649874 C21.8884201,36.5359687 21.9414379,36.4829509 22.0205503,36.4038385 C22.1443964,36.6424184 22.2636864,36.8723 22.3742781,37.0847852 C22.2674142,37.2939568 22.1725621,37.479519 22.0661124,37.6886906 C21.7674734,37.7777438 21.4319704,37.9633059 21.0977101,37.9608207 C20.2200178,37.9546077 19.3994852,38.1231876 18.5677692,38.4036018 C18.1113195,38.5576846 17.5517337,38.3555545 17.0903136,38.6554361 C16.1993669,38.5100515 15.3614379,38.9482764 14.4750473,38.8902882 C14.2580059,38.8762053 13.9883609,39.0779213 13.8230947,39.0033651 C13.5124438,38.8625367 13.3459349,39.1972113 13.0593077,39.1243119 C12.8343964,39.0667379 12.5291302,39.0062645 12.3514379,39.2949627 C11.4054024,39.2601698 10.5509053,39.7029509 9.62350888,39.8123 C8.83735503,39.9046669 8.07895266,40.2351994 7.40628994,40.431945 C7.19007692,40.7347261 7.03143787,40.9575663 6.85788757,41.2007024 C6.71084615,41.1133059 6.5874142,41.0818266 6.53853846,41.0039568 C6.33599408,40.6800515 6.15664497,40.3428917 5.96528402,40.0044894 L5.42475148,40.0044894 C5.46285799,39.7273888 5.49806509,39.4697556 5.54694083,39.1123 C5.55398225,39.1209982 5.4661716,39.0149627 5.40238462,38.9379213 C5.63268047,38.1927734 6.29954438,38.0979213 6.80279882,38.0125959 C7.68131953,37.8630693 8.51842012,37.5569746 9.42717751,37.4840752 C10.4158757,37.4037201 11.4083018,37.1866787 12.3953432,37.0247261 C12.9719112,36.9302882 13.5410237,36.8462053 14.1146923,36.8636018 C14.4356982,36.8735426 14.6568817,36.6854953 14.9269408,36.6362053 C15.254574,36.5761462 15.6016746,36.6225367 15.9400769,36.6217083 C16.2399586,36.6204657 16.724574,36.7265012 16.8041006,36.5927142 C17.017,36.2352586 17.3384201,36.7720633 17.4900178,36.4328326 C17.5119704,36.3835426 17.6950473,36.4059095 17.803568,36.3959687 C18.3403728,36.3475071 18.8659941,36.4431876 19.4168817,36.2025367 C19.884929,35.9979213 20.4859349,36.2791639 21.0140414,35.9651994 C21.229426,35.8372113 21.5843964,35.9440752 21.8759941,35.9440752 C21.8764083,35.9946077 21.8764083,36.0451403 21.8764083,36.096087" id="Fill-73"></path>
                    <path d="M74.2431183,61.2228148 L73.4689763,61.2228148 L73.4689763,60.4801521 C73.3293905,60.3484361 73.2316391,60.228732 73.1077929,60.1475485 C73.0253669,60.0932882 72.9064911,60.094945 72.7776746,60.0655367 L72.7776746,58.6626373 C73.149213,57.7774894 73.9461361,57.224945 74.7919349,56.7320456 C75.8796272,56.0983178 77.0393905,55.5826373 78.2360178,55.2425781 C79.1116391,54.9940574 80.0162544,54.7724598 80.9444793,54.6498562 C81.7086805,54.5492053 82.4861361,54.5931107 83.2221716,54.4381994 C83.8716391,54.3010988 84.4896272,54.2257142 85.1544201,54.2617497 L85.1544201,54.704945 L83.8414024,54.704945 C83.8397456,54.7579627 83.838503,54.8109805 83.8368462,54.8639982 L85.3279704,54.8639982 C85.2575562,55.1767201 85.2575562,55.1767201 85.1718166,55.2699154 C85.3279704,55.3444716 85.4820533,55.4177852 85.7164911,55.5300338 C85.4837101,55.8063059 85.2770237,56.051513 85.1697456,56.1786728 C84.3185621,56.4400338 83.5556036,56.4081403 82.8435917,56.6819272 C82.3755444,56.862519 81.8047751,56.5344716 81.3756627,56.9553 C79.7445385,57.1582586 78.3134734,57.9096195 76.8650118,58.6079627 C76.4868462,58.7897971 76.1463728,59.051158 75.7698639,59.2371343 C75.0437692,59.5950042 74.5844201,60.1276669 74.4986805,60.9564835 C74.489568,61.0438799 74.3483254,61.1171935 74.2431183,61.2228148" id="Fill-75"></path>
                    <path d="M92.5998521,93.3299095 C92.6172485,93.4918622 92.6247041,93.563519 92.6404438,93.7155308 C92.0547633,93.8845249 91.4185503,93.6997911 90.8278994,93.9607379 C91.107071,93.9764775 91.3862426,93.9984302 91.6658284,94.0058858 C91.9619822,94.0133414 92.2581361,94.0075426 92.5240533,94.0075426 C92.6545266,94.1454716 92.7526923,94.2490219 92.8707396,94.3741107 C92.7162426,94.4291994 92.585355,94.4764184 92.3471893,94.5617438 C92.5555325,94.6499687 92.6880769,94.7058858 92.9034615,94.7974243 C92.8260059,95.0467734 92.7460651,95.3044065 92.6640533,95.5678385 C91.7196746,95.684229 90.8606213,95.7898503 89.9539349,95.9016846 C89.9444083,95.9484894 89.923284,96.0516255 89.8839349,96.2446432 C89.4283136,96.1787852 88.9532249,96.0806195 88.4735799,96.0487261 C87.948787,96.0139332 87.4202663,96.0408562 86.8813905,96.0408562 C86.7264793,96.1878977 86.5657692,96.3415663 86.4058876,96.4939923 C86.0136391,96.5205012 85.6607396,96.3084302 85.2225148,96.4554716 C84.9226331,96.5561225 84.5047041,96.3051166 84.0677219,96.390442 C84.2056509,96.4620988 84.3439941,96.534584 84.6181953,96.6778977 L83.0844083,96.6778977 C82.8528698,96.8932823 82.6702071,97.0639332 82.4328698,97.2847024 C82.1942899,96.9943474 82.009142,96.7681935 81.8492604,96.5739332 C81.7498521,96.2947616 81.6558284,96.0317438 81.5609763,95.7670693 C81.6272485,95.6597911 81.6943491,95.5508562 81.7933432,95.3905604 L81.0092604,95.3905604 C80.7222189,94.9908562 80.9160651,94.7369509 81.1869527,94.4950574 C81.4582544,94.4644065 81.7357692,94.4337556 82.013284,94.4031048 L82.0116272,94.2742882 C81.7299704,94.2519213 81.4483136,94.2291403 81.1281361,94.2030456 C81.1281361,94.0787852 81.084645,93.9379568 81.1351775,93.8812113 C81.4909763,93.4823355 81.935,93.3195545 82.4829882,93.3220117 C85.8313905,93.3377793 89.1797929,93.3299095 92.5998521,93.3299095" id="Fill-77"></path>
                    <path d="M41.3026095,51.0219095 C41.3651538,50.5737438 41.4144438,50.2237438 41.486929,49.7068207 C41.5320769,49.6728562 41.7329645,49.5204302 42.057284,49.2743947 C43.6995917,48.836584 45.5601834,49.1178266 47.4042071,49.0519687 C47.797284,49.0383 48.1675799,49.0822053 48.5639704,49.240016 C48.9533195,49.3949272 49.462787,49.2159923 49.9005976,49.2913769 C50.2667515,49.3551639 50.5964556,49.6028562 50.9588817,49.7180042 C51.3275207,49.8348089 51.7437929,49.8277675 52.0879941,49.9868207 C52.4607751,50.1591284 52.7743254,50.4602527 53.1239112,50.712087 C53.0153905,50.8206077 52.9623728,50.8736255 52.9333787,50.9026195 C53.1375799,51.3101935 53.3359822,51.7049272 53.5381124,52.1083592 C53.3591775,52.2823237 53.1719586,52.4649864 52.9255089,52.7056373 C52.0341479,52.4459332 51.0379941,52.3647497 50.1714852,51.7732704 C49.7846213,51.9153414 49.3782899,52.2148089 48.9106568,51.7898385 C48.8207751,51.7086551 48.5063964,51.8296018 48.3191775,51.9116136 C48.0101834,52.0478858 47.7529645,52.0553414 47.5491775,51.7185959 C47.0388817,51.9476491 46.5911302,52.0391876 46.0046213,51.8457556 C45.3998876,51.6465249 44.6783491,51.8018503 43.9874615,51.8018503 C43.591071,52.0897201 43.1603018,52.4032704 42.7030237,52.735874 C42.3447396,52.4049272 41.9375799,52.2119095 42.0034379,51.6444539 C42.0233195,51.4775308 41.8278166,51.2696018 41.6965148,51.1088917 C41.6451538,51.0463474 41.499355,51.0612586 41.3026095,51.0219095" id="Fill-79"></path>
                    <path d="M75.4416509,43.0469213 C75.3521834,43.1769805 75.2726568,43.2921284 75.1380414,43.4880456 C75.3501124,43.575442 75.4971538,43.6359154 75.6653195,43.705087 L75.6653195,44.7024835 C75.4250828,44.8515959 75.184432,45.0015367 74.9317692,45.1589332 C74.3634852,44.973371 73.7823609,44.7844953 73.1096982,44.5653829 C72.9046686,44.6341403 72.6184556,44.9940811 72.2448462,44.6072172 C72.1653195,44.5247911 71.9731302,44.5376314 71.8318876,44.5314184 C69.4622426,44.4320101 67.0925976,44.3363296 64.6417692,44.2365071 C64.2557337,43.633016 64.0917101,42.793016 63.1473314,42.1530752 C63.8436036,42.0772764 64.2167988,42.0370988 64.5899941,41.9965071 C64.5933077,41.9596432 64.5966213,41.9227793 64.6003491,41.8855012 C64.3087515,41.8432527 64.0167396,41.80059 63.636503,41.745087 C63.7748462,41.5127201 63.8788107,41.337513 64.011355,41.115087 C64.3907633,41.2434894 64.8124201,40.9539627 65.1603491,41.3313 C65.2150237,41.390945 65.3703491,41.3615367 65.479284,41.3656787 C66.3901124,41.399229 67.2967988,41.4472764 68.207213,41.5363296 C69.183071,41.6311817 70.1846095,41.6941403 71.1434852,41.8544361 C72.6097574,42.099229 74.1236627,42.2823059 75.4416509,43.0469213" id="Fill-81"></path>
                    <path d="M37.1702899,41.781661 C37.0360888,41.9576965 36.9010592,42.1349746 36.7995799,42.267519 L35.165142,42.267519 C34.3446095,41.7688207 34.4423609,40.756513 33.7104675,40.0237911 L34.7459704,40.0237911 C34.7538402,39.9716018 34.7617101,39.9194124 34.7691657,39.8668089 C34.5914734,39.8316018 34.4137811,39.7963947 34.1536627,39.7450338 C34.1408225,39.5872231 34.1246686,39.3842645 34.1023018,39.1071639 C35.3871538,39.1071639 36.637213,38.9717201 37.8388107,39.1543829 C38.6436036,39.2769864 39.4405266,39.2330811 40.2279231,39.3478148 C41.0604675,39.4691758 41.876858,39.7048562 42.6990473,39.8970456 C43.404432,40.0623119 44.1052604,40.2433178 44.8098166,40.5887616 C44.7050237,40.7685249 44.6350237,40.8886432 44.5625385,41.0129036 C44.757213,41.1462764 44.9763254,41.2966314 45.1991657,41.4490574 C45.1076272,41.5513651 45.0367988,41.6313059 44.9771538,41.6975781 C45.0620651,41.8135545 45.1440769,41.9270456 45.2724793,42.1026669 C45.0082189,42.3014835 44.7733669,42.4779332 44.4101124,42.7517201 C44.1483373,42.6701225 43.7163254,42.5350929 43.2843136,42.4004775 C42.3320651,42.1146787 41.2456154,42.5876965 40.3861479,41.8881107 C40.1711775,41.9436136 39.9694615,42.0525485 39.7834852,42.0305959 C39.5043136,41.9970456 39.2412959,41.5770456 38.9604675,42.0318385 C38.7140178,41.6404184 38.4924201,41.9837911 38.2381006,42.014442 C37.9108817,42.0533769 37.557568,41.876513 37.1702899,41.781661" id="Fill-83"></path>
                    <path d="M14.2462426,67.4884361 C14.0963018,67.5414539 13.9654142,67.5878444 13.7521006,67.6636432 C14.590858,67.8686728 14.4661834,68.6009805 14.7234024,69.1092053 C14.5067751,69.4393237 14.315,69.7317497 14.0921598,70.0701521 C13.6965976,70.0129923 13.4087278,69.7640574 13.2103254,69.3950042 C13.1287278,69.4670752 13.046716,69.5403888 12.9970118,69.5851225 C12.5890237,69.4877852 12.2116864,69.3974894 11.7465385,69.2868977 C11.6661834,69.1497971 11.5402663,68.9344124 11.3737574,68.6502704 C10.872574,68.8163651 10.341568,68.9812172 9.81843195,69.1692645 C9.32843195,69.3448858 8.84754438,69.544945 8.36210059,69.7346491 L8.36210059,69.9583178 C8.51452663,70.0316314 8.66695266,70.104945 8.84588757,70.1906846 C8.79618343,70.3054184 8.73778107,70.4876669 8.7158284,70.4831107 C8.30286982,70.401513 8.43872781,70.8422231 8.24529586,70.9639982 C8.19393491,70.9101521 8.14215976,70.8563059 8.06304734,70.7734657 C7.93215976,70.8401521 7.79381657,70.9113947 7.57760355,71.0219864 C7.50511834,70.8463651 7.44423077,70.6989095 7.37091716,70.520803 C7.28931953,70.5858326 7.21476331,70.6450633 7.05405325,70.7726373 C6.91819527,70.4450042 6.84322485,70.0995604 6.6506213,69.843584 C6.44766272,69.5739391 6.18133136,69.3672527 6.35073964,68.9903296 C6.05997041,68.9385545 5.85286982,68.9016906 5.63955621,68.8639982 C5.90133136,68.1072527 5.90133136,68.1072527 5.60434911,67.4445308 C6.03967456,67.1906255 6.47210059,66.7540574 6.93683432,66.7163651 C7.48275148,66.6720456 8.01085799,66.2044124 8.66156805,66.5635249 C8.54352071,66.751158 8.45032544,66.8986136 8.33766272,67.0775485 L7.36221893,67.0775485 C7.20772189,67.2718089 7.07724852,67.4362468 6.95340237,67.5919864 C7.04742604,67.6909805 7.09091716,67.7369568 7.13440828,67.782519 C7.18742604,67.7295012 7.23671598,67.6350633 7.29470414,67.6292645 C8.32275148,67.5290278 9.35162722,67.4321048 10.3817456,67.3583769 C10.4989645,67.3496787 10.6257101,67.4818089 10.7251183,67.5364835 C10.9081953,67.4420456 11.0954142,67.3459509 11.2888462,67.2465426 C10.5876036,66.7722823 9.85115385,66.7793237 9.0641716,67.0729923 C9.0641716,66.8857734 9.0641716,66.7084953 9.0641716,66.5312172 C9.09026627,66.5047083 9.11677515,66.4550042 9.14369822,66.45459 C10.0458284,66.4479627 11.0067751,66.2520456 11.8343491,66.4997379 C12.6341716,66.7395604 13.6154142,66.7064243 14.2462426,67.4884361" id="Fill-85"></path>
                    <path d="M19.6120533,100.617241 C19.4567278,100.526531 19.1514615,100.455288 19.0603373,100.275525 C18.7650118,99.6898444 18.5189763,99.073513 18.3172604,98.4493119 C18.250574,98.2442823 18.3769053,97.9767083 18.4295089,97.6470042 C18.4477337,97.6677142 18.3781479,97.5894302 18.2820533,97.4809095 C18.5496272,97.3077734 18.8155444,97.1358799 19.0777337,96.9660574 L27.0270828,96.9660574 C27.1397456,97.0874184 27.235426,97.1893119 27.3766686,97.3409095 C27.1148935,97.3802586 26.9077929,97.4113237 26.5954852,97.4581284 C26.9794497,97.6167675 27.2760178,97.7397852 27.7937692,97.953513 C27.3327633,98.0462941 27.1107515,98.0910278 26.8883254,98.1361758 C26.887497,98.1705545 26.8866686,98.2049332 26.8862544,98.2388977 C27.0858994,98.2703769 27.2855444,98.3018562 27.4868462,98.3337497 C27.6848343,98.6957616 27.5423491,98.9612645 27.2428817,99.1841048 C25.2882663,99.1617379 23.3489763,99.5887793 21.3856627,99.4305545 C21.3111065,99.4243414 21.2357219,99.4297261 21.1607515,99.4297261 C20.6757219,99.8016787 20.1906923,100.173631 19.6120533,100.617241" id="Fill-87"></path>
                    <path d="M84.7512367,30.645158 C85.3224201,30.560661 85.8091065,30.4430278 86.2982781,30.4293592 C86.7497574,30.4161048 87.1734852,30.2433829 87.6796391,30.4811343 C88.1037811,30.6799509 88.6948462,30.5217261 89.2241953,30.4127911 C88.8518284,30.274448 88.4794615,30.1361048 88.0528343,29.9774657 C88.5055562,29.7426136 88.8327751,29.8863414 89.2130118,30.0466373 C89.5137219,30.1733829 89.954432,29.9633829 90.1246686,30.4761639 C89.911355,30.5068148 89.7042544,30.5366373 89.4462071,30.5735012 C89.5464438,30.6911343 89.5961479,30.7893 89.6756746,30.8356906 C89.9171538,30.9761048 90.1702308,31.0962231 90.4208225,31.2254539 C90.5210592,31.143442 90.6047278,31.0750988 90.6925385,31.003442 C90.9443728,31.0850397 91.025142,31.3335604 91.0164438,32.0232053 C90.0708225,32.1139154 89.6185148,32.0008385 88.5780414,31.4002468 C88.4496391,31.4756314 88.3001124,31.5638562 88.1302899,31.6636787 C87.9882189,31.5858089 87.8357929,31.5025545 87.6373905,31.3940338 C87.537568,31.4690042 87.4257337,31.5535012 87.3122426,31.6388266 C87.0177456,31.5737971 86.7112367,31.5058681 86.405142,31.4383533 C86.2009408,31.88859 85.7838402,31.0962231 85.5079822,31.6069332 C85.4060888,31.7958089 84.931,31.7837971 84.6116509,31.8670515 C84.5449645,31.8053355 84.4637811,31.7291225 84.3652012,31.637584 C84.3262663,31.7411343 84.2894024,31.8384716 84.2123609,32.041016 C83.9518284,32.1383533 83.6076272,32.2671698 83.1486923,32.4382349 L83.1486923,31.4632053 C82.892716,31.4354539 82.7146095,31.4159864 82.4950828,31.3923769 C82.6823018,31.2714302 82.8496391,31.1633237 82.966858,31.0871107 C82.8078047,30.7578207 82.7378047,30.6124361 82.6255562,30.3796551 C83.3325976,30.216874 83.9949053,30.064448 84.6766805,29.9070515 C84.7495799,29.9840929 84.8460888,30.087229 84.988574,30.2392409 C84.729284,30.27859 84.5221834,30.3100693 84.1767396,30.363087 C84.4530118,30.4985308 84.6166213,30.5793 84.7512367,30.645158" id="Fill-89"></path>
                    <path d="M101.926462,61.855158 C101.740485,61.9429687 101.601728,62.0084124 101.28942,62.1558681 C101.795988,62.184448 102.136047,62.2039154 102.540308,62.2266965 C102.449183,62.0038562 102.379598,61.8332053 102.298828,61.636874 C102.699775,61.5440929 103.058888,61.4608385 103.506225,61.3572882 C103.445337,61.5391225 103.394391,61.6903059 103.317763,61.9172882 C103.36871,61.9371698 103.471432,61.976519 103.611432,62.0303651 C103.683089,62.1699509 103.777941,62.3559272 103.872379,62.5398326 C103.347586,62.7701284 102.788414,63.0149213 102.361787,63.2017261 C101.482852,63.4253947 100.732734,63.6163414 99.9544497,63.8139154 C99.9072308,63.6722586 99.8637396,63.5426136 99.8202485,63.4133829 C99.5361065,63.2849805 99.2523787,63.1565781 98.8837396,62.9892409 C99.3294201,62.8243888 99.7063432,62.684803 100.228237,62.491371 C99.8053373,62.4561639 99.5249231,62.4325545 99.2440947,62.408945 C99.2113728,62.3695959 99.1782367,62.3302468 99.1455148,62.2913119 C99.2888284,62.2635604 99.432142,62.2362231 99.5750414,62.2088858 C100.258888,62.135158 101.015633,61.5254539 101.926462,61.855158" id="Fill-91"></path>
                </g>
            </g>
        </g>
    </g>
</svg>