<?xml version="1.0" encoding="UTF-8"?>
<svg width="170px" height="19px" viewBox="0 0 170 19" version="1.1" xmlns="http://www.w3.org/2000/svg" xmlns:xlink="http://www.w3.org/1999/xlink">
    <!-- Generator: Sketch 62 (91390) - https://sketch.com -->
    <title>Design at DBS Bank</title>
    <desc>Created with Sketch.</desc>
    <g id="Page-1" stroke="none" stroke-width="1" fill="none" fill-rule="evenodd">
        <g id="Artboard" transform="translate(-92.000000, -170.000000)" fill-rule="nonzero">
            <g id="Design-at-DBS-Bank" transform="translate(92.760000, 170.500000)">
                <path d="M4.56,14.5 C9.32,14.5 12.02,11.94 12.02,7.38 C12.02,2.82 9.32,0.26 4.56,0.26 L1.0658141e-13,0.26 L1.0658141e-13,14.5 L4.56,14.5 Z M4.52,12.42 L2.38,12.42 L2.38,2.34 L4.52,2.34 C7.84,2.34 9.54,4.06 9.54,7.38 C9.54,10.7 7.84,12.42 4.52,12.42 Z M18.285,14.8 C20.945,14.8 22.585,13.26 22.965,11.44 L20.625,11.44 C20.425,12.42 19.585,13.12 18.285,13.12 C16.865,13.12 15.705,12.18 15.625,9.88 L23.085,9.88 C23.085,8.9 23.005,8.14 22.805,7.5 C22.245,5.38 20.565,4.04 18.245,4.04 C15.165,4.04 13.365,6.3 13.365,9.3 C13.365,12.58 15.185,14.8 18.285,14.8 Z M20.805,8.38 L15.665,8.38 C15.865,6.62 16.865,5.72 18.245,5.72 C19.605,5.72 20.645,6.6 20.805,8.38 Z M28.73,14.8 C31.35,14.8 32.99,13.54 32.99,11.7 C32.99,9.28 31.01,8.84 29.15,8.36 C27.55,7.96 26.85,7.78 26.85,6.9 C26.85,6.16 27.47,5.7 28.53,5.7 C29.75,5.7 30.47,6.28 30.47,7.5 L32.67,7.5 C32.65,5.24 31.13,4.04 28.55,4.04 C26.17,4.04 24.57,5.28 24.57,7.08 C24.57,9.36 26.35,9.74 28.05,10.16 C29.81,10.6 30.61,10.8 30.61,11.84 C30.61,12.6 29.93,13.1 28.77,13.1 C27.41,13.1 26.65,12.4 26.65,11.16 L24.33,11.16 C24.35,13.58 26.01,14.8 28.73,14.8 Z M37.135,2.44 L37.135,0.26 L34.855,0.26 L34.855,2.44 L37.135,2.44 Z M37.135,14.5 L37.135,4.34 L34.855,4.34 L34.855,14.5 L37.135,14.5 Z M43.78,18.36 C46.64,18.36 48.4,16.9 48.4,13.86 L48.4,4.34 L46.24,4.34 L46.24,5.76 L46.2,5.76 C45.44,4.6 44.5,4.06 43.24,4.06 C40.64,4.06 38.98,6.08 38.98,9.22 C38.98,12.38 40.62,14.38 43.2,14.38 C44.46,14.38 45.4,13.86 46.14,12.78 L46.18,12.78 L46.18,13.78 C46.18,15.9 45.34,16.68 43.82,16.68 C42.54,16.68 41.76,16.12 41.7,15.14 L39.42,15.14 C39.52,17.14 41.06,18.36 43.78,18.36 Z M43.76,12.5 C42.3,12.5 41.36,11.22 41.36,9.22 C41.36,7.22 42.3,5.96 43.76,5.96 C45.3,5.96 46.26,7.24 46.26,9.22 C46.26,11.22 45.3,12.5 43.76,12.5 Z M53.225,14.5 L53.225,8.86 C53.225,6.92 54.245,5.94 55.545,5.94 C56.825,5.94 57.605,6.66 57.605,8.48 L57.605,14.5 L59.885,14.5 L59.885,8.28 C59.885,5.5 58.485,4.1 56.185,4.1 C54.845,4.1 53.785,4.74 53.145,5.66 L53.105,5.66 L53.105,4.34 L50.945,4.34 L50.945,14.5 L53.225,14.5 Z" id="Design" fill="#121111"></path>
                <path d="M69.275,14.7 C71.055,14.7 72.235,14.06 72.895,12.96 L72.935,12.96 C72.935,13.42 72.975,14.02 73.075,14.5 L74.235,14.5 C74.115,13.92 74.015,13.04 74.015,12 L74.015,7.98 C74.015,5.3 72.495,4.08 70.215,4.08 C67.755,4.08 66.375,5.5 66.255,7.4 L67.555,7.4 C67.635,6.08 68.495,5.14 70.215,5.14 C71.735,5.14 72.815,5.92 72.815,7.82 L72.815,8.3 C71.915,8.36 70.635,8.5 69.695,8.66 C66.775,9.12 65.835,10.12 65.835,11.78 C65.835,13.48 67.195,14.7 69.275,14.7 Z M69.535,13.66 C68.035,13.66 67.155,12.88 67.155,11.7 C67.155,10.58 67.815,10 69.855,9.7 C70.715,9.56 71.955,9.4 72.815,9.34 L72.815,10.12 C72.815,11.48 72.555,12.04 71.875,12.76 C71.315,13.34 70.475,13.66 69.535,13.66 Z M79.54,14.56 C79.84,14.56 80.2,14.52 80.46,14.46 L80.46,13.4 C80.3,13.44 80.02,13.48 79.76,13.48 C78.7,13.48 78.3,13 78.3,11.8 L78.3,5.38 L80.36,5.38 L80.36,4.34 L78.3,4.34 L78.3,1.98 L77.06,1.98 L77.06,4.34 L75.24,4.34 L75.24,5.38 L77.06,5.38 L77.06,11.82 C77.06,13.78 77.8,14.56 79.54,14.56 Z M91.07,14.5 C95.71,14.5 98.35,11.94 98.35,7.38 C98.35,2.82 95.71,0.26 91.07,0.26 L86.91,0.26 L86.91,14.5 L91.07,14.5 Z M91.07,13.32 L88.21,13.32 L88.21,1.44 L91.07,1.44 C94.87,1.44 96.97,3.56 96.97,7.38 C96.97,11.2 94.87,13.32 91.07,13.32 Z M105.635,14.5 C108.535,14.5 110.215,12.96 110.215,10.58 C110.215,8.88 109.175,7.62 107.595,7.22 L107.595,7.18 C109.095,6.64 109.915,5.44 109.915,3.86 C109.915,1.72 108.435,0.26 105.315,0.26 L100.895,0.26 L100.895,14.5 L105.635,14.5 Z M105.135,6.66 L102.195,6.66 L102.195,1.4 L105.195,1.4 C107.595,1.4 108.595,2.38 108.595,4.04 C108.595,5.58 107.635,6.66 105.135,6.66 Z M105.475,13.36 L102.195,13.36 L102.195,7.8 L105.135,7.8 C107.775,7.8 108.855,8.88 108.855,10.56 C108.855,12.38 107.715,13.36 105.475,13.36 Z M116.8,14.76 C119.78,14.76 121.66,13.18 121.66,10.7 C121.66,7.88 119.6,7.2 116.9,6.54 C114.52,5.96 113.3,5.46 113.3,3.76 C113.3,2.16 114.44,1.18 116.44,1.18 C118.76,1.18 120.08,2.26 120.08,4.68 L121.4,4.68 C121.4,1.6 119.74,1.13686838e-13 116.44,1.13686838e-13 C113.64,1.13686838e-13 111.98,1.56 111.98,3.78 C111.98,6.5 113.84,7.18 116.58,7.86 C119.04,8.48 120.34,8.96 120.34,10.72 C120.34,12.52 119.12,13.56 116.8,13.56 C114.5,13.56 113,12.42 113,9.76 L111.7,9.76 C111.7,13.06 113.58,14.76 116.8,14.76 Z M133.39,14.5 C136.29,14.5 137.97,12.96 137.97,10.58 C137.97,8.88 136.93,7.62 135.35,7.22 L135.35,7.18 C136.85,6.64 137.67,5.44 137.67,3.86 C137.67,1.72 136.19,0.26 133.07,0.26 L128.65,0.26 L128.65,14.5 L133.39,14.5 Z M132.89,6.66 L129.95,6.66 L129.95,1.4 L132.95,1.4 C135.35,1.4 136.35,2.38 136.35,4.04 C136.35,5.58 135.39,6.66 132.89,6.66 Z M133.23,13.36 L129.95,13.36 L129.95,7.8 L132.89,7.8 C135.53,7.8 136.61,8.88 136.61,10.56 C136.61,12.38 135.47,13.36 133.23,13.36 Z M142.735,14.7 C144.515,14.7 145.695,14.06 146.355,12.96 L146.395,12.96 C146.395,13.42 146.435,14.02 146.535,14.5 L147.695,14.5 C147.575,13.92 147.475,13.04 147.475,12 L147.475,7.98 C147.475,5.3 145.955,4.08 143.675,4.08 C141.215,4.08 139.835,5.5 139.715,7.4 L141.015,7.4 C141.095,6.08 141.955,5.14 143.675,5.14 C145.195,5.14 146.275,5.92 146.275,7.82 L146.275,8.3 C145.375,8.36 144.095,8.5 143.155,8.66 C140.235,9.12 139.295,10.12 139.295,11.78 C139.295,13.48 140.655,14.7 142.735,14.7 Z M142.995,13.66 C141.495,13.66 140.615,12.88 140.615,11.7 C140.615,10.58 141.275,10 143.315,9.7 C144.175,9.56 145.415,9.4 146.275,9.34 L146.275,10.12 C146.275,11.48 146.015,12.04 145.335,12.76 C144.775,13.34 143.935,13.66 142.995,13.66 Z M151.56,14.5 L151.56,8.48 C151.56,6.34 152.94,5.2 154.52,5.2 C156.14,5.2 157.12,5.98 157.12,8.38 L157.12,14.5 L158.36,14.5 L158.36,8.32 C158.36,5.52 157.08,4.12 154.74,4.12 C153.34,4.12 152.2,4.76 151.58,5.72 L151.54,5.72 L151.54,4.34 L150.32,4.34 L150.32,14.5 L151.56,14.5 Z M162.445,14.5 L162.445,9.26 L162.485,9.26 L167.545,14.5 L169.265,14.5 L163.765,8.9 L168.685,4.34 L167.005,4.34 L162.485,8.6 L162.445,8.6 L162.445,0.26 L161.205,0.26 L161.205,14.5 L162.445,14.5 Z" id="atDBSBank" fill="#172633"></path>
            </g>
        </g>
    </g>
</svg>