<?xml version="1.0" encoding="UTF-8"?>
<svg width="445px" height="464px" viewBox="0 0 445 464" version="1.1" xmlns="http://www.w3.org/2000/svg" xmlns:xlink="http://www.w3.org/1999/xlink">
    <!-- Generator: Sketch 62 (91390) - https://sketch.com -->
    <title>Group</title>
    <desc>Created with Sketch.</desc>
    <defs>
        <filter x="-16.8%" y="-15.0%" width="133.6%" height="132.0%" filterUnits="objectBoundingBox" id="filter-1">
            <feOffset dx="0" dy="0" in="SourceAlpha" result="shadowOffsetOuter1"></feOffset>
            <feGaussianBlur stdDeviation="10" in="shadowOffsetOuter1" result="shadowBlurOuter1"></feGaussianBlur>
            <feColorMatrix values="0 0 0 0 0   0 0 0 0 0   0 0 0 0 0  0 0 0 0.1 0" type="matrix" in="shadowBlurOuter1" result="shadowMatrixOuter1"></feColorMatrix>
            <feMerge>
                <feMergeNode in="shadowMatrixOuter1"></feMergeNode>
                <feMergeNode in="SourceGraphic"></feMergeNode>
            </feMerge>
        </filter>
        <path d="M12,0 L363,0 C369.627417,-1.21743675e-15 375,5.372583 375,12 L375,394 L375,394 L0,394 L0,12 C-8.11624501e-16,5.372583 5.372583,1.21743675e-15 12,0 Z" id="path-2"></path>
        <filter x="-10.1%" y="-8.6%" width="120.3%" height="119.3%" filterUnits="objectBoundingBox" id="filter-3">
            <feOffset dx="0" dy="4" in="SourceAlpha" result="shadowOffsetOuter1"></feOffset>
            <feGaussianBlur stdDeviation="12" in="shadowOffsetOuter1" result="shadowBlurOuter1"></feGaussianBlur>
            <feColorMatrix values="0 0 0 0 1   0 0 0 0 1   0 0 0 0 1  0 0 0 0.5 0" type="matrix" in="shadowBlurOuter1"></feColorMatrix>
        </filter>
        <path d="M40,0 L87,0 C95.2842712,-1.52179594e-15 102,6.71572875 102,15 C102,23.2842712 95.2842712,30 87,30 L40,30 C31.7157288,30 25,23.2842712 25,15 C25,6.71572875 31.7157288,5.07450962e-15 40,0 Z" id="path-4"></path>
        <filter x="-12.3%" y="-28.3%" width="124.7%" height="163.3%" filterUnits="objectBoundingBox" id="filter-5">
            <feOffset dx="0" dy="1" in="SourceAlpha" result="shadowOffsetOuter1"></feOffset>
            <feGaussianBlur stdDeviation="3" in="shadowOffsetOuter1" result="shadowBlurOuter1"></feGaussianBlur>
            <feColorMatrix values="0 0 0 0 0.136773765   0 0 0 0 0.146912683   0 0 0 0 0.151466837  0 0 0 0.239729021 0" type="matrix" in="shadowBlurOuter1"></feColorMatrix>
        </filter>
        <path d="M10.1531044,6.37881041 L8.20858725,6.37404869 L5.54567211,3.56452393 C5.51450415,3.5299178 5.46857938,3.51010109 5.4203186,3.51040764 L5.08152532,3.51040764 C5.05712969,3.51003007 5.03290825,3.51436297 5.01037873,3.5231606 C4.92624702,3.56006477 4.88869553,3.65316879 4.92568041,3.73315906 L6.1758276,6.37404869 C5.14386541,6.42936087 4.44274422,6.42171004 4.07246403,6.35109622 C3.9166936,6.32139021 3.69653788,6.17227424 3.41199685,5.9037483 C3.38143547,5.87280755 3.33835295,5.85546705 3.2934192,5.85602138 C3.24835371,5.85559167 3.20500065,5.87221483 3.1731329,5.90214361 C3.14126514,5.93207238 3.12356501,5.97278763 3.12402256,6.01511112 L3.1894255,6.21803442 C3.3711972,6.78201078 3.30617683,7.39653893 3.01040764,7.90998891 L3.01040764,7.90998891 L3.01040764,7.90998891 C3.00995874,7.9523124 3.02765887,7.99302765 3.05952663,8.02295642 C3.09139439,8.05288519 3.13474744,8.06950836 3.17981293,8.06907865 C3.22474669,8.06963298 3.2678292,8.05229248 3.29839058,8.02135173 C3.48804334,7.89824547 3.78054095,7.80998979 4.17588341,7.75658469 C4.57122587,7.70317959 5.23787394,7.66657355 6.1758276,7.64676659 L4.92568041,10.2876562 C4.88869553,10.3676465 4.92624702,10.4607505 5.01037873,10.4976547 C5.03290825,10.5064523 5.05712969,10.5107852 5.08152532,10.5104076 L5.4203186,10.5104076 C5.46857938,10.5107142 5.51450415,10.4908975 5.54567211,10.4562913 L8.20858725,7.64676659 L10.1531044,7.61624728 C10.5273252,7.61624728 11.0104076,7.36185898 11.0104076,7.01040764 C11.0104076,6.6589563 10.5273252,6.37881041 10.1531044,6.37881041 Z" id="path-6"></path>
        <filter x="-118.8%" y="-121.4%" width="337.5%" height="371.4%" filterUnits="objectBoundingBox" id="filter-7">
            <feOffset dx="0" dy="1" in="SourceAlpha" result="shadowOffsetOuter1"></feOffset>
            <feGaussianBlur stdDeviation="3" in="shadowOffsetOuter1" result="shadowBlurOuter1"></feGaussianBlur>
            <feColorMatrix values="0 0 0 0 0.136773765   0 0 0 0 0.146912683   0 0 0 0 0.151466837  0 0 0 0.239729021 0" type="matrix" in="shadowBlurOuter1"></feColorMatrix>
        </filter>
        <text id="text-8" font-family="SFProText-Regular, SF Pro Text" font-size="14" font-weight="normal" line-spacing="10" letter-spacing="-0.224" fill="#FFFFFF">
            <tspan x="0" y="23">Off</tspan>
        </text>
        <filter x="-15.9%" y="-35.0%" width="131.8%" height="190.0%" filterUnits="objectBoundingBox" id="filter-9">
            <feOffset dx="0" dy="1" in="SourceAlpha" result="shadowOffsetOuter1"></feOffset>
            <feGaussianBlur stdDeviation="1" in="shadowOffsetOuter1" result="shadowBlurOuter1"></feGaussianBlur>
            <feColorMatrix values="0 0 0 0 0   0 0 0 0 0   0 0 0 0 0  0 0 0 0.2 0" type="matrix" in="shadowBlurOuter1"></feColorMatrix>
        </filter>
        <circle id="path-10" cx="40" cy="40" r="26"></circle>
        <filter x="-31.7%" y="-31.7%" width="163.5%" height="163.5%" filterUnits="objectBoundingBox" id="filter-11">
            <feOffset dx="0" dy="0" in="SourceAlpha" result="shadowOffsetOuter1"></feOffset>
            <feGaussianBlur stdDeviation="5.5" in="shadowOffsetOuter1" result="shadowBlurOuter1"></feGaussianBlur>
            <feColorMatrix values="0 0 0 0 0   0 0 0 0 0   0 0 0 0 0  0 0 0 0.10669799 0" type="matrix" in="shadowBlurOuter1"></feColorMatrix>
        </filter>
    </defs>
    <g id="Page-1" stroke="none" stroke-width="1" fill="none" fill-rule="evenodd">
        <g id="Work" transform="translate(-498.000000, -3839.000000)">
            <g id="Group-30" transform="translate(59.000000, 3629.000000)">
                <g id="Group-3" transform="translate(72.000000, 109.000000)">
                    <g id="Group" filter="url(#filter-1)" transform="translate(402.000000, 132.000000)">
                        <g id="Base">
                            <g id="Mask">
                                <use fill="black" fill-opacity="1" filter="url(#filter-3)" xlink:href="#path-2"></use>
                                <use fill="#FFFFFF" fill-rule="evenodd" xlink:href="#path-2"></use>
                            </g>
                            <path d="M171,8 L205,8 C206.104569,8 207,8.8954305 207,10 C207,11.1045695 206.104569,12 205,12 L171,12 C169.895431,12 169,11.1045695 169,10 C169,8.8954305 169.895431,8 171,8 Z" id="icn-knob" fill="#000000" opacity="0.2"></path>
                        </g>
                        <g id="Travel-Mode---Switch-On" transform="translate(132.000000, 304.000000)">
                            <path d="M15,0 L96,0 C104.284271,-1.52179594e-15 111,6.71572875 111,15 C111,23.2842712 104.284271,30 96,30 L15,30 C6.71572875,30 1.01453063e-15,23.2842712 0,15 C-1.01453063e-15,6.71572875 6.71572875,1.52179594e-15 15,0 Z" id="Mask" fill="#9BA4AB"></path>
                            <g id="Normal-tab" transform="translate(9.000000, 0.000000)">
                                <g id="Base">
                                    <use fill="black" fill-opacity="1" filter="url(#filter-5)" xlink:href="#path-4"></use>
                                    <use fill="#13C998" fill-rule="evenodd" xlink:href="#path-4"></use>
                                </g>
                                <g id="flight" transform="translate(33.000000, 8.000000)">
                                    <circle id="Oval" fill="#F5FFFB" cx="7" cy="7" r="7"></circle>
                                    <g id="Airplane" transform="translate(7.010408, 7.010408) rotate(-45.000000) translate(-7.010408, -7.010408) ">
                                        <use fill="black" fill-opacity="1" filter="url(#filter-7)" xlink:href="#path-6"></use>
                                        <use fill="#02A176" fill-rule="evenodd" xlink:href="#path-6"></use>
                                    </g>
                                </g>
                                <text id="Travel" font-family="SFProText-Medium, SF Pro Text" font-size="14" font-weight="400" line-spacing="10" letter-spacing="-0.224" fill="#FFFFFF">
                                    <tspan x="51" y="23">Travel</tspan>
                                </text>
                                <g id="Off" fill="#FFFFFF" fill-opacity="1">
                                    <use filter="url(#filter-9)" xlink:href="#text-8"></use>
                                    <use xlink:href="#text-8"></use>
                                </g>
                            </g>
                        </g>
                        <g id="Copy" transform="translate(34.000000, 133.000000)">
                            <text id="Turn-On-Travel-Mode" font-family="SFProText-Bold, SF Pro Text" font-size="24" font-weight="bold" line-spacing="30" letter-spacing="-0.192" fill="#172633">
                                <tspan x="31.699" y="23">Turn On Travel Mode</tspan>
                            </text>
                            <text id="With-Travel-Mode,-yo" font-family="SFProText-Regular, SF Pro Text" font-size="16" font-weight="normal" line-spacing="24" letter-spacing="-0.1828571" fill="#454F57">
                                <tspan x="31.7835038" y="63">With Travel Mode, you can check </tspan>
                                <tspan x="9.21879385" y="87">exchange rates and buy currency, keep </tspan>
                                <tspan x="14.2438161" y="111">your insurance details close and track </tspan>
                                <tspan x="76.193437" y="135">your travel spending.</tspan>
                            </text>
                        </g>
                        <g id="illo" transform="translate(147.000000, 28.000000)">
                            <circle id="Oval" fill="#00C382" opacity="0.100000001" cx="40.5" cy="40.5" r="40.5"></circle>
                            <g id="Oval-Copy" opacity="0.900000036">
                                <use fill="black" fill-opacity="1" filter="url(#filter-11)" xlink:href="#path-10"></use>
                                <use fill="#13C998" fill-rule="evenodd" xlink:href="#path-10"></use>
                            </g>
                            <path d="M46.7692992,52.381818 L48.3365843,50.8145494 C48.4144333,50.7367012 48.445344,50.6267978 48.4201575,50.5203288 L45.5821008,38.2168696 C45.488224,37.8093111 45.6095769,37.3834353 45.9049455,37.0880699 L50.6812152,32.3118503 C51.5192376,31.4738367 51.8226201,29.8172716 50.9857425,28.979258 C50.1465753,28.1412444 48.4899927,28.4434788 47.6519703,29.2826372 L42.8768454,34.0588568 C42.580332,34.3530774 42.153307,34.475574 41.746889,34.3816981 L29.4433005,31.5425264 C29.3368305,31.518485 29.2257811,31.5505402 29.1490768,31.6272436 L27.5817918,33.1945122 C27.4192246,33.3570777 27.4604388,33.6318362 27.665365,33.7383052 L37.0232818,38.6404557 C37.4365689,38.8579729 37.521287,39.4132142 37.1915732,39.7429244 L32.5549739,44.3783303 C32.3958412,44.5374613 32.1714527,44.6130199 31.948209,44.5809647 L29.0013926,44.6313371 C28.9075157,44.6084405 28.8170734,44.6290474 28.7586866,44.6874336 L27.7409244,45.7051851 L31.1296489,47.7601502 C31.5681224,48.0268949 31.9367606,48.3955293 32.2035082,48.8339982 L34.2584948,52.222687 L35.276257,51.2060804 C35.3357887,51.1465494 35.3552509,51.056108 35.3323541,50.9622322 L35.3827271,48.0154466 C35.3506716,47.7922053 35.426231,47.5678192 35.5853636,47.4075433 L40.2208181,42.7721375 C40.5505319,42.4424273 41.1069238,42.5271445 41.3232984,42.9404271 L46.2243557,52.2982456 C46.3319706,52.5020249 46.6055872,52.5455283 46.7692992,52.381818" id="icn-airplane" fill="#FFFFFF"></path>
                        </g>
                    </g>
                </g>
            </g>
        </g>
    </g>
</svg>